<?xml version="1.0"?>
<VTKFile type="PolyData" version="0.1" byte_order="LittleEndian" compressor="vtkZLibDataCompressor">
<PolyData>
<Piece NumberOfPoints="56" NumberOfVerts="0" NumberOfLines="1" NumberOfStrips="0" NumberOfPolys="0">
<Points>
<DataArray type="Float32" NumberOfComponents="3" format="ascii">
1.119640e-01 -9.937120e-01 0.000000e+00
-1.836970e-16 -1.000000e+00 0.000000e+00
3.739120e-02 -9.993010e-01 0.000000e+00
7.473010e-02 -9.972040e-01 0.000000e+00
9.749280e-01 -2.225210e-01 0.000000e+00
9.438830e-01 -3.302790e-01 0.000000e+00
9.555730e-01 -2.947550e-01 0.000000e+00
9.659260e-01 -2.588190e-01 0.000000e+00
5.320320e-01 -8.467240e-01 0.000000e+00
4.338840e-01 -9.009690e-01 0.000000e+00
4.672690e-01 -8.841150e-01 0.000000e+00
5.000000e-01 -8.660250e-01 0.000000e+00
3.302790e-01 -9.438830e-01 0.000000e+00
4.338840e-01 -9.009690e-01 0.000000e+00
3.653410e-01 -9.308740e-01 0.000000e+00
3.998920e-01 -9.165620e-01 0.000000e+00
6.234900e-01 -7.818310e-01 0.000000e+00
7.071070e-01 -7.071070e-01 0.000000e+00
6.522870e-01 -7.579720e-01 0.000000e+00
6.801730e-01 -7.330520e-01 0.000000e+00
6.234900e-01 -7.818310e-01 0.000000e+00
5.320320e-01 -8.467240e-01 0.000000e+00
5.633200e-01 -8.262390e-01 0.000000e+00
5.938200e-01 -8.045980e-01 0.000000e+00
2.225210e-01 -9.749280e-01 0.000000e+00
3.302790e-01 -9.438830e-01 0.000000e+00
2.588190e-01 -9.659260e-01 0.000000e+00
2.947550e-01 -9.555730e-01 0.000000e+00
9.009690e-01 -4.338840e-01 0.000000e+00
9.438830e-01 -3.302790e-01 0.000000e+00
9.165620e-01 -3.998920e-01 0.000000e+00
9.308740e-01 -3.653410e-01 0.000000e+00
9.937120e-01 -1.119640e-01 0.000000e+00
9.749280e-01 -2.225210e-01 0.000000e+00
9.825660e-01 -1.859120e-01 0.000000e+00
9.888310e-01 -1.490420e-01 0.000000e+00
7.818310e-01 -6.234900e-01 0.000000e+00
8.467240e-01 -5.320320e-01 0.000000e+00
8.045980e-01 -5.938200e-01 0.000000e+00
8.262390e-01 -5.633200e-01 0.000000e+00
9.937120e-01 -1.119640e-01 0.000000e+00
1.000000e+00 -1.133110e-15 0.000000e+00
9.972040e-01 -7.473010e-02 0.000000e+00
9.993010e-01 -3.739120e-02 0.000000e+00
1.119640e-01 -9.937120e-01 0.000000e+00
2.225210e-01 -9.749280e-01 0.000000e+00
1.490420e-01 -9.888310e-01 0.000000e+00
1.859120e-01 -9.825660e-01 0.000000e+00
7.071070e-01 -7.071070e-01 0.000000e+00
7.818310e-01 -6.234900e-01 0.000000e+00
7.330520e-01 -6.801730e-01 0.000000e+00
7.579720e-01 -6.522870e-01 0.000000e+00
8.467240e-01 -5.320320e-01 0.000000e+00
9.009690e-01 -4.338840e-01 0.000000e+00
8.660250e-01 -5.000000e-01 0.000000e+00
8.841150e-01 -4.672690e-01 0.000000e+00
</DataArray>
</Points>
<PointData>
<DataArray type="Float32" Name="V1" format="ascii">
4.824590e+00
4.712390e+00
4.749790e+00
4.787190e+00
6.058790e+00
5.946590e+00
5.983990e+00
6.021390e+00
5.273390e+00
5.161190e+00
5.198590e+00
5.235990e+00
5.048990e+00
5.161190e+00
5.086390e+00
5.123790e+00
5.385590e+00
5.497790e+00
5.422990e+00
5.460390e+00
5.385590e+00
5.273390e+00
5.310790e+00
5.348190e+00
4.936790e+00
5.048990e+00
4.974190e+00
5.011590e+00
5.834390e+00
5.946590e+00
5.871790e+00
5.909190e+00
6.170990e+00
6.058790e+00
6.096190e+00
6.133590e+00
5.609990e+00
5.722190e+00
5.647390e+00
5.684790e+00
6.170990e+00
6.283190e+00
6.208390e+00
6.245790e+00
4.824590e+00
4.936790e+00
4.861990e+00
4.899390e+00
5.497790e+00
5.609990e+00
5.535190e+00
5.572590e+00
5.722190e+00
5.834390e+00
5.759590e+00
5.796990e+00
</DataArray>
</PointData>
<Verts>
</Verts>
<Lines>
<DataArray type="Int32" Name="connectivity" format="ascii">
0 1 2 3 4 5 6 7 8 9 10 11 12 13 14 15 16 17 18 19 20 21 22 23 24 25 26 27 28 29 30 31 32 33 34 35 36 37 38 39 40 41 42 43 44 45 46 47 48 49 50 51 52 53 54 55 </DataArray>
<DataArray type="Int32" Name="offsets" format="ascii">
56 </DataArray>
</Lines>
<Strips>
</Strips>
<Polys>
</Polys>
</Piece></PolyData>
</VTKFile>
