<?xml version="1.0"?>
<VTKFile type="PolyData" version="0.1" byte_order="LittleEndian" compressor="vtkZLibDataCompressor">
<PolyData>
<Piece NumberOfPoints="64" NumberOfVerts="0" NumberOfLines="1" NumberOfStrips="0" NumberOfPolys="0">
<Points>
<DataArray type="Float32" NumberOfComponents="3" format="ascii">
2.902850e-01 9.569400e-01 0.000000e+00
1.950900e-01 9.807850e-01 0.000000e+00
2.588190e-01 9.659260e-01 0.000000e+00
2.270760e-01 9.738770e-01 0.000000e+00
2.902850e-01 9.569400e-01 0.000000e+00
3.826830e-01 9.238800e-01 0.000000e+00
3.522500e-01 9.359060e-01 0.000000e+00
3.214390e-01 9.469300e-01 0.000000e+00
6.343930e-01 7.730100e-01 0.000000e+00
5.555700e-01 8.314700e-01 0.000000e+00
6.087610e-01 7.933530e-01 0.000000e+00
5.824780e-01 8.128470e-01 0.000000e+00
4.713970e-01 8.819210e-01 0.000000e+00
3.826830e-01 9.238800e-01 0.000000e+00
4.422890e-01 8.968730e-01 0.000000e+00
4.127070e-01 9.108640e-01 0.000000e+00
5.555700e-01 8.314700e-01 0.000000e+00
4.713970e-01 8.819210e-01 0.000000e+00
5.280680e-01 8.492020e-01 0.000000e+00
5.000000e-01 8.660250e-01 0.000000e+00
8.314700e-01 5.555700e-01 0.000000e+00
8.819210e-01 4.713970e-01 0.000000e+00
8.660250e-01 5.000000e-01 0.000000e+00
8.492020e-01 5.280680e-01 0.000000e+00
7.730100e-01 6.343930e-01 0.000000e+00
7.071070e-01 7.071070e-01 0.000000e+00
7.518400e-01 6.593460e-01 0.000000e+00
7.298640e-01 6.835920e-01 0.000000e+00
8.314700e-01 5.555700e-01 0.000000e+00
7.730100e-01 6.343930e-01 0.000000e+00
8.128470e-01 5.824780e-01 0.000000e+00
7.933530e-01 6.087610e-01 0.000000e+00
9.238800e-01 3.826830e-01 0.000000e+00
8.819210e-01 4.713970e-01 0.000000e+00
9.108640e-01 4.127070e-01 0.000000e+00
8.968730e-01 4.422890e-01 0.000000e+00
1.000000e+00 -2.449290e-16 0.000000e+00
9.951850e-01 9.801710e-02 0.000000e+00
9.994650e-01 3.271910e-02 0.000000e+00
9.978590e-01 6.540310e-02 0.000000e+00
9.807850e-01 1.950900e-01 0.000000e+00
9.951850e-01 9.801710e-02 0.000000e+00
9.914450e-01 1.305260e-01 0.000000e+00
9.866430e-01 1.628950e-01 0.000000e+00
1.950900e-01 9.807850e-01 0.000000e+00
9.801710e-02 9.951850e-01 0.000000e+00
1.628950e-01 9.866430e-01 0.000000e+00
1.305260e-01 9.914450e-01 0.000000e+00
6.123230e-17 1.000000e+00 0.000000e+00
9.801710e-02 9.951850e-01 0.000000e+00
6.540310e-02 9.978590e-01 0.000000e+00
3.271910e-02 9.994650e-01 0.000000e+00
7.071070e-01 7.071070e-01 0.000000e+00
6.343930e-01 7.730100e-01 0.000000e+00
6.835920e-01 7.298640e-01 0.000000e+00
6.593460e-01 7.518400e-01 0.000000e+00
9.238800e-01 3.826830e-01 0.000000e+00
9.569400e-01 2.902850e-01 0.000000e+00
9.469300e-01 3.214390e-01 0.000000e+00
9.359060e-01 3.522500e-01 0.000000e+00
9.569400e-01 2.902850e-01 0.000000e+00
9.807850e-01 1.950900e-01 0.000000e+00
9.738770e-01 2.270760e-01 0.000000e+00
9.659260e-01 2.588190e-01 0.000000e+00
</DataArray>
</Points>
<PointData>
<DataArray type="Float32" Name="V1" format="ascii">
1.276270e+00
1.374450e+00
1.309000e+00
1.341720e+00
1.276270e+00
1.178100e+00
1.210820e+00
1.243550e+00
8.835730e-01
9.817480e-01
9.162980e-01
9.490230e-01
1.079920e+00
1.178100e+00
1.112650e+00
1.145370e+00
9.817480e-01
1.079920e+00
1.014470e+00
1.047200e+00
5.890490e-01
4.908740e-01
5.235990e-01
5.563240e-01
6.872230e-01
7.853980e-01
7.199480e-01
7.526730e-01
5.890490e-01
6.872230e-01
6.217740e-01
6.544980e-01
3.926990e-01
4.908740e-01
4.254240e-01
4.581490e-01
0.000000e+00
9.817480e-02
3.272490e-02
6.544980e-02
1.963500e-01
9.817480e-02
1.309000e-01
1.636250e-01
1.374450e+00
1.472620e+00
1.407170e+00
1.439900e+00
1.570800e+00
1.472620e+00
1.505350e+00
1.538070e+00
7.853980e-01
8.835730e-01
8.181230e-01
8.508480e-01
3.926990e-01
2.945240e-01
3.272490e-01
3.599740e-01
2.945240e-01
1.963500e-01
2.290740e-01
2.617990e-01
</DataArray>
</PointData>
<Verts>
</Verts>
<Lines>
<DataArray type="Int32" Name="connectivity" format="ascii">
0 1 2 3 4 5 6 7 8 9 10 11 12 13 14 15 16 17 18 19 20 21 22 23 24 25 26 27 28 29 30 31 32 33 34 35 36 37 38 39 40 41 42 43 44 45 46 47 48 49 50 51 52 53 54 55 56 57 58 59 60 61 62 63 </DataArray>
<DataArray type="Int32" Name="offsets" format="ascii">
64 </DataArray>
</Lines>
<Strips>
</Strips>
<Polys>
</Polys>
</Piece></PolyData>
</VTKFile>
