<?xml version="1.0"?>
<VTKFile type="PolyData" version="0.1" byte_order="LittleEndian" compressor="vtkZLibDataCompressor">
<PolyData>
<Piece NumberOfPoints="256" NumberOfVerts="0" NumberOfLines="1" NumberOfStrips="0" NumberOfPolys="0">
<Points>
<DataArray type="Float32" NumberOfComponents="3" format="ascii">
-1.250000e-01 0.000000e+00 0.000000e+00
-9.375000e-02 0.000000e+00 0.000000e+00
-1.145830e-01 1.904550e-18 0.000000e+00
-1.041670e-01 3.809110e-18 0.000000e+00
-4.375000e-01 0.000000e+00 0.000000e+00
-4.062500e-01 0.000000e+00 0.000000e+00
-4.270830e-01 0.000000e+00 0.000000e+00
-4.166670e-01 0.000000e+00 0.000000e+00
-5.000000e-01 0.000000e+00 0.000000e+00
-4.687500e-01 0.000000e+00 0.000000e+00
-4.895830e-01 0.000000e+00 0.000000e+00
-4.791670e-01 0.000000e+00 0.000000e+00
-4.062500e-01 0.000000e+00 0.000000e+00
-3.750000e-01 0.000000e+00 0.000000e+00
-3.958330e-01 1.939800e-18 0.000000e+00
-3.854170e-01 3.879600e-18 0.000000e+00
-3.750000e-01 0.000000e+00 0.000000e+00
-3.437500e-01 0.000000e+00 0.000000e+00
-3.645830e-01 0.000000e+00 0.000000e+00
-3.541670e-01 0.000000e+00 0.000000e+00
-4.687500e-01 0.000000e+00 0.000000e+00
-4.375000e-01 0.000000e+00 0.000000e+00
-4.583330e-01 1.661970e-18 0.000000e+00
-4.479170e-01 3.323950e-18 0.000000e+00
-4.062500e-01 0.000000e+00 0.000000e+00
-3.750000e-01 0.000000e+00 0.000000e+00
-3.854170e-01 3.879600e-18 0.000000e+00
-3.958330e-01 1.939800e-18 0.000000e+00
-4.687500e-01 0.000000e+00 0.000000e+00
-4.375000e-01 0.000000e+00 0.000000e+00
-4.479170e-01 3.323950e-18 0.000000e+00
-4.583330e-01 1.661970e-18 0.000000e+00
-4.375000e-01 0.000000e+00 0.000000e+00
-4.062500e-01 0.000000e+00 0.000000e+00
-4.166670e-01 0.000000e+00 0.000000e+00
-4.270830e-01 0.000000e+00 0.000000e+00
-3.437500e-01 0.000000e+00 0.000000e+00
-3.750000e-01 0.000000e+00 0.000000e+00
-3.541670e-01 0.000000e+00 0.000000e+00
-3.645830e-01 0.000000e+00 0.000000e+00
-2.812500e-01 0.000000e+00 0.000000e+00
-3.125000e-01 0.000000e+00 0.000000e+00
-3.020830e-01 0.000000e+00 0.000000e+00
-2.916670e-01 0.000000e+00 0.000000e+00
-3.125000e-01 0.000000e+00 0.000000e+00
-3.437500e-01 0.000000e+00 0.000000e+00
-3.229170e-01 0.000000e+00 0.000000e+00
-3.333330e-01 0.000000e+00 0.000000e+00
-3.437500e-01 0.000000e+00 0.000000e+00
-3.125000e-01 0.000000e+00 0.000000e+00
-3.333330e-01 0.000000e+00 0.000000e+00
-3.229170e-01 0.000000e+00 0.000000e+00
-3.125000e-01 0.000000e+00 0.000000e+00
-2.812500e-01 0.000000e+00 0.000000e+00
-2.916670e-01 0.000000e+00 0.000000e+00
-3.020830e-01 0.000000e+00 0.000000e+00
-2.500000e-01 0.000000e+00 0.000000e+00
-2.812500e-01 0.000000e+00 0.000000e+00
-2.604170e-01 0.000000e+00 0.000000e+00
-2.708330e-01 0.000000e+00 0.000000e+00
-2.812500e-01 0.000000e+00 0.000000e+00
-2.500000e-01 0.000000e+00 0.000000e+00
-2.708330e-01 0.000000e+00 0.000000e+00
-2.604170e-01 0.000000e+00 0.000000e+00
-4.687500e-01 0.000000e+00 0.000000e+00
-5.000000e-01 0.000000e+00 0.000000e+00
-4.791670e-01 0.000000e+00 0.000000e+00
-4.895830e-01 0.000000e+00 0.000000e+00
-2.500000e-01 0.000000e+00 0.000000e+00
-2.187500e-01 0.000000e+00 0.000000e+00
-2.291670e-01 0.000000e+00 0.000000e+00
-2.395830e-01 0.000000e+00 0.000000e+00
-1.250000e-01 0.000000e+00 0.000000e+00
-1.562500e-01 0.000000e+00 0.000000e+00
-1.354170e-01 -2.151410e-18 0.000000e+00
-1.458330e-01 -4.302820e-18 0.000000e+00
-2.500000e-01 0.000000e+00 0.000000e+00
-2.187500e-01 0.000000e+00 0.000000e+00
-2.395830e-01 0.000000e+00 0.000000e+00
-2.291670e-01 0.000000e+00 0.000000e+00
-1.875000e-01 0.000000e+00 0.000000e+00
-2.187500e-01 0.000000e+00 0.000000e+00
-1.979170e-01 -1.666130e-18 0.000000e+00
-2.083330e-01 -3.332270e-18 0.000000e+00
-1.562500e-01 0.000000e+00 0.000000e+00
-1.875000e-01 0.000000e+00 0.000000e+00
-1.770830e-01 0.000000e+00 0.000000e+00
-1.666670e-01 0.000000e+00 0.000000e+00
-1.562500e-01 0.000000e+00 0.000000e+00
-1.250000e-01 0.000000e+00 0.000000e+00
-1.458330e-01 -4.302820e-18 0.000000e+00
-1.354170e-01 -2.151410e-18 0.000000e+00
-9.375000e-02 0.000000e+00 0.000000e+00
-1.250000e-01 0.000000e+00 0.000000e+00
-1.041670e-01 3.809110e-18 0.000000e+00
-1.145830e-01 1.904550e-18 0.000000e+00
-1.875000e-01 0.000000e+00 0.000000e+00
-1.562500e-01 0.000000e+00 0.000000e+00
-1.666670e-01 0.000000e+00 0.000000e+00
-1.770830e-01 0.000000e+00 0.000000e+00
-6.250000e-02 0.000000e+00 0.000000e+00
-9.375000e-02 0.000000e+00 0.000000e+00
-7.291670e-02 -2.320310e-18 0.000000e+00
-8.333330e-02 -4.640610e-18 0.000000e+00
-9.375000e-02 0.000000e+00 0.000000e+00
-6.250000e-02 0.000000e+00 0.000000e+00
-8.333330e-02 -4.640610e-18 0.000000e+00
-7.291670e-02 -2.320310e-18 0.000000e+00
0.000000e+00 0.000000e+00 0.000000e+00
3.125000e-02 0.000000e+00 0.000000e+00
1.041670e-02 1.904550e-18 0.000000e+00
2.083330e-02 3.809110e-18 0.000000e+00
-2.187500e-01 0.000000e+00 0.000000e+00
-1.875000e-01 0.000000e+00 0.000000e+00
-2.083330e-01 -3.332270e-18 0.000000e+00
-1.979170e-01 -1.666130e-18 0.000000e+00
9.375000e-02 0.000000e+00 0.000000e+00
1.250000e-01 0.000000e+00 0.000000e+00
1.145830e-01 0.000000e+00 0.000000e+00
1.041670e-01 0.000000e+00 0.000000e+00
0.000000e+00 0.000000e+00 0.000000e+00
-3.125000e-02 0.000000e+00 0.000000e+00
-1.041670e-02 -1.508630e-18 0.000000e+00
-2.083330e-02 -3.017260e-18 0.000000e+00
-6.250000e-02 0.000000e+00 0.000000e+00
-3.125000e-02 0.000000e+00 0.000000e+00
-4.166670e-02 0.000000e+00 0.000000e+00
-5.208330e-02 0.000000e+00 0.000000e+00
3.125000e-02 0.000000e+00 0.000000e+00
0.000000e+00 0.000000e+00 0.000000e+00
2.083330e-02 3.809110e-18 0.000000e+00
1.041670e-02 1.904550e-18 0.000000e+00
6.250000e-02 0.000000e+00 0.000000e+00
3.125000e-02 0.000000e+00 0.000000e+00
4.166670e-02 0.000000e+00 0.000000e+00
5.208330e-02 0.000000e+00 0.000000e+00
0.000000e+00 0.000000e+00 0.000000e+00
-3.125000e-02 0.000000e+00 0.000000e+00
-2.083330e-02 -3.017260e-18 0.000000e+00
-1.041670e-02 -1.508630e-18 0.000000e+00
2.187500e-01 0.000000e+00 0.000000e+00
1.875000e-01 0.000000e+00 0.000000e+00
1.979170e-01 0.000000e+00 0.000000e+00
2.083330e-01 0.000000e+00 0.000000e+00
1.250000e-01 0.000000e+00 0.000000e+00
9.375000e-02 0.000000e+00 0.000000e+00
1.041670e-01 0.000000e+00 0.000000e+00
1.145830e-01 0.000000e+00 0.000000e+00
6.250000e-02 0.000000e+00 0.000000e+00
9.375000e-02 0.000000e+00 0.000000e+00
7.291670e-02 0.000000e+00 0.000000e+00
8.333330e-02 0.000000e+00 0.000000e+00
9.375000e-02 0.000000e+00 0.000000e+00
6.250000e-02 0.000000e+00 0.000000e+00
8.333330e-02 0.000000e+00 0.000000e+00
7.291670e-02 0.000000e+00 0.000000e+00
3.125000e-02 0.000000e+00 0.000000e+00
6.250000e-02 0.000000e+00 0.000000e+00
5.208330e-02 0.000000e+00 0.000000e+00
4.166670e-02 0.000000e+00 0.000000e+00
2.187500e-01 0.000000e+00 0.000000e+00
1.875000e-01 0.000000e+00 0.000000e+00
2.083330e-01 0.000000e+00 0.000000e+00
1.979170e-01 0.000000e+00 0.000000e+00
2.500000e-01 0.000000e+00 0.000000e+00
2.187500e-01 0.000000e+00 0.000000e+00
2.395830e-01 0.000000e+00 0.000000e+00
2.291670e-01 0.000000e+00 0.000000e+00
1.562500e-01 0.000000e+00 0.000000e+00
1.875000e-01 0.000000e+00 0.000000e+00
1.770830e-01 0.000000e+00 0.000000e+00
1.666670e-01 0.000000e+00 0.000000e+00
2.187500e-01 0.000000e+00 0.000000e+00
2.500000e-01 0.000000e+00 0.000000e+00
2.291670e-01 0.000000e+00 0.000000e+00
2.395830e-01 0.000000e+00 0.000000e+00
1.875000e-01 0.000000e+00 0.000000e+00
1.562500e-01 0.000000e+00 0.000000e+00
1.666670e-01 0.000000e+00 0.000000e+00
1.770830e-01 0.000000e+00 0.000000e+00
3.125000e-01 0.000000e+00 0.000000e+00
3.437500e-01 0.000000e+00 0.000000e+00
3.229170e-01 1.904550e-18 0.000000e+00
3.333330e-01 3.809110e-18 0.000000e+00
-3.125000e-02 0.000000e+00 0.000000e+00
-6.250000e-02 0.000000e+00 0.000000e+00
-5.208330e-02 0.000000e+00 0.000000e+00
-4.166670e-02 0.000000e+00 0.000000e+00
1.250000e-01 0.000000e+00 0.000000e+00
1.562500e-01 0.000000e+00 0.000000e+00
1.354170e-01 0.000000e+00 0.000000e+00
1.458330e-01 0.000000e+00 0.000000e+00
1.250000e-01 0.000000e+00 0.000000e+00
1.562500e-01 0.000000e+00 0.000000e+00
1.458330e-01 0.000000e+00 0.000000e+00
1.354170e-01 0.000000e+00 0.000000e+00
4.062500e-01 0.000000e+00 0.000000e+00
4.375000e-01 0.000000e+00 0.000000e+00
4.270830e-01 0.000000e+00 0.000000e+00
4.166670e-01 0.000000e+00 0.000000e+00
3.125000e-01 0.000000e+00 0.000000e+00
3.437500e-01 0.000000e+00 0.000000e+00
3.333330e-01 3.809110e-18 0.000000e+00
3.229170e-01 1.904550e-18 0.000000e+00
3.750000e-01 0.000000e+00 0.000000e+00
3.437500e-01 0.000000e+00 0.000000e+00
3.645830e-01 0.000000e+00 0.000000e+00
3.541670e-01 0.000000e+00 0.000000e+00
3.437500e-01 0.000000e+00 0.000000e+00
3.750000e-01 0.000000e+00 0.000000e+00
3.541670e-01 0.000000e+00 0.000000e+00
3.645830e-01 0.000000e+00 0.000000e+00
4.375000e-01 0.000000e+00 0.000000e+00
4.062500e-01 0.000000e+00 0.000000e+00
4.166670e-01 0.000000e+00 0.000000e+00
4.270830e-01 0.000000e+00 0.000000e+00
2.500000e-01 0.000000e+00 0.000000e+00
2.812500e-01 0.000000e+00 0.000000e+00
2.708330e-01 0.000000e+00 0.000000e+00
2.604170e-01 0.000000e+00 0.000000e+00
3.125000e-01 0.000000e+00 0.000000e+00
2.812500e-01 0.000000e+00 0.000000e+00
3.020830e-01 0.000000e+00 0.000000e+00
2.916670e-01 0.000000e+00 0.000000e+00
3.125000e-01 0.000000e+00 0.000000e+00
2.812500e-01 0.000000e+00 0.000000e+00
2.916670e-01 0.000000e+00 0.000000e+00
3.020830e-01 0.000000e+00 0.000000e+00
2.812500e-01 0.000000e+00 0.000000e+00
2.500000e-01 0.000000e+00 0.000000e+00
2.604170e-01 0.000000e+00 0.000000e+00
2.708330e-01 0.000000e+00 0.000000e+00
4.062500e-01 0.000000e+00 0.000000e+00
3.750000e-01 0.000000e+00 0.000000e+00
3.854170e-01 0.000000e+00 0.000000e+00
3.958330e-01 0.000000e+00 0.000000e+00
3.750000e-01 0.000000e+00 0.000000e+00
4.062500e-01 0.000000e+00 0.000000e+00
3.958330e-01 0.000000e+00 0.000000e+00
3.854170e-01 0.000000e+00 0.000000e+00
4.687500e-01 0.000000e+00 0.000000e+00
5.000000e-01 0.000000e+00 0.000000e+00
4.791670e-01 0.000000e+00 0.000000e+00
4.895830e-01 0.000000e+00 0.000000e+00
4.375000e-01 0.000000e+00 0.000000e+00
4.687500e-01 0.000000e+00 0.000000e+00
4.479170e-01 0.000000e+00 0.000000e+00
4.583330e-01 0.000000e+00 0.000000e+00
4.375000e-01 0.000000e+00 0.000000e+00
4.687500e-01 0.000000e+00 0.000000e+00
4.583330e-01 0.000000e+00 0.000000e+00
4.479170e-01 0.000000e+00 0.000000e+00
4.687500e-01 0.000000e+00 0.000000e+00
5.000000e-01 0.000000e+00 0.000000e+00
4.895830e-01 0.000000e+00 0.000000e+00
4.791670e-01 0.000000e+00 0.000000e+00
</DataArray>
</Points>
<PointData>
<DataArray type="Float32" Name="V1" format="ascii">
3.750000e-01
4.062500e-01
3.854170e-01
3.958330e-01
6.250000e-02
9.375000e-02
7.291670e-02
8.333330e-02
0.000000e+00
3.125000e-02
1.041670e-02
2.083330e-02
9.375000e-02
1.250000e-01
1.041670e-01
1.145830e-01
1.250000e-01
1.562500e-01
1.354170e-01
1.458330e-01
3.125000e-02
6.250000e-02
4.166670e-02
5.208330e-02
9.375000e-02
1.250000e-01
1.145830e-01
1.041670e-01
3.125000e-02
6.250000e-02
5.208330e-02
4.166670e-02
6.250000e-02
9.375000e-02
8.333330e-02
7.291670e-02
1.562500e-01
1.250000e-01
1.458330e-01
1.354170e-01
2.187500e-01
1.875000e-01
1.979170e-01
2.083330e-01
1.875000e-01
1.562500e-01
1.770830e-01
1.666670e-01
1.562500e-01
1.875000e-01
1.666670e-01
1.770830e-01
1.875000e-01
2.187500e-01
2.083330e-01
1.979170e-01
2.500000e-01
2.187500e-01
2.395830e-01
2.291670e-01
2.187500e-01
2.500000e-01
2.291670e-01
2.395830e-01
3.125000e-02
0.000000e+00
2.083330e-02
1.041670e-02
2.500000e-01
2.812500e-01
2.708330e-01
2.604170e-01
3.750000e-01
3.437500e-01
3.645830e-01
3.541670e-01
2.500000e-01
2.812500e-01
2.604170e-01
2.708330e-01
3.125000e-01
2.812500e-01
3.020830e-01
2.916670e-01
3.437500e-01
3.125000e-01
3.229170e-01
3.333330e-01
3.437500e-01
3.750000e-01
3.541670e-01
3.645830e-01
4.062500e-01
3.750000e-01
3.958330e-01
3.854170e-01
3.125000e-01
3.437500e-01
3.333330e-01
3.229170e-01
4.375000e-01
4.062500e-01
4.270830e-01
4.166670e-01
4.062500e-01
4.375000e-01
4.166670e-01
4.270830e-01
5.000000e-01
5.312500e-01
5.104170e-01
5.208330e-01
2.812500e-01
3.125000e-01
2.916670e-01
3.020830e-01
5.937500e-01
6.250000e-01
6.145830e-01
6.041670e-01
5.000000e-01
4.687500e-01
4.895830e-01
4.791670e-01
4.375000e-01
4.687500e-01
4.583330e-01
4.479170e-01
5.312500e-01
5.000000e-01
5.208330e-01
5.104170e-01
5.625000e-01
5.312500e-01
5.416670e-01
5.520830e-01
5.000000e-01
4.687500e-01
4.791670e-01
4.895830e-01
7.187500e-01
6.875000e-01
6.979170e-01
7.083330e-01
6.250000e-01
5.937500e-01
6.041670e-01
6.145830e-01
5.625000e-01
5.937500e-01
5.729170e-01
5.833330e-01
5.937500e-01
5.625000e-01
5.833330e-01
5.729170e-01
5.312500e-01
5.625000e-01
5.520830e-01
5.416670e-01
7.187500e-01
6.875000e-01
7.083330e-01
6.979170e-01
7.500000e-01
7.187500e-01
7.395830e-01
7.291670e-01
6.562500e-01
6.875000e-01
6.770830e-01
6.666670e-01
7.187500e-01
7.500000e-01
7.291670e-01
7.395830e-01
6.875000e-01
6.562500e-01
6.666670e-01
6.770830e-01
8.125000e-01
8.437500e-01
8.229170e-01
8.333330e-01
4.687500e-01
4.375000e-01
4.479170e-01
4.583330e-01
6.250000e-01
6.562500e-01
6.354170e-01
6.458330e-01
6.250000e-01
6.562500e-01
6.458330e-01
6.354170e-01
9.062500e-01
9.375000e-01
9.270830e-01
9.166670e-01
8.125000e-01
8.437500e-01
8.333330e-01
8.229170e-01
8.750000e-01
8.437500e-01
8.645830e-01
8.541670e-01
8.437500e-01
8.750000e-01
8.541670e-01
8.645830e-01
9.375000e-01
9.062500e-01
9.166670e-01
9.270830e-01
7.500000e-01
7.812500e-01
7.708330e-01
7.604170e-01
8.125000e-01
7.812500e-01
8.020830e-01
7.916670e-01
8.125000e-01
7.812500e-01
7.916670e-01
8.020830e-01
7.812500e-01
7.500000e-01
7.604170e-01
7.708330e-01
9.062500e-01
8.750000e-01
8.854170e-01
8.958330e-01
8.750000e-01
9.062500e-01
8.958330e-01
8.854170e-01
9.687500e-01
1.000000e+00
9.791670e-01
9.895830e-01
9.375000e-01
9.687500e-01
9.479170e-01
9.583330e-01
9.375000e-01
9.687500e-01
9.583330e-01
9.479170e-01
9.687500e-01
1.000000e+00
9.895830e-01
9.791670e-01
</DataArray>
</PointData>
<Verts>
</Verts>
<Lines>
<DataArray type="Int32" Name="connectivity" format="ascii">
0 1 2 3 4 5 6 7 8 9 10 11 12 13 14 15 16 17 18 19 20 21 22 23 24 25 26 27 28 29 30 31 32 33 34 35 36 37 38 39 40 41 42 43 44 45 46 47 48 49 50 51 52 53 54 55 56 57 58 59 60 61 62 63 64 65 66 67 68 69 70 71 72 73 74 75 76 77 78 79 80 81 82 83 84 85 86 87 88 89 90 91 92 93 94 95 96 97 98 99 100 101 102 103 104 105 106 107 108 109 110 111 112 113 114 115 116 117 118 119 120 121 122 123 124 125 126 127 128 129 130 131 132 133 134 135 136 137 138 139 140 141 142 143 144 145 146 147 148 149 150 151 152 153 154 155 156 157 158 159 160 161 162 163 164 165 166 167 168 169 170 171 172 173 174 175 176 177 178 179 180 181 182 183 184 185 186 187 188 189 190 191 192 193 194 195 196 197 198 199 200 201 202 203 204 205 206 207 208 209 210 211 212 213 214 215 216 217 218 219 220 221 222 223 224 225 226 227 228 229 230 231 232 233 234 235 236 237 238 239 240 241 242 243 244 245 246 247 248 249 250 251 252 253 254 255 </DataArray>
<DataArray type="Int32" Name="offsets" format="ascii">
256 </DataArray>
</Lines>
<Strips>
</Strips>
<Polys>
</Polys>
</Piece></PolyData>
</VTKFile>
