<?xml version="1.0"?>
<VTKFile type="UnstructuredGrid" version="0.1" byte_order="LittleEndian" compressor="vtkZLibDataCompressor">
<UnstructuredGrid>
<Piece NumberOfPoints="200" NumberOfCells="147">
<Points>
<DataArray type="Float32" NumberOfComponents="3" format="ascii">
-2.013630e-10 3.013610e-10 0.000000e+00
2.000000e-02 2.566560e-10 0.000000e+00
4.000000e-02 1.733900e-10 0.000000e+00
6.000000e-02 9.012300e-11 0.000000e+00
8.000000e-02 -2.717960e-10 0.000000e+00
1.000000e-01 -4.975110e-11 0.000000e+00
1.200000e-01 9.278370e-10 0.000000e+00
1.400000e-01 5.947700e-10 0.000000e+00
1.600000e-01 2.617030e-10 0.000000e+00
1.800000e-01 0.000000e+00 0.000000e+00
2.000000e-01 5.551120e-17 0.000000e+00
2.200000e-01 1.506810e-10 0.000000e+00
2.400000e-01 1.506810e-10 0.000000e+00
2.600000e-01 5.551120e-17 0.000000e+00
2.800000e-01 -2.775560e-17 0.000000e+00
3.000000e-01 5.551120e-17 0.000000e+00
3.200000e-01 1.708660e-10 0.000000e+00
3.400000e-01 3.929110e-10 0.000000e+00
3.600000e-01 -1.405880e-10 0.000000e+00
3.800000e-01 -1.960990e-10 0.000000e+00
4.000000e-01 1.506810e-10 0.000000e+00
4.200000e-01 1.506810e-10 0.000000e+00
4.400000e-01 -4.332830e-10 0.000000e+00
4.600000e-01 -7.385940e-10 0.000000e+00
4.800000e-01 -1.043910e-09 0.000000e+00
5.000000e-01 -4.460750e-10 0.000000e+00
5.200000e-01 -1.422440e-09 0.000000e+00
5.400000e-01 -7.180980e-11 0.000000e+00
5.600000e-01 -3.958150e-10 0.000000e+00
5.800000e-01 -2.282900e-09 0.000000e+00
6.000000e-01 -5.620620e-09 0.000000e+00
6.200000e-01 -1.029570e-08 0.000000e+00
6.400000e-01 -6.858020e-17 0.000000e+00
6.600000e-01 -7.380280e-10 0.000000e+00
6.800000e-01 -2.685400e-09 0.000000e+00
7.000000e-01 -5.725820e-09 0.000000e+00
7.200000e-01 -9.752550e-09 0.000000e+00
7.400000e-01 -5.572460e-11 0.000000e+00
7.600000e-01 -9.486860e-10 0.000000e+00
7.800000e-01 -2.704110e-09 0.000000e+00
8.000000e-01 -5.224680e-09 0.000000e+00
8.200000e-01 -1.567550e-16 0.000000e+00
8.400000e-01 -1.174400e-10 0.000000e+00
8.600000e-01 -9.321480e-10 0.000000e+00
8.800000e-01 -2.312200e-09 0.000000e+00
9.000000e-01 -4.171650e-09 0.000000e+00
9.200000e-01 -2.057410e-16 0.000000e+00
9.400000e-01 -8.980280e-11 0.000000e+00
9.600000e-01 -6.787220e-10 0.000000e+00
9.800000e-01 -1.587660e-09 0.000000e+00
-2.013630e-10 3.013610e-10 0.000000e+00
-2.608980e-10 2.000000e-02 0.000000e+00
-1.748530e-10 4.000000e-02 0.000000e+00
-8.880660e-11 6.000000e-02 0.000000e+00
-2.760670e-12 8.000000e-02 0.000000e+00
8.328530e-11 1.000000e-01 0.000000e+00
1.693310e-10 1.200000e-01 0.000000e+00
-1.219680e-10 1.400000e-01 0.000000e+00
-5.938910e-11 1.600000e-01 0.000000e+00
3.189710e-12 1.800000e-01 0.000000e+00
1.311810e-10 2.000000e-01 0.000000e+00
6.860230e-11 2.200000e-01 0.000000e+00
6.023310e-12 2.400000e-01 0.000000e+00
-5.655570e-11 2.600000e-01 0.000000e+00
-1.191350e-10 2.800000e-01 0.000000e+00
-1.817140e-10 3.000000e-01 0.000000e+00
8.283470e-11 3.200000e-01 0.000000e+00
-1.103370e-11 3.400000e-01 0.000000e+00
2.703930e-10 3.600000e-01 0.000000e+00
1.452360e-10 3.800000e-01 0.000000e+00
2.007770e-11 4.000000e-01 0.000000e+00
-1.050800e-10 4.200000e-01 0.000000e+00
-2.302380e-10 4.400000e-01 0.000000e+00
-8.508540e-11 4.600000e-01 0.000000e+00
-3.520740e-11 4.800000e-01 0.000000e+00
1.467050e-11 5.000000e-01 0.000000e+00
6.454840e-11 5.200000e-01 0.000000e+00
1.144260e-10 5.400000e-01 0.000000e+00
-5.537370e-11 5.600000e-01 0.000000e+00
-5.537360e-11 5.800000e-01 0.000000e+00
-5.537360e-11 6.000000e-01 0.000000e+00
-5.537350e-11 6.200000e-01 0.000000e+00
7.041560e-11 6.400000e-01 0.000000e+00
4.547670e-11 6.600000e-01 0.000000e+00
2.053780e-11 6.800000e-01 0.000000e+00
-4.401090e-12 7.000000e-01 0.000000e+00
-2.934000e-11 7.200000e-01 0.000000e+00
-5.427880e-11 7.400000e-01 0.000000e+00
-7.921770e-11 7.600000e-01 0.000000e+00
-1.155210e-10 7.800000e-01 0.000000e+00
-1.903380e-10 8.000000e-01 0.000000e+00
-2.651540e-10 8.200000e-01 0.000000e+00
2.750610e-10 8.400000e-01 0.000000e+00
1.815410e-10 8.600000e-01 0.000000e+00
8.801960e-11 8.800000e-01 0.000000e+00
-5.501370e-12 9.000000e-01 0.000000e+00
-9.902230e-11 9.200000e-01 0.000000e+00
-1.925430e-10 9.400000e-01 0.000000e+00
-2.860640e-10 9.600000e-01 0.000000e+00
-3.795850e-10 9.800000e-01 0.000000e+00
-2.013630e-10 3.013610e-10 0.000000e+00
-2.000000e-02 -2.566560e-10 0.000000e+00
-4.000000e-02 -1.733890e-10 0.000000e+00
-6.000000e-02 -9.012270e-11 0.000000e+00
-8.000000e-02 1.506800e-10 0.000000e+00
-1.000000e-01 1.506810e-10 0.000000e+00
-1.200000e-01 -1.960980e-10 0.000000e+00
-1.400000e-01 -1.405870e-10 0.000000e+00
-1.600000e-01 -8.507620e-11 0.000000e+00
-1.800000e-01 1.506800e-10 0.000000e+00
-2.000000e-01 1.506800e-10 0.000000e+00
-2.200000e-01 -2.775560e-17 0.000000e+00
-2.400000e-01 -5.551120e-17 0.000000e+00
-2.600000e-01 1.506800e-10 0.000000e+00
-2.800000e-01 1.506810e-10 0.000000e+00
-3.000000e-01 5.551120e-17 0.000000e+00
-3.200000e-01 0.000000e+00 0.000000e+00
-3.400000e-01 -5.551120e-17 0.000000e+00
-3.600000e-01 1.304950e-10 0.000000e+00
-3.800000e-01 2.415170e-10 0.000000e+00
-4.000000e-01 -5.551120e-17 0.000000e+00
-4.200000e-01 5.551120e-17 0.000000e+00
-4.400000e-01 9.012290e-11 0.000000e+00
-4.600000e-01 1.733900e-10 0.000000e+00
-4.800000e-01 2.566560e-10 0.000000e+00
-5.000000e-01 2.285610e-17 0.000000e+00
-5.200000e-01 1.422460e-09 0.000000e+00
-5.400000e-01 7.181530e-11 0.000000e+00
-5.600000e-01 3.958050e-10 0.000000e+00
-5.800000e-01 2.282870e-09 0.000000e+00
-6.000000e-01 5.620590e-09 0.000000e+00
-6.200000e-01 1.029570e-08 0.000000e+00
-6.400000e-01 3.429010e-17 0.000000e+00
-6.600000e-01 7.380130e-10 0.000000e+00
-6.800000e-01 2.685370e-09 0.000000e+00
-7.000000e-01 5.725790e-09 0.000000e+00
-7.200000e-01 9.752510e-09 0.000000e+00
-7.400000e-01 5.572320e-11 0.000000e+00
-7.600000e-01 9.486760e-10 0.000000e+00
-7.800000e-01 2.704090e-09 0.000000e+00
-8.000000e-01 5.224650e-09 0.000000e+00
-8.200000e-01 7.837740e-17 0.000000e+00
-8.400000e-01 1.174380e-10 0.000000e+00
-8.600000e-01 9.321400e-10 0.000000e+00
-8.800000e-01 2.312190e-09 0.000000e+00
-9.000000e-01 4.171650e-09 0.000000e+00
-9.200000e-01 1.028700e-16 0.000000e+00
-9.400000e-01 8.980170e-11 0.000000e+00
-9.600000e-01 6.787190e-10 0.000000e+00
-9.800000e-01 1.587650e-09 0.000000e+00
-2.013630e-10 3.013610e-10 0.000000e+00
-3.386450e-15 -2.000000e-02 0.000000e+00
-2.274770e-15 -4.000000e-02 0.000000e+00
-1.162220e-15 -6.000000e-02 0.000000e+00
-4.966740e-17 -8.000000e-02 0.000000e+00
1.069820e-15 -1.000000e-01 0.000000e+00
2.158090e-15 -1.200000e-01 0.000000e+00
5.537080e-11 -1.400000e-01 0.000000e+00
5.537190e-11 -1.600000e-01 0.000000e+00
5.537300e-11 -1.800000e-01 0.000000e+00
-2.384510e-15 -2.000000e-01 0.000000e+00
-1.275430e-15 -2.200000e-01 0.000000e+00
-1.524720e-16 -2.400000e-01 0.000000e+00
9.704880e-16 -2.600000e-01 0.000000e+00
2.051810e-15 -2.800000e-01 0.000000e+00
3.188650e-15 -3.000000e-01 0.000000e+00
-7.480550e-11 -3.200000e-01 0.000000e+00
-4.351490e-11 -3.400000e-01 0.000000e+00
-2.463030e-15 -3.600000e-01 0.000000e+00
-1.367830e-15 -3.800000e-01 0.000000e+00
-2.726230e-16 -4.000000e-01 0.000000e+00
8.503360e-16 -4.200000e-01 0.000000e+00
2.001050e-15 -4.400000e-01 0.000000e+00
-1.701690e-10 -4.600000e-01 0.000000e+00
-7.041430e-11 -4.800000e-01 0.000000e+00
2.934050e-11 -5.000000e-01 0.000000e+00
1.290950e-10 -5.200000e-01 0.000000e+00
2.288500e-10 -5.400000e-01 0.000000e+00
1.375250e-10 -5.600000e-01 0.000000e+00
1.624640e-10 -5.800000e-01 0.000000e+00
1.874020e-10 -6.000000e-01 0.000000e+00
2.123400e-10 -6.200000e-01 0.000000e+00
-1.408290e-10 -6.400000e-01 0.000000e+00
-9.095200e-11 -6.600000e-01 0.000000e+00
-4.107500e-11 -6.800000e-01 0.000000e+00
8.801950e-12 -7.000000e-01 0.000000e+00
5.867890e-11 -7.200000e-01 0.000000e+00
1.085560e-10 -7.400000e-01 0.000000e+00
1.584330e-10 -7.600000e-01 0.000000e+00
2.475490e-10 -7.800000e-01 0.000000e+00
1.727310e-10 -8.000000e-01 0.000000e+00
9.791350e-11 -8.200000e-01 0.000000e+00
1.650390e-10 -8.400000e-01 0.000000e+00
1.089260e-10 -8.600000e-01 0.000000e+00
5.281240e-11 -8.800000e-01 0.000000e+00
-3.301050e-12 -9.000000e-01 0.000000e+00
-5.941460e-11 -9.200000e-01 0.000000e+00
-1.155280e-10 -9.400000e-01 0.000000e+00
-1.716420e-10 -9.600000e-01 0.000000e+00
-2.277550e-10 -9.800000e-01 0.000000e+00
</DataArray>
</Points>
<Cells>
<DataArray type="Int32" Name="connectivity" format="ascii">
0 1 51 50
1 2 52 51
2 3 53 52
3 4 54 53
4 5 55 54
5 6 56 55
6 7 57 56
7 8 58 57
8 9 59 58
9 10 60 59
10 11 61 60
11 12 62 61
12 13 63 62
13 14 64 63
14 15 65 64
15 16 66 65
16 17 67 66
17 18 68 67
18 19 69 68
19 20 70 69
20 21 71 70
21 22 72 71
22 23 73 72
23 24 74 73
24 25 75 74
25 26 76 75
26 27 77 76
27 28 78 77
28 29 79 78
29 30 80 79
30 31 81 80
31 32 82 81
32 33 83 82
33 34 84 83
34 35 85 84
35 36 86 85
36 37 87 86
37 38 88 87
38 39 89 88
39 40 90 89
40 41 91 90
41 42 92 91
42 43 93 92
43 44 94 93
44 45 95 94
45 46 96 95
46 47 97 96
47 48 98 97
48 49 99 98
50 51 101 100
51 52 102 101
52 53 103 102
53 54 104 103
54 55 105 104
55 56 106 105
56 57 107 106
57 58 108 107
58 59 109 108
59 60 110 109
60 61 111 110
61 62 112 111
62 63 113 112
63 64 114 113
64 65 115 114
65 66 116 115
66 67 117 116
67 68 118 117
68 69 119 118
69 70 120 119
70 71 121 120
71 72 122 121
72 73 123 122
73 74 124 123
74 75 125 124
75 76 126 125
76 77 127 126
77 78 128 127
78 79 129 128
79 80 130 129
80 81 131 130
81 82 132 131
82 83 133 132
83 84 134 133
84 85 135 134
85 86 136 135
86 87 137 136
87 88 138 137
88 89 139 138
89 90 140 139
90 91 141 140
91 92 142 141
92 93 143 142
93 94 144 143
94 95 145 144
95 96 146 145
96 97 147 146
97 98 148 147
98 99 149 148
100 101 151 150
101 102 152 151
102 103 153 152
103 104 154 153
104 105 155 154
105 106 156 155
106 107 157 156
107 108 158 157
108 109 159 158
109 110 160 159
110 111 161 160
111 112 162 161
112 113 163 162
113 114 164 163
114 115 165 164
115 116 166 165
116 117 167 166
117 118 168 167
118 119 169 168
119 120 170 169
120 121 171 170
121 122 172 171
122 123 173 172
123 124 174 173
124 125 175 174
125 126 176 175
126 127 177 176
127 128 178 177
128 129 179 178
129 130 180 179
130 131 181 180
131 132 182 181
132 133 183 182
133 134 184 183
134 135 185 184
135 136 186 185
136 137 187 186
137 138 188 187
138 139 189 188
139 140 190 189
140 141 191 190
141 142 192 191
142 143 193 192
143 144 194 193
144 145 195 194
145 146 196 195
146 147 197 196
147 148 198 197
148 149 199 198
</DataArray>
<DataArray type="Int32" Name="offsets" format="ascii">
4
8
12
16
20
24
28
32
36
40
44
48
52
56
60
64
68
72
76
80
84
88
92
96
100
104
108
112
116
120
124
128
132
136
140
144
148
152
156
160
164
168
172
176
180
184
188
192
196
200
204
208
212
216
220
224
228
232
236
240
244
248
252
256
260
264
268
272
276
280
284
288
292
296
300
304
308
312
316
320
324
328
332
336
340
344
348
352
356
360
364
368
372
376
380
384
388
392
396
400
404
408
412
416
420
424
428
432
436
440
444
448
452
456
460
464
468
472
476
480
484
488
492
496
500
504
508
512
516
520
524
528
532
536
540
544
548
552
556
560
564
568
572
576
580
584
588
</DataArray>
<DataArray type="UInt8" Name="types" format="ascii">
9
9
9
9
9
9
9
9
9
9
9
9
9
9
9
9
9
9
9
9
9
9
9
9
9
9
9
9
9
9
9
9
9
9
9
9
9
9
9
9
9
9
9
9
9
9
9
9
9
9
9
9
9
9
9
9
9
9
9
9
9
9
9
9
9
9
9
9
9
9
9
9
9
9
9
9
9
9
9
9
9
9
9
9
9
9
9
9
9
9
9
9
9
9
9
9
9
9
9
9
9
9
9
9
9
9
9
9
9
9
9
9
9
9
9
9
9
9
9
9
9
9
9
9
9
9
9
9
9
9
9
9
9
9
9
9
9
9
9
9
9
9
9
9
9
9
9
</DataArray>
</Cells>
<PointData>
<DataArray type="Float32" Name="V1" format="ascii">
-8.804530e-14
7.448360e-06
1.247690e-05
1.519340e-05
1.570520e-05
1.412010e-05
1.054560e-05
5.089370e-06
-2.140980e-06
-1.103790e-05
-2.149370e-05
-3.340080e-05
-4.665160e-05
-6.113850e-05
-7.675400e-05
-9.339020e-05
-1.109400e-04
-1.292950e-04
-1.483480e-04
-1.679920e-04
-1.881190e-04
-2.086210e-04
-2.293900e-04
-2.503190e-04
-2.713010e-04
-2.922280e-04
-3.155770e-04
-3.400590e-04
-3.657110e-04
-3.925730e-04
-4.206830e-04
-4.500810e-04
-4.808050e-04
-5.128930e-04
-5.463850e-04
-5.813190e-04
-6.177350e-04
-6.556700e-04
-6.951640e-04
-7.362560e-04
-7.789830e-04
-8.233860e-04
-8.695020e-04
-9.173710e-04
-9.670320e-04
-1.018520e-03
-1.071880e-03
-1.127150e-03
-1.184360e-03
-1.243560e-03
-8.804530e-14
-9.449040e-14
-5.075540e-14
-1.964590e-14
-3.120830e-16
8.095740e-15
6.427290e-15
2.837360e-15
4.889490e-15
4.623380e-16
-2.066450e-14
-1.293710e-14
1.196510e-16
1.788830e-14
3.975170e-14
6.509230e-14
-2.758860e-14
7.773630e-15
-1.072650e-13
-5.762300e-14
-3.910360e-15
5.263840e-14
1.107880e-13
4.533500e-14
2.065530e-14
-6.369480e-15
-3.537290e-14
-6.598880e-14
3.372300e-14
3.486790e-14
3.607410e-14
3.728140e-14
-4.225010e-14
-2.557710e-14
-8.693090e-15
8.128740e-15
2.461500e-14
4.049230e-14
5.548740e-14
7.621320e-14
1.178400e-13
1.558060e-13
-1.476470e-13
-9.393810e-14
-4.527830e-14
-2.527690e-15
3.345410e-14
6.180760e-14
8.167290e-14
9.219060e-14
-8.804530e-14
-7.448360e-06
-1.247690e-05
-1.519340e-05
-1.570520e-05
-1.412010e-05
-1.054560e-05
-5.089370e-06
2.140980e-06
1.103790e-05
2.149370e-05
3.340080e-05
4.665160e-05
6.113850e-05
7.675400e-05
9.339020e-05
1.109400e-04
1.292950e-04
1.483480e-04
1.679920e-04
1.881190e-04
2.086210e-04
2.293900e-04
2.503190e-04
2.713010e-04
2.922280e-04
3.155770e-04
3.400590e-04
3.657110e-04
3.925730e-04
4.206830e-04
4.500810e-04
4.808050e-04
5.128930e-04
5.463850e-04
5.813190e-04
6.177350e-04
6.556700e-04
6.951640e-04
7.362560e-04
7.789830e-04
8.233860e-04
8.695020e-04
9.173710e-04
9.670320e-04
1.018520e-03
1.071880e-03
1.127150e-03
1.184360e-03
1.243560e-03
-8.804530e-14
3.554860e-16
6.198880e-16
7.956450e-16
8.873230e-16
8.994590e-16
8.366240e-16
-3.685100e-16
-3.450540e-15
-6.411710e-15
-7.196330e-17
-4.410090e-16
-8.577450e-16
-1.317610e-15
-1.816050e-15
-2.348530e-15
2.473360e-14
1.356180e-14
-4.100830e-15
-4.723710e-15
-5.357870e-15
-5.998770e-15
-6.641840e-15
7.676400e-14
3.213750e-14
-1.869890e-14
-7.483560e-14
-1.353630e-13
-8.492480e-14
-1.027330e-13
-1.209460e-13
-1.392920e-13
8.501160e-14
5.244510e-14
1.944660e-14
-1.350060e-14
-4.591310e-14
-7.730720e-14
-1.072000e-13
-1.588840e-13
-1.101690e-13
-6.320500e-14
-9.636540e-14
-6.088530e-14
-2.745770e-14
3.494590e-15
3.154910e-14
5.628310e-14
7.727400e-14
9.409910e-14
</DataArray>
<DataArray type="Float32" Name="V2" format="ascii">
1.336150e-13
9.663960e-14
5.423110e-14
2.293220e-14
-4.911150e-14
-5.223700e-15
6.407980e-14
8.886890e-15
-9.324430e-15
8.301620e-16
7.268290e-16
-2.694590e-14
-3.360080e-14
3.984400e-16
3.105880e-16
2.473470e-16
-6.428350e-14
-1.607280e-13
6.208530e-14
9.202750e-14
-7.363560e-14
-7.686460e-14
2.337220e-13
4.117780e-13
5.989680e-13
2.641340e-13
7.995540e-13
4.417980e-14
2.211960e-13
1.231970e-12
2.972300e-12
5.333590e-12
9.555210e-15
3.754760e-13
1.303830e-12
2.687680e-12
4.424740e-12
4.346870e-14
4.199800e-13
1.112050e-12
2.032110e-12
3.282570e-14
7.770930e-14
3.429910e-13
7.424840e-13
1.211110e-12
6.078450e-14
8.867830e-14
2.138520e-13
3.646140e-13
1.336150e-13
7.289880e-06
1.156940e-05
1.305580e-05
1.196610e-05
8.517570e-06
2.927220e-06
-4.587760e-06
-1.381020e-05
-2.452310e-05
-3.650910e-05
-4.955130e-05
-6.343240e-05
-7.793530e-05
-9.284290e-05
-1.079380e-04
-1.230040e-04
-1.378220e-04
-1.521770e-04
-1.658510e-04
-1.786270e-04
-1.902870e-04
-2.006150e-04
-2.118050e-04
-2.232980e-04
-2.346940e-04
-2.459710e-04
-2.571050e-04
-2.680760e-04
-2.788600e-04
-2.894350e-04
-2.997800e-04
-3.098720e-04
-3.196880e-04
-3.292070e-04
-3.384060e-04
-3.472630e-04
-3.557550e-04
-3.638600e-04
-3.715570e-04
-3.788220e-04
-3.856330e-04
-3.919690e-04
-3.978070e-04
-4.031240e-04
-4.078990e-04
-4.121090e-04
-4.157320e-04
-4.187450e-04
-4.211270e-04
1.336150e-13
-9.646940e-14
-5.390570e-14
-2.246520e-14
2.741040e-14
1.854600e-14
-1.351250e-14
-1.923120e-15
3.430220e-15
-1.318210e-14
-2.021680e-14
6.540530e-16
8.447800e-16
-3.927980e-14
-4.497700e-14
1.337910e-15
1.452620e-15
1.530780e-15
-5.579460e-14
-1.112910e-13
1.476030e-15
1.337940e-15
-4.723760e-14
-9.544530e-14
-1.462660e-13
-2.208380e-24
-7.967290e-13
-4.130840e-14
-2.182760e-13
-1.228990e-12
-2.969260e-12
-5.330480e-12
-6.383000e-15
-3.721940e-13
-1.300410e-12
-2.684120e-12
-4.421000e-12
-3.953970e-14
-4.158090e-13
-1.107600e-12
-2.027350e-12
-2.771470e-14
-7.219720e-14
-3.370290e-13
-7.360220e-13
-1.204100e-12
-5.316360e-14
-8.038820e-14
-2.048300e-13
-3.547950e-13
1.336150e-13
-7.289880e-06
-1.156940e-05
-1.305580e-05
-1.196610e-05
-8.517570e-06
-2.927220e-06
4.587760e-06
1.381020e-05
2.452310e-05
3.650910e-05
4.955130e-05
6.343240e-05
7.793530e-05
9.284290e-05
1.079380e-04
1.230040e-04
1.378220e-04
1.521770e-04
1.658510e-04
1.786270e-04
1.902870e-04
2.006150e-04
2.118050e-04
2.232980e-04
2.346940e-04
2.459710e-04
2.571050e-04
2.680760e-04
2.788600e-04
2.894350e-04
2.997800e-04
3.098720e-04
3.196880e-04
3.292070e-04
3.384060e-04
3.472630e-04
3.557550e-04
3.638600e-04
3.715570e-04
3.788220e-04
3.856330e-04
3.919690e-04
3.978070e-04
4.031240e-04
4.078990e-04
4.121090e-04
4.157320e-04
4.187450e-04
4.211270e-04
</DataArray>
<DataArray type="Float32" Name="V3" format="ascii">
5.567500e-20
1.632520e-04
6.079190e-04
1.273100e-03
2.106420e-03
3.063420e-03
4.107020e-03
5.206890e-03
6.338930e-03
7.484650e-03
8.630600e-03
9.767790e-03
1.089110e-02
1.199880e-02
1.309180e-02
1.417320e-02
1.524770e-02
1.632090e-02
1.739890e-02
1.848750e-02
1.959210e-02
2.071640e-02
2.186230e-02
2.302940e-02
2.421410e-02
2.540920e-02
2.660650e-02
2.780770e-02
2.901660e-02
3.023640e-02
3.146950e-02
3.271750e-02
3.398170e-02
3.526300e-02
3.656170e-02
3.787790e-02
3.921150e-02
4.056200e-02
4.192930e-02
4.331270e-02
4.471200e-02
4.612690e-02
4.755750e-02
4.900400e-02
5.046710e-02
5.194770e-02
5.344760e-02
5.496880e-02
5.651420e-02
5.808740e-02
5.567500e-20
1.568650e-04
5.891750e-04
1.244010e-03
2.074260e-03
3.038320e-03
4.099910e-03
5.227720e-03
6.395210e-03
7.580350e-03
8.765320e-03
9.936280e-03
1.108310e-02
1.219910e-02
1.328070e-02
1.432740e-02
1.534130e-02
1.632690e-02
1.729080e-02
1.824150e-02
1.918910e-02
2.014520e-02
2.112230e-02
2.211360e-02
2.308760e-02
2.404420e-02
2.498450e-02
2.590920e-02
2.681920e-02
2.771500e-02
2.859710e-02
2.946590e-02
3.032160e-02
3.116430e-02
3.199390e-02
3.280990e-02
3.361180e-02
3.439890e-02
3.517010e-02
3.592430e-02
3.665970e-02
3.737470e-02
3.806710e-02
3.873440e-02
3.937400e-02
3.998270e-02
4.055700e-02
4.109320e-02
4.158700e-02
4.203390e-02
5.567500e-20
1.632520e-04
6.079190e-04
1.273100e-03
2.106420e-03
3.063420e-03
4.107020e-03
5.206890e-03
6.338930e-03
7.484650e-03
8.630600e-03
9.767790e-03
1.089110e-02
1.199880e-02
1.309180e-02
1.417320e-02
1.524770e-02
1.632090e-02
1.739890e-02
1.848750e-02
1.959210e-02
2.071640e-02
2.186230e-02
2.302940e-02
2.421410e-02
2.540920e-02
2.660650e-02
2.780770e-02
2.901660e-02
3.023640e-02
3.146950e-02
3.271750e-02
3.398170e-02
3.526300e-02
3.656170e-02
3.787790e-02
3.921150e-02
4.056200e-02
4.192930e-02
4.331270e-02
4.471200e-02
4.612690e-02
4.755750e-02
4.900400e-02
5.046710e-02
5.194770e-02
5.344760e-02
5.496880e-02
5.651420e-02
5.808740e-02
5.567500e-20
1.568650e-04
5.891750e-04
1.244010e-03
2.074260e-03
3.038320e-03
4.099910e-03
5.227720e-03
6.395210e-03
7.580350e-03
8.765320e-03
9.936280e-03
1.108310e-02
1.219910e-02
1.328070e-02
1.432740e-02
1.534130e-02
1.632690e-02
1.729080e-02
1.824150e-02
1.918910e-02
2.014520e-02
2.112230e-02
2.211360e-02
2.308760e-02
2.404420e-02
2.498450e-02
2.590920e-02
2.681920e-02
2.771500e-02
2.859710e-02
2.946590e-02
3.032160e-02
3.116430e-02
3.199390e-02
3.280990e-02
3.361180e-02
3.439890e-02
3.517010e-02
3.592430e-02
3.665970e-02
3.737470e-02
3.806710e-02
3.873440e-02
3.937400e-02
3.998270e-02
4.055700e-02
4.109320e-02
4.158700e-02
4.203390e-02
</DataArray>
</PointData>
</Piece></UnstructuredGrid>
</VTKFile>
