<?xml version="1.0"?>
<VTKFile type="PolyData" version="0.1" byte_order="LittleEndian" compressor="vtkZLibDataCompressor">
<PolyData>
<Piece NumberOfPoints="20" NumberOfVerts="0" NumberOfLines="1" NumberOfStrips="0" NumberOfPolys="0">
<Points>
<DataArray type="Float32" NumberOfComponents="3" format="ascii">
8.314700e-01 5.555700e-01 0.000000e+00
7.071070e-01 7.071070e-01 0.000000e+00
7.933530e-01 6.087610e-01 0.000000e+00
7.518400e-01 6.593460e-01 0.000000e+00
9.238800e-01 3.826830e-01 0.000000e+00
1.000000e+00 -2.449290e-16 0.000000e+00
9.914450e-01 1.305260e-01 0.000000e+00
9.659260e-01 2.588190e-01 0.000000e+00
3.826830e-01 9.238800e-01 0.000000e+00
6.123230e-17 1.000000e+00 0.000000e+00
2.588190e-01 9.659260e-01 0.000000e+00
1.305260e-01 9.914450e-01 0.000000e+00
3.826830e-01 9.238800e-01 0.000000e+00
7.071070e-01 7.071070e-01 0.000000e+00
6.087610e-01 7.933530e-01 0.000000e+00
5.000000e-01 8.660250e-01 0.000000e+00
9.238800e-01 3.826830e-01 0.000000e+00
8.314700e-01 5.555700e-01 0.000000e+00
8.968730e-01 4.422890e-01 0.000000e+00
8.660250e-01 5.000000e-01 0.000000e+00
</DataArray>
</Points>
<PointData>
<DataArray type="Float32" Name="V1" format="ascii">
5.890490e-01
7.853980e-01
6.544980e-01
7.199480e-01
3.926990e-01
0.000000e+00
1.309000e-01
2.617990e-01
1.178100e+00
1.570800e+00
1.309000e+00
1.439900e+00
1.178100e+00
7.853980e-01
9.162980e-01
1.047200e+00
3.926990e-01
5.890490e-01
4.581490e-01
5.235990e-01
</DataArray>
</PointData>
<Verts>
</Verts>
<Lines>
<DataArray type="Int32" Name="connectivity" format="ascii">
0 1 2 3 4 5 6 7 8 9 10 11 12 13 14 15 16 17 18 19 </DataArray>
<DataArray type="Int32" Name="offsets" format="ascii">
20 </DataArray>
</Lines>
<Strips>
</Strips>
<Polys>
</Polys>
</Piece></PolyData>
</VTKFile>
