<?xml version="1.0"?>
<VTKFile type="PolyData" version="0.1" byte_order="LittleEndian" compressor="vtkZLibDataCompressor">
<PolyData>
<Piece NumberOfPoints="40" NumberOfVerts="0" NumberOfLines="1" NumberOfStrips="0" NumberOfPolys="0">
<Points>
<DataArray type="Float32" NumberOfComponents="3" format="ascii">
-9.876880e-01 1.564340e-01 0.000000e+00
-1.000000e+00 1.224650e-16 0.000000e+00
-9.945220e-01 1.045280e-01 0.000000e+00
-9.986300e-01 5.233600e-02 0.000000e+00
-9.510570e-01 3.090170e-01 0.000000e+00
-9.876880e-01 1.564340e-01 0.000000e+00
-9.659260e-01 2.588190e-01 0.000000e+00
-9.781480e-01 2.079120e-01 0.000000e+00
-8.910070e-01 4.539900e-01 0.000000e+00
-9.510570e-01 3.090170e-01 0.000000e+00
-9.135450e-01 4.067370e-01 0.000000e+00
-9.335800e-01 3.583680e-01 0.000000e+00
-8.910070e-01 4.539900e-01 0.000000e+00
-8.090170e-01 5.877850e-01 0.000000e+00
-8.386710e-01 5.446390e-01 0.000000e+00
-8.660250e-01 5.000000e-01 0.000000e+00
-7.071070e-01 7.071070e-01 0.000000e+00
-5.877850e-01 8.090170e-01 0.000000e+00
-6.293200e-01 7.771460e-01 0.000000e+00
-6.691310e-01 7.431450e-01 0.000000e+00
-3.090170e-01 9.510570e-01 0.000000e+00
-4.539900e-01 8.910070e-01 0.000000e+00
-3.583680e-01 9.335800e-01 0.000000e+00
-4.067370e-01 9.135450e-01 0.000000e+00
-4.539900e-01 8.910070e-01 0.000000e+00
-5.877850e-01 8.090170e-01 0.000000e+00
-5.000000e-01 8.660250e-01 0.000000e+00
-5.446390e-01 8.386710e-01 0.000000e+00
-8.090170e-01 5.877850e-01 0.000000e+00
-7.071070e-01 7.071070e-01 0.000000e+00
-7.431450e-01 6.691310e-01 0.000000e+00
-7.771460e-01 6.293200e-01 0.000000e+00
-3.828570e-16 1.000000e+00 0.000000e+00
-1.564340e-01 9.876880e-01 0.000000e+00
-5.233600e-02 9.986300e-01 0.000000e+00
-1.045280e-01 9.945220e-01 0.000000e+00
-1.564340e-01 9.876880e-01 0.000000e+00
-3.090170e-01 9.510570e-01 0.000000e+00
-2.079120e-01 9.781480e-01 0.000000e+00
-2.588190e-01 9.659260e-01 0.000000e+00
</DataArray>
</Points>
<PointData>
<DataArray type="Float32" Name="V1" format="ascii">
2.984510e+00
3.141590e+00
3.036870e+00
3.089230e+00
2.827430e+00
2.984510e+00
2.879790e+00
2.932150e+00
2.670350e+00
2.827430e+00
2.722710e+00
2.775070e+00
2.670350e+00
2.513270e+00
2.565630e+00
2.617990e+00
2.356190e+00
2.199110e+00
2.251470e+00
2.303830e+00
1.884960e+00
2.042040e+00
1.937320e+00
1.989680e+00
2.042040e+00
2.199110e+00
2.094400e+00
2.146750e+00
2.513270e+00
2.356190e+00
2.408550e+00
2.460910e+00
1.570800e+00
1.727880e+00
1.623160e+00
1.675520e+00
1.727880e+00
1.884960e+00
1.780240e+00
1.832600e+00
</DataArray>
</PointData>
<Verts>
</Verts>
<Lines>
<DataArray type="Int32" Name="connectivity" format="ascii">
0 1 2 3 4 5 6 7 8 9 10 11 12 13 14 15 16 17 18 19 20 21 22 23 24 25 26 27 28 29 30 31 32 33 34 35 36 37 38 39 </DataArray>
<DataArray type="Int32" Name="offsets" format="ascii">
40 </DataArray>
</Lines>
<Strips>
</Strips>
<Polys>
</Polys>
</Piece></PolyData>
</VTKFile>
