<?xml version="1.0"?>
<VTKFile type="PolyData" version="0.1" byte_order="LittleEndian" compressor="vtkZLibDataCompressor">
<PolyData>
<Piece NumberOfPoints="357" NumberOfVerts="0" NumberOfLines="1" NumberOfStrips="0" NumberOfPolys="0">
<Points>
<DataArray type="Float32" NumberOfComponents="3" format="ascii">
-9.891770e-01 1.467300e-01 0.000000e+00
-9.951850e-01 9.801710e-02 0.000000e+00
-9.987950e-01 4.906770e-02 0.000000e+00
-1.000000e+00 1.224650e-16 0.000000e+00
-9.569400e-01 2.902850e-01 0.000000e+00
-9.700310e-01 2.429800e-01 0.000000e+00
-9.951850e-01 9.801710e-02 0.000000e+00
-1.000000e+00 1.224650e-16 0.000000e+00
-9.987950e-01 -4.906770e-02 0.000000e+00
-9.951850e-01 9.801710e-02 0.000000e+00
-9.987950e-01 4.906770e-02 0.000000e+00
-9.807850e-01 1.950900e-01 0.000000e+00
-9.891770e-01 1.467300e-01 0.000000e+00
-9.891770e-01 1.467300e-01 0.000000e+00
-9.807850e-01 1.950900e-01 0.000000e+00
-9.700310e-01 2.429800e-01 0.000000e+00
-9.807850e-01 1.950900e-01 0.000000e+00
-9.700310e-01 2.429800e-01 0.000000e+00
-9.039890e-01 4.275550e-01 0.000000e+00
-9.569400e-01 2.902850e-01 0.000000e+00
-9.891770e-01 -1.467300e-01 0.000000e+00
-9.700310e-01 -2.429800e-01 0.000000e+00
-9.807850e-01 -1.950900e-01 0.000000e+00
-9.951850e-01 -9.801710e-02 0.000000e+00
-9.891770e-01 -1.467300e-01 0.000000e+00
-9.807850e-01 -1.950900e-01 0.000000e+00
-9.700310e-01 -2.429800e-01 0.000000e+00
-9.569400e-01 -2.902850e-01 0.000000e+00
-9.987950e-01 -4.906770e-02 0.000000e+00
-9.951850e-01 -9.801710e-02 0.000000e+00
-9.951850e-01 -9.801710e-02 0.000000e+00
-9.891770e-01 -1.467300e-01 0.000000e+00
-1.000000e+00 1.224650e-16 0.000000e+00
-9.987950e-01 -4.906770e-02 0.000000e+00
-9.569400e-01 -2.902850e-01 0.000000e+00
-9.238800e-01 -3.826830e-01 0.000000e+00
-9.415440e-01 -3.368900e-01 0.000000e+00
-9.569400e-01 -2.902850e-01 0.000000e+00
-9.415440e-01 -3.368900e-01 0.000000e+00
-9.415440e-01 -3.368900e-01 0.000000e+00
-8.819210e-01 -4.713970e-01 0.000000e+00
-8.577290e-01 -5.141030e-01 0.000000e+00
-9.238800e-01 -3.826830e-01 0.000000e+00
-9.039890e-01 -4.275550e-01 0.000000e+00
-9.039890e-01 -4.275550e-01 0.000000e+00
-8.819210e-01 -4.713970e-01 0.000000e+00
-9.700310e-01 -2.429800e-01 0.000000e+00
-9.039890e-01 -4.275550e-01 0.000000e+00
-8.577290e-01 -5.141030e-01 0.000000e+00
-8.314700e-01 -5.555700e-01 0.000000e+00
-8.819210e-01 -4.713970e-01 0.000000e+00
-8.577290e-01 -5.141030e-01 0.000000e+00
-7.730100e-01 6.343930e-01 0.000000e+00
-7.730100e-01 6.343930e-01 0.000000e+00
-8.032080e-01 5.956990e-01 0.000000e+00
-8.314700e-01 5.555700e-01 0.000000e+00
-9.569400e-01 2.902850e-01 0.000000e+00
-8.819210e-01 4.713970e-01 0.000000e+00
-9.238800e-01 3.826830e-01 0.000000e+00
-9.569400e-01 2.902850e-01 0.000000e+00
-8.819210e-01 4.713970e-01 0.000000e+00
-9.039890e-01 4.275550e-01 0.000000e+00
-9.039890e-01 4.275550e-01 0.000000e+00
-9.238800e-01 3.826830e-01 0.000000e+00
-9.238800e-01 3.826830e-01 0.000000e+00
-8.819210e-01 4.713970e-01 0.000000e+00
-8.314700e-01 5.555700e-01 0.000000e+00
-8.032080e-01 5.956990e-01 0.000000e+00
-7.409510e-01 6.715590e-01 0.000000e+00
-7.730100e-01 6.343930e-01 0.000000e+00
-8.314700e-01 5.555700e-01 0.000000e+00
-8.032080e-01 5.956990e-01 0.000000e+00
-7.409510e-01 6.715590e-01 0.000000e+00
-7.409510e-01 6.715590e-01 0.000000e+00
-6.343930e-01 7.730100e-01 0.000000e+00
-9.039890e-01 4.275550e-01 0.000000e+00
-7.071070e-01 7.071070e-01 0.000000e+00
-7.409510e-01 6.715590e-01 0.000000e+00
-6.715590e-01 7.409510e-01 0.000000e+00
-7.071070e-01 7.071070e-01 0.000000e+00
-5.141030e-01 8.577290e-01 0.000000e+00
-4.275550e-01 9.039890e-01 0.000000e+00
-4.713970e-01 8.819210e-01 0.000000e+00
-5.956990e-01 8.032080e-01 0.000000e+00
-5.956990e-01 8.032080e-01 0.000000e+00
-6.343930e-01 7.730100e-01 0.000000e+00
-5.555700e-01 8.314700e-01 0.000000e+00
-5.956990e-01 8.032080e-01 0.000000e+00
-5.555700e-01 8.314700e-01 0.000000e+00
-4.275550e-01 9.039890e-01 0.000000e+00
-5.555700e-01 8.314700e-01 0.000000e+00
-5.141030e-01 8.577290e-01 0.000000e+00
-5.141030e-01 8.577290e-01 0.000000e+00
-4.713970e-01 8.819210e-01 0.000000e+00
-4.713970e-01 8.819210e-01 0.000000e+00
-6.343930e-01 7.730100e-01 0.000000e+00
-6.715590e-01 7.409510e-01 0.000000e+00
-6.715590e-01 7.409510e-01 0.000000e+00
-7.409510e-01 -6.715590e-01 0.000000e+00
-5.956990e-01 8.032080e-01 0.000000e+00
-7.730100e-01 -6.343930e-01 0.000000e+00
-8.314700e-01 -5.555700e-01 0.000000e+00
-7.409510e-01 -6.715590e-01 0.000000e+00
-7.071070e-01 -7.071070e-01 0.000000e+00
-6.343930e-01 -7.730100e-01 0.000000e+00
-6.715590e-01 -7.409510e-01 0.000000e+00
-5.555700e-01 -8.314700e-01 0.000000e+00
-5.956990e-01 -8.032080e-01 0.000000e+00
-6.343930e-01 -7.730100e-01 0.000000e+00
-6.715590e-01 -7.409510e-01 0.000000e+00
-8.314700e-01 -5.555700e-01 0.000000e+00
-7.730100e-01 -6.343930e-01 0.000000e+00
-7.409510e-01 -6.715590e-01 0.000000e+00
-7.730100e-01 -6.343930e-01 0.000000e+00
-7.409510e-01 -6.715590e-01 0.000000e+00
-5.956990e-01 -8.032080e-01 0.000000e+00
-7.071070e-01 -7.071070e-01 0.000000e+00
-6.715590e-01 -7.409510e-01 0.000000e+00
-4.713970e-01 -8.819210e-01 0.000000e+00
1.467300e-01 -9.891770e-01 0.000000e+00
-4.275550e-01 -9.039890e-01 0.000000e+00
-3.826830e-01 -9.238800e-01 0.000000e+00
-6.343930e-01 -7.730100e-01 0.000000e+00
-5.956990e-01 -8.032080e-01 0.000000e+00
-3.368900e-01 -9.415440e-01 0.000000e+00
-2.902850e-01 -9.569400e-01 0.000000e+00
-3.368900e-01 -9.415440e-01 0.000000e+00
-2.429800e-01 -9.700310e-01 0.000000e+00
-3.826830e-01 -9.238800e-01 0.000000e+00
-3.368900e-01 -9.415440e-01 0.000000e+00
5.555700e-01 8.314700e-01 0.000000e+00
-4.275550e-01 9.039890e-01 0.000000e+00
-3.826830e-01 9.238800e-01 0.000000e+00
-1.950900e-01 9.807850e-01 0.000000e+00
-2.429800e-01 9.700310e-01 0.000000e+00
-2.902850e-01 9.569400e-01 0.000000e+00
-5.555700e-01 -8.314700e-01 0.000000e+00
-4.713970e-01 -8.819210e-01 0.000000e+00
-4.275550e-01 -9.039890e-01 0.000000e+00
-4.713970e-01 -8.819210e-01 0.000000e+00
-5.555700e-01 -8.314700e-01 0.000000e+00
-2.902850e-01 -9.569400e-01 0.000000e+00
-9.801710e-02 -9.951850e-01 0.000000e+00
5.141030e-01 8.577290e-01 0.000000e+00
2.429800e-01 9.700310e-01 0.000000e+00
1.950900e-01 9.807850e-01 0.000000e+00
-2.902850e-01 9.569400e-01 0.000000e+00
7.730100e-01 6.343930e-01 0.000000e+00
-3.368900e-01 9.415440e-01 0.000000e+00
-3.826830e-01 9.238800e-01 0.000000e+00
-3.368900e-01 9.415440e-01 0.000000e+00
-2.902850e-01 9.569400e-01 0.000000e+00
-3.368900e-01 9.415440e-01 0.000000e+00
-4.275550e-01 -9.039890e-01 0.000000e+00
-2.429800e-01 -9.700310e-01 0.000000e+00
-1.950900e-01 -9.807850e-01 0.000000e+00
4.906770e-02 -9.987950e-01 0.000000e+00
-9.801710e-02 -9.951850e-01 0.000000e+00
-4.906770e-02 -9.987950e-01 0.000000e+00
2.429800e-01 -9.700310e-01 0.000000e+00
2.902850e-01 -9.569400e-01 0.000000e+00
9.801710e-02 -9.951850e-01 0.000000e+00
1.467300e-01 -9.891770e-01 0.000000e+00
1.950900e-01 -9.807850e-01 0.000000e+00
1.950900e-01 -9.807850e-01 0.000000e+00
2.902850e-01 -9.569400e-01 0.000000e+00
-1.836970e-16 -1.000000e+00 0.000000e+00
9.801710e-02 -9.951850e-01 0.000000e+00
1.467300e-01 -9.891770e-01 0.000000e+00
-9.801710e-02 -9.951850e-01 0.000000e+00
-1.836970e-16 -1.000000e+00 0.000000e+00
-4.906770e-02 -9.987950e-01 0.000000e+00
4.906770e-02 -9.987950e-01 0.000000e+00
9.801710e-02 -9.951850e-01 0.000000e+00
-1.836970e-16 -1.000000e+00 0.000000e+00
4.906770e-02 -9.987950e-01 0.000000e+00
1.950900e-01 -9.807850e-01 0.000000e+00
2.429800e-01 -9.700310e-01 0.000000e+00
2.429800e-01 -9.700310e-01 0.000000e+00
4.275550e-01 -9.039890e-01 0.000000e+00
3.826830e-01 9.238800e-01 0.000000e+00
2.902850e-01 9.569400e-01 0.000000e+00
2.902850e-01 9.569400e-01 0.000000e+00
4.275550e-01 9.039890e-01 0.000000e+00
3.826830e-01 9.238800e-01 0.000000e+00
4.713970e-01 8.819210e-01 0.000000e+00
4.275550e-01 9.039890e-01 0.000000e+00
5.141030e-01 8.577290e-01 0.000000e+00
4.713970e-01 8.819210e-01 0.000000e+00
2.902850e-01 9.569400e-01 0.000000e+00
3.826830e-01 9.238800e-01 0.000000e+00
4.275550e-01 9.039890e-01 0.000000e+00
5.956990e-01 8.032080e-01 0.000000e+00
5.555700e-01 8.314700e-01 0.000000e+00
6.343930e-01 7.730100e-01 0.000000e+00
5.956990e-01 8.032080e-01 0.000000e+00
5.956990e-01 8.032080e-01 0.000000e+00
-2.902850e-01 9.569400e-01 0.000000e+00
-2.429800e-01 9.700310e-01 0.000000e+00
-1.950900e-01 -9.807850e-01 0.000000e+00
-2.902850e-01 -9.569400e-01 0.000000e+00
-2.429800e-01 -9.700310e-01 0.000000e+00
-1.467300e-01 -9.891770e-01 0.000000e+00
-9.801710e-02 -9.951850e-01 0.000000e+00
8.314700e-01 -5.555700e-01 0.000000e+00
7.409510e-01 -6.715590e-01 0.000000e+00
8.032080e-01 -5.956990e-01 0.000000e+00
7.730100e-01 -6.343930e-01 0.000000e+00
8.032080e-01 -5.956990e-01 0.000000e+00
8.819210e-01 -4.713970e-01 0.000000e+00
8.577290e-01 -5.141030e-01 0.000000e+00
7.730100e-01 -6.343930e-01 0.000000e+00
8.032080e-01 -5.956990e-01 0.000000e+00
8.314700e-01 -5.555700e-01 0.000000e+00
8.819210e-01 -4.713970e-01 0.000000e+00
9.569400e-01 -2.902850e-01 0.000000e+00
9.238800e-01 -3.826830e-01 0.000000e+00
3.368900e-01 -9.415440e-01 0.000000e+00
2.902850e-01 -9.569400e-01 0.000000e+00
3.826830e-01 -9.238800e-01 0.000000e+00
-1.467300e-01 9.891770e-01 0.000000e+00
-9.801710e-02 9.951850e-01 0.000000e+00
1.950900e-01 9.807850e-01 0.000000e+00
4.906770e-02 9.987950e-01 0.000000e+00
6.715590e-01 7.409510e-01 0.000000e+00
9.801710e-02 9.951850e-01 0.000000e+00
6.123230e-17 1.000000e+00 0.000000e+00
4.906770e-02 9.987950e-01 0.000000e+00
1.467300e-01 9.891770e-01 0.000000e+00
9.801710e-02 9.951850e-01 0.000000e+00
5.555700e-01 8.314700e-01 0.000000e+00
5.141030e-01 8.577290e-01 0.000000e+00
6.343930e-01 7.730100e-01 0.000000e+00
7.071070e-01 7.071070e-01 0.000000e+00
8.577290e-01 5.141030e-01 0.000000e+00
7.730100e-01 6.343930e-01 0.000000e+00
7.071070e-01 7.071070e-01 0.000000e+00
-1.950900e-01 -9.807850e-01 0.000000e+00
-1.467300e-01 -9.891770e-01 0.000000e+00
-1.467300e-01 -9.891770e-01 0.000000e+00
5.555700e-01 -8.314700e-01 0.000000e+00
7.409510e-01 -6.715590e-01 0.000000e+00
7.730100e-01 -6.343930e-01 0.000000e+00
6.715590e-01 -7.409510e-01 0.000000e+00
7.071070e-01 -7.071070e-01 0.000000e+00
7.409510e-01 -6.715590e-01 0.000000e+00
8.314700e-01 -5.555700e-01 0.000000e+00
8.577290e-01 -5.141030e-01 0.000000e+00
8.577290e-01 -5.141030e-01 0.000000e+00
9.039890e-01 -4.275550e-01 0.000000e+00
8.819210e-01 -4.713970e-01 0.000000e+00
9.039890e-01 -4.275550e-01 0.000000e+00
9.569400e-01 -2.902850e-01 0.000000e+00
9.039890e-01 -4.275550e-01 0.000000e+00
9.238800e-01 -3.826830e-01 0.000000e+00
9.238800e-01 -3.826830e-01 0.000000e+00
9.807850e-01 -1.950900e-01 0.000000e+00
9.569400e-01 -2.902850e-01 0.000000e+00
9.700310e-01 -2.429800e-01 0.000000e+00
-9.801710e-02 9.951850e-01 0.000000e+00
-4.906770e-02 9.987950e-01 0.000000e+00
2.902850e-01 -9.569400e-01 0.000000e+00
3.826830e-01 -9.238800e-01 0.000000e+00
3.368900e-01 -9.415440e-01 0.000000e+00
5.555700e-01 -8.314700e-01 0.000000e+00
5.141030e-01 -8.577290e-01 0.000000e+00
5.141030e-01 -8.577290e-01 0.000000e+00
4.713970e-01 -8.819210e-01 0.000000e+00
5.555700e-01 -8.314700e-01 0.000000e+00
6.343930e-01 -7.730100e-01 0.000000e+00
5.141030e-01 -8.577290e-01 0.000000e+00
5.141030e-01 -8.577290e-01 0.000000e+00
6.343930e-01 -7.730100e-01 0.000000e+00
6.715590e-01 -7.409510e-01 0.000000e+00
7.071070e-01 -7.071070e-01 0.000000e+00
6.343930e-01 -7.730100e-01 0.000000e+00
6.715590e-01 -7.409510e-01 0.000000e+00
6.715590e-01 -7.409510e-01 0.000000e+00
9.801710e-02 9.951850e-01 0.000000e+00
4.906770e-02 9.987950e-01 0.000000e+00
1.950900e-01 9.807850e-01 0.000000e+00
1.950900e-01 9.807850e-01 0.000000e+00
1.467300e-01 9.891770e-01 0.000000e+00
1.467300e-01 9.891770e-01 0.000000e+00
9.569400e-01 -2.902850e-01 0.000000e+00
7.071070e-01 7.071070e-01 0.000000e+00
6.715590e-01 7.409510e-01 0.000000e+00
9.807850e-01 -1.950900e-01 0.000000e+00
9.700310e-01 -2.429800e-01 0.000000e+00
9.807850e-01 -1.950900e-01 0.000000e+00
9.951850e-01 -9.801710e-02 0.000000e+00
3.826830e-01 -9.238800e-01 0.000000e+00
4.275550e-01 -9.039890e-01 0.000000e+00
4.713970e-01 -8.819210e-01 0.000000e+00
9.569400e-01 2.902850e-01 0.000000e+00
6.343930e-01 7.730100e-01 0.000000e+00
6.715590e-01 7.409510e-01 0.000000e+00
9.807850e-01 -1.950900e-01 0.000000e+00
1.000000e+00 -2.449290e-16 0.000000e+00
9.951850e-01 9.801710e-02 0.000000e+00
9.700310e-01 2.429800e-01 0.000000e+00
8.032080e-01 5.956990e-01 0.000000e+00
7.730100e-01 6.343930e-01 0.000000e+00
9.951850e-01 9.801710e-02 0.000000e+00
1.000000e+00 -2.449290e-16 0.000000e+00
9.807850e-01 -1.950900e-01 0.000000e+00
9.891770e-01 -1.467300e-01 0.000000e+00
9.951850e-01 -9.801710e-02 0.000000e+00
9.891770e-01 -1.467300e-01 0.000000e+00
6.123230e-17 1.000000e+00 0.000000e+00
-4.906770e-02 9.987950e-01 0.000000e+00
-4.906770e-02 9.987950e-01 0.000000e+00
-1.950900e-01 9.807850e-01 0.000000e+00
-1.467300e-01 9.891770e-01 0.000000e+00
8.314700e-01 5.555700e-01 0.000000e+00
8.032080e-01 5.956990e-01 0.000000e+00
8.032080e-01 5.956990e-01 0.000000e+00
9.951850e-01 9.801710e-02 0.000000e+00
9.951850e-01 9.801710e-02 0.000000e+00
9.891770e-01 1.467300e-01 0.000000e+00
-1.467300e-01 9.891770e-01 0.000000e+00
-1.950900e-01 9.807850e-01 0.000000e+00
9.951850e-01 -9.801710e-02 0.000000e+00
9.987950e-01 -4.906770e-02 0.000000e+00
-9.801710e-02 9.951850e-01 0.000000e+00
9.891770e-01 1.467300e-01 0.000000e+00
8.819210e-01 4.713970e-01 0.000000e+00
9.039890e-01 4.275550e-01 0.000000e+00
9.807850e-01 1.950900e-01 0.000000e+00
9.891770e-01 1.467300e-01 0.000000e+00
9.951850e-01 -9.801710e-02 0.000000e+00
1.000000e+00 -2.449290e-16 0.000000e+00
9.987950e-01 -4.906770e-02 0.000000e+00
8.577290e-01 5.141030e-01 0.000000e+00
8.314700e-01 5.555700e-01 0.000000e+00
9.238800e-01 3.826830e-01 0.000000e+00
9.039890e-01 4.275550e-01 0.000000e+00
8.314700e-01 5.555700e-01 0.000000e+00
8.819210e-01 4.713970e-01 0.000000e+00
8.577290e-01 5.141030e-01 0.000000e+00
8.819210e-01 4.713970e-01 0.000000e+00
9.039890e-01 4.275550e-01 0.000000e+00
9.415440e-01 3.368900e-01 0.000000e+00
9.238800e-01 3.826830e-01 0.000000e+00
9.415440e-01 3.368900e-01 0.000000e+00
9.807850e-01 1.950900e-01 0.000000e+00
9.700310e-01 2.429800e-01 0.000000e+00
9.569400e-01 2.902850e-01 0.000000e+00
9.807850e-01 1.950900e-01 0.000000e+00
9.700310e-01 2.429800e-01 0.000000e+00
9.569400e-01 2.902850e-01 0.000000e+00
9.415440e-01 3.368900e-01 0.000000e+00
9.700310e-01 2.429800e-01 0.000000e+00
2.902850e-01 9.569400e-01 0.000000e+00
2.429800e-01 9.700310e-01 0.000000e+00
3.826830e-01 -9.238800e-01 0.000000e+00
4.275550e-01 -9.039890e-01 0.000000e+00
</DataArray>
</Points>
<PointData>
<DataArray type="Float32" Name="V1" format="ascii">
4.000000e+00
4.000000e+00
7.000000e+00
7.000000e+00
1.500000e+01
1.500000e+01
2.000000e+01
2.400000e+01
2.400000e+01
3.400000e+01
3.400000e+01
3.600000e+01
3.600000e+01
3.800000e+01
4.000000e+01
4.700000e+01
4.700000e+01
5.100000e+01
5.400000e+01
5.600000e+01
6.500000e+01
7.300000e+01
7.300000e+01
7.600000e+01
8.600000e+01
8.600000e+01
8.700000e+01
8.700000e+01
9.000000e+01
9.000000e+01
9.200000e+01
9.200000e+01
9.300000e+01
9.500000e+01
1.610000e+02
1.690000e+02
1.690000e+02
1.820000e+02
1.820000e+02
1.900000e+02
1.910000e+02
1.920000e+02
1.930000e+02
1.930000e+02
1.940000e+02
1.940000e+02
2.120000e+02
2.280000e+02
2.400000e+02
2.400000e+02
2.430000e+02
2.430000e+02
2.660000e+02
2.710000e+02
2.710000e+02
2.780000e+02
2.790000e+02
2.860000e+02
2.900000e+02
2.900000e+02
2.940000e+02
2.940000e+02
2.970000e+02
2.970000e+02
2.980000e+02
3.000000e+02
3.000000e+02
3.070000e+02
3.100000e+02
3.100000e+02
3.160000e+02
3.160000e+02
3.230000e+02
3.250000e+02
3.660000e+02
3.700000e+02
3.720000e+02
3.720000e+02
3.740000e+02
3.740000e+02
4.840000e+02
4.900000e+02
4.900000e+02
4.920000e+02
5.050000e+02
5.050000e+02
5.090000e+02
5.090000e+02
5.100000e+02
5.120000e+02
5.130000e+02
5.130000e+02
5.190000e+02
5.190000e+02
5.230000e+02
5.400000e+02
5.400000e+02
5.410000e+02
5.840000e+02
6.030000e+02
8.250000e+02
8.290000e+02
8.450000e+02
8.450000e+02
8.490000e+02
8.530000e+02
8.550000e+02
8.550000e+02
8.580000e+02
8.580000e+02
8.670000e+02
8.670000e+02
8.690000e+02
8.690000e+02
8.710000e+02
8.720000e+02
8.790000e+02
8.790000e+02
8.830000e+02
8.980000e+02
9.670000e+02
9.670000e+02
9.680000e+02
9.680000e+02
9.700000e+02
9.700000e+02
9.760000e+02
1.020000e+03
1.027000e+03
1.027000e+03
1.239000e+03
1.307000e+03
1.307000e+03
1.309000e+03
1.309000e+03
1.311000e+03
1.314000e+03
1.321000e+03
1.321000e+03
1.451000e+03
1.451000e+03
1.461000e+03
1.470000e+03
1.601000e+03
1.604000e+03
1.604000e+03
1.605000e+03
1.606000e+03
1.608000e+03
1.608000e+03
1.610000e+03
1.610000e+03
1.612000e+03
1.613000e+03
1.617000e+03
1.617000e+03
1.630000e+03
1.635000e+03
1.635000e+03
1.640000e+03
1.640000e+03
1.644000e+03
1.648000e+03
1.648000e+03
1.649000e+03
1.653000e+03
1.660000e+03
1.663000e+03
1.663000e+03
1.668000e+03
1.669000e+03
1.669000e+03
1.670000e+03
1.670000e+03
1.673000e+03
1.673000e+03
1.680000e+03
1.680000e+03
1.687000e+03
1.688000e+03
1.779000e+03
1.780000e+03
1.788000e+03
1.800000e+03
1.800000e+03
1.806000e+03
1.806000e+03
1.808000e+03
1.808000e+03
1.809000e+03
1.809000e+03
1.810000e+03
1.819000e+03
1.819000e+03
1.825000e+03
1.825000e+03
1.826000e+03
1.839000e+03
1.839000e+03
1.841000e+03
1.842000e+03
1.842000e+03
1.844000e+03
1.844000e+03
1.875000e+03
1.884000e+03
1.886000e+03
1.896000e+03
1.896000e+03
1.897000e+03
1.897000e+03
1.902000e+03
1.903000e+03
1.903000e+03
1.918000e+03
1.924000e+03
1.924000e+03
1.949000e+03
1.949000e+03
1.950000e+03
1.976000e+03
1.976000e+03
1.982000e+03
1.984000e+03
1.988000e+03
1.989000e+03
1.990000e+03
1.990000e+03
2.011000e+03
2.011000e+03
2.014000e+03
2.014000e+03
2.015000e+03
2.023000e+03
2.033000e+03
2.037000e+03
2.037000e+03
2.069000e+03
2.069000e+03
2.070000e+03
2.082000e+03
2.084000e+03
2.084000e+03
2.086000e+03
2.088000e+03
2.088000e+03
2.091000e+03
2.091000e+03
2.092000e+03
2.093000e+03
2.094000e+03
2.094000e+03
2.095000e+03
2.096000e+03
2.096000e+03
2.099000e+03
2.100000e+03
2.105000e+03
2.105000e+03
2.120000e+03
2.120000e+03
2.123000e+03
2.124000e+03
2.124000e+03
2.126000e+03
2.126000e+03
2.129000e+03
2.129000e+03
2.130000e+03
2.130000e+03
2.134000e+03
2.136000e+03
2.138000e+03
2.139000e+03
2.139000e+03
2.142000e+03
2.142000e+03
2.143000e+03
2.193000e+03
2.193000e+03
2.196000e+03
2.198000e+03
2.198000e+03
2.199000e+03
2.200000e+03
2.201000e+03
2.201000e+03
2.203000e+03
2.203000e+03
2.232000e+03
2.233000e+03
2.234000e+03
2.235000e+03
2.235000e+03
2.239000e+03
2.241000e+03
2.241000e+03
2.255000e+03
2.266000e+03
2.266000e+03
2.273000e+03
2.285000e+03
2.285000e+03
2.293000e+03
2.298000e+03
2.299000e+03
2.299000e+03
2.303000e+03
2.303000e+03
2.305000e+03
2.305000e+03
2.307000e+03
2.309000e+03
2.313000e+03
2.318000e+03
2.318000e+03
2.319000e+03
2.320000e+03
2.323000e+03
2.323000e+03
2.327000e+03
2.327000e+03
2.328000e+03
2.328000e+03
2.330000e+03
2.335000e+03
2.336000e+03
2.336000e+03
2.337000e+03
2.337000e+03
2.338000e+03
2.339000e+03
2.339000e+03
2.341000e+03
2.341000e+03
2.343000e+03
2.343000e+03
2.344000e+03
2.345000e+03
2.345000e+03
2.352000e+03
2.356000e+03
2.360000e+03
2.360000e+03
2.361000e+03
2.366000e+03
2.369000e+03
2.369000e+03
2.370000e+03
2.370000e+03
2.373000e+03
2.373000e+03
2.374000e+03
2.412000e+03
2.412000e+03
2.417000e+03
2.417000e+03
</DataArray>
<DataArray type="Float32" Name="V2" format="ascii">
1.000000e+00
1.000000e+00
1.000000e+00
1.000000e+00
1.000000e+00
1.000000e+00
1.000000e+00
2.000000e+00
2.000000e+00
1.000000e+00
1.000000e+00
1.000000e+00
1.000000e+00
1.000000e+00
1.000000e+00
1.000000e+00
1.000000e+00
1.000000e+00
1.000000e+00
1.000000e+00
2.000000e+00
2.000000e+00
2.000000e+00
2.000000e+00
2.000000e+00
2.000000e+00
2.000000e+00
2.000000e+00
2.000000e+00
2.000000e+00
2.000000e+00
2.000000e+00
2.000000e+00
2.000000e+00
2.000000e+00
2.000000e+00
2.000000e+00
2.000000e+00
2.000000e+00
2.000000e+00
2.000000e+00
2.000000e+00
2.000000e+00
2.000000e+00
2.000000e+00
2.000000e+00
2.000000e+00
2.000000e+00
2.000000e+00
2.000000e+00
2.000000e+00
2.000000e+00
1.000000e+00
1.000000e+00
1.000000e+00
1.000000e+00
1.000000e+00
1.000000e+00
1.000000e+00
1.000000e+00
1.000000e+00
1.000000e+00
1.000000e+00
1.000000e+00
1.000000e+00
1.000000e+00
1.000000e+00
1.000000e+00
1.000000e+00
1.000000e+00
1.000000e+00
1.000000e+00
1.000000e+00
1.000000e+00
1.000000e+00
1.000000e+00
1.000000e+00
1.000000e+00
1.000000e+00
1.000000e+00
1.000000e+00
1.000000e+00
1.000000e+00
1.000000e+00
1.000000e+00
1.000000e+00
1.000000e+00
1.000000e+00
1.000000e+00
1.000000e+00
1.000000e+00
1.000000e+00
1.000000e+00
1.000000e+00
1.000000e+00
1.000000e+00
1.000000e+00
1.000000e+00
2.000000e+00
1.000000e+00
2.000000e+00
2.000000e+00
2.000000e+00
2.000000e+00
2.000000e+00
2.000000e+00
2.000000e+00
2.000000e+00
2.000000e+00
2.000000e+00
2.000000e+00
2.000000e+00
2.000000e+00
2.000000e+00
2.000000e+00
2.000000e+00
2.000000e+00
2.000000e+00
2.000000e+00
3.000000e+00
2.000000e+00
2.000000e+00
2.000000e+00
2.000000e+00
2.000000e+00
2.000000e+00
2.000000e+00
2.000000e+00
2.000000e+00
2.000000e+00
0.000000e+00
1.000000e+00
1.000000e+00
1.000000e+00
1.000000e+00
1.000000e+00
2.000000e+00
2.000000e+00
2.000000e+00
2.000000e+00
2.000000e+00
2.000000e+00
2.000000e+00
0.000000e+00
0.000000e+00
0.000000e+00
1.000000e+00
0.000000e+00
1.000000e+00
1.000000e+00
1.000000e+00
1.000000e+00
1.000000e+00
2.000000e+00
2.000000e+00
2.000000e+00
3.000000e+00
2.000000e+00
2.000000e+00
3.000000e+00
3.000000e+00
3.000000e+00
3.000000e+00
3.000000e+00
3.000000e+00
3.000000e+00
3.000000e+00
3.000000e+00
3.000000e+00
2.000000e+00
2.000000e+00
2.000000e+00
3.000000e+00
3.000000e+00
3.000000e+00
3.000000e+00
3.000000e+00
3.000000e+00
3.000000e+00
3.000000e+00
0.000000e+00
0.000000e+00
0.000000e+00
0.000000e+00
0.000000e+00
0.000000e+00
0.000000e+00
0.000000e+00
0.000000e+00
0.000000e+00
0.000000e+00
0.000000e+00
0.000000e+00
0.000000e+00
0.000000e+00
0.000000e+00
0.000000e+00
1.000000e+00
1.000000e+00
2.000000e+00
2.000000e+00
2.000000e+00
2.000000e+00
2.000000e+00
3.000000e+00
3.000000e+00
3.000000e+00
3.000000e+00
3.000000e+00
3.000000e+00
3.000000e+00
3.000000e+00
3.000000e+00
3.000000e+00
3.000000e+00
3.000000e+00
3.000000e+00
3.000000e+00
3.000000e+00
3.000000e+00
1.000000e+00
1.000000e+00
0.000000e+00
0.000000e+00
0.000000e+00
0.000000e+00
0.000000e+00
0.000000e+00
0.000000e+00
0.000000e+00
0.000000e+00
0.000000e+00
0.000000e+00
0.000000e+00
0.000000e+00
0.000000e+00
0.000000e+00
2.000000e+00
2.000000e+00
2.000000e+00
3.000000e+00
3.000000e+00
3.000000e+00
3.000000e+00
3.000000e+00
3.000000e+00
3.000000e+00
3.000000e+00
3.000000e+00
3.000000e+00
3.000000e+00
3.000000e+00
3.000000e+00
3.000000e+00
3.000000e+00
3.000000e+00
3.000000e+00
3.000000e+00
3.000000e+00
1.000000e+00
1.000000e+00
3.000000e+00
3.000000e+00
3.000000e+00
3.000000e+00
3.000000e+00
3.000000e+00
3.000000e+00
3.000000e+00
3.000000e+00
3.000000e+00
3.000000e+00
3.000000e+00
3.000000e+00
3.000000e+00
3.000000e+00
3.000000e+00
3.000000e+00
0.000000e+00
0.000000e+00
0.000000e+00
0.000000e+00
0.000000e+00
0.000000e+00
3.000000e+00
0.000000e+00
0.000000e+00
3.000000e+00
3.000000e+00
3.000000e+00
3.000000e+00
3.000000e+00
3.000000e+00
3.000000e+00
0.000000e+00
0.000000e+00
0.000000e+00
3.000000e+00
0.000000e+00
0.000000e+00
0.000000e+00
0.000000e+00
0.000000e+00
0.000000e+00
3.000000e+00
3.000000e+00
3.000000e+00
3.000000e+00
3.000000e+00
1.000000e+00
1.000000e+00
1.000000e+00
1.000000e+00
1.000000e+00
0.000000e+00
0.000000e+00
0.000000e+00
0.000000e+00
0.000000e+00
0.000000e+00
1.000000e+00
1.000000e+00
3.000000e+00
3.000000e+00
1.000000e+00
0.000000e+00
0.000000e+00
0.000000e+00
0.000000e+00
0.000000e+00
3.000000e+00
3.000000e+00
3.000000e+00
0.000000e+00
0.000000e+00
0.000000e+00
0.000000e+00
0.000000e+00
0.000000e+00
0.000000e+00
0.000000e+00
0.000000e+00
0.000000e+00
0.000000e+00
0.000000e+00
0.000000e+00
0.000000e+00
0.000000e+00
0.000000e+00
0.000000e+00
0.000000e+00
0.000000e+00
0.000000e+00
0.000000e+00
0.000000e+00
3.000000e+00
3.000000e+00
</DataArray>
</PointData>
<Verts>
</Verts>
<Lines>
<DataArray type="Int32" Name="connectivity" format="ascii">
0 1 2 3 4 5 6 7 8 9 10 11 12 13 14 15 16 17 18 19 20 21 22 23 24 25 26 27 28 29 30 31 32 33 34 35 36 37 38 39 40 41 42 43 44 45 46 47 48 49 50 51 52 53 54 55 56 57 58 59 60 61 62 63 64 65 66 67 68 69 70 71 72 73 74 75 76 77 78 79 80 81 82 83 84 85 86 87 88 89 90 91 92 93 94 95 96 97 98 99 100 101 102 103 104 105 106 107 108 109 110 111 112 113 114 115 116 117 118 119 120 121 122 123 124 125 126 127 128 129 130 131 132 133 134 135 136 137 138 139 140 141 142 143 144 145 146 147 148 149 150 151 152 153 154 155 156 157 158 159 160 161 162 163 164 165 166 167 168 169 170 171 172 173 174 175 176 177 178 179 180 181 182 183 184 185 186 187 188 189 190 191 192 193 194 195 196 197 198 199 200 201 202 203 204 205 206 207 208 209 210 211 212 213 214 215 216 217 218 219 220 221 222 223 224 225 226 227 228 229 230 231 232 233 234 235 236 237 238 239 240 241 242 243 244 245 246 247 248 249 250 251 252 253 254 255 256 257 258 259 260 261 262 263 264 265 266 267 268 269 270 271 272 273 274 275 276 277 278 279 280 281 282 283 284 285 286 287 288 289 290 291 292 293 294 295 296 297 298 299 300 301 302 303 304 305 306 307 308 309 310 311 312 313 314 315 316 317 318 319 320 321 322 323 324 325 326 327 328 329 330 331 332 333 334 335 336 337 338 339 340 341 342 343 344 345 346 347 348 349 350 351 352 353 354 355 356 </DataArray>
<DataArray type="Int32" Name="offsets" format="ascii">
357 </DataArray>
</Lines>
<Strips>
</Strips>
<Polys>
</Polys>
</Piece></PolyData>
</VTKFile>
