<?xml version="1.0"?>
<VTKFile type="UnstructuredGrid" version="0.1" byte_order="LittleEndian" compressor="vtkZLibDataCompressor">
<UnstructuredGrid>
<Piece NumberOfPoints="405" NumberOfCells="432">
<Points>
<DataArray type="Float32" NumberOfComponents="3" format="ascii">
5.518110e-01 3.687080e-01 0.000000e+00
6.217260e-01 4.154240e-01 0.000000e+00
6.916400e-01 4.621390e-01 0.000000e+00
7.615550e-01 5.088550e-01 0.000000e+00
8.314700e-01 5.555700e-01 0.000000e+00
5.906350e-01 4.533080e-01 0.000000e+00
6.614800e-01 5.007870e-01 0.000000e+00
7.323380e-01 5.482510e-01 0.000000e+00
8.032080e-01 5.956990e-01 0.000000e+00
6.294590e-01 5.379080e-01 0.000000e+00
7.012220e-01 5.861660e-01 0.000000e+00
7.730100e-01 6.343930e-01 0.000000e+00
6.682830e-01 6.225070e-01 0.000000e+00
7.409510e-01 6.715590e-01 0.000000e+00
7.071070e-01 7.071070e-01 0.000000e+00
1.000000e+00 -2.498000e-16 0.000000e+00
9.951850e-01 9.801710e-02 0.000000e+00
9.807850e-01 1.950900e-01 0.000000e+00
9.569400e-01 2.902850e-01 0.000000e+00
9.238800e-01 3.826830e-01 0.000000e+00
9.375000e-01 3.729610e-02 0.000000e+00
9.279200e-01 1.346860e-01 0.000000e+00
9.088280e-01 2.306660e-01 0.000000e+00
8.804100e-01 3.243090e-01 0.000000e+00
8.750000e-01 7.459210e-02 0.000000e+00
8.606770e-01 1.711990e-01 0.000000e+00
8.369400e-01 2.659340e-01 0.000000e+00
8.125000e-01 1.118880e-01 0.000000e+00
7.934700e-01 2.075590e-01 0.000000e+00
7.500000e-01 1.491840e-01 0.000000e+00
5.551120e-17 1.000000e+00 0.000000e+00
6.126320e-02 9.273200e-01 0.000000e+00
1.225260e-01 8.546390e-01 0.000000e+00
1.837900e-01 7.819590e-01 0.000000e+00
2.450530e-01 7.092780e-01 0.000000e+00
9.801710e-02 9.951850e-01 0.000000e+00
1.586530e-01 9.177390e-01 0.000000e+00
2.191340e-01 8.403170e-01 0.000000e+00
2.794610e-01 7.629290e-01 0.000000e+00
1.950900e-01 9.807850e-01 0.000000e+00
2.546330e-01 8.986480e-01 0.000000e+00
3.138680e-01 8.165790e-01 0.000000e+00
2.902850e-01 9.569400e-01 0.000000e+00
3.482760e-01 8.702290e-01 0.000000e+00
3.826830e-01 9.238800e-01 0.000000e+00
7.071070e-01 7.071070e-01 0.000000e+00
6.343930e-01 7.730100e-01 0.000000e+00
5.555700e-01 8.314700e-01 0.000000e+00
4.713970e-01 8.819210e-01 0.000000e+00
3.826830e-01 9.238800e-01 0.000000e+00
6.493140e-01 6.996550e-01 0.000000e+00
5.736740e-01 7.617450e-01 0.000000e+00
4.923070e-01 8.161130e-01 0.000000e+00
4.059960e-01 8.622340e-01 0.000000e+00
5.915210e-01 6.922030e-01 0.000000e+00
5.130820e-01 7.503870e-01 0.000000e+00
4.293090e-01 8.005890e-01 0.000000e+00
5.337280e-01 6.847510e-01 0.000000e+00
4.526220e-01 7.389440e-01 0.000000e+00
4.759350e-01 6.772980e-01 0.000000e+00
8.314700e-01 5.555700e-01 0.000000e+00
7.615550e-01 5.088550e-01 0.000000e+00
6.916400e-01 4.621390e-01 0.000000e+00
6.217260e-01 4.154240e-01 0.000000e+00
5.518110e-01 3.687080e-01 0.000000e+00
8.577290e-01 5.141030e-01 0.000000e+00
7.867710e-01 4.667850e-01 0.000000e+00
7.158040e-01 4.194850e-01 0.000000e+00
6.448280e-01 3.722020e-01 0.000000e+00
8.819210e-01 4.713970e-01 0.000000e+00
8.098920e-01 4.235290e-01 0.000000e+00
7.378450e-01 3.756960e-01 0.000000e+00
9.039890e-01 4.275550e-01 0.000000e+00
8.308620e-01 3.791900e-01 0.000000e+00
9.238800e-01 3.826830e-01 0.000000e+00
-7.500000e-01 1.491840e-01 0.000000e+00
-7.934700e-01 2.075590e-01 0.000000e+00
-8.369400e-01 2.659340e-01 0.000000e+00
-8.804100e-01 3.243090e-01 0.000000e+00
-9.238800e-01 3.826830e-01 0.000000e+00
-8.125000e-01 1.118880e-01 0.000000e+00
-8.606770e-01 1.711990e-01 0.000000e+00
-9.088280e-01 2.306660e-01 0.000000e+00
-9.569400e-01 2.902850e-01 0.000000e+00
-8.750000e-01 7.459210e-02 0.000000e+00
-9.279200e-01 1.346860e-01 0.000000e+00
-9.807850e-01 1.950900e-01 0.000000e+00
-9.375000e-01 3.729610e-02 0.000000e+00
-9.951850e-01 9.801710e-02 0.000000e+00
-1.000000e+00 1.110220e-16 0.000000e+00
-7.071070e-01 7.071070e-01 0.000000e+00
-7.730100e-01 6.343930e-01 0.000000e+00
-8.314700e-01 5.555700e-01 0.000000e+00
-8.819210e-01 4.713970e-01 0.000000e+00
-9.238800e-01 3.826830e-01 0.000000e+00
-6.992060e-01 6.268680e-01 0.000000e+00
-7.612960e-01 5.512280e-01 0.000000e+00
-8.156640e-01 4.698610e-01 0.000000e+00
-8.617850e-01 3.835500e-01 0.000000e+00
-6.913040e-01 5.466290e-01 0.000000e+00
-7.494890e-01 4.681900e-01 0.000000e+00
-7.996910e-01 3.844170e-01 0.000000e+00
-6.834030e-01 4.663900e-01 0.000000e+00
-7.375960e-01 3.852840e-01 0.000000e+00
-6.755020e-01 3.861510e-01 0.000000e+00
-4.463620e-01 6.680290e-01 0.000000e+00
-4.304430e-01 7.319910e-01 0.000000e+00
-4.145230e-01 7.959540e-01 0.000000e+00
-3.986030e-01 8.599170e-01 0.000000e+00
-3.826830e-01 9.238800e-01 0.000000e+00
-5.115480e-01 6.777980e-01 0.000000e+00
-4.982950e-01 7.457520e-01 0.000000e+00
-4.849140e-01 8.137960e-01 0.000000e+00
-4.713970e-01 8.819210e-01 0.000000e+00
-5.767350e-01 6.875680e-01 0.000000e+00
-5.662810e-01 7.594280e-01 0.000000e+00
-5.555700e-01 8.314700e-01 0.000000e+00
-6.419210e-01 6.973370e-01 0.000000e+00
-6.343930e-01 7.730100e-01 0.000000e+00
-7.071070e-01 7.071070e-01 0.000000e+00
-3.826830e-01 9.238800e-01 0.000000e+00
-3.433380e-01 8.856290e-01 0.000000e+00
-3.039930e-01 8.473790e-01 0.000000e+00
-2.646480e-01 8.091290e-01 0.000000e+00
-2.253020e-01 7.708790e-01 0.000000e+00
-2.902850e-01 9.569400e-01 0.000000e+00
-2.496950e-01 9.140480e-01 0.000000e+00
-2.092580e-01 8.711170e-01 0.000000e+00
-1.689770e-01 8.281590e-01 0.000000e+00
-1.950900e-01 9.807850e-01 0.000000e+00
-1.537160e-01 9.331390e-01 0.000000e+00
-1.126510e-01 8.854390e-01 0.000000e+00
-9.801710e-02 9.951850e-01 0.000000e+00
-5.632560e-02 9.427200e-01 0.000000e+00
5.551120e-17 1.000000e+00 0.000000e+00
-5.518110e-01 -3.687080e-01 0.000000e+00
-6.217260e-01 -4.154240e-01 0.000000e+00
-6.916400e-01 -4.621390e-01 0.000000e+00
-7.615550e-01 -5.088550e-01 0.000000e+00
-8.314700e-01 -5.555700e-01 0.000000e+00
-5.906350e-01 -4.533080e-01 0.000000e+00
-6.614800e-01 -5.007870e-01 0.000000e+00
-7.323380e-01 -5.482510e-01 0.000000e+00
-8.032080e-01 -5.956990e-01 0.000000e+00
-6.294590e-01 -5.379080e-01 0.000000e+00
-7.012220e-01 -5.861660e-01 0.000000e+00
-7.730100e-01 -6.343930e-01 0.000000e+00
-6.682830e-01 -6.225070e-01 0.000000e+00
-7.409510e-01 -6.715590e-01 0.000000e+00
-7.071070e-01 -7.071070e-01 0.000000e+00
-7.071070e-01 -7.071070e-01 0.000000e+00
-6.343930e-01 -7.730100e-01 0.000000e+00
-5.555700e-01 -8.314700e-01 0.000000e+00
-4.713970e-01 -8.819210e-01 0.000000e+00
-3.826830e-01 -9.238800e-01 0.000000e+00
-6.360280e-01 -6.885180e-01 0.000000e+00
-5.603880e-01 -7.506090e-01 0.000000e+00
-4.790210e-01 -8.049770e-01 0.000000e+00
-3.927100e-01 -8.510970e-01 0.000000e+00
-5.649490e-01 -6.699290e-01 0.000000e+00
-4.865090e-01 -7.281130e-01 0.000000e+00
-4.027370e-01 -7.783150e-01 0.000000e+00
-4.938700e-01 -6.513400e-01 0.000000e+00
-4.127640e-01 -7.055330e-01 0.000000e+00
-4.227900e-01 -6.327510e-01 0.000000e+00
-7.500000e-01 -1.491840e-01 0.000000e+00
-8.125000e-01 -1.118880e-01 0.000000e+00
-8.750000e-01 -7.459210e-02 0.000000e+00
-9.375000e-01 -3.729610e-02 0.000000e+00
-1.000000e+00 1.110220e-16 0.000000e+00
-7.934700e-01 -2.075590e-01 0.000000e+00
-8.606770e-01 -1.711990e-01 0.000000e+00
-9.279200e-01 -1.346860e-01 0.000000e+00
-9.951850e-01 -9.801710e-02 0.000000e+00
-8.369400e-01 -2.659340e-01 0.000000e+00
-9.088280e-01 -2.306660e-01 0.000000e+00
-9.807850e-01 -1.950900e-01 0.000000e+00
-8.804100e-01 -3.243090e-01 0.000000e+00
-9.569400e-01 -2.902850e-01 0.000000e+00
-9.238800e-01 -3.826830e-01 0.000000e+00
-1.942890e-16 -1.000000e+00 0.000000e+00
-3.695780e-02 -9.358000e-01 0.000000e+00
-7.391570e-02 -8.715990e-01 0.000000e+00
-1.108740e-01 -8.073990e-01 0.000000e+00
-1.478310e-01 -7.431980e-01 0.000000e+00
-9.801710e-02 -9.951850e-01 0.000000e+00
-1.343480e-01 -9.262190e-01 0.000000e+00
-1.705230e-01 -8.572770e-01 0.000000e+00
-2.065440e-01 -7.883690e-01 0.000000e+00
-1.950900e-01 -9.807850e-01 0.000000e+00
-2.303270e-01 -9.071280e-01 0.000000e+00
-2.652570e-01 -8.335390e-01 0.000000e+00
-2.902850e-01 -9.569400e-01 0.000000e+00
-3.239700e-01 -8.787090e-01 0.000000e+00
-3.826830e-01 -9.238800e-01 0.000000e+00
-8.314700e-01 -5.555700e-01 0.000000e+00
-7.615550e-01 -5.088550e-01 0.000000e+00
-6.916400e-01 -4.621390e-01 0.000000e+00
-6.217260e-01 -4.154240e-01 0.000000e+00
-5.518110e-01 -3.687080e-01 0.000000e+00
-8.577290e-01 -5.141030e-01 0.000000e+00
-7.867710e-01 -4.667850e-01 0.000000e+00
-7.158040e-01 -4.194850e-01 0.000000e+00
-6.448280e-01 -3.722020e-01 0.000000e+00
-8.819210e-01 -4.713970e-01 0.000000e+00
-8.098920e-01 -4.235290e-01 0.000000e+00
-7.378450e-01 -3.756960e-01 0.000000e+00
-9.039890e-01 -4.275550e-01 0.000000e+00
-8.308620e-01 -3.791900e-01 0.000000e+00
-9.238800e-01 -3.826830e-01 0.000000e+00
7.500000e-01 -1.491840e-01 0.000000e+00
7.934700e-01 -2.075590e-01 0.000000e+00
8.369400e-01 -2.659340e-01 0.000000e+00
8.804100e-01 -3.243090e-01 0.000000e+00
9.238800e-01 -3.826830e-01 0.000000e+00
8.125000e-01 -1.118880e-01 0.000000e+00
8.606770e-01 -1.711990e-01 0.000000e+00
9.088280e-01 -2.306660e-01 0.000000e+00
9.569400e-01 -2.902850e-01 0.000000e+00
8.750000e-01 -7.459210e-02 0.000000e+00
9.279200e-01 -1.346860e-01 0.000000e+00
9.807850e-01 -1.950900e-01 0.000000e+00
9.375000e-01 -3.729610e-02 0.000000e+00
9.951850e-01 -9.801710e-02 0.000000e+00
1.000000e+00 -2.498000e-16 0.000000e+00
-1.942890e-16 -1.000000e+00 0.000000e+00
9.801710e-02 -9.951850e-01 0.000000e+00
1.950900e-01 -9.807850e-01 0.000000e+00
2.902850e-01 -9.569400e-01 0.000000e+00
3.826830e-01 -9.238800e-01 0.000000e+00
3.832040e-02 -9.426500e-01 0.000000e+00
1.357100e-01 -9.330690e-01 0.000000e+00
2.316900e-01 -9.139780e-01 0.000000e+00
3.253330e-01 -8.855590e-01 0.000000e+00
7.664070e-02 -8.852990e-01 0.000000e+00
1.732480e-01 -8.709760e-01 0.000000e+00
2.679820e-01 -8.472390e-01 0.000000e+00
1.149610e-01 -8.279490e-01 0.000000e+00
2.106320e-01 -8.089180e-01 0.000000e+00
1.532810e-01 -7.705980e-01 0.000000e+00
8.314700e-01 -5.555700e-01 0.000000e+00
8.577290e-01 -5.141030e-01 0.000000e+00
8.819210e-01 -4.713970e-01 0.000000e+00
9.039890e-01 -4.275550e-01 0.000000e+00
9.238800e-01 -3.826830e-01 0.000000e+00
7.615550e-01 -5.088550e-01 0.000000e+00
7.867710e-01 -4.667850e-01 0.000000e+00
8.098920e-01 -4.235290e-01 0.000000e+00
8.308620e-01 -3.791900e-01 0.000000e+00
6.916400e-01 -4.621390e-01 0.000000e+00
7.158040e-01 -4.194850e-01 0.000000e+00
7.378450e-01 -3.756960e-01 0.000000e+00
6.217260e-01 -4.154240e-01 0.000000e+00
6.448280e-01 -3.722020e-01 0.000000e+00
5.518110e-01 -3.687080e-01 0.000000e+00
3.826830e-01 -9.238800e-01 0.000000e+00
4.713970e-01 -8.819210e-01 0.000000e+00
5.555700e-01 -8.314700e-01 0.000000e+00
6.343930e-01 -7.730100e-01 0.000000e+00
7.071070e-01 -7.071070e-01 0.000000e+00
3.903230e-01 -8.503700e-01 0.000000e+00
4.766340e-01 -8.042490e-01 0.000000e+00
5.580010e-01 -7.498810e-01 0.000000e+00
6.336410e-01 -6.877910e-01 0.000000e+00
3.979630e-01 -7.768610e-01 0.000000e+00
4.817350e-01 -7.266580e-01 0.000000e+00
5.601750e-01 -6.684740e-01 0.000000e+00
4.056030e-01 -7.033510e-01 0.000000e+00
4.867090e-01 -6.491580e-01 0.000000e+00
4.132420e-01 -6.298420e-01 0.000000e+00
8.314700e-01 -5.555700e-01 0.000000e+00
7.615550e-01 -5.088550e-01 0.000000e+00
6.916400e-01 -4.621390e-01 0.000000e+00
6.217260e-01 -4.154240e-01 0.000000e+00
5.518110e-01 -3.687080e-01 0.000000e+00
8.032080e-01 -5.956990e-01 0.000000e+00
7.323380e-01 -5.482510e-01 0.000000e+00
6.614800e-01 -5.007870e-01 0.000000e+00
5.906350e-01 -4.533080e-01 0.000000e+00
7.730100e-01 -6.343930e-01 0.000000e+00
7.012220e-01 -5.861660e-01 0.000000e+00
6.294590e-01 -5.379080e-01 0.000000e+00
7.409510e-01 -6.715590e-01 0.000000e+00
6.682830e-01 -6.225070e-01 0.000000e+00
7.071070e-01 -7.071070e-01 0.000000e+00
-2.500000e-01 0.000000e+00 0.000000e+00
-1.875000e-01 0.000000e+00 0.000000e+00
-1.250000e-01 0.000000e+00 0.000000e+00
-6.250000e-02 0.000000e+00 0.000000e+00
3.330670e-16 0.000000e+00 0.000000e+00
-2.187500e-01 7.118890e-02 0.000000e+00
-1.562500e-01 7.118890e-02 0.000000e+00
-9.375000e-02 7.118890e-02 0.000000e+00
-3.125000e-02 7.118890e-02 0.000000e+00
-1.875000e-01 1.423780e-01 0.000000e+00
-1.250000e-01 1.423780e-01 0.000000e+00
-6.250000e-02 1.423780e-01 0.000000e+00
-1.562500e-01 2.135670e-01 0.000000e+00
-9.375000e-02 2.135670e-01 0.000000e+00
-1.250000e-01 2.847560e-01 0.000000e+00
2.500000e-01 0.000000e+00 0.000000e+00
2.143390e-01 6.677670e-02 0.000000e+00
1.786790e-01 1.335530e-01 0.000000e+00
1.430180e-01 2.003300e-01 0.000000e+00
1.073580e-01 2.671070e-01 0.000000e+00
1.875000e-01 0.000000e+00 0.000000e+00
1.518390e-01 6.677670e-02 0.000000e+00
1.161790e-01 1.335530e-01 0.000000e+00
8.051830e-02 2.003300e-01 0.000000e+00
1.250000e-01 0.000000e+00 0.000000e+00
8.933940e-02 6.677670e-02 0.000000e+00
5.367890e-02 1.335530e-01 0.000000e+00
6.250000e-02 0.000000e+00 0.000000e+00
2.683940e-02 6.677670e-02 0.000000e+00
3.330670e-16 0.000000e+00 0.000000e+00
3.330670e-16 0.000000e+00 0.000000e+00
4.835200e-03 -6.401110e-02 0.000000e+00
9.670390e-03 -1.280220e-01 0.000000e+00
1.450560e-02 -1.920330e-01 0.000000e+00
1.934080e-02 -2.560440e-01 0.000000e+00
6.250000e-02 0.000000e+00 0.000000e+00
6.733520e-02 -6.401110e-02 0.000000e+00
7.217040e-02 -1.280220e-01 0.000000e+00
7.700560e-02 -1.920330e-01 0.000000e+00
1.250000e-01 0.000000e+00 0.000000e+00
1.298350e-01 -6.401110e-02 0.000000e+00
1.346700e-01 -1.280220e-01 0.000000e+00
1.875000e-01 0.000000e+00 0.000000e+00
1.923350e-01 -6.401110e-02 0.000000e+00
2.500000e-01 0.000000e+00 0.000000e+00
-3.832370e-01 -2.044020e-01 0.000000e+00
-3.499280e-01 -1.533010e-01 0.000000e+00
-3.166190e-01 -1.022010e-01 0.000000e+00
-2.833090e-01 -5.110050e-02 0.000000e+00
-2.500000e-01 0.000000e+00 0.000000e+00
-4.124280e-01 -1.533010e-01 0.000000e+00
-3.791190e-01 -1.022010e-01 0.000000e+00
-3.458090e-01 -5.110050e-02 0.000000e+00
-3.125000e-01 1.387780e-17 0.000000e+00
-4.416190e-01 -1.022010e-01 0.000000e+00
-4.083090e-01 -5.110050e-02 0.000000e+00
-3.750000e-01 0.000000e+00 0.000000e+00
-4.708090e-01 -5.110050e-02 0.000000e+00
-4.375000e-01 0.000000e+00 0.000000e+00
-5.000000e-01 0.000000e+00 0.000000e+00
5.000000e-01 0.000000e+00 0.000000e+00
4.375000e-01 1.387780e-17 0.000000e+00
3.750000e-01 0.000000e+00 0.000000e+00
3.125000e-01 0.000000e+00 0.000000e+00
2.500000e-01 0.000000e+00 0.000000e+00
4.468850e-01 -7.577520e-02 0.000000e+00
3.843850e-01 -7.577520e-02 0.000000e+00
3.218850e-01 -7.577520e-02 0.000000e+00
2.593850e-01 -7.577520e-02 0.000000e+00
3.937690e-01 -1.515500e-01 0.000000e+00
3.312690e-01 -1.515500e-01 0.000000e+00
2.687690e-01 -1.515500e-01 0.000000e+00
3.406540e-01 -2.273250e-01 0.000000e+00
2.781540e-01 -2.273250e-01 0.000000e+00
2.875390e-01 -3.031010e-01 0.000000e+00
-2.500000e-01 0.000000e+00 0.000000e+00
-1.826650e-01 -6.401110e-02 0.000000e+00
-1.153300e-01 -1.280220e-01 0.000000e+00
-4.799440e-02 -1.920330e-01 0.000000e+00
1.934080e-02 -2.560440e-01 0.000000e+00
-1.875000e-01 0.000000e+00 0.000000e+00
-1.201650e-01 -6.401110e-02 0.000000e+00
-5.282960e-02 -1.280220e-01 0.000000e+00
1.450560e-02 -1.920330e-01 0.000000e+00
-1.250000e-01 0.000000e+00 0.000000e+00
-5.766480e-02 -6.401110e-02 0.000000e+00
9.670390e-03 -1.280220e-01 0.000000e+00
-6.250000e-02 0.000000e+00 0.000000e+00
4.835200e-03 -6.401110e-02 0.000000e+00
3.330670e-16 0.000000e+00 0.000000e+00
-3.750000e-01 1.866680e-01 0.000000e+00
-4.062500e-01 1.400010e-01 0.000000e+00
-4.375000e-01 9.333380e-02 0.000000e+00
-4.687500e-01 4.666690e-02 0.000000e+00
-5.000000e-01 0.000000e+00 0.000000e+00
-3.437500e-01 1.400010e-01 0.000000e+00
-3.750000e-01 9.333380e-02 0.000000e+00
-4.062500e-01 4.666690e-02 0.000000e+00
-4.375000e-01 -6.938890e-18 0.000000e+00
-3.125000e-01 9.333380e-02 0.000000e+00
-3.437500e-01 4.666690e-02 0.000000e+00
-3.750000e-01 0.000000e+00 0.000000e+00
-2.812500e-01 4.666690e-02 0.000000e+00
-3.125000e-01 0.000000e+00 0.000000e+00
-2.500000e-01 0.000000e+00 0.000000e+00
2.500000e-01 0.000000e+00 0.000000e+00
3.125000e-01 6.938890e-18 0.000000e+00
3.750000e-01 0.000000e+00 0.000000e+00
4.375000e-01 0.000000e+00 0.000000e+00
5.000000e-01 0.000000e+00 0.000000e+00
2.720630e-01 5.891030e-02 0.000000e+00
3.345630e-01 5.891030e-02 0.000000e+00
3.970630e-01 5.891030e-02 0.000000e+00
4.595630e-01 5.891030e-02 0.000000e+00
2.941250e-01 1.178210e-01 0.000000e+00
3.566250e-01 1.178210e-01 0.000000e+00
4.191250e-01 1.178210e-01 0.000000e+00
3.161880e-01 1.767310e-01 0.000000e+00
3.786880e-01 1.767310e-01 0.000000e+00
3.382510e-01 2.356410e-01 0.000000e+00
</DataArray>
</Points>
<Cells>
<DataArray type="Int32" Name="connectivity" format="ascii">
0 1 5 
1 6 5 
1 2 6 
2 7 6 
2 3 7 
3 8 7 
3 4 8 
5 6 9 
6 10 9 
6 7 10 
7 11 10 
7 8 11 
9 10 12 
10 13 12 
10 11 13 
12 13 14 
15 16 20 
16 21 20 
16 17 21 
17 22 21 
17 18 22 
18 23 22 
18 19 23 
20 21 24 
21 25 24 
21 22 25 
22 26 25 
22 23 26 
24 25 27 
25 28 27 
25 26 28 
27 28 29 
30 31 35 
31 36 35 
31 32 36 
32 37 36 
32 33 37 
33 38 37 
33 34 38 
35 36 39 
36 40 39 
36 37 40 
37 41 40 
37 38 41 
39 40 42 
40 43 42 
40 41 43 
42 43 44 
45 46 50 
46 51 50 
46 47 51 
47 52 51 
47 48 52 
48 53 52 
48 49 53 
50 51 54 
51 55 54 
51 52 55 
52 56 55 
52 53 56 
54 55 57 
55 58 57 
55 56 58 
57 58 59 
60 61 65 
61 66 65 
61 62 66 
62 67 66 
62 63 67 
63 68 67 
63 64 68 
65 66 69 
66 70 69 
66 67 70 
67 71 70 
67 68 71 
69 70 72 
70 73 72 
70 71 73 
72 73 74 
75 76 80 
76 81 80 
76 77 81 
77 82 81 
77 78 82 
78 83 82 
78 79 83 
80 81 84 
81 85 84 
81 82 85 
82 86 85 
82 83 86 
84 85 87 
85 88 87 
85 86 88 
87 88 89 
90 91 95 
91 96 95 
91 92 96 
92 97 96 
92 93 97 
93 98 97 
93 94 98 
95 96 99 
96 100 99 
96 97 100 
97 101 100 
97 98 101 
99 100 102 
100 103 102 
100 101 103 
102 103 104 
105 106 110 
106 111 110 
106 107 111 
107 112 111 
107 108 112 
108 113 112 
108 109 113 
110 111 114 
111 115 114 
111 112 115 
112 116 115 
112 113 116 
114 115 117 
115 118 117 
115 116 118 
117 118 119 
120 121 125 
121 126 125 
121 122 126 
122 127 126 
122 123 127 
123 128 127 
123 124 128 
125 126 129 
126 130 129 
126 127 130 
127 131 130 
127 128 131 
129 130 132 
130 133 132 
130 131 133 
132 133 134 
135 136 140 
136 141 140 
136 137 141 
137 142 141 
137 138 142 
138 143 142 
138 139 143 
140 141 144 
141 145 144 
141 142 145 
142 146 145 
142 143 146 
144 145 147 
145 148 147 
145 146 148 
147 148 149 
150 151 155 
151 156 155 
151 152 156 
152 157 156 
152 153 157 
153 158 157 
153 154 158 
155 156 159 
156 160 159 
156 157 160 
157 161 160 
157 158 161 
159 160 162 
160 163 162 
160 161 163 
162 163 164 
165 166 170 
166 171 170 
166 167 171 
167 172 171 
167 168 172 
168 173 172 
168 169 173 
170 171 174 
171 175 174 
171 172 175 
172 176 175 
172 173 176 
174 175 177 
175 178 177 
175 176 178 
177 178 179 
180 181 185 
181 186 185 
181 182 186 
182 187 186 
182 183 187 
183 188 187 
183 184 188 
185 186 189 
186 190 189 
186 187 190 
187 191 190 
187 188 191 
189 190 192 
190 193 192 
190 191 193 
192 193 194 
195 196 200 
196 201 200 
196 197 201 
197 202 201 
197 198 202 
198 203 202 
198 199 203 
200 201 204 
201 205 204 
201 202 205 
202 206 205 
202 203 206 
204 205 207 
205 208 207 
205 206 208 
207 208 209 
210 211 215 
211 216 215 
211 212 216 
212 217 216 
212 213 217 
213 218 217 
213 214 218 
215 216 219 
216 220 219 
216 217 220 
217 221 220 
217 218 221 
219 220 222 
220 223 222 
220 221 223 
222 223 224 
225 226 230 
226 231 230 
226 227 231 
227 232 231 
227 228 232 
228 233 232 
228 229 233 
230 231 234 
231 235 234 
231 232 235 
232 236 235 
232 233 236 
234 235 237 
235 238 237 
235 236 238 
237 238 239 
240 241 245 
241 246 245 
241 242 246 
242 247 246 
242 243 247 
243 248 247 
243 244 248 
245 246 249 
246 250 249 
246 247 250 
247 251 250 
247 248 251 
249 250 252 
250 253 252 
250 251 253 
252 253 254 
255 256 260 
256 261 260 
256 257 261 
257 262 261 
257 258 262 
258 263 262 
258 259 263 
260 261 264 
261 265 264 
261 262 265 
262 266 265 
262 263 266 
264 265 267 
265 268 267 
265 266 268 
267 268 269 
270 271 275 
271 276 275 
271 272 276 
272 277 276 
272 273 277 
273 278 277 
273 274 278 
275 276 279 
276 280 279 
276 277 280 
277 281 280 
277 278 281 
279 280 282 
280 283 282 
280 281 283 
282 283 284 
285 286 290 
286 291 290 
286 287 291 
287 292 291 
287 288 292 
288 293 292 
288 289 293 
290 291 294 
291 295 294 
291 292 295 
292 296 295 
292 293 296 
294 295 297 
295 298 297 
295 296 298 
297 298 299 
300 301 305 
301 306 305 
301 302 306 
302 307 306 
302 303 307 
303 308 307 
303 304 308 
305 306 309 
306 310 309 
306 307 310 
307 311 310 
307 308 311 
309 310 312 
310 313 312 
310 311 313 
312 313 314 
315 316 320 
316 321 320 
316 317 321 
317 322 321 
317 318 322 
318 323 322 
318 319 323 
320 321 324 
321 325 324 
321 322 325 
322 326 325 
322 323 326 
324 325 327 
325 328 327 
325 326 328 
327 328 329 
330 331 335 
331 336 335 
331 332 336 
332 337 336 
332 333 337 
333 338 337 
333 334 338 
335 336 339 
336 340 339 
336 337 340 
337 341 340 
337 338 341 
339 340 342 
340 343 342 
340 341 343 
342 343 344 
345 346 350 
346 351 350 
346 347 351 
347 352 351 
347 348 352 
348 353 352 
348 349 353 
350 351 354 
351 355 354 
351 352 355 
352 356 355 
352 353 356 
354 355 357 
355 358 357 
355 356 358 
357 358 359 
360 361 365 
361 366 365 
361 362 366 
362 367 366 
362 363 367 
363 368 367 
363 364 368 
365 366 369 
366 370 369 
366 367 370 
367 371 370 
367 368 371 
369 370 372 
370 373 372 
370 371 373 
372 373 374 
375 376 380 
376 381 380 
376 377 381 
377 382 381 
377 378 382 
378 383 382 
378 379 383 
380 381 384 
381 385 384 
381 382 385 
382 386 385 
382 383 386 
384 385 387 
385 388 387 
385 386 388 
387 388 389 
390 391 395 
391 396 395 
391 392 396 
392 397 396 
392 393 397 
393 398 397 
393 394 398 
395 396 399 
396 400 399 
396 397 400 
397 401 400 
397 398 401 
399 400 402 
400 403 402 
400 401 403 
402 403 404 
</DataArray>
<DataArray type="Int32" Name="offsets" format="ascii">
3
6
9
12
15
18
21
24
27
30
33
36
39
42
45
48
51
54
57
60
63
66
69
72
75
78
81
84
87
90
93
96
99
102
105
108
111
114
117
120
123
126
129
132
135
138
141
144
147
150
153
156
159
162
165
168
171
174
177
180
183
186
189
192
195
198
201
204
207
210
213
216
219
222
225
228
231
234
237
240
243
246
249
252
255
258
261
264
267
270
273
276
279
282
285
288
291
294
297
300
303
306
309
312
315
318
321
324
327
330
333
336
339
342
345
348
351
354
357
360
363
366
369
372
375
378
381
384
387
390
393
396
399
402
405
408
411
414
417
420
423
426
429
432
435
438
441
444
447
450
453
456
459
462
465
468
471
474
477
480
483
486
489
492
495
498
501
504
507
510
513
516
519
522
525
528
531
534
537
540
543
546
549
552
555
558
561
564
567
570
573
576
579
582
585
588
591
594
597
600
603
606
609
612
615
618
621
624
627
630
633
636
639
642
645
648
651
654
657
660
663
666
669
672
675
678
681
684
687
690
693
696
699
702
705
708
711
714
717
720
723
726
729
732
735
738
741
744
747
750
753
756
759
762
765
768
771
774
777
780
783
786
789
792
795
798
801
804
807
810
813
816
819
822
825
828
831
834
837
840
843
846
849
852
855
858
861
864
867
870
873
876
879
882
885
888
891
894
897
900
903
906
909
912
915
918
921
924
927
930
933
936
939
942
945
948
951
954
957
960
963
966
969
972
975
978
981
984
987
990
993
996
999
1002
1005
1008
1011
1014
1017
1020
1023
1026
1029
1032
1035
1038
1041
1044
1047
1050
1053
1056
1059
1062
1065
1068
1071
1074
1077
1080
1083
1086
1089
1092
1095
1098
1101
1104
1107
1110
1113
1116
1119
1122
1125
1128
1131
1134
1137
1140
1143
1146
1149
1152
1155
1158
1161
1164
1167
1170
1173
1176
1179
1182
1185
1188
1191
1194
1197
1200
1203
1206
1209
1212
1215
1218
1221
1224
1227
1230
1233
1236
1239
1242
1245
1248
1251
1254
1257
1260
1263
1266
1269
1272
1275
1278
1281
1284
1287
1290
1293
1296
</DataArray>
<DataArray type="UInt8" Name="types" format="ascii">
5
5
5
5
5
5
5
5
5
5
5
5
5
5
5
5
5
5
5
5
5
5
5
5
5
5
5
5
5
5
5
5
5
5
5
5
5
5
5
5
5
5
5
5
5
5
5
5
5
5
5
5
5
5
5
5
5
5
5
5
5
5
5
5
5
5
5
5
5
5
5
5
5
5
5
5
5
5
5
5
5
5
5
5
5
5
5
5
5
5
5
5
5
5
5
5
5
5
5
5
5
5
5
5
5
5
5
5
5
5
5
5
5
5
5
5
5
5
5
5
5
5
5
5
5
5
5
5
5
5
5
5
5
5
5
5
5
5
5
5
5
5
5
5
5
5
5
5
5
5
5
5
5
5
5
5
5
5
5
5
5
5
5
5
5
5
5
5
5
5
5
5
5
5
5
5
5
5
5
5
5
5
5
5
5
5
5
5
5
5
5
5
5
5
5
5
5
5
5
5
5
5
5
5
5
5
5
5
5
5
5
5
5
5
5
5
5
5
5
5
5
5
5
5
5
5
5
5
5
5
5
5
5
5
5
5
5
5
5
5
5
5
5
5
5
5
5
5
5
5
5
5
5
5
5
5
5
5
5
5
5
5
5
5
5
5
5
5
5
5
5
5
5
5
5
5
5
5
5
5
5
5
5
5
5
5
5
5
5
5
5
5
5
5
5
5
5
5
5
5
5
5
5
5
5
5
5
5
5
5
5
5
5
5
5
5
5
5
5
5
5
5
5
5
5
5
5
5
5
5
5
5
5
5
5
5
5
5
5
5
5
5
5
5
5
5
5
5
5
5
5
5
5
5
5
5
5
5
5
5
5
5
5
5
5
5
5
5
5
5
5
5
5
5
5
5
5
5
5
5
5
5
5
5
5
5
5
5
5
5
5
5
5
5
5
5
5
5
5
5
5
5
5
5
5
5
5
5
5
5
5
5
5
5
5
5
5
5
5
5
5
5
5
5
5
5
5
5
5
5
5
5
</DataArray>
</Cells>
<PointData>
<DataArray type="Float32" Name="V1" format="ascii">
0.000000e+00
0.000000e+00
0.000000e+00
0.000000e+00
0.000000e+00
0.000000e+00
0.000000e+00
0.000000e+00
0.000000e+00
0.000000e+00
0.000000e+00
0.000000e+00
0.000000e+00
0.000000e+00
0.000000e+00
0.000000e+00
0.000000e+00
0.000000e+00
0.000000e+00
0.000000e+00
0.000000e+00
0.000000e+00
0.000000e+00
0.000000e+00
0.000000e+00
0.000000e+00
0.000000e+00
0.000000e+00
0.000000e+00
0.000000e+00
0.000000e+00
0.000000e+00
0.000000e+00
0.000000e+00
0.000000e+00
0.000000e+00
0.000000e+00
0.000000e+00
0.000000e+00
0.000000e+00
0.000000e+00
0.000000e+00
0.000000e+00
0.000000e+00
0.000000e+00
0.000000e+00
0.000000e+00
0.000000e+00
0.000000e+00
0.000000e+00
0.000000e+00
0.000000e+00
0.000000e+00
0.000000e+00
0.000000e+00
0.000000e+00
0.000000e+00
0.000000e+00
0.000000e+00
0.000000e+00
0.000000e+00
0.000000e+00
0.000000e+00
0.000000e+00
0.000000e+00
0.000000e+00
0.000000e+00
0.000000e+00
0.000000e+00
0.000000e+00
0.000000e+00
0.000000e+00
0.000000e+00
0.000000e+00
0.000000e+00
0.000000e+00
0.000000e+00
0.000000e+00
0.000000e+00
0.000000e+00
0.000000e+00
0.000000e+00
0.000000e+00
0.000000e+00
0.000000e+00
0.000000e+00
0.000000e+00
0.000000e+00
0.000000e+00
0.000000e+00
0.000000e+00
0.000000e+00
0.000000e+00
0.000000e+00
0.000000e+00
0.000000e+00
0.000000e+00
0.000000e+00
0.000000e+00
0.000000e+00
0.000000e+00
0.000000e+00
0.000000e+00
0.000000e+00
0.000000e+00
0.000000e+00
0.000000e+00
0.000000e+00
0.000000e+00
0.000000e+00
0.000000e+00
0.000000e+00
0.000000e+00
0.000000e+00
0.000000e+00
0.000000e+00
0.000000e+00
0.000000e+00
0.000000e+00
0.000000e+00
0.000000e+00
0.000000e+00
0.000000e+00
0.000000e+00
0.000000e+00
0.000000e+00
0.000000e+00
0.000000e+00
0.000000e+00
0.000000e+00
0.000000e+00
0.000000e+00
0.000000e+00
0.000000e+00
0.000000e+00
0.000000e+00
0.000000e+00
0.000000e+00
0.000000e+00
0.000000e+00
0.000000e+00
0.000000e+00
0.000000e+00
0.000000e+00
0.000000e+00
0.000000e+00
0.000000e+00
0.000000e+00
0.000000e+00
0.000000e+00
0.000000e+00
0.000000e+00
0.000000e+00
0.000000e+00
0.000000e+00
0.000000e+00
0.000000e+00
0.000000e+00
0.000000e+00
0.000000e+00
0.000000e+00
0.000000e+00
0.000000e+00
0.000000e+00
0.000000e+00
0.000000e+00
0.000000e+00
0.000000e+00
0.000000e+00
0.000000e+00
0.000000e+00
0.000000e+00
0.000000e+00
0.000000e+00
0.000000e+00
0.000000e+00
0.000000e+00
0.000000e+00
0.000000e+00
0.000000e+00
0.000000e+00
0.000000e+00
0.000000e+00
0.000000e+00
0.000000e+00
0.000000e+00
0.000000e+00
0.000000e+00
0.000000e+00
0.000000e+00
0.000000e+00
0.000000e+00
0.000000e+00
0.000000e+00
0.000000e+00
0.000000e+00
0.000000e+00
0.000000e+00
0.000000e+00
0.000000e+00
0.000000e+00
0.000000e+00
0.000000e+00
0.000000e+00
0.000000e+00
0.000000e+00
0.000000e+00
0.000000e+00
0.000000e+00
0.000000e+00
0.000000e+00
0.000000e+00
0.000000e+00
0.000000e+00
0.000000e+00
0.000000e+00
0.000000e+00
0.000000e+00
0.000000e+00
0.000000e+00
0.000000e+00
0.000000e+00
0.000000e+00
0.000000e+00
0.000000e+00
0.000000e+00
0.000000e+00
0.000000e+00
0.000000e+00
0.000000e+00
0.000000e+00
0.000000e+00
0.000000e+00
0.000000e+00
0.000000e+00
0.000000e+00
0.000000e+00
0.000000e+00
0.000000e+00
0.000000e+00
0.000000e+00
0.000000e+00
0.000000e+00
0.000000e+00
0.000000e+00
0.000000e+00
0.000000e+00
0.000000e+00
0.000000e+00
0.000000e+00
0.000000e+00
0.000000e+00
0.000000e+00
0.000000e+00
0.000000e+00
0.000000e+00
0.000000e+00
0.000000e+00
0.000000e+00
0.000000e+00
0.000000e+00
0.000000e+00
0.000000e+00
0.000000e+00
0.000000e+00
0.000000e+00
0.000000e+00
0.000000e+00
0.000000e+00
0.000000e+00
0.000000e+00
0.000000e+00
0.000000e+00
0.000000e+00
0.000000e+00
0.000000e+00
0.000000e+00
0.000000e+00
0.000000e+00
0.000000e+00
0.000000e+00
0.000000e+00
0.000000e+00
0.000000e+00
0.000000e+00
0.000000e+00
0.000000e+00
0.000000e+00
0.000000e+00
0.000000e+00
0.000000e+00
0.000000e+00
0.000000e+00
0.000000e+00
0.000000e+00
0.000000e+00
0.000000e+00
0.000000e+00
0.000000e+00
0.000000e+00
0.000000e+00
0.000000e+00
0.000000e+00
0.000000e+00
0.000000e+00
0.000000e+00
0.000000e+00
0.000000e+00
0.000000e+00
0.000000e+00
0.000000e+00
0.000000e+00
0.000000e+00
0.000000e+00
0.000000e+00
0.000000e+00
0.000000e+00
0.000000e+00
0.000000e+00
0.000000e+00
0.000000e+00
0.000000e+00
0.000000e+00
0.000000e+00
0.000000e+00
0.000000e+00
0.000000e+00
0.000000e+00
0.000000e+00
0.000000e+00
0.000000e+00
0.000000e+00
0.000000e+00
0.000000e+00
0.000000e+00
0.000000e+00
0.000000e+00
0.000000e+00
0.000000e+00
0.000000e+00
0.000000e+00
0.000000e+00
0.000000e+00
0.000000e+00
0.000000e+00
0.000000e+00
0.000000e+00
0.000000e+00
0.000000e+00
0.000000e+00
0.000000e+00
0.000000e+00
0.000000e+00
0.000000e+00
0.000000e+00
0.000000e+00
0.000000e+00
0.000000e+00
0.000000e+00
0.000000e+00
0.000000e+00
0.000000e+00
0.000000e+00
0.000000e+00
0.000000e+00
0.000000e+00
0.000000e+00
0.000000e+00
0.000000e+00
0.000000e+00
0.000000e+00
0.000000e+00
0.000000e+00
0.000000e+00
0.000000e+00
0.000000e+00
0.000000e+00
0.000000e+00
0.000000e+00
0.000000e+00
0.000000e+00
0.000000e+00
0.000000e+00
0.000000e+00
0.000000e+00
0.000000e+00
0.000000e+00
0.000000e+00
0.000000e+00
0.000000e+00
0.000000e+00
0.000000e+00
0.000000e+00
0.000000e+00
0.000000e+00
0.000000e+00
0.000000e+00
0.000000e+00
0.000000e+00
0.000000e+00
0.000000e+00
0.000000e+00
0.000000e+00
0.000000e+00
0.000000e+00
</DataArray>
<DataArray type="Float32" Name="V2" format="ascii">
0.000000e+00
0.000000e+00
0.000000e+00
0.000000e+00
0.000000e+00
0.000000e+00
0.000000e+00
0.000000e+00
0.000000e+00
0.000000e+00
0.000000e+00
0.000000e+00
0.000000e+00
0.000000e+00
0.000000e+00
0.000000e+00
0.000000e+00
0.000000e+00
0.000000e+00
0.000000e+00
0.000000e+00
0.000000e+00
0.000000e+00
0.000000e+00
0.000000e+00
0.000000e+00
0.000000e+00
0.000000e+00
0.000000e+00
0.000000e+00
0.000000e+00
0.000000e+00
0.000000e+00
0.000000e+00
0.000000e+00
0.000000e+00
0.000000e+00
0.000000e+00
0.000000e+00
0.000000e+00
0.000000e+00
0.000000e+00
0.000000e+00
0.000000e+00
0.000000e+00
0.000000e+00
0.000000e+00
0.000000e+00
0.000000e+00
0.000000e+00
0.000000e+00
0.000000e+00
0.000000e+00
0.000000e+00
0.000000e+00
0.000000e+00
0.000000e+00
0.000000e+00
0.000000e+00
0.000000e+00
0.000000e+00
0.000000e+00
0.000000e+00
0.000000e+00
0.000000e+00
0.000000e+00
0.000000e+00
0.000000e+00
0.000000e+00
0.000000e+00
0.000000e+00
0.000000e+00
0.000000e+00
0.000000e+00
0.000000e+00
0.000000e+00
0.000000e+00
0.000000e+00
0.000000e+00
0.000000e+00
0.000000e+00
0.000000e+00
0.000000e+00
0.000000e+00
0.000000e+00
0.000000e+00
0.000000e+00
0.000000e+00
0.000000e+00
0.000000e+00
0.000000e+00
0.000000e+00
0.000000e+00
0.000000e+00
0.000000e+00
0.000000e+00
0.000000e+00
0.000000e+00
0.000000e+00
0.000000e+00
0.000000e+00
0.000000e+00
0.000000e+00
0.000000e+00
0.000000e+00
0.000000e+00
0.000000e+00
0.000000e+00
0.000000e+00
0.000000e+00
0.000000e+00
0.000000e+00
0.000000e+00
0.000000e+00
0.000000e+00
0.000000e+00
0.000000e+00
0.000000e+00
0.000000e+00
0.000000e+00
0.000000e+00
0.000000e+00
0.000000e+00
0.000000e+00
0.000000e+00
0.000000e+00
0.000000e+00
0.000000e+00
0.000000e+00
0.000000e+00
0.000000e+00
0.000000e+00
0.000000e+00
0.000000e+00
0.000000e+00
0.000000e+00
0.000000e+00
0.000000e+00
0.000000e+00
0.000000e+00
0.000000e+00
0.000000e+00
0.000000e+00
0.000000e+00
0.000000e+00
0.000000e+00
0.000000e+00
0.000000e+00
0.000000e+00
0.000000e+00
0.000000e+00
0.000000e+00
0.000000e+00
0.000000e+00
0.000000e+00
0.000000e+00
0.000000e+00
0.000000e+00
0.000000e+00
0.000000e+00
0.000000e+00
0.000000e+00
0.000000e+00
0.000000e+00
0.000000e+00
0.000000e+00
0.000000e+00
0.000000e+00
0.000000e+00
0.000000e+00
0.000000e+00
0.000000e+00
0.000000e+00
0.000000e+00
0.000000e+00
0.000000e+00
0.000000e+00
0.000000e+00
0.000000e+00
0.000000e+00
0.000000e+00
0.000000e+00
0.000000e+00
0.000000e+00
0.000000e+00
0.000000e+00
0.000000e+00
0.000000e+00
0.000000e+00
0.000000e+00
0.000000e+00
0.000000e+00
0.000000e+00
0.000000e+00
0.000000e+00
0.000000e+00
0.000000e+00
0.000000e+00
0.000000e+00
0.000000e+00
0.000000e+00
0.000000e+00
0.000000e+00
0.000000e+00
0.000000e+00
0.000000e+00
0.000000e+00
0.000000e+00
0.000000e+00
0.000000e+00
0.000000e+00
0.000000e+00
0.000000e+00
0.000000e+00
0.000000e+00
0.000000e+00
0.000000e+00
0.000000e+00
0.000000e+00
0.000000e+00
0.000000e+00
0.000000e+00
0.000000e+00
0.000000e+00
0.000000e+00
0.000000e+00
0.000000e+00
0.000000e+00
0.000000e+00
0.000000e+00
0.000000e+00
0.000000e+00
0.000000e+00
0.000000e+00
0.000000e+00
0.000000e+00
0.000000e+00
0.000000e+00
0.000000e+00
0.000000e+00
0.000000e+00
0.000000e+00
0.000000e+00
0.000000e+00
0.000000e+00
0.000000e+00
0.000000e+00
0.000000e+00
0.000000e+00
0.000000e+00
0.000000e+00
0.000000e+00
0.000000e+00
0.000000e+00
0.000000e+00
0.000000e+00
0.000000e+00
0.000000e+00
0.000000e+00
0.000000e+00
0.000000e+00
0.000000e+00
0.000000e+00
0.000000e+00
0.000000e+00
0.000000e+00
0.000000e+00
0.000000e+00
0.000000e+00
0.000000e+00
0.000000e+00
0.000000e+00
0.000000e+00
0.000000e+00
0.000000e+00
0.000000e+00
0.000000e+00
0.000000e+00
0.000000e+00
0.000000e+00
0.000000e+00
0.000000e+00
0.000000e+00
0.000000e+00
0.000000e+00
0.000000e+00
0.000000e+00
0.000000e+00
0.000000e+00
0.000000e+00
0.000000e+00
0.000000e+00
0.000000e+00
0.000000e+00
0.000000e+00
0.000000e+00
0.000000e+00
0.000000e+00
0.000000e+00
0.000000e+00
0.000000e+00
0.000000e+00
0.000000e+00
0.000000e+00
0.000000e+00
0.000000e+00
0.000000e+00
0.000000e+00
0.000000e+00
0.000000e+00
0.000000e+00
0.000000e+00
0.000000e+00
0.000000e+00
0.000000e+00
0.000000e+00
0.000000e+00
0.000000e+00
0.000000e+00
0.000000e+00
0.000000e+00
0.000000e+00
0.000000e+00
0.000000e+00
0.000000e+00
0.000000e+00
0.000000e+00
0.000000e+00
0.000000e+00
0.000000e+00
0.000000e+00
0.000000e+00
0.000000e+00
0.000000e+00
0.000000e+00
0.000000e+00
0.000000e+00
0.000000e+00
0.000000e+00
0.000000e+00
0.000000e+00
0.000000e+00
0.000000e+00
0.000000e+00
0.000000e+00
0.000000e+00
0.000000e+00
0.000000e+00
0.000000e+00
0.000000e+00
0.000000e+00
0.000000e+00
0.000000e+00
0.000000e+00
0.000000e+00
0.000000e+00
0.000000e+00
0.000000e+00
0.000000e+00
0.000000e+00
0.000000e+00
0.000000e+00
0.000000e+00
0.000000e+00
0.000000e+00
0.000000e+00
0.000000e+00
0.000000e+00
0.000000e+00
0.000000e+00
0.000000e+00
0.000000e+00
0.000000e+00
0.000000e+00
0.000000e+00
0.000000e+00
0.000000e+00
0.000000e+00
0.000000e+00
0.000000e+00
0.000000e+00
0.000000e+00
0.000000e+00
0.000000e+00
0.000000e+00
0.000000e+00
0.000000e+00
0.000000e+00
0.000000e+00
0.000000e+00
0.000000e+00
0.000000e+00
0.000000e+00
0.000000e+00
0.000000e+00
0.000000e+00
0.000000e+00
0.000000e+00
0.000000e+00
0.000000e+00
0.000000e+00
0.000000e+00
0.000000e+00
0.000000e+00
0.000000e+00
</DataArray>
<DataArray type="Float32" Name="V3" format="ascii">
0.000000e+00
0.000000e+00
0.000000e+00
0.000000e+00
0.000000e+00
0.000000e+00
0.000000e+00
0.000000e+00
0.000000e+00
0.000000e+00
0.000000e+00
0.000000e+00
0.000000e+00
0.000000e+00
0.000000e+00
0.000000e+00
0.000000e+00
0.000000e+00
0.000000e+00
0.000000e+00
0.000000e+00
0.000000e+00
0.000000e+00
0.000000e+00
0.000000e+00
0.000000e+00
0.000000e+00
0.000000e+00
0.000000e+00
0.000000e+00
0.000000e+00
0.000000e+00
0.000000e+00
0.000000e+00
0.000000e+00
0.000000e+00
0.000000e+00
0.000000e+00
0.000000e+00
0.000000e+00
0.000000e+00
0.000000e+00
0.000000e+00
0.000000e+00
0.000000e+00
0.000000e+00
0.000000e+00
0.000000e+00
0.000000e+00
0.000000e+00
0.000000e+00
0.000000e+00
0.000000e+00
0.000000e+00
0.000000e+00
0.000000e+00
0.000000e+00
0.000000e+00
0.000000e+00
0.000000e+00
0.000000e+00
0.000000e+00
0.000000e+00
0.000000e+00
0.000000e+00
0.000000e+00
0.000000e+00
0.000000e+00
0.000000e+00
0.000000e+00
0.000000e+00
0.000000e+00
0.000000e+00
0.000000e+00
0.000000e+00
0.000000e+00
0.000000e+00
0.000000e+00
0.000000e+00
0.000000e+00
0.000000e+00
0.000000e+00
0.000000e+00
0.000000e+00
0.000000e+00
0.000000e+00
0.000000e+00
0.000000e+00
0.000000e+00
0.000000e+00
0.000000e+00
0.000000e+00
0.000000e+00
0.000000e+00
0.000000e+00
0.000000e+00
0.000000e+00
0.000000e+00
0.000000e+00
0.000000e+00
0.000000e+00
0.000000e+00
0.000000e+00
0.000000e+00
0.000000e+00
0.000000e+00
0.000000e+00
0.000000e+00
0.000000e+00
0.000000e+00
0.000000e+00
0.000000e+00
0.000000e+00
0.000000e+00
0.000000e+00
0.000000e+00
0.000000e+00
0.000000e+00
0.000000e+00
0.000000e+00
0.000000e+00
0.000000e+00
0.000000e+00
0.000000e+00
0.000000e+00
0.000000e+00
0.000000e+00
0.000000e+00
0.000000e+00
0.000000e+00
0.000000e+00
0.000000e+00
0.000000e+00
0.000000e+00
0.000000e+00
0.000000e+00
0.000000e+00
0.000000e+00
0.000000e+00
0.000000e+00
0.000000e+00
0.000000e+00
0.000000e+00
0.000000e+00
0.000000e+00
0.000000e+00
0.000000e+00
0.000000e+00
0.000000e+00
0.000000e+00
0.000000e+00
0.000000e+00
0.000000e+00
0.000000e+00
0.000000e+00
0.000000e+00
0.000000e+00
0.000000e+00
0.000000e+00
0.000000e+00
0.000000e+00
0.000000e+00
0.000000e+00
0.000000e+00
0.000000e+00
0.000000e+00
0.000000e+00
0.000000e+00
0.000000e+00
0.000000e+00
0.000000e+00
0.000000e+00
0.000000e+00
0.000000e+00
0.000000e+00
0.000000e+00
0.000000e+00
0.000000e+00
0.000000e+00
0.000000e+00
0.000000e+00
0.000000e+00
0.000000e+00
0.000000e+00
0.000000e+00
0.000000e+00
0.000000e+00
0.000000e+00
0.000000e+00
0.000000e+00
0.000000e+00
0.000000e+00
0.000000e+00
0.000000e+00
0.000000e+00
0.000000e+00
0.000000e+00
0.000000e+00
0.000000e+00
0.000000e+00
0.000000e+00
0.000000e+00
0.000000e+00
0.000000e+00
0.000000e+00
0.000000e+00
0.000000e+00
0.000000e+00
0.000000e+00
0.000000e+00
0.000000e+00
0.000000e+00
0.000000e+00
0.000000e+00
0.000000e+00
0.000000e+00
0.000000e+00
0.000000e+00
0.000000e+00
0.000000e+00
0.000000e+00
0.000000e+00
0.000000e+00
0.000000e+00
0.000000e+00
0.000000e+00
0.000000e+00
0.000000e+00
0.000000e+00
0.000000e+00
0.000000e+00
0.000000e+00
0.000000e+00
0.000000e+00
0.000000e+00
0.000000e+00
0.000000e+00
0.000000e+00
0.000000e+00
0.000000e+00
0.000000e+00
0.000000e+00
0.000000e+00
0.000000e+00
0.000000e+00
0.000000e+00
0.000000e+00
0.000000e+00
0.000000e+00
0.000000e+00
0.000000e+00
0.000000e+00
0.000000e+00
0.000000e+00
0.000000e+00
0.000000e+00
0.000000e+00
0.000000e+00
0.000000e+00
0.000000e+00
0.000000e+00
0.000000e+00
0.000000e+00
0.000000e+00
0.000000e+00
0.000000e+00
0.000000e+00
0.000000e+00
0.000000e+00
0.000000e+00
0.000000e+00
0.000000e+00
0.000000e+00
0.000000e+00
0.000000e+00
0.000000e+00
0.000000e+00
0.000000e+00
0.000000e+00
0.000000e+00
0.000000e+00
0.000000e+00
0.000000e+00
0.000000e+00
0.000000e+00
0.000000e+00
0.000000e+00
0.000000e+00
0.000000e+00
0.000000e+00
0.000000e+00
0.000000e+00
0.000000e+00
0.000000e+00
0.000000e+00
0.000000e+00
0.000000e+00
0.000000e+00
0.000000e+00
0.000000e+00
0.000000e+00
0.000000e+00
0.000000e+00
0.000000e+00
0.000000e+00
0.000000e+00
0.000000e+00
0.000000e+00
0.000000e+00
0.000000e+00
0.000000e+00
0.000000e+00
0.000000e+00
0.000000e+00
0.000000e+00
0.000000e+00
0.000000e+00
0.000000e+00
0.000000e+00
0.000000e+00
0.000000e+00
0.000000e+00
0.000000e+00
0.000000e+00
0.000000e+00
0.000000e+00
0.000000e+00
0.000000e+00
0.000000e+00
0.000000e+00
0.000000e+00
0.000000e+00
0.000000e+00
0.000000e+00
0.000000e+00
0.000000e+00
0.000000e+00
0.000000e+00
0.000000e+00
0.000000e+00
0.000000e+00
0.000000e+00
0.000000e+00
0.000000e+00
0.000000e+00
0.000000e+00
0.000000e+00
0.000000e+00
0.000000e+00
0.000000e+00
0.000000e+00
0.000000e+00
0.000000e+00
0.000000e+00
0.000000e+00
0.000000e+00
0.000000e+00
0.000000e+00
0.000000e+00
0.000000e+00
0.000000e+00
0.000000e+00
0.000000e+00
0.000000e+00
0.000000e+00
0.000000e+00
0.000000e+00
0.000000e+00
0.000000e+00
0.000000e+00
0.000000e+00
0.000000e+00
0.000000e+00
0.000000e+00
0.000000e+00
0.000000e+00
0.000000e+00
0.000000e+00
0.000000e+00
0.000000e+00
0.000000e+00
0.000000e+00
0.000000e+00
0.000000e+00
0.000000e+00
0.000000e+00
0.000000e+00
0.000000e+00
0.000000e+00
0.000000e+00
0.000000e+00
0.000000e+00
0.000000e+00
0.000000e+00
0.000000e+00
0.000000e+00
0.000000e+00
0.000000e+00
0.000000e+00
0.000000e+00
0.000000e+00
0.000000e+00
0.000000e+00
0.000000e+00
0.000000e+00
</DataArray>
<DataArray type="Float32" Name="V4" format="ascii">
0.000000e+00
0.000000e+00
0.000000e+00
0.000000e+00
0.000000e+00
0.000000e+00
0.000000e+00
0.000000e+00
0.000000e+00
0.000000e+00
0.000000e+00
0.000000e+00
0.000000e+00
0.000000e+00
0.000000e+00
0.000000e+00
0.000000e+00
0.000000e+00
0.000000e+00
0.000000e+00
0.000000e+00
0.000000e+00
0.000000e+00
0.000000e+00
0.000000e+00
0.000000e+00
0.000000e+00
0.000000e+00
0.000000e+00
0.000000e+00
0.000000e+00
0.000000e+00
0.000000e+00
0.000000e+00
0.000000e+00
0.000000e+00
0.000000e+00
0.000000e+00
0.000000e+00
0.000000e+00
0.000000e+00
0.000000e+00
0.000000e+00
0.000000e+00
0.000000e+00
0.000000e+00
0.000000e+00
0.000000e+00
0.000000e+00
0.000000e+00
0.000000e+00
0.000000e+00
0.000000e+00
0.000000e+00
0.000000e+00
0.000000e+00
0.000000e+00
0.000000e+00
0.000000e+00
0.000000e+00
0.000000e+00
0.000000e+00
0.000000e+00
0.000000e+00
0.000000e+00
0.000000e+00
0.000000e+00
0.000000e+00
0.000000e+00
0.000000e+00
0.000000e+00
0.000000e+00
0.000000e+00
0.000000e+00
0.000000e+00
0.000000e+00
0.000000e+00
0.000000e+00
0.000000e+00
0.000000e+00
0.000000e+00
0.000000e+00
0.000000e+00
0.000000e+00
0.000000e+00
0.000000e+00
0.000000e+00
0.000000e+00
0.000000e+00
0.000000e+00
0.000000e+00
0.000000e+00
0.000000e+00
0.000000e+00
0.000000e+00
0.000000e+00
0.000000e+00
0.000000e+00
0.000000e+00
0.000000e+00
0.000000e+00
0.000000e+00
0.000000e+00
0.000000e+00
0.000000e+00
0.000000e+00
0.000000e+00
0.000000e+00
0.000000e+00
0.000000e+00
0.000000e+00
0.000000e+00
0.000000e+00
0.000000e+00
0.000000e+00
0.000000e+00
0.000000e+00
0.000000e+00
0.000000e+00
0.000000e+00
0.000000e+00
0.000000e+00
0.000000e+00
0.000000e+00
0.000000e+00
0.000000e+00
0.000000e+00
0.000000e+00
0.000000e+00
0.000000e+00
0.000000e+00
0.000000e+00
0.000000e+00
0.000000e+00
0.000000e+00
0.000000e+00
0.000000e+00
0.000000e+00
0.000000e+00
0.000000e+00
0.000000e+00
0.000000e+00
0.000000e+00
0.000000e+00
0.000000e+00
0.000000e+00
0.000000e+00
0.000000e+00
0.000000e+00
0.000000e+00
0.000000e+00
0.000000e+00
0.000000e+00
0.000000e+00
0.000000e+00
0.000000e+00
0.000000e+00
0.000000e+00
0.000000e+00
0.000000e+00
0.000000e+00
0.000000e+00
0.000000e+00
0.000000e+00
0.000000e+00
0.000000e+00
0.000000e+00
0.000000e+00
0.000000e+00
0.000000e+00
0.000000e+00
0.000000e+00
0.000000e+00
0.000000e+00
0.000000e+00
0.000000e+00
0.000000e+00
0.000000e+00
0.000000e+00
0.000000e+00
0.000000e+00
0.000000e+00
0.000000e+00
0.000000e+00
0.000000e+00
0.000000e+00
0.000000e+00
0.000000e+00
0.000000e+00
0.000000e+00
0.000000e+00
0.000000e+00
0.000000e+00
0.000000e+00
0.000000e+00
0.000000e+00
0.000000e+00
0.000000e+00
0.000000e+00
0.000000e+00
0.000000e+00
0.000000e+00
0.000000e+00
0.000000e+00
0.000000e+00
0.000000e+00
0.000000e+00
0.000000e+00
0.000000e+00
0.000000e+00
0.000000e+00
0.000000e+00
0.000000e+00
0.000000e+00
0.000000e+00
0.000000e+00
0.000000e+00
0.000000e+00
0.000000e+00
0.000000e+00
0.000000e+00
0.000000e+00
0.000000e+00
0.000000e+00
0.000000e+00
0.000000e+00
0.000000e+00
0.000000e+00
0.000000e+00
0.000000e+00
0.000000e+00
0.000000e+00
0.000000e+00
0.000000e+00
0.000000e+00
0.000000e+00
0.000000e+00
0.000000e+00
0.000000e+00
0.000000e+00
0.000000e+00
0.000000e+00
0.000000e+00
0.000000e+00
0.000000e+00
0.000000e+00
0.000000e+00
0.000000e+00
0.000000e+00
0.000000e+00
0.000000e+00
0.000000e+00
0.000000e+00
0.000000e+00
0.000000e+00
0.000000e+00
0.000000e+00
0.000000e+00
0.000000e+00
0.000000e+00
0.000000e+00
0.000000e+00
0.000000e+00
0.000000e+00
0.000000e+00
0.000000e+00
0.000000e+00
0.000000e+00
0.000000e+00
0.000000e+00
0.000000e+00
0.000000e+00
0.000000e+00
0.000000e+00
0.000000e+00
0.000000e+00
0.000000e+00
0.000000e+00
0.000000e+00
0.000000e+00
0.000000e+00
0.000000e+00
0.000000e+00
0.000000e+00
0.000000e+00
0.000000e+00
0.000000e+00
0.000000e+00
0.000000e+00
0.000000e+00
0.000000e+00
0.000000e+00
0.000000e+00
0.000000e+00
0.000000e+00
0.000000e+00
0.000000e+00
0.000000e+00
0.000000e+00
0.000000e+00
0.000000e+00
0.000000e+00
0.000000e+00
0.000000e+00
0.000000e+00
0.000000e+00
0.000000e+00
0.000000e+00
0.000000e+00
0.000000e+00
0.000000e+00
0.000000e+00
0.000000e+00
0.000000e+00
0.000000e+00
0.000000e+00
0.000000e+00
0.000000e+00
0.000000e+00
0.000000e+00
0.000000e+00
0.000000e+00
0.000000e+00
0.000000e+00
0.000000e+00
0.000000e+00
0.000000e+00
0.000000e+00
0.000000e+00
0.000000e+00
0.000000e+00
0.000000e+00
0.000000e+00
0.000000e+00
0.000000e+00
0.000000e+00
0.000000e+00
0.000000e+00
0.000000e+00
0.000000e+00
0.000000e+00
0.000000e+00
0.000000e+00
0.000000e+00
0.000000e+00
0.000000e+00
0.000000e+00
0.000000e+00
0.000000e+00
0.000000e+00
0.000000e+00
0.000000e+00
0.000000e+00
0.000000e+00
0.000000e+00
0.000000e+00
0.000000e+00
0.000000e+00
0.000000e+00
0.000000e+00
0.000000e+00
0.000000e+00
0.000000e+00
0.000000e+00
0.000000e+00
0.000000e+00
0.000000e+00
0.000000e+00
0.000000e+00
0.000000e+00
0.000000e+00
0.000000e+00
0.000000e+00
0.000000e+00
0.000000e+00
0.000000e+00
0.000000e+00
0.000000e+00
0.000000e+00
0.000000e+00
0.000000e+00
0.000000e+00
0.000000e+00
0.000000e+00
0.000000e+00
0.000000e+00
0.000000e+00
0.000000e+00
0.000000e+00
0.000000e+00
0.000000e+00
0.000000e+00
0.000000e+00
0.000000e+00
0.000000e+00
0.000000e+00
0.000000e+00
0.000000e+00
0.000000e+00
0.000000e+00
0.000000e+00
0.000000e+00
0.000000e+00
0.000000e+00
0.000000e+00
</DataArray>
</PointData>
</Piece></UnstructuredGrid>
</VTKFile>
