<?xml version="1.0"?>
<VTKFile type="PolyData" version="0.1" byte_order="LittleEndian" compressor="vtkZLibDataCompressor">
<PolyData>
<Piece NumberOfPoints="85" NumberOfVerts="0" NumberOfLines="1" NumberOfStrips="0" NumberOfPolys="0">
<Points>
<DataArray type="Float32" NumberOfComponents="3" format="ascii">
-8.314700e-01 -5.555700e-01 0.000000e+00
-7.071070e-01 -7.071070e-01 0.000000e+00
5.000000e-01 0.000000e+00 0.000000e+00
-3.826830e-01 -9.238800e-01 0.000000e+00
-7.071070e-01 -7.071070e-01 0.000000e+00
-9.238800e-01 3.826830e-01 0.000000e+00
-1.000000e+00 1.224650e-16 0.000000e+00
-9.238800e-01 3.826830e-01 0.000000e+00
-7.071070e-01 7.071070e-01 0.000000e+00
-9.238800e-01 3.826830e-01 0.000000e+00
-3.826830e-01 9.238800e-01 0.000000e+00
-7.071070e-01 7.071070e-01 0.000000e+00
-1.000000e+00 1.224650e-16 0.000000e+00
-1.000000e+00 1.224650e-16 0.000000e+00
-9.238800e-01 -3.826830e-01 0.000000e+00
-3.826830e-01 -9.238800e-01 0.000000e+00
-7.071070e-01 -7.071070e-01 0.000000e+00
9.238800e-01 -3.826830e-01 0.000000e+00
1.000000e+00 -2.449290e-16 0.000000e+00
2.500000e-01 0.000000e+00 0.000000e+00
3.826830e-01 -9.238800e-01 0.000000e+00
-1.836970e-16 -1.000000e+00 0.000000e+00
9.238800e-01 -3.826830e-01 0.000000e+00
-5.000000e-01 0.000000e+00 0.000000e+00
-9.238800e-01 -3.826830e-01 0.000000e+00
9.238800e-01 -3.826830e-01 0.000000e+00
8.314700e-01 -5.555700e-01 0.000000e+00
7.071070e-01 -7.071070e-01 0.000000e+00
1.000000e+00 -2.449290e-16 0.000000e+00
6.123230e-17 1.000000e+00 0.000000e+00
8.314700e-01 5.555700e-01 0.000000e+00
7.071070e-01 7.071070e-01 0.000000e+00
9.238800e-01 3.826830e-01 0.000000e+00
1.000000e+00 -2.449290e-16 0.000000e+00
-5.000000e-01 0.000000e+00 0.000000e+00
3.826830e-01 9.238800e-01 0.000000e+00
6.123230e-17 1.000000e+00 0.000000e+00
5.000000e-01 0.000000e+00 0.000000e+00
3.330670e-16 0.000000e+00 0.000000e+00
-2.500000e-01 0.000000e+00 0.000000e+00
-3.826830e-01 9.238800e-01 0.000000e+00
3.330670e-16 0.000000e+00 0.000000e+00
2.500000e-01 0.000000e+00 0.000000e+00
3.826830e-01 9.238800e-01 0.000000e+00
2.500000e-01 0.000000e+00 0.000000e+00
3.330670e-16 0.000000e+00 0.000000e+00
9.238800e-01 3.826830e-01 0.000000e+00
5.000000e-01 0.000000e+00 0.000000e+00
-3.826830e-01 -9.238800e-01 0.000000e+00
-1.836970e-16 -1.000000e+00 0.000000e+00
-9.238800e-01 -3.826830e-01 0.000000e+00
-8.314700e-01 -5.555700e-01 0.000000e+00
-1.836970e-16 -1.000000e+00 0.000000e+00
-2.500000e-01 0.000000e+00 0.000000e+00
-5.000000e-01 0.000000e+00 0.000000e+00
-2.500000e-01 0.000000e+00 0.000000e+00
5.000000e-01 0.000000e+00 0.000000e+00
2.500000e-01 0.000000e+00 0.000000e+00
5.000000e-01 0.000000e+00 0.000000e+00
3.330670e-16 0.000000e+00 0.000000e+00
-2.500000e-01 0.000000e+00 0.000000e+00
-5.000000e-01 0.000000e+00 0.000000e+00
-2.500000e-01 0.000000e+00 0.000000e+00
-2.500000e-01 0.000000e+00 0.000000e+00
-2.500000e-01 0.000000e+00 0.000000e+00
-5.000000e-01 0.000000e+00 0.000000e+00
-7.071070e-01 7.071070e-01 0.000000e+00
6.123230e-17 1.000000e+00 0.000000e+00
-3.826830e-01 9.238800e-01 0.000000e+00
6.123230e-17 1.000000e+00 0.000000e+00
2.500000e-01 0.000000e+00 0.000000e+00
7.071070e-01 7.071070e-01 0.000000e+00
5.000000e-01 0.000000e+00 0.000000e+00
3.826830e-01 9.238800e-01 0.000000e+00
7.071070e-01 7.071070e-01 0.000000e+00
5.000000e-01 0.000000e+00 0.000000e+00
2.500000e-01 0.000000e+00 0.000000e+00
3.330670e-16 0.000000e+00 0.000000e+00
3.826830e-01 -9.238800e-01 0.000000e+00
7.071070e-01 -7.071070e-01 0.000000e+00
3.826830e-01 -9.238800e-01 0.000000e+00
7.071070e-01 -7.071070e-01 0.000000e+00
8.314700e-01 -5.555700e-01 0.000000e+00
9.238800e-01 3.826830e-01 0.000000e+00
8.314700e-01 5.555700e-01 0.000000e+00
</DataArray>
</Points>
<PointData>
<DataArray type="Float32" Name="V1" format="ascii">
0.000000e+00
0.000000e+00
1.000000e+00
6.000000e+00
6.000000e+00
7.000000e+00
7.000000e+00
8.000000e+00
8.000000e+00
9.000000e+00
1.000000e+01
1.000000e+01
1.100000e+01
1.200000e+01
1.200000e+01
1.300000e+01
1.400000e+01
1.500000e+01
1.500000e+01
1.600000e+01
1.700000e+01
1.700000e+01
1.800000e+01
1.900000e+01
2.000000e+01
2.100000e+01
2.100000e+01
2.200000e+01
2.300000e+01
2.500000e+01
2.600000e+01
2.600000e+01
2.700000e+01
2.700000e+01
2.800000e+01
2.900000e+01
2.900000e+01
3.000000e+01
3.100000e+01
3.100000e+01
3.300000e+01
3.700000e+01
3.700000e+01
3.800000e+01
3.900000e+01
3.900000e+01
4.000000e+01
4.100000e+01
4.200000e+01
4.200000e+01
4.300000e+01
4.300000e+01
4.500000e+01
4.800000e+01
4.800000e+01
5.200000e+01
5.300000e+01
5.400000e+01
5.400000e+01
5.600000e+01
5.600000e+01
5.900000e+01
5.900000e+01
6.000000e+01
6.100000e+01
6.200000e+01
6.300000e+01
6.800000e+01
6.800000e+01
7.200000e+01
7.300000e+01
7.400000e+01
7.500000e+01
7.700000e+01
7.700000e+01
8.000000e+01
8.000000e+01
8.100000e+01
8.300000e+01
8.500000e+01
8.500000e+01
8.700000e+01
8.700000e+01
8.800000e+01
8.800000e+01
</DataArray>
<DataArray type="Float32" Name="V2" format="ascii">
2.000000e+00
2.000000e+00
4.000000e+00
2.000000e+00
2.000000e+00
1.000000e+00
1.000000e+00
1.000000e+00
1.000000e+00
1.000000e+00
1.000000e+00
1.000000e+00
2.000000e+00
2.000000e+00
2.000000e+00
2.000000e+00
2.000000e+00
3.000000e+00
3.000000e+00
4.000000e+00
3.000000e+00
3.000000e+00
3.000000e+00
4.000000e+00
2.000000e+00
3.000000e+00
3.000000e+00
3.000000e+00
3.000000e+00
1.000000e+00
0.000000e+00
0.000000e+00
0.000000e+00
0.000000e+00
4.000000e+00
0.000000e+00
0.000000e+00
4.000000e+00
4.000000e+00
4.000000e+00
1.000000e+00
4.000000e+00
4.000000e+00
0.000000e+00
4.000000e+00
4.000000e+00
0.000000e+00
4.000000e+00
2.000000e+00
2.000000e+00
2.000000e+00
2.000000e+00
3.000000e+00
4.000000e+00
4.000000e+00
4.000000e+00
4.000000e+00
4.000000e+00
4.000000e+00
4.000000e+00
4.000000e+00
4.000000e+00
4.000000e+00
4.000000e+00
4.000000e+00
4.000000e+00
1.000000e+00
1.000000e+00
1.000000e+00
1.000000e+00
4.000000e+00
0.000000e+00
4.000000e+00
0.000000e+00
0.000000e+00
4.000000e+00
4.000000e+00
4.000000e+00
3.000000e+00
3.000000e+00
3.000000e+00
3.000000e+00
3.000000e+00
0.000000e+00
0.000000e+00
</DataArray>
</PointData>
<Verts>
</Verts>
<Lines>
<DataArray type="Int32" Name="connectivity" format="ascii">
0 1 2 3 4 5 6 7 8 9 10 11 12 13 14 15 16 17 18 19 20 21 22 23 24 25 26 27 28 29 30 31 32 33 34 35 36 37 38 39 40 41 42 43 44 45 46 47 48 49 50 51 52 53 54 55 56 57 58 59 60 61 62 63 64 65 66 67 68 69 70 71 72 73 74 75 76 77 78 79 80 81 82 83 84 </DataArray>
<DataArray type="Int32" Name="offsets" format="ascii">
85 </DataArray>
</Lines>
<Strips>
</Strips>
<Polys>
</Polys>
</Piece></PolyData>
</VTKFile>
