<?xml version="1.0"?>
<VTKFile type="PolyData" version="0.1" byte_order="LittleEndian" compressor="vtkZLibDataCompressor">
<PolyData>
<Piece NumberOfPoints="44" NumberOfVerts="0" NumberOfLines="1" NumberOfStrips="0" NumberOfPolys="0">
<Points>
<DataArray type="Float32" NumberOfComponents="3" format="ascii">
5.224990e-01 -8.526400e-01 0.000000e+00
5.877850e-01 -8.090170e-01 0.000000e+00
5.446390e-01 -8.386710e-01 0.000000e+00
5.664060e-01 -8.241260e-01 0.000000e+00
7.071070e-01 -7.071070e-01 0.000000e+00
8.090170e-01 -5.877850e-01 0.000000e+00
7.431450e-01 -6.691310e-01 0.000000e+00
7.771460e-01 -6.293200e-01 0.000000e+00
9.510570e-01 -3.090170e-01 0.000000e+00
8.910070e-01 -4.539900e-01 0.000000e+00
9.135450e-01 -4.067370e-01 0.000000e+00
9.335800e-01 -3.583680e-01 0.000000e+00
1.564340e-01 -9.876880e-01 0.000000e+00
-1.836970e-16 -1.000000e+00 0.000000e+00
5.233600e-02 -9.986300e-01 0.000000e+00
1.045280e-01 -9.945220e-01 0.000000e+00
9.876880e-01 -1.564340e-01 0.000000e+00
9.510570e-01 -3.090170e-01 0.000000e+00
9.659260e-01 -2.588190e-01 0.000000e+00
9.781480e-01 -2.079120e-01 0.000000e+00
1.564340e-01 -9.876880e-01 0.000000e+00
3.090170e-01 -9.510570e-01 0.000000e+00
2.079120e-01 -9.781480e-01 0.000000e+00
2.588190e-01 -9.659260e-01 0.000000e+00
5.877850e-01 -8.090170e-01 0.000000e+00
7.071070e-01 -7.071070e-01 0.000000e+00
6.293200e-01 -7.771460e-01 0.000000e+00
6.691310e-01 -7.431450e-01 0.000000e+00
9.876880e-01 -1.564340e-01 0.000000e+00
1.000000e+00 -2.449290e-16 0.000000e+00
9.945220e-01 -1.045280e-01 0.000000e+00
9.986300e-01 -5.233600e-02 0.000000e+00
4.539900e-01 -8.910070e-01 0.000000e+00
3.090170e-01 -9.510570e-01 0.000000e+00
3.583680e-01 -9.335800e-01 0.000000e+00
4.067370e-01 -9.135450e-01 0.000000e+00
8.910070e-01 -4.539900e-01 0.000000e+00
8.090170e-01 -5.877850e-01 0.000000e+00
8.386710e-01 -5.446390e-01 0.000000e+00
8.660250e-01 -5.000000e-01 0.000000e+00
4.539900e-01 -8.910070e-01 0.000000e+00
5.224990e-01 -8.526400e-01 0.000000e+00
4.771590e-01 -8.788170e-01 0.000000e+00
5.000000e-01 -8.660250e-01 0.000000e+00
</DataArray>
</Points>
<PointData>
<DataArray type="Float32" Name="V1" format="ascii">
5.262170e+00
5.340710e+00
5.288350e+00
5.314530e+00
5.497790e+00
5.654870e+00
5.550150e+00
5.602510e+00
5.969030e+00
5.811950e+00
5.864310e+00
5.916670e+00
4.869470e+00
4.712390e+00
4.764750e+00
4.817110e+00
6.126110e+00
5.969030e+00
6.021390e+00
6.073750e+00
4.869470e+00
5.026550e+00
4.921830e+00
4.974190e+00
5.340710e+00
5.497790e+00
5.393070e+00
5.445430e+00
6.126110e+00
6.283190e+00
6.178470e+00
6.230830e+00
5.183630e+00
5.026550e+00
5.078910e+00
5.131270e+00
5.811950e+00
5.654870e+00
5.707230e+00
5.759590e+00
5.183630e+00
5.262170e+00
5.209810e+00
5.235990e+00
</DataArray>
</PointData>
<Verts>
</Verts>
<Lines>
<DataArray type="Int32" Name="connectivity" format="ascii">
0 1 2 3 4 5 6 7 8 9 10 11 12 13 14 15 16 17 18 19 20 21 22 23 24 25 26 27 28 29 30 31 32 33 34 35 36 37 38 39 40 41 42 43 </DataArray>
<DataArray type="Int32" Name="offsets" format="ascii">
44 </DataArray>
</Lines>
<Strips>
</Strips>
<Polys>
</Polys>
</Piece></PolyData>
</VTKFile>
