<?xml version="1.0"?>
<VTKFile type="PolyData" version="0.1" byte_order="LittleEndian" compressor="vtkZLibDataCompressor">
<PolyData>
<Piece NumberOfPoints="4" NumberOfVerts="0" NumberOfLines="1" NumberOfStrips="0" NumberOfPolys="0">
<Points>
<DataArray type="Float32" NumberOfComponents="3" format="ascii">
-1.836970e-16 -1.000000e+00 0.000000e+00
-1.000000e+00 1.224650e-16 0.000000e+00
1.000000e+00 -2.449290e-16 0.000000e+00
6.123230e-17 1.000000e+00 0.000000e+00
</DataArray>
</Points>
<PointData>
<DataArray type="Float32" Name="V1" format="ascii">
2.000000e+00
1.000000e+00
0.000000e+00
0.000000e+00
</DataArray>
<DataArray type="Float32" Name="V2" format="ascii">
3.000000e+00
2.000000e+00
3.000000e+00
1.000000e+00
</DataArray>
</PointData>
<Verts>
</Verts>
<Lines>
<DataArray type="Int32" Name="connectivity" format="ascii">
0 1 2 3 </DataArray>
<DataArray type="Int32" Name="offsets" format="ascii">
4 </DataArray>
</Lines>
<Strips>
</Strips>
<Polys>
</Polys>
</Piece></PolyData>
</VTKFile>
