<?xml version="1.0"?>
<VTKFile type="PolyData" version="0.1" byte_order="LittleEndian" compressor="vtkZLibDataCompressor">
<PolyData>
<Piece NumberOfPoints="280" NumberOfVerts="0" NumberOfLines="1" NumberOfStrips="0" NumberOfPolys="0">
<Points>
<DataArray type="Float32" NumberOfComponents="3" format="ascii">
-9.238800e-01 -3.826830e-01 0.000000e+00
-8.819210e-01 -4.713970e-01 0.000000e+00
-1.000000e+00 1.224650e-16 0.000000e+00
-2.500000e-01 0.000000e+00 0.000000e+00
-3.750000e-01 0.000000e+00 0.000000e+00
-9.951850e-01 9.801710e-02 0.000000e+00
-1.000000e+00 1.224650e-16 0.000000e+00
-9.569400e-01 2.902850e-01 0.000000e+00
-1.250000e-01 0.000000e+00 0.000000e+00
-1.875000e-01 0.000000e+00 0.000000e+00
3.330670e-16 0.000000e+00 0.000000e+00
-1.250000e-01 0.000000e+00 0.000000e+00
-9.951850e-01 9.801710e-02 0.000000e+00
-9.951850e-01 -9.801710e-02 0.000000e+00
-9.807850e-01 1.950900e-01 0.000000e+00
-1.000000e+00 1.224650e-16 0.000000e+00
-9.951850e-01 -9.801710e-02 0.000000e+00
-9.238800e-01 3.826830e-01 0.000000e+00
-9.951850e-01 -9.801710e-02 0.000000e+00
-9.807850e-01 -1.950900e-01 0.000000e+00
-9.569400e-01 -2.902850e-01 0.000000e+00
-9.807850e-01 -1.950900e-01 0.000000e+00
-9.569400e-01 -2.902850e-01 0.000000e+00
-9.238800e-01 -3.826830e-01 0.000000e+00
-9.807850e-01 -1.950900e-01 0.000000e+00
-9.569400e-01 -2.902850e-01 0.000000e+00
-9.807850e-01 1.950900e-01 0.000000e+00
-9.951850e-01 9.801710e-02 0.000000e+00
-9.569400e-01 2.902850e-01 0.000000e+00
-9.807850e-01 1.950900e-01 0.000000e+00
-9.238800e-01 3.826830e-01 0.000000e+00
-9.569400e-01 2.902850e-01 0.000000e+00
-8.819210e-01 4.713970e-01 0.000000e+00
-9.238800e-01 3.826830e-01 0.000000e+00
-8.819210e-01 -4.713970e-01 0.000000e+00
-8.314700e-01 -5.555700e-01 0.000000e+00
-9.238800e-01 -3.826830e-01 0.000000e+00
-8.314700e-01 5.555700e-01 0.000000e+00
-8.819210e-01 4.713970e-01 0.000000e+00
-7.730100e-01 6.343930e-01 0.000000e+00
-8.314700e-01 5.555700e-01 0.000000e+00
-8.314700e-01 5.555700e-01 0.000000e+00
-8.314700e-01 5.555700e-01 0.000000e+00
-7.071070e-01 7.071070e-01 0.000000e+00
-7.730100e-01 6.343930e-01 0.000000e+00
-7.730100e-01 6.343930e-01 0.000000e+00
-3.750000e-01 0.000000e+00 0.000000e+00
-2.500000e-01 0.000000e+00 0.000000e+00
-3.750000e-01 0.000000e+00 0.000000e+00
-4.375000e-01 0.000000e+00 0.000000e+00
-5.000000e-01 0.000000e+00 0.000000e+00
-4.375000e-01 0.000000e+00 0.000000e+00
-4.375000e-01 0.000000e+00 0.000000e+00
-5.000000e-01 0.000000e+00 0.000000e+00
-4.375000e-01 0.000000e+00 0.000000e+00
-3.750000e-01 0.000000e+00 0.000000e+00
-3.750000e-01 0.000000e+00 0.000000e+00
-2.500000e-01 0.000000e+00 0.000000e+00
-4.375000e-01 0.000000e+00 0.000000e+00
-4.375000e-01 0.000000e+00 0.000000e+00
-3.750000e-01 0.000000e+00 0.000000e+00
-2.500000e-01 0.000000e+00 0.000000e+00
-4.375000e-01 0.000000e+00 0.000000e+00
-1.250000e-01 0.000000e+00 0.000000e+00
-1.875000e-01 0.000000e+00 0.000000e+00
-5.000000e-01 0.000000e+00 0.000000e+00
-5.000000e-01 0.000000e+00 0.000000e+00
-1.250000e-01 0.000000e+00 0.000000e+00
-1.875000e-01 0.000000e+00 0.000000e+00
-1.250000e-01 0.000000e+00 0.000000e+00
-1.875000e-01 0.000000e+00 0.000000e+00
3.330670e-16 0.000000e+00 0.000000e+00
-6.343930e-01 -7.730100e-01 0.000000e+00
-5.555700e-01 -8.314700e-01 0.000000e+00
-7.071070e-01 -7.071070e-01 0.000000e+00
-2.500000e-01 0.000000e+00 0.000000e+00
-1.875000e-01 0.000000e+00 0.000000e+00
-2.500000e-01 0.000000e+00 0.000000e+00
-1.875000e-01 0.000000e+00 0.000000e+00
-1.250000e-01 0.000000e+00 0.000000e+00
3.330670e-16 0.000000e+00 0.000000e+00
1.250000e-01 0.000000e+00 0.000000e+00
6.250000e-02 0.000000e+00 0.000000e+00
3.330670e-16 0.000000e+00 0.000000e+00
-5.555700e-01 8.314700e-01 0.000000e+00
-6.343930e-01 7.730100e-01 0.000000e+00
-2.902850e-01 -9.569400e-01 0.000000e+00
3.330670e-16 0.000000e+00 0.000000e+00
6.250000e-02 0.000000e+00 0.000000e+00
-2.902850e-01 9.569400e-01 0.000000e+00
-9.801710e-02 9.951850e-01 0.000000e+00
-1.950900e-01 9.807850e-01 0.000000e+00
-3.826830e-01 9.238800e-01 0.000000e+00
-9.569400e-01 -2.902850e-01 0.000000e+00
-4.713970e-01 8.819210e-01 0.000000e+00
-7.071070e-01 7.071070e-01 0.000000e+00
-8.819210e-01 4.713970e-01 0.000000e+00
6.250000e-02 0.000000e+00 0.000000e+00
3.125000e-01 0.000000e+00 0.000000e+00
2.500000e-01 0.000000e+00 0.000000e+00
3.826830e-01 9.238800e-01 0.000000e+00
4.713970e-01 8.819210e-01 0.000000e+00
5.555700e-01 8.314700e-01 0.000000e+00
2.902850e-01 9.569400e-01 0.000000e+00
1.950900e-01 9.807850e-01 0.000000e+00
2.902850e-01 9.569400e-01 0.000000e+00
3.826830e-01 9.238800e-01 0.000000e+00
2.902850e-01 9.569400e-01 0.000000e+00
1.950900e-01 9.807850e-01 0.000000e+00
6.123230e-17 1.000000e+00 0.000000e+00
6.123230e-17 1.000000e+00 0.000000e+00
-5.555700e-01 -8.314700e-01 0.000000e+00
-4.713970e-01 -8.819210e-01 0.000000e+00
-6.343930e-01 -7.730100e-01 0.000000e+00
-5.555700e-01 -8.314700e-01 0.000000e+00
-7.730100e-01 -6.343930e-01 0.000000e+00
-7.071070e-01 -7.071070e-01 0.000000e+00
-6.343930e-01 -7.730100e-01 0.000000e+00
-7.071070e-01 -7.071070e-01 0.000000e+00
-8.314700e-01 -5.555700e-01 0.000000e+00
-7.730100e-01 -6.343930e-01 0.000000e+00
-7.730100e-01 -6.343930e-01 0.000000e+00
-6.343930e-01 -7.730100e-01 0.000000e+00
-4.713970e-01 -8.819210e-01 0.000000e+00
-4.713970e-01 -8.819210e-01 0.000000e+00
-3.826830e-01 -9.238800e-01 0.000000e+00
-3.826830e-01 -9.238800e-01 0.000000e+00
-2.902850e-01 -9.569400e-01 0.000000e+00
-3.826830e-01 -9.238800e-01 0.000000e+00
-2.902850e-01 -9.569400e-01 0.000000e+00
-2.902850e-01 -9.569400e-01 0.000000e+00
-1.950900e-01 -9.807850e-01 0.000000e+00
6.250000e-02 0.000000e+00 0.000000e+00
3.330670e-16 0.000000e+00 0.000000e+00
2.500000e-01 0.000000e+00 0.000000e+00
3.125000e-01 0.000000e+00 0.000000e+00
2.500000e-01 0.000000e+00 0.000000e+00
1.250000e-01 0.000000e+00 0.000000e+00
2.500000e-01 0.000000e+00 0.000000e+00
6.250000e-02 0.000000e+00 0.000000e+00
6.250000e-02 0.000000e+00 0.000000e+00
1.250000e-01 0.000000e+00 0.000000e+00
1.250000e-01 0.000000e+00 0.000000e+00
2.500000e-01 0.000000e+00 0.000000e+00
1.250000e-01 0.000000e+00 0.000000e+00
2.500000e-01 0.000000e+00 0.000000e+00
1.250000e-01 0.000000e+00 0.000000e+00
3.750000e-01 0.000000e+00 0.000000e+00
3.750000e-01 0.000000e+00 0.000000e+00
3.125000e-01 0.000000e+00 0.000000e+00
3.125000e-01 0.000000e+00 0.000000e+00
3.125000e-01 0.000000e+00 0.000000e+00
2.500000e-01 0.000000e+00 0.000000e+00
3.750000e-01 0.000000e+00 0.000000e+00
3.125000e-01 0.000000e+00 0.000000e+00
3.750000e-01 0.000000e+00 0.000000e+00
5.000000e-01 0.000000e+00 0.000000e+00
3.750000e-01 0.000000e+00 0.000000e+00
5.000000e-01 0.000000e+00 0.000000e+00
3.750000e-01 0.000000e+00 0.000000e+00
5.000000e-01 0.000000e+00 0.000000e+00
5.000000e-01 0.000000e+00 0.000000e+00
5.000000e-01 0.000000e+00 0.000000e+00
9.807850e-01 1.950900e-01 0.000000e+00
5.000000e-01 0.000000e+00 0.000000e+00
6.343930e-01 7.730100e-01 0.000000e+00
7.071070e-01 7.071070e-01 0.000000e+00
-4.713970e-01 8.819210e-01 0.000000e+00
-5.555700e-01 8.314700e-01 0.000000e+00
-3.826830e-01 9.238800e-01 0.000000e+00
-4.713970e-01 8.819210e-01 0.000000e+00
-2.902850e-01 9.569400e-01 0.000000e+00
-1.950900e-01 9.807850e-01 0.000000e+00
-3.826830e-01 9.238800e-01 0.000000e+00
-2.902850e-01 9.569400e-01 0.000000e+00
-1.950900e-01 9.807850e-01 0.000000e+00
6.123230e-17 1.000000e+00 0.000000e+00
-9.801710e-02 9.951850e-01 0.000000e+00
-9.801710e-02 9.951850e-01 0.000000e+00
-6.343930e-01 7.730100e-01 0.000000e+00
-7.071070e-01 7.071070e-01 0.000000e+00
3.826830e-01 9.238800e-01 0.000000e+00
9.801710e-02 9.951850e-01 0.000000e+00
1.950900e-01 9.807850e-01 0.000000e+00
9.801710e-02 9.951850e-01 0.000000e+00
6.123230e-17 1.000000e+00 0.000000e+00
9.801710e-02 9.951850e-01 0.000000e+00
-9.801710e-02 -9.951850e-01 0.000000e+00
-1.836970e-16 -1.000000e+00 0.000000e+00
2.902850e-01 -9.569400e-01 0.000000e+00
5.555700e-01 -8.314700e-01 0.000000e+00
5.555700e-01 -8.314700e-01 0.000000e+00
7.071070e-01 -7.071070e-01 0.000000e+00
6.343930e-01 -7.730100e-01 0.000000e+00
9.807850e-01 -1.950900e-01 0.000000e+00
9.951850e-01 -9.801710e-02 0.000000e+00
9.569400e-01 -2.902850e-01 0.000000e+00
9.238800e-01 -3.826830e-01 0.000000e+00
9.569400e-01 -2.902850e-01 0.000000e+00
9.807850e-01 -1.950900e-01 0.000000e+00
9.569400e-01 -2.902850e-01 0.000000e+00
-5.555700e-01 8.314700e-01 0.000000e+00
-6.343930e-01 7.730100e-01 0.000000e+00
5.555700e-01 8.314700e-01 0.000000e+00
4.713970e-01 8.819210e-01 0.000000e+00
4.713970e-01 8.819210e-01 0.000000e+00
2.902850e-01 -9.569400e-01 0.000000e+00
4.713970e-01 -8.819210e-01 0.000000e+00
8.314700e-01 5.555700e-01 0.000000e+00
1.000000e+00 -2.449290e-16 0.000000e+00
9.951850e-01 -9.801710e-02 0.000000e+00
7.071070e-01 7.071070e-01 0.000000e+00
5.555700e-01 8.314700e-01 0.000000e+00
6.343930e-01 7.730100e-01 0.000000e+00
5.555700e-01 8.314700e-01 0.000000e+00
6.343930e-01 7.730100e-01 0.000000e+00
8.819210e-01 4.713970e-01 0.000000e+00
8.314700e-01 5.555700e-01 0.000000e+00
7.730100e-01 6.343930e-01 0.000000e+00
7.071070e-01 7.071070e-01 0.000000e+00
7.730100e-01 6.343930e-01 0.000000e+00
7.730100e-01 6.343930e-01 0.000000e+00
8.314700e-01 5.555700e-01 0.000000e+00
8.819210e-01 4.713970e-01 0.000000e+00
9.238800e-01 3.826830e-01 0.000000e+00
8.819210e-01 4.713970e-01 0.000000e+00
9.807850e-01 1.950900e-01 0.000000e+00
9.569400e-01 2.902850e-01 0.000000e+00
9.238800e-01 3.826830e-01 0.000000e+00
9.951850e-01 9.801710e-02 0.000000e+00
9.569400e-01 2.902850e-01 0.000000e+00
9.238800e-01 3.826830e-01 0.000000e+00
9.569400e-01 2.902850e-01 0.000000e+00
5.555700e-01 -8.314700e-01 0.000000e+00
4.713970e-01 -8.819210e-01 0.000000e+00
2.902850e-01 -9.569400e-01 0.000000e+00
3.826830e-01 -9.238800e-01 0.000000e+00
1.950900e-01 -9.807850e-01 0.000000e+00
2.902850e-01 -9.569400e-01 0.000000e+00
1.950900e-01 -9.807850e-01 0.000000e+00
-1.836970e-16 -1.000000e+00 0.000000e+00
9.801710e-02 -9.951850e-01 0.000000e+00
1.950900e-01 -9.807850e-01 0.000000e+00
9.807850e-01 -1.950900e-01 0.000000e+00
9.951850e-01 -9.801710e-02 0.000000e+00
1.000000e+00 -2.449290e-16 0.000000e+00
9.951850e-01 9.801710e-02 0.000000e+00
9.807850e-01 1.950900e-01 0.000000e+00
6.343930e-01 -7.730100e-01 0.000000e+00
5.555700e-01 -8.314700e-01 0.000000e+00
6.343930e-01 -7.730100e-01 0.000000e+00
7.071070e-01 -7.071070e-01 0.000000e+00
7.071070e-01 -7.071070e-01 0.000000e+00
7.730100e-01 -6.343930e-01 0.000000e+00
4.713970e-01 -8.819210e-01 0.000000e+00
3.826830e-01 -9.238800e-01 0.000000e+00
-9.801710e-02 -9.951850e-01 0.000000e+00
-1.950900e-01 -9.807850e-01 0.000000e+00
-9.801710e-02 -9.951850e-01 0.000000e+00
-1.836970e-16 -1.000000e+00 0.000000e+00
-1.950900e-01 -9.807850e-01 0.000000e+00
9.951850e-01 -9.801710e-02 0.000000e+00
9.807850e-01 1.950900e-01 0.000000e+00
9.951850e-01 9.801710e-02 0.000000e+00
8.819210e-01 -4.713970e-01 0.000000e+00
7.730100e-01 -6.343930e-01 0.000000e+00
8.314700e-01 -5.555700e-01 0.000000e+00
9.238800e-01 -3.826830e-01 0.000000e+00
7.730100e-01 -6.343930e-01 0.000000e+00
8.819210e-01 -4.713970e-01 0.000000e+00
9.238800e-01 -3.826830e-01 0.000000e+00
8.314700e-01 -5.555700e-01 0.000000e+00
8.819210e-01 -4.713970e-01 0.000000e+00
8.314700e-01 -5.555700e-01 0.000000e+00
8.819210e-01 -4.713970e-01 0.000000e+00
9.801710e-02 -9.951850e-01 0.000000e+00
9.801710e-02 -9.951850e-01 0.000000e+00
1.950900e-01 -9.807850e-01 0.000000e+00
-8.819210e-01 -4.713970e-01 0.000000e+00
-8.314700e-01 -5.555700e-01 0.000000e+00
</DataArray>
</Points>
<PointData>
<DataArray type="Float32" Name="V1" format="ascii">
0.000000e+00
0.000000e+00
1.000000e+00
5.000000e+00
5.000000e+00
7.000000e+00
7.000000e+00
9.000000e+00
1.400000e+01
1.400000e+01
1.600000e+01
1.600000e+01
2.000000e+01
2.400000e+01
3.100000e+01
3.400000e+01
3.400000e+01
3.500000e+01
3.600000e+01
3.600000e+01
3.700000e+01
4.000000e+01
4.200000e+01
4.200000e+01
4.700000e+01
4.700000e+01
5.200000e+01
5.200000e+01
5.600000e+01
5.600000e+01
5.800000e+01
5.800000e+01
6.700000e+01
6.700000e+01
6.800000e+01
6.800000e+01
7.100000e+01
7.700000e+01
7.700000e+01
8.100000e+01
8.100000e+01
8.300000e+01
9.100000e+01
9.500000e+01
9.500000e+01
9.800000e+01
1.090000e+02
1.110000e+02
1.140000e+02
1.140000e+02
1.160000e+02
1.160000e+02
1.210000e+02
1.210000e+02
1.220000e+02
1.220000e+02
1.230000e+02
1.230000e+02
1.250000e+02
1.280000e+02
1.300000e+02
1.360000e+02
1.820000e+02
1.850000e+02
1.860000e+02
1.910000e+02
1.950000e+02
2.100000e+02
2.110000e+02
2.110000e+02
2.120000e+02
2.160000e+02
2.330000e+02
2.330000e+02
2.390000e+02
2.430000e+02
2.430000e+02
2.440000e+02
2.440000e+02
2.450000e+02
2.450000e+02
2.540000e+02
2.540000e+02
2.570000e+02
2.580000e+02
2.580000e+02
2.700000e+02
2.790000e+02
2.790000e+02
2.980000e+02
3.030000e+02
3.030000e+02
3.040000e+02
3.100000e+02
3.120000e+02
3.130000e+02
3.170000e+02
3.540000e+02
3.640000e+02
3.640000e+02
3.910000e+02
3.910000e+02
4.020000e+02
4.170000e+02
4.170000e+02
4.210000e+02
4.210000e+02
4.260000e+02
4.320000e+02
4.340000e+02
4.400000e+02
4.540000e+02
4.540000e+02
4.550000e+02
4.560000e+02
4.610000e+02
4.610000e+02
4.630000e+02
4.630000e+02
4.670000e+02
4.670000e+02
4.680000e+02
4.700000e+02
4.710000e+02
4.760000e+02
4.760000e+02
4.770000e+02
4.820000e+02
4.860000e+02
4.860000e+02
4.870000e+02
4.870000e+02
5.010000e+02
5.010000e+02
5.030000e+02
5.050000e+02
5.050000e+02
5.100000e+02
5.110000e+02
5.160000e+02
5.170000e+02
5.170000e+02
5.200000e+02
5.240000e+02
5.240000e+02
5.270000e+02
5.270000e+02
5.290000e+02
5.480000e+02
5.480000e+02
5.490000e+02
5.540000e+02
5.550000e+02
5.560000e+02
5.560000e+02
5.570000e+02
5.570000e+02
5.590000e+02
5.590000e+02
5.600000e+02
5.750000e+02
6.320000e+02
6.340000e+02
6.370000e+02
6.380000e+02
6.460000e+02
6.460000e+02
6.630000e+02
6.630000e+02
6.660000e+02
6.660000e+02
6.720000e+02
6.720000e+02
6.730000e+02
6.730000e+02
6.750000e+02
6.800000e+02
6.800000e+02
6.810000e+02
6.820000e+02
6.820000e+02
6.950000e+02
6.980000e+02
6.990000e+02
6.990000e+02
7.000000e+02
7.000000e+02
7.180000e+02
7.180000e+02
7.320000e+02
7.640000e+02
7.700000e+02
7.820000e+02
7.820000e+02
7.920000e+02
7.920000e+02
7.950000e+02
7.950000e+02
7.970000e+02
7.970000e+02
7.980000e+02
8.010000e+02
8.090000e+02
8.130000e+02
8.130000e+02
8.150000e+02
8.190000e+02
8.210000e+02
8.280000e+02
8.360000e+02
8.360000e+02
8.390000e+02
8.420000e+02
8.420000e+02
8.430000e+02
8.470000e+02
8.510000e+02
8.510000e+02
8.560000e+02
8.570000e+02
8.570000e+02
8.590000e+02
8.590000e+02
8.640000e+02
8.730000e+02
8.730000e+02
8.750000e+02
8.750000e+02
8.760000e+02
8.790000e+02
8.800000e+02
8.820000e+02
8.820000e+02
8.920000e+02
8.920000e+02
9.040000e+02
9.040000e+02
9.050000e+02
9.050000e+02
9.060000e+02
9.080000e+02
9.080000e+02
9.120000e+02
9.150000e+02
9.170000e+02
9.180000e+02
9.180000e+02
9.190000e+02
9.220000e+02
9.230000e+02
9.230000e+02
9.240000e+02
9.300000e+02
9.300000e+02
9.310000e+02
9.310000e+02
9.340000e+02
9.350000e+02
9.350000e+02
9.360000e+02
9.390000e+02
9.430000e+02
9.460000e+02
9.460000e+02
9.510000e+02
9.530000e+02
9.530000e+02
9.570000e+02
9.590000e+02
9.600000e+02
9.600000e+02
9.610000e+02
9.640000e+02
9.640000e+02
9.660000e+02
9.690000e+02
9.700000e+02
9.700000e+02
9.710000e+02
9.720000e+02
</DataArray>
<DataArray type="Float32" Name="V2" format="ascii">
2.000000e+00
2.000000e+00
2.000000e+00
4.000000e+00
4.000000e+00
1.000000e+00
1.000000e+00
1.000000e+00
4.000000e+00
4.000000e+00
4.000000e+00
4.000000e+00
1.000000e+00
2.000000e+00
1.000000e+00
2.000000e+00
2.000000e+00
1.000000e+00
2.000000e+00
2.000000e+00
2.000000e+00
2.000000e+00
2.000000e+00
2.000000e+00
2.000000e+00
2.000000e+00
1.000000e+00
1.000000e+00
1.000000e+00
1.000000e+00
1.000000e+00
1.000000e+00
1.000000e+00
1.000000e+00
2.000000e+00
2.000000e+00
2.000000e+00
1.000000e+00
1.000000e+00
1.000000e+00
1.000000e+00
1.000000e+00
1.000000e+00
1.000000e+00
1.000000e+00
1.000000e+00
4.000000e+00
4.000000e+00
4.000000e+00
4.000000e+00
4.000000e+00
4.000000e+00
4.000000e+00
4.000000e+00
4.000000e+00
4.000000e+00
4.000000e+00
4.000000e+00
4.000000e+00
4.000000e+00
4.000000e+00
4.000000e+00
4.000000e+00
4.000000e+00
4.000000e+00
4.000000e+00
4.000000e+00
4.000000e+00
4.000000e+00
4.000000e+00
4.000000e+00
4.000000e+00
2.000000e+00
2.000000e+00
2.000000e+00
4.000000e+00
4.000000e+00
4.000000e+00
4.000000e+00
4.000000e+00
4.000000e+00
4.000000e+00
4.000000e+00
4.000000e+00
1.000000e+00
1.000000e+00
2.000000e+00
4.000000e+00
4.000000e+00
1.000000e+00
1.000000e+00
1.000000e+00
1.000000e+00
2.000000e+00
1.000000e+00
1.000000e+00
1.000000e+00
4.000000e+00
4.000000e+00
4.000000e+00
0.000000e+00
0.000000e+00
0.000000e+00
0.000000e+00
0.000000e+00
0.000000e+00
0.000000e+00
0.000000e+00
0.000000e+00
1.000000e+00
1.000000e+00
2.000000e+00
2.000000e+00
2.000000e+00
2.000000e+00
2.000000e+00
2.000000e+00
2.000000e+00
2.000000e+00
2.000000e+00
2.000000e+00
2.000000e+00
2.000000e+00
2.000000e+00
2.000000e+00
2.000000e+00
2.000000e+00
2.000000e+00
2.000000e+00
2.000000e+00
2.000000e+00
2.000000e+00
4.000000e+00
4.000000e+00
4.000000e+00
4.000000e+00
4.000000e+00
4.000000e+00
4.000000e+00
4.000000e+00
4.000000e+00
4.000000e+00
4.000000e+00
4.000000e+00
4.000000e+00
4.000000e+00
4.000000e+00
4.000000e+00
4.000000e+00
4.000000e+00
4.000000e+00
4.000000e+00
4.000000e+00
4.000000e+00
4.000000e+00
4.000000e+00
4.000000e+00
4.000000e+00
4.000000e+00
4.000000e+00
4.000000e+00
4.000000e+00
4.000000e+00
0.000000e+00
4.000000e+00
0.000000e+00
0.000000e+00
1.000000e+00
1.000000e+00
1.000000e+00
1.000000e+00
1.000000e+00
1.000000e+00
1.000000e+00
1.000000e+00
1.000000e+00
1.000000e+00
1.000000e+00
1.000000e+00
1.000000e+00
1.000000e+00
0.000000e+00
0.000000e+00
0.000000e+00
0.000000e+00
0.000000e+00
0.000000e+00
2.000000e+00
2.000000e+00
3.000000e+00
3.000000e+00
3.000000e+00
3.000000e+00
3.000000e+00
3.000000e+00
3.000000e+00
3.000000e+00
3.000000e+00
3.000000e+00
3.000000e+00
3.000000e+00
1.000000e+00
1.000000e+00
0.000000e+00
0.000000e+00
0.000000e+00
3.000000e+00
3.000000e+00
0.000000e+00
3.000000e+00
3.000000e+00
0.000000e+00
0.000000e+00
0.000000e+00
0.000000e+00
0.000000e+00
0.000000e+00
0.000000e+00
0.000000e+00
0.000000e+00
0.000000e+00
0.000000e+00
0.000000e+00
0.000000e+00
0.000000e+00
0.000000e+00
0.000000e+00
0.000000e+00
0.000000e+00
0.000000e+00
0.000000e+00
0.000000e+00
0.000000e+00
3.000000e+00
3.000000e+00
3.000000e+00
3.000000e+00
3.000000e+00
3.000000e+00
3.000000e+00
3.000000e+00
3.000000e+00
3.000000e+00
3.000000e+00
3.000000e+00
0.000000e+00
0.000000e+00
0.000000e+00
3.000000e+00
3.000000e+00
3.000000e+00
3.000000e+00
3.000000e+00
3.000000e+00
3.000000e+00
3.000000e+00
2.000000e+00
2.000000e+00
2.000000e+00
3.000000e+00
2.000000e+00
3.000000e+00
0.000000e+00
0.000000e+00
3.000000e+00
3.000000e+00
3.000000e+00
3.000000e+00
3.000000e+00
3.000000e+00
3.000000e+00
3.000000e+00
3.000000e+00
3.000000e+00
3.000000e+00
3.000000e+00
3.000000e+00
3.000000e+00
2.000000e+00
2.000000e+00
</DataArray>
</PointData>
<Verts>
</Verts>
<Lines>
<DataArray type="Int32" Name="connectivity" format="ascii">
0 1 2 3 4 5 6 7 8 9 10 11 12 13 14 15 16 17 18 19 20 21 22 23 24 25 26 27 28 29 30 31 32 33 34 35 36 37 38 39 40 41 42 43 44 45 46 47 48 49 50 51 52 53 54 55 56 57 58 59 60 61 62 63 64 65 66 67 68 69 70 71 72 73 74 75 76 77 78 79 80 81 82 83 84 85 86 87 88 89 90 91 92 93 94 95 96 97 98 99 100 101 102 103 104 105 106 107 108 109 110 111 112 113 114 115 116 117 118 119 120 121 122 123 124 125 126 127 128 129 130 131 132 133 134 135 136 137 138 139 140 141 142 143 144 145 146 147 148 149 150 151 152 153 154 155 156 157 158 159 160 161 162 163 164 165 166 167 168 169 170 171 172 173 174 175 176 177 178 179 180 181 182 183 184 185 186 187 188 189 190 191 192 193 194 195 196 197 198 199 200 201 202 203 204 205 206 207 208 209 210 211 212 213 214 215 216 217 218 219 220 221 222 223 224 225 226 227 228 229 230 231 232 233 234 235 236 237 238 239 240 241 242 243 244 245 246 247 248 249 250 251 252 253 254 255 256 257 258 259 260 261 262 263 264 265 266 267 268 269 270 271 272 273 274 275 276 277 278 279 </DataArray>
<DataArray type="Int32" Name="offsets" format="ascii">
280 </DataArray>
</Lines>
<Strips>
</Strips>
<Polys>
</Polys>
</Piece></PolyData>
</VTKFile>
