<?xml version="1.0"?>
<VTKFile type="PolyData" version="0.1" byte_order="LittleEndian" compressor="vtkZLibDataCompressor">
<PolyData>
<Piece NumberOfPoints="28" NumberOfVerts="0" NumberOfLines="1" NumberOfStrips="0" NumberOfPolys="0">
<Points>
<DataArray type="Float32" NumberOfComponents="3" format="ascii">
1.000000e+00 -1.000000e+00 0.000000e+00
1.000000e+00 -5.000000e-01 0.000000e+00
1.000000e+00 -8.333330e-01 0.000000e+00
1.000000e+00 -6.666670e-01 0.000000e+00
1.000000e+00 -5.000000e-01 0.000000e+00
1.000000e+00 0.000000e+00 0.000000e+00
1.000000e+00 -3.333330e-01 0.000000e+00
1.000000e+00 -1.666670e-01 0.000000e+00
1.000000e+00 0.000000e+00 0.000000e+00
1.000000e+00 5.000000e-01 0.000000e+00
1.000000e+00 1.666670e-01 0.000000e+00
1.000000e+00 3.333330e-01 0.000000e+00
1.000000e+00 -1.000000e+00 0.000000e+00
0.000000e+00 -1.000000e+00 0.000000e+00
3.333330e-01 -1.000000e+00 0.000000e+00
6.666670e-01 -1.000000e+00 0.000000e+00
-1.000000e+00 -1.000000e+00 0.000000e+00
-5.000000e-01 -1.000000e+00 0.000000e+00
-8.333330e-01 -1.000000e+00 0.000000e+00
-6.666670e-01 -1.000000e+00 0.000000e+00
1.000000e+00 5.000000e-01 0.000000e+00
1.000000e+00 1.000000e+00 0.000000e+00
1.000000e+00 6.666670e-01 0.000000e+00
1.000000e+00 8.333330e-01 0.000000e+00
0.000000e+00 -1.000000e+00 0.000000e+00
-5.000000e-01 -1.000000e+00 0.000000e+00
-3.333330e-01 -1.000000e+00 0.000000e+00
-1.666670e-01 -1.000000e+00 0.000000e+00
</DataArray>
</Points>
<PointData>
<DataArray type="Float32" Name="V1" format="ascii">
5.000000e-01
6.250000e-01
5.416670e-01
5.833330e-01
6.250000e-01
7.500000e-01
6.666670e-01
7.083330e-01
7.500000e-01
8.750000e-01
7.916670e-01
8.333330e-01
5.000000e-01
2.500000e-01
3.333330e-01
4.166670e-01
0.000000e+00
1.250000e-01
4.166670e-02
8.333330e-02
8.750000e-01
1.000000e+00
9.166670e-01
9.583330e-01
2.500000e-01
1.250000e-01
1.666670e-01
2.083330e-01
</DataArray>
</PointData>
<Verts>
</Verts>
<Lines>
<DataArray type="Int32" Name="connectivity" format="ascii">
0 1 2 3 4 5 6 7 8 9 10 11 12 13 14 15 16 17 18 19 20 21 22 23 24 25 26 27 </DataArray>
<DataArray type="Int32" Name="offsets" format="ascii">
28 </DataArray>
</Lines>
<Strips>
</Strips>
<Polys>
</Polys>
</Piece></PolyData>
</VTKFile>
