<?xml version="1.0"?>
<VTKFile type="UnstructuredGrid" version="0.1" byte_order="LittleEndian" compressor="vtkZLibDataCompressor">
<UnstructuredGrid>
<Piece NumberOfPoints="90" NumberOfCells="96">
<Points>
<DataArray type="Float32" NumberOfComponents="3" format="ascii">
-5.000000e-01 -1.000000e+00 0.000000e+00
-5.833330e-01 -9.583330e-01 0.000000e+00
-6.666670e-01 -9.166670e-01 0.000000e+00
-7.500000e-01 -8.750000e-01 0.000000e+00
-8.333330e-01 -8.333330e-01 0.000000e+00
-6.250000e-01 -1.000000e+00 0.000000e+00
-7.083330e-01 -9.583330e-01 0.000000e+00
-7.916670e-01 -9.166670e-01 0.000000e+00
-8.750000e-01 -8.750000e-01 0.000000e+00
-7.500000e-01 -1.000000e+00 0.000000e+00
-8.333330e-01 -9.583330e-01 0.000000e+00
-9.166670e-01 -9.166670e-01 0.000000e+00
-8.750000e-01 -1.000000e+00 0.000000e+00
-9.583330e-01 -9.583330e-01 0.000000e+00
-1.000000e+00 -1.000000e+00 0.000000e+00
-5.000000e-01 -1.000000e+00 0.000000e+00
-6.250000e-01 -8.750000e-01 0.000000e+00
-7.500000e-01 -7.500000e-01 0.000000e+00
-8.750000e-01 -6.250000e-01 0.000000e+00
-1.000000e+00 -5.000000e-01 0.000000e+00
-5.833330e-01 -9.583330e-01 0.000000e+00
-7.083330e-01 -8.333330e-01 0.000000e+00
-8.333330e-01 -7.083330e-01 0.000000e+00
-9.583330e-01 -5.833330e-01 0.000000e+00
-6.666670e-01 -9.166670e-01 0.000000e+00
-7.916670e-01 -7.916670e-01 0.000000e+00
-9.166670e-01 -6.666670e-01 0.000000e+00
-7.500000e-01 -8.750000e-01 0.000000e+00
-8.750000e-01 -7.500000e-01 0.000000e+00
-8.333330e-01 -8.333330e-01 0.000000e+00
-8.333330e-01 -8.333330e-01 0.000000e+00
-8.750000e-01 -7.500000e-01 0.000000e+00
-9.166670e-01 -6.666670e-01 0.000000e+00
-9.583330e-01 -5.833330e-01 0.000000e+00
-1.000000e+00 -5.000000e-01 0.000000e+00
-8.750000e-01 -8.750000e-01 0.000000e+00
-9.166670e-01 -7.916670e-01 0.000000e+00
-9.583330e-01 -7.083330e-01 0.000000e+00
-1.000000e+00 -6.250000e-01 0.000000e+00
-9.166670e-01 -9.166670e-01 0.000000e+00
-9.583330e-01 -8.333330e-01 0.000000e+00
-1.000000e+00 -7.500000e-01 0.000000e+00
-9.583330e-01 -9.583330e-01 0.000000e+00
-1.000000e+00 -8.750000e-01 0.000000e+00
-1.000000e+00 -1.000000e+00 0.000000e+00
5.000000e-01 1.000000e+00 0.000000e+00
5.833330e-01 9.583330e-01 0.000000e+00
6.666670e-01 9.166670e-01 0.000000e+00
7.500000e-01 8.750000e-01 0.000000e+00
8.333330e-01 8.333330e-01 0.000000e+00
6.250000e-01 1.000000e+00 0.000000e+00
7.083330e-01 9.583330e-01 0.000000e+00
7.916670e-01 9.166670e-01 0.000000e+00
8.750000e-01 8.750000e-01 0.000000e+00
7.500000e-01 1.000000e+00 0.000000e+00
8.333330e-01 9.583330e-01 0.000000e+00
9.166670e-01 9.166670e-01 0.000000e+00
8.750000e-01 1.000000e+00 0.000000e+00
9.583330e-01 9.583330e-01 0.000000e+00
1.000000e+00 1.000000e+00 0.000000e+00
5.000000e-01 1.000000e+00 0.000000e+00
6.250000e-01 8.750000e-01 0.000000e+00
7.500000e-01 7.500000e-01 0.000000e+00
8.750000e-01 6.250000e-01 0.000000e+00
1.000000e+00 5.000000e-01 0.000000e+00
5.833330e-01 9.583330e-01 0.000000e+00
7.083330e-01 8.333330e-01 0.000000e+00
8.333330e-01 7.083330e-01 0.000000e+00
9.583330e-01 5.833330e-01 0.000000e+00
6.666670e-01 9.166670e-01 0.000000e+00
7.916670e-01 7.916670e-01 0.000000e+00
9.166670e-01 6.666670e-01 0.000000e+00
7.500000e-01 8.750000e-01 0.000000e+00
8.750000e-01 7.500000e-01 0.000000e+00
8.333330e-01 8.333330e-01 0.000000e+00
8.333330e-01 8.333330e-01 0.000000e+00
8.750000e-01 7.500000e-01 0.000000e+00
9.166670e-01 6.666670e-01 0.000000e+00
9.583330e-01 5.833330e-01 0.000000e+00
1.000000e+00 5.000000e-01 0.000000e+00
8.750000e-01 8.750000e-01 0.000000e+00
9.166670e-01 7.916670e-01 0.000000e+00
9.583330e-01 7.083330e-01 0.000000e+00
1.000000e+00 6.250000e-01 0.000000e+00
9.166670e-01 9.166670e-01 0.000000e+00
9.583330e-01 8.333330e-01 0.000000e+00
1.000000e+00 7.500000e-01 0.000000e+00
9.583330e-01 9.583330e-01 0.000000e+00
1.000000e+00 8.750000e-01 0.000000e+00
1.000000e+00 1.000000e+00 0.000000e+00
</DataArray>
</Points>
<Cells>
<DataArray type="Int32" Name="connectivity" format="ascii">
0 1 5 
1 6 5 
1 2 6 
2 7 6 
2 3 7 
3 8 7 
3 4 8 
5 6 9 
6 10 9 
6 7 10 
7 11 10 
7 8 11 
9 10 12 
10 13 12 
10 11 13 
12 13 14 
15 16 20 
16 21 20 
16 17 21 
17 22 21 
17 18 22 
18 23 22 
18 19 23 
20 21 24 
21 25 24 
21 22 25 
22 26 25 
22 23 26 
24 25 27 
25 28 27 
25 26 28 
27 28 29 
30 31 35 
31 36 35 
31 32 36 
32 37 36 
32 33 37 
33 38 37 
33 34 38 
35 36 39 
36 40 39 
36 37 40 
37 41 40 
37 38 41 
39 40 42 
40 43 42 
40 41 43 
42 43 44 
45 46 50 
46 51 50 
46 47 51 
47 52 51 
47 48 52 
48 53 52 
48 49 53 
50 51 54 
51 55 54 
51 52 55 
52 56 55 
52 53 56 
54 55 57 
55 58 57 
55 56 58 
57 58 59 
60 61 65 
61 66 65 
61 62 66 
62 67 66 
62 63 67 
63 68 67 
63 64 68 
65 66 69 
66 70 69 
66 67 70 
67 71 70 
67 68 71 
69 70 72 
70 73 72 
70 71 73 
72 73 74 
75 76 80 
76 81 80 
76 77 81 
77 82 81 
77 78 82 
78 83 82 
78 79 83 
80 81 84 
81 85 84 
81 82 85 
82 86 85 
82 83 86 
84 85 87 
85 88 87 
85 86 88 
87 88 89 
</DataArray>
<DataArray type="Int32" Name="offsets" format="ascii">
3
6
9
12
15
18
21
24
27
30
33
36
39
42
45
48
51
54
57
60
63
66
69
72
75
78
81
84
87
90
93
96
99
102
105
108
111
114
117
120
123
126
129
132
135
138
141
144
147
150
153
156
159
162
165
168
171
174
177
180
183
186
189
192
195
198
201
204
207
210
213
216
219
222
225
228
231
234
237
240
243
246
249
252
255
258
261
264
267
270
273
276
279
282
285
288
</DataArray>
<DataArray type="UInt8" Name="types" format="ascii">
5
5
5
5
5
5
5
5
5
5
5
5
5
5
5
5
5
5
5
5
5
5
5
5
5
5
5
5
5
5
5
5
5
5
5
5
5
5
5
5
5
5
5
5
5
5
5
5
5
5
5
5
5
5
5
5
5
5
5
5
5
5
5
5
5
5
5
5
5
5
5
5
5
5
5
5
5
5
5
5
5
5
5
5
5
5
5
5
5
5
5
5
5
5
5
5
</DataArray>
</Cells>
<PointData>
<DataArray type="Float32" Name="V1" format="ascii">
0.000000e+00
0.000000e+00
0.000000e+00
0.000000e+00
0.000000e+00
0.000000e+00
0.000000e+00
0.000000e+00
0.000000e+00
0.000000e+00
0.000000e+00
0.000000e+00
0.000000e+00
0.000000e+00
0.000000e+00
0.000000e+00
0.000000e+00
0.000000e+00
0.000000e+00
0.000000e+00
0.000000e+00
0.000000e+00
0.000000e+00
0.000000e+00
0.000000e+00
0.000000e+00
0.000000e+00
0.000000e+00
0.000000e+00
0.000000e+00
0.000000e+00
0.000000e+00
0.000000e+00
0.000000e+00
0.000000e+00
0.000000e+00
0.000000e+00
0.000000e+00
0.000000e+00
0.000000e+00
0.000000e+00
0.000000e+00
0.000000e+00
0.000000e+00
0.000000e+00
0.000000e+00
0.000000e+00
0.000000e+00
0.000000e+00
0.000000e+00
0.000000e+00
0.000000e+00
0.000000e+00
0.000000e+00
0.000000e+00
0.000000e+00
0.000000e+00
0.000000e+00
0.000000e+00
0.000000e+00
0.000000e+00
0.000000e+00
0.000000e+00
0.000000e+00
0.000000e+00
0.000000e+00
0.000000e+00
0.000000e+00
0.000000e+00
0.000000e+00
0.000000e+00
0.000000e+00
0.000000e+00
0.000000e+00
0.000000e+00
0.000000e+00
0.000000e+00
0.000000e+00
0.000000e+00
0.000000e+00
0.000000e+00
0.000000e+00
0.000000e+00
0.000000e+00
0.000000e+00
0.000000e+00
0.000000e+00
0.000000e+00
0.000000e+00
0.000000e+00
</DataArray>
<DataArray type="Float32" Name="V2" format="ascii">
0.000000e+00
0.000000e+00
0.000000e+00
0.000000e+00
0.000000e+00
0.000000e+00
0.000000e+00
0.000000e+00
0.000000e+00
0.000000e+00
0.000000e+00
0.000000e+00
0.000000e+00
0.000000e+00
0.000000e+00
0.000000e+00
0.000000e+00
0.000000e+00
0.000000e+00
0.000000e+00
0.000000e+00
0.000000e+00
0.000000e+00
0.000000e+00
0.000000e+00
0.000000e+00
0.000000e+00
0.000000e+00
0.000000e+00
0.000000e+00
0.000000e+00
0.000000e+00
0.000000e+00
0.000000e+00
0.000000e+00
0.000000e+00
0.000000e+00
0.000000e+00
0.000000e+00
0.000000e+00
0.000000e+00
0.000000e+00
0.000000e+00
0.000000e+00
0.000000e+00
0.000000e+00
0.000000e+00
0.000000e+00
0.000000e+00
0.000000e+00
0.000000e+00
0.000000e+00
0.000000e+00
0.000000e+00
0.000000e+00
0.000000e+00
0.000000e+00
0.000000e+00
0.000000e+00
0.000000e+00
0.000000e+00
0.000000e+00
0.000000e+00
0.000000e+00
0.000000e+00
0.000000e+00
0.000000e+00
0.000000e+00
0.000000e+00
0.000000e+00
0.000000e+00
0.000000e+00
0.000000e+00
0.000000e+00
0.000000e+00
0.000000e+00
0.000000e+00
0.000000e+00
0.000000e+00
0.000000e+00
0.000000e+00
0.000000e+00
0.000000e+00
0.000000e+00
0.000000e+00
0.000000e+00
0.000000e+00
0.000000e+00
0.000000e+00
0.000000e+00
</DataArray>
<DataArray type="Float32" Name="V3" format="ascii">
0.000000e+00
0.000000e+00
0.000000e+00
0.000000e+00
0.000000e+00
0.000000e+00
0.000000e+00
0.000000e+00
0.000000e+00
0.000000e+00
0.000000e+00
0.000000e+00
0.000000e+00
0.000000e+00
0.000000e+00
0.000000e+00
0.000000e+00
0.000000e+00
0.000000e+00
0.000000e+00
0.000000e+00
0.000000e+00
0.000000e+00
0.000000e+00
0.000000e+00
0.000000e+00
0.000000e+00
0.000000e+00
0.000000e+00
0.000000e+00
0.000000e+00
0.000000e+00
0.000000e+00
0.000000e+00
0.000000e+00
0.000000e+00
0.000000e+00
0.000000e+00
0.000000e+00
0.000000e+00
0.000000e+00
0.000000e+00
0.000000e+00
0.000000e+00
0.000000e+00
0.000000e+00
0.000000e+00
0.000000e+00
0.000000e+00
0.000000e+00
0.000000e+00
0.000000e+00
0.000000e+00
0.000000e+00
0.000000e+00
0.000000e+00
0.000000e+00
0.000000e+00
0.000000e+00
0.000000e+00
0.000000e+00
0.000000e+00
0.000000e+00
0.000000e+00
0.000000e+00
0.000000e+00
0.000000e+00
0.000000e+00
0.000000e+00
0.000000e+00
0.000000e+00
0.000000e+00
0.000000e+00
0.000000e+00
0.000000e+00
0.000000e+00
0.000000e+00
0.000000e+00
0.000000e+00
0.000000e+00
0.000000e+00
0.000000e+00
0.000000e+00
0.000000e+00
0.000000e+00
0.000000e+00
0.000000e+00
0.000000e+00
0.000000e+00
0.000000e+00
</DataArray>
<DataArray type="Float32" Name="V4" format="ascii">
0.000000e+00
0.000000e+00
0.000000e+00
0.000000e+00
0.000000e+00
0.000000e+00
0.000000e+00
0.000000e+00
0.000000e+00
0.000000e+00
0.000000e+00
0.000000e+00
0.000000e+00
0.000000e+00
0.000000e+00
0.000000e+00
0.000000e+00
0.000000e+00
0.000000e+00
0.000000e+00
0.000000e+00
0.000000e+00
0.000000e+00
0.000000e+00
0.000000e+00
0.000000e+00
0.000000e+00
0.000000e+00
0.000000e+00
0.000000e+00
0.000000e+00
0.000000e+00
0.000000e+00
0.000000e+00
0.000000e+00
0.000000e+00
0.000000e+00
0.000000e+00
0.000000e+00
0.000000e+00
0.000000e+00
0.000000e+00
0.000000e+00
0.000000e+00
0.000000e+00
0.000000e+00
0.000000e+00
0.000000e+00
0.000000e+00
0.000000e+00
0.000000e+00
0.000000e+00
0.000000e+00
0.000000e+00
0.000000e+00
0.000000e+00
0.000000e+00
0.000000e+00
0.000000e+00
0.000000e+00
0.000000e+00
0.000000e+00
0.000000e+00
0.000000e+00
0.000000e+00
0.000000e+00
0.000000e+00
0.000000e+00
0.000000e+00
0.000000e+00
0.000000e+00
0.000000e+00
0.000000e+00
0.000000e+00
0.000000e+00
0.000000e+00
0.000000e+00
0.000000e+00
0.000000e+00
0.000000e+00
0.000000e+00
0.000000e+00
0.000000e+00
0.000000e+00
0.000000e+00
0.000000e+00
0.000000e+00
0.000000e+00
0.000000e+00
0.000000e+00
</DataArray>
</PointData>
</Piece></UnstructuredGrid>
</VTKFile>
