<?xml version="1.0"?>
<VTKFile type="PolyData" version="0.1" byte_order="LittleEndian" compressor="vtkZLibDataCompressor">
<PolyData>
<Piece NumberOfPoints="36" NumberOfVerts="0" NumberOfLines="1" NumberOfStrips="0" NumberOfPolys="0">
<Points>
<DataArray type="Float32" NumberOfComponents="3" format="ascii">
8.660250e-01 -5.000000e-01 0.000000e+00
7.660440e-01 -6.427880e-01 0.000000e+00
8.021230e-01 -5.971590e-01 0.000000e+00
8.354880e-01 -5.495090e-01 0.000000e+00
8.660250e-01 -5.000000e-01 0.000000e+00
9.396930e-01 -3.420200e-01 0.000000e+00
8.936330e-01 -4.487990e-01 0.000000e+00
9.182160e-01 -3.960800e-01 0.000000e+00
6.427880e-01 -7.660440e-01 0.000000e+00
5.000000e-01 -8.660250e-01 0.000000e+00
5.495090e-01 -8.354880e-01 0.000000e+00
5.971590e-01 -8.021230e-01 0.000000e+00
1.736480e-01 -9.848080e-01 0.000000e+00
3.420200e-01 -9.396930e-01 0.000000e+00
2.306160e-01 -9.730450e-01 0.000000e+00
2.868030e-01 -9.579900e-01 0.000000e+00
6.427880e-01 -7.660440e-01 0.000000e+00
7.660440e-01 -6.427880e-01 0.000000e+00
6.862420e-01 -7.273740e-01 0.000000e+00
7.273740e-01 -6.862420e-01 0.000000e+00
5.000000e-01 -8.660250e-01 0.000000e+00
3.420200e-01 -9.396930e-01 0.000000e+00
3.960800e-01 -9.182160e-01 0.000000e+00
4.487990e-01 -8.936330e-01 0.000000e+00
9.848080e-01 -1.736480e-01 0.000000e+00
1.000000e+00 -2.449290e-16 0.000000e+00
9.932380e-01 -1.160930e-01 0.000000e+00
9.983080e-01 -5.814480e-02 0.000000e+00
9.848080e-01 -1.736480e-01 0.000000e+00
9.396930e-01 -3.420200e-01 0.000000e+00
9.579900e-01 -2.868030e-01 0.000000e+00
9.730450e-01 -2.306160e-01 0.000000e+00
-1.836970e-16 -1.000000e+00 0.000000e+00
1.736480e-01 -9.848080e-01 0.000000e+00
5.814480e-02 -9.983080e-01 0.000000e+00
1.160930e-01 -9.932380e-01 0.000000e+00
</DataArray>
</Points>
<PointData>
<DataArray type="Float32" Name="V1" format="ascii">
5.759590e+00
5.585050e+00
5.643230e+00
5.701410e+00
5.759590e+00
5.934120e+00
5.817760e+00
5.875940e+00
5.410520e+00
5.235990e+00
5.294170e+00
5.352340e+00
4.886920e+00
5.061450e+00
4.945100e+00
5.003280e+00
5.410520e+00
5.585050e+00
5.468700e+00
5.526880e+00
5.235990e+00
5.061450e+00
5.119630e+00
5.177810e+00
6.108650e+00
6.283190e+00
6.166830e+00
6.225010e+00
6.108650e+00
5.934120e+00
5.992300e+00
6.050470e+00
4.712390e+00
4.886920e+00
4.770570e+00
4.828740e+00
</DataArray>
</PointData>
<Verts>
</Verts>
<Lines>
<DataArray type="Int32" Name="connectivity" format="ascii">
0 1 2 3 4 5 6 7 8 9 10 11 12 13 14 15 16 17 18 19 20 21 22 23 24 25 26 27 28 29 30 31 32 33 34 35 </DataArray>
<DataArray type="Int32" Name="offsets" format="ascii">
36 </DataArray>
</Lines>
<Strips>
</Strips>
<Polys>
</Polys>
</Piece></PolyData>
</VTKFile>
