<?xml version="1.0"?>
<VTKFile type="PolyData" version="0.1" byte_order="LittleEndian" compressor="vtkZLibDataCompressor">
<PolyData>
<Piece NumberOfPoints="36" NumberOfVerts="0" NumberOfLines="1" NumberOfStrips="0" NumberOfPolys="0">
<Points>
<DataArray type="Float32" NumberOfComponents="3" format="ascii">
9.848080e-01 1.736480e-01 0.000000e+00
1.000000e+00 -2.449290e-16 0.000000e+00
9.983080e-01 5.814480e-02 0.000000e+00
9.932380e-01 1.160930e-01 0.000000e+00
3.420200e-01 9.396930e-01 0.000000e+00
5.000000e-01 8.660250e-01 0.000000e+00
4.487990e-01 8.936330e-01 0.000000e+00
3.960800e-01 9.182160e-01 0.000000e+00
6.427880e-01 7.660440e-01 0.000000e+00
5.000000e-01 8.660250e-01 0.000000e+00
5.971590e-01 8.021230e-01 0.000000e+00
5.495090e-01 8.354880e-01 0.000000e+00
8.660250e-01 5.000000e-01 0.000000e+00
7.660440e-01 6.427880e-01 0.000000e+00
8.354880e-01 5.495090e-01 0.000000e+00
8.021230e-01 5.971590e-01 0.000000e+00
3.420200e-01 9.396930e-01 0.000000e+00
1.736480e-01 9.848080e-01 0.000000e+00
2.868030e-01 9.579900e-01 0.000000e+00
2.306160e-01 9.730450e-01 0.000000e+00
8.660250e-01 5.000000e-01 0.000000e+00
9.396930e-01 3.420200e-01 0.000000e+00
9.182160e-01 3.960800e-01 0.000000e+00
8.936330e-01 4.487990e-01 0.000000e+00
9.396930e-01 3.420200e-01 0.000000e+00
9.848080e-01 1.736480e-01 0.000000e+00
9.730450e-01 2.306160e-01 0.000000e+00
9.579900e-01 2.868030e-01 0.000000e+00
6.123230e-17 1.000000e+00 0.000000e+00
1.736480e-01 9.848080e-01 0.000000e+00
1.160930e-01 9.932380e-01 0.000000e+00
5.814480e-02 9.983080e-01 0.000000e+00
6.427880e-01 7.660440e-01 0.000000e+00
7.660440e-01 6.427880e-01 0.000000e+00
7.273740e-01 6.862420e-01 0.000000e+00
6.862420e-01 7.273740e-01 0.000000e+00
</DataArray>
</Points>
<PointData>
<DataArray type="Float32" Name="V1" format="ascii">
1.745330e-01
0.000000e+00
5.817760e-02
1.163550e-01
1.221730e+00
1.047200e+00
1.105380e+00
1.163550e+00
8.726650e-01
1.047200e+00
9.308420e-01
9.890200e-01
5.235990e-01
6.981320e-01
5.817760e-01
6.399540e-01
1.221730e+00
1.396260e+00
1.279910e+00
1.338090e+00
5.235990e-01
3.490660e-01
4.072430e-01
4.654210e-01
3.490660e-01
1.745330e-01
2.327110e-01
2.908880e-01
1.570800e+00
1.396260e+00
1.454440e+00
1.512620e+00
8.726650e-01
6.981320e-01
7.563090e-01
8.144870e-01
</DataArray>
</PointData>
<Verts>
</Verts>
<Lines>
<DataArray type="Int32" Name="connectivity" format="ascii">
0 1 2 3 4 5 6 7 8 9 10 11 12 13 14 15 16 17 18 19 20 21 22 23 24 25 26 27 28 29 30 31 32 33 34 35 </DataArray>
<DataArray type="Int32" Name="offsets" format="ascii">
36 </DataArray>
</Lines>
<Strips>
</Strips>
<Polys>
</Polys>
</Piece></PolyData>
</VTKFile>
