<?xml version="1.0"?>
<VTKFile type="UnstructuredGrid" version="0.1" byte_order="LittleEndian" compressor="vtkZLibDataCompressor">
<UnstructuredGrid>
<Piece NumberOfPoints="630" NumberOfCells="672">
<Points>
<DataArray type="Float32" NumberOfComponents="3" format="ascii">
1.000000e+00 -2.498000e-16 0.000000e+00
9.990480e-01 4.361940e-02 0.000000e+00
9.961950e-01 8.715570e-02 0.000000e+00
9.914450e-01 1.305260e-01 0.000000e+00
9.848080e-01 1.736480e-01 0.000000e+00
9.598270e-01 -1.835740e-02 0.000000e+00
9.579250e-01 2.520660e-02 0.000000e+00
9.541240e-01 6.864620e-02 0.000000e+00
9.484320e-01 1.118790e-01 0.000000e+00
9.196530e-01 -3.671490e-02 0.000000e+00
9.168030e-01 6.780060e-03 0.000000e+00
9.120570e-01 5.010920e-02 0.000000e+00
8.794800e-01 -5.507230e-02 0.000000e+00
8.756810e-01 -1.166030e-02 0.000000e+00
8.393060e-01 -7.342980e-02 0.000000e+00
5.000000e-01 8.660250e-01 0.000000e+00
4.617490e-01 8.870110e-01 0.000000e+00
4.226180e-01 9.063080e-01 0.000000e+00
3.826830e-01 9.238800e-01 0.000000e+00
3.420200e-01 9.396930e-01 0.000000e+00
4.284510e-01 8.490000e-01 0.000000e+00
3.897720e-01 8.691360e-01 0.000000e+00
3.502520e-01 8.875640e-01 0.000000e+00
3.099660e-01 9.042510e-01 0.000000e+00
3.569020e-01 8.319760e-01 0.000000e+00
3.178090e-01 8.512540e-01 0.000000e+00
2.779120e-01 8.688090e-01 0.000000e+00
2.853530e-01 8.149510e-01 0.000000e+00
2.458580e-01 8.333670e-01 0.000000e+00
2.138040e-01 7.979260e-01 0.000000e+00
5.000000e-01 8.660250e-01 0.000000e+00
4.934540e-01 8.186890e-01 0.000000e+00
4.869080e-01 7.713530e-01 0.000000e+00
4.803620e-01 7.240160e-01 0.000000e+00
4.738160e-01 6.766800e-01 0.000000e+00
5.373000e-01 8.433910e-01 0.000000e+00
5.302310e-01 7.952600e-01 0.000000e+00
5.231510e-01 7.471370e-01 0.000000e+00
5.160590e-01 6.990210e-01 0.000000e+00
5.735760e-01 8.191520e-01 0.000000e+00
5.659500e-01 7.702490e-01 0.000000e+00
5.583020e-01 7.213620e-01 0.000000e+00
6.087610e-01 7.933530e-01 0.000000e+00
6.005450e-01 7.437030e-01 0.000000e+00
6.427880e-01 7.660440e-01 0.000000e+00
7.660440e-01 6.427880e-01 0.000000e+00
7.439750e-01 6.007350e-01 0.000000e+00
7.219060e-01 5.586830e-01 0.000000e+00
6.998370e-01 5.166300e-01 0.000000e+00
6.777670e-01 4.745780e-01 0.000000e+00
7.933530e-01 6.087610e-01 0.000000e+00
7.705210e-01 5.661410e-01 0.000000e+00
7.476800e-01 5.235310e-01 0.000000e+00
7.248320e-01 4.809330e-01 0.000000e+00
8.191520e-01 5.735760e-01 0.000000e+00
7.955320e-01 5.304210e-01 0.000000e+00
7.718960e-01 4.872890e-01 0.000000e+00
8.433910e-01 5.373000e-01 0.000000e+00
8.189610e-01 4.936440e-01 0.000000e+00
8.660250e-01 5.000000e-01 0.000000e+00
2.138040e-01 7.979260e-01 0.000000e+00
2.458580e-01 8.333670e-01 0.000000e+00
2.779120e-01 8.688090e-01 0.000000e+00
3.099660e-01 9.042510e-01 0.000000e+00
3.420200e-01 9.396930e-01 0.000000e+00
2.037650e-01 8.446460e-01 0.000000e+00
2.360650e-01 8.810070e-01 0.000000e+00
2.683790e-01 9.173640e-01 0.000000e+00
3.007060e-01 9.537170e-01 0.000000e+00
1.937260e-01 8.913670e-01 0.000000e+00
2.262590e-01 9.286500e-01 0.000000e+00
2.588190e-01 9.659260e-01 0.000000e+00
1.836870e-01 9.380870e-01 0.000000e+00
2.164400e-01 9.762960e-01 0.000000e+00
1.736480e-01 9.848080e-01 0.000000e+00
9.396930e-01 3.420200e-01 0.000000e+00
9.238800e-01 3.826830e-01 0.000000e+00
9.063080e-01 4.226180e-01 0.000000e+00
8.870110e-01 4.617490e-01 0.000000e+00
8.660250e-01 5.000000e-01 0.000000e+00
8.742110e-01 3.751600e-01 0.000000e+00
8.575250e-01 4.154460e-01 0.000000e+00
8.390960e-01 4.549660e-01 0.000000e+00
8.189610e-01 4.936440e-01 0.000000e+00
8.087300e-01 4.082990e-01 0.000000e+00
7.911750e-01 4.481960e-01 0.000000e+00
7.718960e-01 4.872890e-01 0.000000e+00
7.432490e-01 4.414380e-01 0.000000e+00
7.248320e-01 4.809330e-01 0.000000e+00
6.777670e-01 4.745780e-01 0.000000e+00
9.848080e-01 1.736480e-01 0.000000e+00
9.762960e-01 2.164400e-01 0.000000e+00
9.659260e-01 2.588190e-01 0.000000e+00
9.537170e-01 3.007060e-01 0.000000e+00
9.396930e-01 3.420200e-01 0.000000e+00
9.384080e-01 1.837730e-01 0.000000e+00
9.289700e-01 2.263450e-01 0.000000e+00
9.176840e-01 2.684650e-01 0.000000e+00
9.045720e-01 3.100520e-01 0.000000e+00
8.920080e-01 1.938980e-01 0.000000e+00
8.816480e-01 2.362370e-01 0.000000e+00
8.694500e-01 2.780840e-01 0.000000e+00
8.456080e-01 2.040220e-01 0.000000e+00
8.343290e-01 2.461150e-01 0.000000e+00
7.992080e-01 2.141470e-01 0.000000e+00
1.736480e-01 9.848080e-01 0.000000e+00
1.305260e-01 9.914450e-01 0.000000e+00
8.715570e-02 9.961950e-01 0.000000e+00
4.361940e-02 9.990480e-01 0.000000e+00
5.551120e-17 1.000000e+00 0.000000e+00
1.836870e-01 9.380870e-01 0.000000e+00
1.404550e-01 9.437790e-01 0.000000e+00
9.701500e-02 9.475800e-01 0.000000e+00
5.345090e-02 9.494810e-01 0.000000e+00
1.937260e-01 8.913670e-01 0.000000e+00
1.503970e-01 8.961120e-01 0.000000e+00
1.069020e-01 8.989630e-01 0.000000e+00
2.037650e-01 8.446460e-01 0.000000e+00
1.603530e-01 8.484440e-01 0.000000e+00
2.138040e-01 7.979260e-01 0.000000e+00
7.660440e-01 6.427880e-01 0.000000e+00
7.372770e-01 6.755900e-01 0.000000e+00
7.071070e-01 7.071070e-01 0.000000e+00
6.755900e-01 7.372770e-01 0.000000e+00
6.427880e-01 7.660440e-01 0.000000e+00
7.439750e-01 6.007350e-01 0.000000e+00
7.145160e-01 6.328850e-01 0.000000e+00
6.836820e-01 6.637190e-01 0.000000e+00
6.515330e-01 6.931780e-01 0.000000e+00
7.219060e-01 5.586830e-01 0.000000e+00
6.917640e-01 5.901700e-01 0.000000e+00
6.602780e-01 6.203110e-01 0.000000e+00
6.998370e-01 5.166300e-01 0.000000e+00
6.690220e-01 5.474450e-01 0.000000e+00
6.777670e-01 4.745780e-01 0.000000e+00
-9.848080e-01 1.736480e-01 0.000000e+00
-9.914450e-01 1.305260e-01 0.000000e+00
-9.961950e-01 8.715570e-02 0.000000e+00
-9.990480e-01 4.361940e-02 0.000000e+00
-1.000000e+00 1.249000e-16 0.000000e+00
-9.261830e-01 1.138250e-01 0.000000e+00
-9.318750e-01 7.059280e-02 0.000000e+00
-9.356760e-01 2.715320e-02 0.000000e+00
-9.375770e-01 -1.641090e-02 0.000000e+00
-8.675590e-01 5.400230e-02 0.000000e+00
-8.723040e-01 1.067310e-02 0.000000e+00
-8.751550e-01 -3.282180e-02 0.000000e+00
-8.089340e-01 -5.820660e-03 0.000000e+00
-8.127320e-01 -4.923270e-02 0.000000e+00
-7.503100e-01 -6.564360e-02 0.000000e+00
-6.166630e-01 4.317920e-01 0.000000e+00
-6.790030e-01 4.488440e-01 0.000000e+00
-7.413440e-01 4.658960e-01 0.000000e+00
-8.036850e-01 4.829480e-01 0.000000e+00
-8.660250e-01 5.000000e-01 0.000000e+00
-6.974200e-01 4.093490e-01 0.000000e+00
-7.606230e-01 4.268030e-01 0.000000e+00
-8.238200e-01 4.442700e-01 0.000000e+00
-8.870110e-01 4.617490e-01 0.000000e+00
-7.781780e-01 3.869060e-01 0.000000e+00
-8.422480e-01 4.047500e-01 0.000000e+00
-9.063080e-01 4.226180e-01 0.000000e+00
-8.589350e-01 3.644630e-01 0.000000e+00
-9.238800e-01 3.826830e-01 0.000000e+00
-9.396930e-01 3.420200e-01 0.000000e+00
-9.396930e-01 3.420200e-01 0.000000e+00
-9.537170e-01 3.007060e-01 0.000000e+00
-9.659260e-01 2.588190e-01 0.000000e+00
-9.762960e-01 2.164400e-01 0.000000e+00
-9.848080e-01 1.736480e-01 0.000000e+00
-8.812110e-01 3.037930e-01 0.000000e+00
-8.943240e-01 2.622050e-01 0.000000e+00
-9.056100e-01 2.200860e-01 0.000000e+00
-9.150480e-01 1.775140e-01 0.000000e+00
-8.227300e-01 2.655650e-01 0.000000e+00
-8.349270e-01 2.237180e-01 0.000000e+00
-8.452880e-01 1.813790e-01 0.000000e+00
-7.642490e-01 2.273370e-01 0.000000e+00
-7.755270e-01 1.852440e-01 0.000000e+00
-7.057670e-01 1.891100e-01 0.000000e+00
-7.660440e-01 6.427880e-01 0.000000e+00
-7.933530e-01 6.087610e-01 0.000000e+00
-8.191520e-01 5.735760e-01 0.000000e+00
-8.433910e-01 5.373000e-01 0.000000e+00
-8.660250e-01 5.000000e-01 0.000000e+00
-7.286990e-01 5.900390e-01 0.000000e+00
-7.552450e-01 5.554440e-01 0.000000e+00
-7.802560e-01 5.197250e-01 0.000000e+00
-8.036850e-01 4.829480e-01 0.000000e+00
-6.913530e-01 5.372900e-01 0.000000e+00
-7.171280e-01 5.021380e-01 0.000000e+00
-7.413440e-01 4.658960e-01 0.000000e+00
-6.540080e-01 4.845410e-01 0.000000e+00
-6.790030e-01 4.488440e-01 0.000000e+00
-6.166630e-01 4.317920e-01 0.000000e+00
-5.000000e-01 8.660250e-01 0.000000e+00
-5.373000e-01 8.433910e-01 0.000000e+00
-5.735760e-01 8.191520e-01 0.000000e+00
-6.087610e-01 7.933530e-01 0.000000e+00
-6.427880e-01 7.660440e-01 0.000000e+00
-4.934540e-01 8.186890e-01 0.000000e+00
-5.302310e-01 7.952600e-01 0.000000e+00
-5.659500e-01 7.702490e-01 0.000000e+00
-6.005450e-01 7.437030e-01 0.000000e+00
-4.869080e-01 7.713530e-01 0.000000e+00
-5.231510e-01 7.471370e-01 0.000000e+00
-5.583020e-01 7.213620e-01 0.000000e+00
-4.803620e-01 7.240160e-01 0.000000e+00
-5.160590e-01 6.990210e-01 0.000000e+00
-4.738160e-01 6.766800e-01 0.000000e+00
-3.420200e-01 9.396930e-01 0.000000e+00
-3.826830e-01 9.238800e-01 0.000000e+00
-4.226180e-01 9.063080e-01 0.000000e+00
-4.617490e-01 8.870110e-01 0.000000e+00
-5.000000e-01 8.660250e-01 0.000000e+00
-3.749690e-01 8.739390e-01 0.000000e+00
-4.152560e-01 8.572530e-01 0.000000e+00
-4.547760e-01 8.388240e-01 0.000000e+00
-4.934540e-01 8.186890e-01 0.000000e+00
-4.079180e-01 8.081860e-01 0.000000e+00
-4.478150e-01 7.906310e-01 0.000000e+00
-4.869080e-01 7.713530e-01 0.000000e+00
-4.408670e-01 7.424330e-01 0.000000e+00
-4.803620e-01 7.240160e-01 0.000000e+00
-4.738160e-01 6.766800e-01 0.000000e+00
-1.736480e-01 9.848080e-01 0.000000e+00
-1.466430e-01 9.261380e-01 0.000000e+00
-1.196380e-01 8.674680e-01 0.000000e+00
-9.263290e-02 8.087990e-01 0.000000e+00
-6.562780e-02 7.501290e-01 0.000000e+00
-1.305260e-01 9.914450e-01 0.000000e+00
-1.034110e-01 9.318300e-01 0.000000e+00
-7.630880e-02 8.722140e-01 0.000000e+00
-4.922080e-02 8.125970e-01 0.000000e+00
-8.715570e-02 9.961950e-01 0.000000e+00
-5.997100e-02 9.356310e-01 0.000000e+00
-3.281390e-02 8.750650e-01 0.000000e+00
-4.361940e-02 9.990480e-01 0.000000e+00
-1.640690e-02 9.375320e-01 0.000000e+00
5.551120e-17 1.000000e+00 0.000000e+00
-1.736480e-01 9.848080e-01 0.000000e+00
-2.164400e-01 9.762960e-01 0.000000e+00
-2.588190e-01 9.659260e-01 0.000000e+00
-3.007060e-01 9.537170e-01 0.000000e+00
-3.420200e-01 9.396930e-01 0.000000e+00
-1.466430e-01 9.261380e-01 0.000000e+00
-1.892150e-01 9.167010e-01 0.000000e+00
-2.313350e-01 9.054150e-01 0.000000e+00
-2.729220e-01 8.923020e-01 0.000000e+00
-1.196380e-01 8.674680e-01 0.000000e+00
-1.619770e-01 8.571080e-01 0.000000e+00
-2.038240e-01 8.449110e-01 0.000000e+00
-9.263290e-02 8.087990e-01 0.000000e+00
-1.347260e-01 7.975200e-01 0.000000e+00
-6.562780e-02 7.501290e-01 0.000000e+00
-6.427880e-01 7.660440e-01 0.000000e+00
-6.755900e-01 7.372770e-01 0.000000e+00
-7.071070e-01 7.071070e-01 0.000000e+00
-7.372770e-01 6.755900e-01 0.000000e+00
-7.660440e-01 6.427880e-01 0.000000e+00
-6.005450e-01 7.437030e-01 0.000000e+00
-6.326940e-01 7.142440e-01 0.000000e+00
-6.635280e-01 6.834100e-01 0.000000e+00
-6.929870e-01 6.512610e-01 0.000000e+00
-5.583020e-01 7.213620e-01 0.000000e+00
-5.897890e-01 6.912200e-01 0.000000e+00
-6.199300e-01 6.597340e-01 0.000000e+00
-5.160590e-01 6.990210e-01 0.000000e+00
-5.468730e-01 6.682070e-01 0.000000e+00
-4.738160e-01 6.766800e-01 0.000000e+00
-8.660250e-01 -5.000000e-01 0.000000e+00
-8.189610e-01 -4.936440e-01 0.000000e+00
-7.718960e-01 -4.872890e-01 0.000000e+00
-7.248320e-01 -4.809330e-01 0.000000e+00
-6.777670e-01 -4.745780e-01 0.000000e+00
-8.870110e-01 -4.617490e-01 0.000000e+00
-8.390960e-01 -4.549660e-01 0.000000e+00
-7.911750e-01 -4.481960e-01 0.000000e+00
-7.432490e-01 -4.414380e-01 0.000000e+00
-9.063080e-01 -4.226180e-01 0.000000e+00
-8.575250e-01 -4.154460e-01 0.000000e+00
-8.087300e-01 -4.082990e-01 0.000000e+00
-9.238800e-01 -3.826830e-01 0.000000e+00
-8.742110e-01 -3.751600e-01 0.000000e+00
-9.396930e-01 -3.420200e-01 0.000000e+00
-3.420200e-01 -9.396930e-01 0.000000e+00
-3.644900e-01 -8.589740e-01 0.000000e+00
-3.869600e-01 -7.782550e-01 0.000000e+00
-4.094300e-01 -6.975360e-01 0.000000e+00
-4.319000e-01 -6.168170e-01 0.000000e+00
-3.826830e-01 -9.238800e-01 0.000000e+00
-4.047770e-01 -8.422870e-01 0.000000e+00
-4.268570e-01 -7.607000e-01 0.000000e+00
-4.489250e-01 -6.791190e-01 0.000000e+00
-4.226180e-01 -9.063080e-01 0.000000e+00
-4.442970e-01 -8.238590e-01 0.000000e+00
-4.659500e-01 -7.414210e-01 0.000000e+00
-4.617490e-01 -8.870110e-01 0.000000e+00
-4.829750e-01 -8.037230e-01 0.000000e+00
-5.000000e-01 -8.660250e-01 0.000000e+00
-8.660250e-01 -5.000000e-01 0.000000e+00
-8.433910e-01 -5.373000e-01 0.000000e+00
-8.191520e-01 -5.735760e-01 0.000000e+00
-7.933530e-01 -6.087610e-01 0.000000e+00
-7.660440e-01 -6.427880e-01 0.000000e+00
-8.189610e-01 -4.936440e-01 0.000000e+00
-7.955320e-01 -5.304210e-01 0.000000e+00
-7.705210e-01 -5.661410e-01 0.000000e+00
-7.439750e-01 -6.007350e-01 0.000000e+00
-7.718960e-01 -4.872890e-01 0.000000e+00
-7.476800e-01 -5.235310e-01 0.000000e+00
-7.219060e-01 -5.586830e-01 0.000000e+00
-7.248320e-01 -4.809330e-01 0.000000e+00
-6.998370e-01 -5.166300e-01 0.000000e+00
-6.777670e-01 -4.745780e-01 0.000000e+00
-1.804110e-16 -1.000000e+00 0.000000e+00
-1.799930e-02 -9.557330e-01 0.000000e+00
-3.599850e-02 -9.114650e-01 0.000000e+00
-5.399780e-02 -8.671980e-01 0.000000e+00
-7.199700e-02 -8.229300e-01 0.000000e+00
-4.361940e-02 -9.990480e-01 0.000000e+00
-6.156330e-02 -9.538310e-01 0.000000e+00
-7.949350e-02 -9.086150e-01 0.000000e+00
-9.740980e-02 -8.633990e-01 0.000000e+00
-8.715570e-02 -9.961950e-01 0.000000e+00
-1.050030e-01 -9.500300e-01 0.000000e+00
-1.228230e-01 -9.038690e-01 0.000000e+00
-1.305260e-01 -9.914450e-01 0.000000e+00
-1.482350e-01 -9.443380e-01 0.000000e+00
-1.736480e-01 -9.848080e-01 0.000000e+00
-3.420200e-01 -9.396930e-01 0.000000e+00
-3.007060e-01 -9.537170e-01 0.000000e+00
-2.588190e-01 -9.659260e-01 0.000000e+00
-2.164400e-01 -9.762960e-01 0.000000e+00
-1.736480e-01 -9.848080e-01 0.000000e+00
-2.745140e-01 -9.105020e-01 0.000000e+00
-2.329270e-01 -9.236150e-01 0.000000e+00
-1.908070e-01 -9.349010e-01 0.000000e+00
-1.482350e-01 -9.443380e-01 0.000000e+00
-2.070090e-01 -8.813110e-01 0.000000e+00
-1.651620e-01 -8.935090e-01 0.000000e+00
-1.228230e-01 -9.038690e-01 0.000000e+00
-1.395030e-01 -8.521210e-01 0.000000e+00
-9.740980e-02 -8.633990e-01 0.000000e+00
-7.199700e-02 -8.229300e-01 0.000000e+00
-9.848080e-01 -1.736480e-01 0.000000e+00
-9.261830e-01 -1.466470e-01 0.000000e+00
-8.675590e-01 -1.196460e-01 0.000000e+00
-8.089340e-01 -9.264480e-02 0.000000e+00
-7.503100e-01 -6.564360e-02 0.000000e+00
-9.914450e-01 -1.305260e-01 0.000000e+00
-9.318750e-01 -1.034150e-01 0.000000e+00
-8.723040e-01 -7.631670e-02 0.000000e+00
-8.127320e-01 -4.923270e-02 0.000000e+00
-9.961950e-01 -8.715570e-02 0.000000e+00
-9.356760e-01 -5.997500e-02 0.000000e+00
-8.751550e-01 -3.282180e-02 0.000000e+00
-9.990480e-01 -4.361940e-02 0.000000e+00
-9.375770e-01 -1.641090e-02 0.000000e+00
-1.000000e+00 1.249000e-16 0.000000e+00
-9.396930e-01 -3.420200e-01 0.000000e+00
-8.923470e-01 -2.729260e-01 0.000000e+00
-8.450010e-01 -2.038320e-01 0.000000e+00
-7.976560e-01 -1.347380e-01 0.000000e+00
-7.503100e-01 -6.564360e-02 0.000000e+00
-9.537170e-01 -3.007060e-01 0.000000e+00
-9.054600e-01 -2.313390e-01 0.000000e+00
-8.571990e-01 -1.619850e-01 0.000000e+00
-8.089340e-01 -9.264480e-02 0.000000e+00
-9.659260e-01 -2.588190e-01 0.000000e+00
-9.167460e-01 -1.892190e-01 0.000000e+00
-8.675590e-01 -1.196460e-01 0.000000e+00
-9.762960e-01 -2.164400e-01 0.000000e+00
-9.261830e-01 -1.466470e-01 0.000000e+00
-9.848080e-01 -1.736480e-01 0.000000e+00
-5.000000e-01 -8.660250e-01 0.000000e+00
-4.829750e-01 -8.037230e-01 0.000000e+00
-4.659500e-01 -7.414210e-01 0.000000e+00
-4.489250e-01 -6.791190e-01 0.000000e+00
-4.319000e-01 -6.168170e-01 0.000000e+00
-5.373000e-01 -8.433910e-01 0.000000e+00
-5.197520e-01 -7.802940e-01 0.000000e+00
-5.021920e-01 -7.172050e-01 0.000000e+00
-4.846220e-01 -6.541240e-01 0.000000e+00
-5.735760e-01 -8.191520e-01 0.000000e+00
-5.554710e-01 -7.552830e-01 0.000000e+00
-5.373440e-01 -6.914310e-01 0.000000e+00
-6.087610e-01 -7.933530e-01 0.000000e+00
-5.900660e-01 -7.287380e-01 0.000000e+00
-6.427880e-01 -7.660440e-01 0.000000e+00
-6.777670e-01 -4.745780e-01 0.000000e+00
-6.998370e-01 -5.166300e-01 0.000000e+00
-7.219060e-01 -5.586830e-01 0.000000e+00
-7.439750e-01 -6.007350e-01 0.000000e+00
-7.660440e-01 -6.427880e-01 0.000000e+00
-6.690220e-01 -5.474450e-01 0.000000e+00
-6.917640e-01 -5.901700e-01 0.000000e+00
-7.145160e-01 -6.328850e-01 0.000000e+00
-7.372770e-01 -6.755900e-01 0.000000e+00
-6.602780e-01 -6.203110e-01 0.000000e+00
-6.836820e-01 -6.637190e-01 0.000000e+00
-7.071070e-01 -7.071070e-01 0.000000e+00
-6.515330e-01 -6.931780e-01 0.000000e+00
-6.755900e-01 -7.372770e-01 0.000000e+00
-6.427880e-01 -7.660440e-01 0.000000e+00
7.660440e-01 -6.427880e-01 0.000000e+00
7.933530e-01 -6.087610e-01 0.000000e+00
8.191520e-01 -5.735760e-01 0.000000e+00
8.433910e-01 -5.373000e-01 0.000000e+00
8.660250e-01 -5.000000e-01 0.000000e+00
7.654270e-01 -5.711060e-01 0.000000e+00
7.919730e-01 -5.365120e-01 0.000000e+00
8.169840e-01 -5.007920e-01 0.000000e+00
8.404130e-01 -4.640150e-01 0.000000e+00
7.648100e-01 -4.994240e-01 0.000000e+00
7.905840e-01 -4.642730e-01 0.000000e+00
8.148000e-01 -4.280300e-01 0.000000e+00
7.641930e-01 -4.277430e-01 0.000000e+00
7.891880e-01 -3.920460e-01 0.000000e+00
7.635750e-01 -3.560610e-01 0.000000e+00
9.396930e-01 -3.420200e-01 0.000000e+00
8.956630e-01 -3.455300e-01 0.000000e+00
8.516340e-01 -3.490410e-01 0.000000e+00
8.076050e-01 -3.525510e-01 0.000000e+00
7.635750e-01 -3.560610e-01 0.000000e+00
9.238800e-01 -3.826830e-01 0.000000e+00
8.789770e-01 -3.858170e-01 0.000000e+00
8.340790e-01 -3.889380e-01 0.000000e+00
7.891880e-01 -3.920460e-01 0.000000e+00
9.063080e-01 -4.226180e-01 0.000000e+00
8.605480e-01 -4.253370e-01 0.000000e+00
8.148000e-01 -4.280300e-01 0.000000e+00
8.870110e-01 -4.617490e-01 0.000000e+00
8.404130e-01 -4.640150e-01 0.000000e+00
8.660250e-01 -5.000000e-01 0.000000e+00
5.000000e-01 -8.660250e-01 0.000000e+00
5.373000e-01 -8.433910e-01 0.000000e+00
5.735760e-01 -8.191520e-01 0.000000e+00
6.087610e-01 -7.933530e-01 0.000000e+00
6.427880e-01 -7.660440e-01 0.000000e+00
5.210310e-01 -7.955500e-01 0.000000e+00
5.578070e-01 -7.721210e-01 0.000000e+00
5.935270e-01 -7.471100e-01 0.000000e+00
6.281210e-01 -7.205640e-01 0.000000e+00
5.420610e-01 -7.250740e-01 0.000000e+00
5.783040e-01 -7.008580e-01 0.000000e+00
6.134550e-01 -6.750830e-01 0.000000e+00
5.630920e-01 -6.545980e-01 0.000000e+00
5.987890e-01 -6.296030e-01 0.000000e+00
5.841220e-01 -5.841220e-01 0.000000e+00
3.420200e-01 -9.396930e-01 0.000000e+00
3.052370e-01 -8.866040e-01 0.000000e+00
2.684550e-01 -8.335150e-01 0.000000e+00
2.316720e-01 -7.804260e-01 0.000000e+00
1.948890e-01 -7.273370e-01 0.000000e+00
3.007060e-01 -9.537170e-01 0.000000e+00
2.636500e-01 -8.997170e-01 0.000000e+00
2.266080e-01 -8.457120e-01 0.000000e+00
1.895790e-01 -7.917050e-01 0.000000e+00
2.588190e-01 -9.659260e-01 0.000000e+00
2.215300e-01 -9.110030e-01 0.000000e+00
1.842690e-01 -8.560720e-01 0.000000e+00
2.164400e-01 -9.762960e-01 0.000000e+00
1.789580e-01 -9.204400e-01 0.000000e+00
1.736480e-01 -9.848080e-01 0.000000e+00
5.841220e-01 -5.841220e-01 0.000000e+00
5.987890e-01 -6.296030e-01 0.000000e+00
6.134550e-01 -6.750830e-01 0.000000e+00
6.281210e-01 -7.205640e-01 0.000000e+00
6.427880e-01 -7.660440e-01 0.000000e+00
6.296030e-01 -5.987890e-01 0.000000e+00
6.449420e-01 -6.449420e-01 0.000000e+00
6.602710e-01 -6.911050e-01 0.000000e+00
6.755900e-01 -7.372770e-01 0.000000e+00
6.750830e-01 -6.134550e-01 0.000000e+00
6.911050e-01 -6.602710e-01 0.000000e+00
7.071070e-01 -7.071070e-01 0.000000e+00
7.205640e-01 -6.281210e-01 0.000000e+00
7.372770e-01 -6.755900e-01 0.000000e+00
7.660440e-01 -6.427880e-01 0.000000e+00
3.420200e-01 -9.396930e-01 0.000000e+00
3.826830e-01 -9.238800e-01 0.000000e+00
4.226180e-01 -9.063080e-01 0.000000e+00
4.617490e-01 -8.870110e-01 0.000000e+00
5.000000e-01 -8.660250e-01 0.000000e+00
3.052370e-01 -8.866040e-01 0.000000e+00
3.455240e-01 -8.699170e-01 0.000000e+00
3.850440e-01 -8.514880e-01 0.000000e+00
4.237220e-01 -8.313530e-01 0.000000e+00
2.684550e-01 -8.335150e-01 0.000000e+00
3.083520e-01 -8.159600e-01 0.000000e+00
3.474450e-01 -7.966810e-01 0.000000e+00
2.316720e-01 -7.804260e-01 0.000000e+00
2.711670e-01 -7.620090e-01 0.000000e+00
1.948890e-01 -7.273370e-01 0.000000e+00
1.000000e+00 -2.498000e-16 0.000000e+00
9.598270e-01 -1.835740e-02 0.000000e+00
9.196530e-01 -3.671490e-02 0.000000e+00
8.794800e-01 -5.507230e-02 0.000000e+00
8.393060e-01 -7.342980e-02 0.000000e+00
9.990480e-01 -4.361940e-02 0.000000e+00
9.579250e-01 -6.192150e-02 0.000000e+00
9.168030e-01 -8.020980e-02 0.000000e+00
8.756810e-01 -9.848440e-02 0.000000e+00
9.961950e-01 -8.715570e-02 0.000000e+00
9.541240e-01 -1.053610e-01 0.000000e+00
9.120570e-01 -1.235390e-01 0.000000e+00
9.914450e-01 -1.305260e-01 0.000000e+00
9.484320e-01 -1.485940e-01 0.000000e+00
9.848080e-01 -1.736480e-01 0.000000e+00
9.396930e-01 -3.420200e-01 0.000000e+00
9.537170e-01 -3.007060e-01 0.000000e+00
9.659260e-01 -2.588190e-01 0.000000e+00
9.762960e-01 -2.164400e-01 0.000000e+00
9.848080e-01 -1.736480e-01 0.000000e+00
8.812110e-01 -3.037930e-01 0.000000e+00
8.943240e-01 -2.622050e-01 0.000000e+00
9.056100e-01 -2.200860e-01 0.000000e+00
9.150480e-01 -1.775140e-01 0.000000e+00
8.227300e-01 -2.655650e-01 0.000000e+00
8.349270e-01 -2.237180e-01 0.000000e+00
8.452880e-01 -1.813790e-01 0.000000e+00
7.642490e-01 -2.273370e-01 0.000000e+00
7.755270e-01 -1.852440e-01 0.000000e+00
7.057670e-01 -1.891100e-01 0.000000e+00
-7.199700e-02 -8.229300e-01 0.000000e+00
-5.399780e-02 -8.671980e-01 0.000000e+00
-3.599850e-02 -9.114650e-01 0.000000e+00
-1.799930e-02 -9.557330e-01 0.000000e+00
-1.804110e-16 -1.000000e+00 0.000000e+00
-1.058570e-02 -8.633990e-01 0.000000e+00
7.496420e-03 -9.086150e-01 0.000000e+00
2.556480e-02 -9.538310e-01 0.000000e+00
4.361940e-02 -9.990480e-01 0.000000e+00
5.082560e-02 -9.038690e-01 0.000000e+00
6.900440e-02 -9.500300e-01 0.000000e+00
8.715570e-02 -9.961950e-01 0.000000e+00
1.122370e-01 -9.443380e-01 0.000000e+00
1.305260e-01 -9.914450e-01 0.000000e+00
1.736480e-01 -9.848080e-01 0.000000e+00
3.330670e-16 0.000000e+00 0.000000e+00
4.396680e-02 -5.624250e-02 0.000000e+00
8.793360e-02 -1.124850e-01 0.000000e+00
1.319000e-01 -1.687270e-01 0.000000e+00
1.758670e-01 -2.249700e-01 0.000000e+00
1.250000e-01 0.000000e+00 0.000000e+00
1.689670e-01 -5.624250e-02 0.000000e+00
2.129340e-01 -1.124850e-01 0.000000e+00
2.569000e-01 -1.687270e-01 0.000000e+00
2.500000e-01 0.000000e+00 0.000000e+00
2.939670e-01 -5.624250e-02 0.000000e+00
3.379340e-01 -1.124850e-01 0.000000e+00
3.750000e-01 0.000000e+00 0.000000e+00
4.189670e-01 -5.624250e-02 0.000000e+00
5.000000e-01 0.000000e+00 0.000000e+00
-5.000000e-01 0.000000e+00 0.000000e+00
-4.771470e-01 -5.311970e-02 0.000000e+00
-4.542950e-01 -1.062390e-01 0.000000e+00
-4.314420e-01 -1.593590e-01 0.000000e+00
-4.085900e-01 -2.124790e-01 0.000000e+00
-4.375000e-01 0.000000e+00 0.000000e+00
-4.146470e-01 -5.311970e-02 0.000000e+00
-3.917950e-01 -1.062390e-01 0.000000e+00
-3.689420e-01 -1.593590e-01 0.000000e+00
-3.750000e-01 0.000000e+00 0.000000e+00
-3.521470e-01 -5.311970e-02 0.000000e+00
-3.292950e-01 -1.062390e-01 0.000000e+00
-3.125000e-01 1.387780e-17 0.000000e+00
-2.896470e-01 -5.311970e-02 0.000000e+00
-2.500000e-01 0.000000e+00 0.000000e+00
-4.592510e-01 2.426660e-01 0.000000e+00
-4.694390e-01 1.819990e-01 0.000000e+00
-4.796260e-01 1.213330e-01 0.000000e+00
-4.898130e-01 6.066640e-02 0.000000e+00
-5.000000e-01 0.000000e+00 0.000000e+00
-4.069390e-01 1.819990e-01 0.000000e+00
-4.171260e-01 1.213330e-01 0.000000e+00
-4.273130e-01 6.066640e-02 0.000000e+00
-4.375000e-01 -1.387780e-17 0.000000e+00
-3.546260e-01 1.213330e-01 0.000000e+00
-3.648130e-01 6.066640e-02 0.000000e+00
-3.750000e-01 0.000000e+00 0.000000e+00
-3.023130e-01 6.066640e-02 0.000000e+00
-3.125000e-01 0.000000e+00 0.000000e+00
-2.500000e-01 0.000000e+00 0.000000e+00
3.330670e-16 0.000000e+00 0.000000e+00
1.250000e-01 0.000000e+00 0.000000e+00
2.500000e-01 0.000000e+00 0.000000e+00
3.750000e-01 0.000000e+00 0.000000e+00
5.000000e-01 0.000000e+00 0.000000e+00
4.159000e-02 9.077680e-02 0.000000e+00
1.665900e-01 9.077680e-02 0.000000e+00
2.915900e-01 9.077680e-02 0.000000e+00
4.165900e-01 9.077680e-02 0.000000e+00
8.318000e-02 1.815540e-01 0.000000e+00
2.081800e-01 1.815540e-01 0.000000e+00
3.331800e-01 1.815540e-01 0.000000e+00
1.247700e-01 2.723300e-01 0.000000e+00
2.497700e-01 2.723300e-01 0.000000e+00
1.663600e-01 3.631070e-01 0.000000e+00
3.330670e-16 0.000000e+00 0.000000e+00
-3.125000e-02 6.341540e-02 0.000000e+00
-6.250000e-02 1.268310e-01 0.000000e+00
-9.375000e-02 1.902460e-01 0.000000e+00
-1.250000e-01 2.536620e-01 0.000000e+00
-6.250000e-02 0.000000e+00 0.000000e+00
-9.375000e-02 6.341540e-02 0.000000e+00
-1.250000e-01 1.268310e-01 0.000000e+00
-1.562500e-01 1.902460e-01 0.000000e+00
-1.250000e-01 0.000000e+00 0.000000e+00
-1.562500e-01 6.341540e-02 0.000000e+00
-1.875000e-01 1.268310e-01 0.000000e+00
-1.875000e-01 1.387780e-17 0.000000e+00
-2.187500e-01 6.341540e-02 0.000000e+00
-2.500000e-01 0.000000e+00 0.000000e+00
3.330670e-16 0.000000e+00 0.000000e+00
-6.250000e-02 2.775560e-17 0.000000e+00
-1.250000e-01 0.000000e+00 0.000000e+00
-1.875000e-01 0.000000e+00 0.000000e+00
-2.500000e-01 0.000000e+00 0.000000e+00
-9.440930e-03 -1.036120e-01 0.000000e+00
-7.194090e-02 -1.036120e-01 0.000000e+00
-1.344410e-01 -1.036120e-01 0.000000e+00
-1.969410e-01 -1.036120e-01 0.000000e+00
-1.888190e-02 -2.072250e-01 0.000000e+00
-8.138190e-02 -2.072250e-01 0.000000e+00
-1.438820e-01 -2.072250e-01 0.000000e+00
-2.832280e-02 -3.108370e-01 0.000000e+00
-9.082280e-02 -3.108370e-01 0.000000e+00
-3.776370e-02 -4.144500e-01 0.000000e+00
</DataArray>
</Points>
<Cells>
<DataArray type="Int32" Name="connectivity" format="ascii">
0 1 5 
1 6 5 
1 2 6 
2 7 6 
2 3 7 
3 8 7 
3 4 8 
5 6 9 
6 10 9 
6 7 10 
7 11 10 
7 8 11 
9 10 12 
10 13 12 
10 11 13 
12 13 14 
15 16 20 
16 21 20 
16 17 21 
17 22 21 
17 18 22 
18 23 22 
18 19 23 
20 21 24 
21 25 24 
21 22 25 
22 26 25 
22 23 26 
24 25 27 
25 28 27 
25 26 28 
27 28 29 
30 31 35 
31 36 35 
31 32 36 
32 37 36 
32 33 37 
33 38 37 
33 34 38 
35 36 39 
36 40 39 
36 37 40 
37 41 40 
37 38 41 
39 40 42 
40 43 42 
40 41 43 
42 43 44 
45 46 50 
46 51 50 
46 47 51 
47 52 51 
47 48 52 
48 53 52 
48 49 53 
50 51 54 
51 55 54 
51 52 55 
52 56 55 
52 53 56 
54 55 57 
55 58 57 
55 56 58 
57 58 59 
60 61 65 
61 66 65 
61 62 66 
62 67 66 
62 63 67 
63 68 67 
63 64 68 
65 66 69 
66 70 69 
66 67 70 
67 71 70 
67 68 71 
69 70 72 
70 73 72 
70 71 73 
72 73 74 
75 76 80 
76 81 80 
76 77 81 
77 82 81 
77 78 82 
78 83 82 
78 79 83 
80 81 84 
81 85 84 
81 82 85 
82 86 85 
82 83 86 
84 85 87 
85 88 87 
85 86 88 
87 88 89 
90 91 95 
91 96 95 
91 92 96 
92 97 96 
92 93 97 
93 98 97 
93 94 98 
95 96 99 
96 100 99 
96 97 100 
97 101 100 
97 98 101 
99 100 102 
100 103 102 
100 101 103 
102 103 104 
105 106 110 
106 111 110 
106 107 111 
107 112 111 
107 108 112 
108 113 112 
108 109 113 
110 111 114 
111 115 114 
111 112 115 
112 116 115 
112 113 116 
114 115 117 
115 118 117 
115 116 118 
117 118 119 
120 121 125 
121 126 125 
121 122 126 
122 127 126 
122 123 127 
123 128 127 
123 124 128 
125 126 129 
126 130 129 
126 127 130 
127 131 130 
127 128 131 
129 130 132 
130 133 132 
130 131 133 
132 133 134 
135 136 140 
136 141 140 
136 137 141 
137 142 141 
137 138 142 
138 143 142 
138 139 143 
140 141 144 
141 145 144 
141 142 145 
142 146 145 
142 143 146 
144 145 147 
145 148 147 
145 146 148 
147 148 149 
150 151 155 
151 156 155 
151 152 156 
152 157 156 
152 153 157 
153 158 157 
153 154 158 
155 156 159 
156 160 159 
156 157 160 
157 161 160 
157 158 161 
159 160 162 
160 163 162 
160 161 163 
162 163 164 
165 166 170 
166 171 170 
166 167 171 
167 172 171 
167 168 172 
168 173 172 
168 169 173 
170 171 174 
171 175 174 
171 172 175 
172 176 175 
172 173 176 
174 175 177 
175 178 177 
175 176 178 
177 178 179 
180 181 185 
181 186 185 
181 182 186 
182 187 186 
182 183 187 
183 188 187 
183 184 188 
185 186 189 
186 190 189 
186 187 190 
187 191 190 
187 188 191 
189 190 192 
190 193 192 
190 191 193 
192 193 194 
195 196 200 
196 201 200 
196 197 201 
197 202 201 
197 198 202 
198 203 202 
198 199 203 
200 201 204 
201 205 204 
201 202 205 
202 206 205 
202 203 206 
204 205 207 
205 208 207 
205 206 208 
207 208 209 
210 211 215 
211 216 215 
211 212 216 
212 217 216 
212 213 217 
213 218 217 
213 214 218 
215 216 219 
216 220 219 
216 217 220 
217 221 220 
217 218 221 
219 220 222 
220 223 222 
220 221 223 
222 223 224 
225 226 230 
226 231 230 
226 227 231 
227 232 231 
227 228 232 
228 233 232 
228 229 233 
230 231 234 
231 235 234 
231 232 235 
232 236 235 
232 233 236 
234 235 237 
235 238 237 
235 236 238 
237 238 239 
240 241 245 
241 246 245 
241 242 246 
242 247 246 
242 243 247 
243 248 247 
243 244 248 
245 246 249 
246 250 249 
246 247 250 
247 251 250 
247 248 251 
249 250 252 
250 253 252 
250 251 253 
252 253 254 
255 256 260 
256 261 260 
256 257 261 
257 262 261 
257 258 262 
258 263 262 
258 259 263 
260 261 264 
261 265 264 
261 262 265 
262 266 265 
262 263 266 
264 265 267 
265 268 267 
265 266 268 
267 268 269 
270 271 275 
271 276 275 
271 272 276 
272 277 276 
272 273 277 
273 278 277 
273 274 278 
275 276 279 
276 280 279 
276 277 280 
277 281 280 
277 278 281 
279 280 282 
280 283 282 
280 281 283 
282 283 284 
285 286 290 
286 291 290 
286 287 291 
287 292 291 
287 288 292 
288 293 292 
288 289 293 
290 291 294 
291 295 294 
291 292 295 
292 296 295 
292 293 296 
294 295 297 
295 298 297 
295 296 298 
297 298 299 
300 301 305 
301 306 305 
301 302 306 
302 307 306 
302 303 307 
303 308 307 
303 304 308 
305 306 309 
306 310 309 
306 307 310 
307 311 310 
307 308 311 
309 310 312 
310 313 312 
310 311 313 
312 313 314 
315 316 320 
316 321 320 
316 317 321 
317 322 321 
317 318 322 
318 323 322 
318 319 323 
320 321 324 
321 325 324 
321 322 325 
322 326 325 
322 323 326 
324 325 327 
325 328 327 
325 326 328 
327 328 329 
330 331 335 
331 336 335 
331 332 336 
332 337 336 
332 333 337 
333 338 337 
333 334 338 
335 336 339 
336 340 339 
336 337 340 
337 341 340 
337 338 341 
339 340 342 
340 343 342 
340 341 343 
342 343 344 
345 346 350 
346 351 350 
346 347 351 
347 352 351 
347 348 352 
348 353 352 
348 349 353 
350 351 354 
351 355 354 
351 352 355 
352 356 355 
352 353 356 
354 355 357 
355 358 357 
355 356 358 
357 358 359 
360 361 365 
361 366 365 
361 362 366 
362 367 366 
362 363 367 
363 368 367 
363 364 368 
365 366 369 
366 370 369 
366 367 370 
367 371 370 
367 368 371 
369 370 372 
370 373 372 
370 371 373 
372 373 374 
375 376 380 
376 381 380 
376 377 381 
377 382 381 
377 378 382 
378 383 382 
378 379 383 
380 381 384 
381 385 384 
381 382 385 
382 386 385 
382 383 386 
384 385 387 
385 388 387 
385 386 388 
387 388 389 
390 391 395 
391 396 395 
391 392 396 
392 397 396 
392 393 397 
393 398 397 
393 394 398 
395 396 399 
396 400 399 
396 397 400 
397 401 400 
397 398 401 
399 400 402 
400 403 402 
400 401 403 
402 403 404 
405 406 410 
406 411 410 
406 407 411 
407 412 411 
407 408 412 
408 413 412 
408 409 413 
410 411 414 
411 415 414 
411 412 415 
412 416 415 
412 413 416 
414 415 417 
415 418 417 
415 416 418 
417 418 419 
420 421 425 
421 426 425 
421 422 426 
422 427 426 
422 423 427 
423 428 427 
423 424 428 
425 426 429 
426 430 429 
426 427 430 
427 431 430 
427 428 431 
429 430 432 
430 433 432 
430 431 433 
432 433 434 
435 436 440 
436 441 440 
436 437 441 
437 442 441 
437 438 442 
438 443 442 
438 439 443 
440 441 444 
441 445 444 
441 442 445 
442 446 445 
442 443 446 
444 445 447 
445 448 447 
445 446 448 
447 448 449 
450 451 455 
451 456 455 
451 452 456 
452 457 456 
452 453 457 
453 458 457 
453 454 458 
455 456 459 
456 460 459 
456 457 460 
457 461 460 
457 458 461 
459 460 462 
460 463 462 
460 461 463 
462 463 464 
465 466 470 
466 471 470 
466 467 471 
467 472 471 
467 468 472 
468 473 472 
468 469 473 
470 471 474 
471 475 474 
471 472 475 
472 476 475 
472 473 476 
474 475 477 
475 478 477 
475 476 478 
477 478 479 
480 481 485 
481 486 485 
481 482 486 
482 487 486 
482 483 487 
483 488 487 
483 484 488 
485 486 489 
486 490 489 
486 487 490 
487 491 490 
487 488 491 
489 490 492 
490 493 492 
490 491 493 
492 493 494 
495 496 500 
496 501 500 
496 497 501 
497 502 501 
497 498 502 
498 503 502 
498 499 503 
500 501 504 
501 505 504 
501 502 505 
502 506 505 
502 503 506 
504 505 507 
505 508 507 
505 506 508 
507 508 509 
510 511 515 
511 516 515 
511 512 516 
512 517 516 
512 513 517 
513 518 517 
513 514 518 
515 516 519 
516 520 519 
516 517 520 
517 521 520 
517 518 521 
519 520 522 
520 523 522 
520 521 523 
522 523 524 
525 526 530 
526 531 530 
526 527 531 
527 532 531 
527 528 532 
528 533 532 
528 529 533 
530 531 534 
531 535 534 
531 532 535 
532 536 535 
532 533 536 
534 535 537 
535 538 537 
535 536 538 
537 538 539 
540 541 545 
541 546 545 
541 542 546 
542 547 546 
542 543 547 
543 548 547 
543 544 548 
545 546 549 
546 550 549 
546 547 550 
547 551 550 
547 548 551 
549 550 552 
550 553 552 
550 551 553 
552 553 554 
555 556 560 
556 561 560 
556 557 561 
557 562 561 
557 558 562 
558 563 562 
558 559 563 
560 561 564 
561 565 564 
561 562 565 
562 566 565 
562 563 566 
564 565 567 
565 568 567 
565 566 568 
567 568 569 
570 571 575 
571 576 575 
571 572 576 
572 577 576 
572 573 577 
573 578 577 
573 574 578 
575 576 579 
576 580 579 
576 577 580 
577 581 580 
577 578 581 
579 580 582 
580 583 582 
580 581 583 
582 583 584 
585 586 590 
586 591 590 
586 587 591 
587 592 591 
587 588 592 
588 593 592 
588 589 593 
590 591 594 
591 595 594 
591 592 595 
592 596 595 
592 593 596 
594 595 597 
595 598 597 
595 596 598 
597 598 599 
600 601 605 
601 606 605 
601 602 606 
602 607 606 
602 603 607 
603 608 607 
603 604 608 
605 606 609 
606 610 609 
606 607 610 
607 611 610 
607 608 611 
609 610 612 
610 613 612 
610 611 613 
612 613 614 
615 616 620 
616 621 620 
616 617 621 
617 622 621 
617 618 622 
618 623 622 
618 619 623 
620 621 624 
621 625 624 
621 622 625 
622 626 625 
622 623 626 
624 625 627 
625 628 627 
625 626 628 
627 628 629 
</DataArray>
<DataArray type="Int32" Name="offsets" format="ascii">
3
6
9
12
15
18
21
24
27
30
33
36
39
42
45
48
51
54
57
60
63
66
69
72
75
78
81
84
87
90
93
96
99
102
105
108
111
114
117
120
123
126
129
132
135
138
141
144
147
150
153
156
159
162
165
168
171
174
177
180
183
186
189
192
195
198
201
204
207
210
213
216
219
222
225
228
231
234
237
240
243
246
249
252
255
258
261
264
267
270
273
276
279
282
285
288
291
294
297
300
303
306
309
312
315
318
321
324
327
330
333
336
339
342
345
348
351
354
357
360
363
366
369
372
375
378
381
384
387
390
393
396
399
402
405
408
411
414
417
420
423
426
429
432
435
438
441
444
447
450
453
456
459
462
465
468
471
474
477
480
483
486
489
492
495
498
501
504
507
510
513
516
519
522
525
528
531
534
537
540
543
546
549
552
555
558
561
564
567
570
573
576
579
582
585
588
591
594
597
600
603
606
609
612
615
618
621
624
627
630
633
636
639
642
645
648
651
654
657
660
663
666
669
672
675
678
681
684
687
690
693
696
699
702
705
708
711
714
717
720
723
726
729
732
735
738
741
744
747
750
753
756
759
762
765
768
771
774
777
780
783
786
789
792
795
798
801
804
807
810
813
816
819
822
825
828
831
834
837
840
843
846
849
852
855
858
861
864
867
870
873
876
879
882
885
888
891
894
897
900
903
906
909
912
915
918
921
924
927
930
933
936
939
942
945
948
951
954
957
960
963
966
969
972
975
978
981
984
987
990
993
996
999
1002
1005
1008
1011
1014
1017
1020
1023
1026
1029
1032
1035
1038
1041
1044
1047
1050
1053
1056
1059
1062
1065
1068
1071
1074
1077
1080
1083
1086
1089
1092
1095
1098
1101
1104
1107
1110
1113
1116
1119
1122
1125
1128
1131
1134
1137
1140
1143
1146
1149
1152
1155
1158
1161
1164
1167
1170
1173
1176
1179
1182
1185
1188
1191
1194
1197
1200
1203
1206
1209
1212
1215
1218
1221
1224
1227
1230
1233
1236
1239
1242
1245
1248
1251
1254
1257
1260
1263
1266
1269
1272
1275
1278
1281
1284
1287
1290
1293
1296
1299
1302
1305
1308
1311
1314
1317
1320
1323
1326
1329
1332
1335
1338
1341
1344
1347
1350
1353
1356
1359
1362
1365
1368
1371
1374
1377
1380
1383
1386
1389
1392
1395
1398
1401
1404
1407
1410
1413
1416
1419
1422
1425
1428
1431
1434
1437
1440
1443
1446
1449
1452
1455
1458
1461
1464
1467
1470
1473
1476
1479
1482
1485
1488
1491
1494
1497
1500
1503
1506
1509
1512
1515
1518
1521
1524
1527
1530
1533
1536
1539
1542
1545
1548
1551
1554
1557
1560
1563
1566
1569
1572
1575
1578
1581
1584
1587
1590
1593
1596
1599
1602
1605
1608
1611
1614
1617
1620
1623
1626
1629
1632
1635
1638
1641
1644
1647
1650
1653
1656
1659
1662
1665
1668
1671
1674
1677
1680
1683
1686
1689
1692
1695
1698
1701
1704
1707
1710
1713
1716
1719
1722
1725
1728
1731
1734
1737
1740
1743
1746
1749
1752
1755
1758
1761
1764
1767
1770
1773
1776
1779
1782
1785
1788
1791
1794
1797
1800
1803
1806
1809
1812
1815
1818
1821
1824
1827
1830
1833
1836
1839
1842
1845
1848
1851
1854
1857
1860
1863
1866
1869
1872
1875
1878
1881
1884
1887
1890
1893
1896
1899
1902
1905
1908
1911
1914
1917
1920
1923
1926
1929
1932
1935
1938
1941
1944
1947
1950
1953
1956
1959
1962
1965
1968
1971
1974
1977
1980
1983
1986
1989
1992
1995
1998
2001
2004
2007
2010
2013
2016
</DataArray>
<DataArray type="UInt8" Name="types" format="ascii">
5
5
5
5
5
5
5
5
5
5
5
5
5
5
5
5
5
5
5
5
5
5
5
5
5
5
5
5
5
5
5
5
5
5
5
5
5
5
5
5
5
5
5
5
5
5
5
5
5
5
5
5
5
5
5
5
5
5
5
5
5
5
5
5
5
5
5
5
5
5
5
5
5
5
5
5
5
5
5
5
5
5
5
5
5
5
5
5
5
5
5
5
5
5
5
5
5
5
5
5
5
5
5
5
5
5
5
5
5
5
5
5
5
5
5
5
5
5
5
5
5
5
5
5
5
5
5
5
5
5
5
5
5
5
5
5
5
5
5
5
5
5
5
5
5
5
5
5
5
5
5
5
5
5
5
5
5
5
5
5
5
5
5
5
5
5
5
5
5
5
5
5
5
5
5
5
5
5
5
5
5
5
5
5
5
5
5
5
5
5
5
5
5
5
5
5
5
5
5
5
5
5
5
5
5
5
5
5
5
5
5
5
5
5
5
5
5
5
5
5
5
5
5
5
5
5
5
5
5
5
5
5
5
5
5
5
5
5
5
5
5
5
5
5
5
5
5
5
5
5
5
5
5
5
5
5
5
5
5
5
5
5
5
5
5
5
5
5
5
5
5
5
5
5
5
5
5
5
5
5
5
5
5
5
5
5
5
5
5
5
5
5
5
5
5
5
5
5
5
5
5
5
5
5
5
5
5
5
5
5
5
5
5
5
5
5
5
5
5
5
5
5
5
5
5
5
5
5
5
5
5
5
5
5
5
5
5
5
5
5
5
5
5
5
5
5
5
5
5
5
5
5
5
5
5
5
5
5
5
5
5
5
5
5
5
5
5
5
5
5
5
5
5
5
5
5
5
5
5
5
5
5
5
5
5
5
5
5
5
5
5
5
5
5
5
5
5
5
5
5
5
5
5
5
5
5
5
5
5
5
5
5
5
5
5
5
5
5
5
5
5
5
5
5
5
5
5
5
5
5
5
5
5
5
5
5
5
5
5
5
5
5
5
5
5
5
5
5
5
5
5
5
5
5
5
5
5
5
5
5
5
5
5
5
5
5
5
5
5
5
5
5
5
5
5
5
5
5
5
5
5
5
5
5
5
5
5
5
5
5
5
5
5
5
5
5
5
5
5
5
5
5
5
5
5
5
5
5
5
5
5
5
5
5
5
5
5
5
5
5
5
5
5
5
5
5
5
5
5
5
5
5
5
5
5
5
5
5
5
5
5
5
5
5
5
5
5
5
5
5
5
5
5
5
5
5
5
5
5
5
5
5
5
5
5
5
5
5
5
5
5
5
5
5
5
5
5
5
5
5
5
5
5
5
5
5
5
5
5
5
5
5
5
5
5
5
5
5
5
5
5
5
5
5
5
5
5
5
5
5
5
5
5
5
5
5
5
5
5
5
5
5
5
5
5
5
5
5
5
5
5
5
5
5
5
5
5
5
5
5
5
5
5
5
5
5
5
5
5
5
5
5
5
5
5
5
5
5
5
5
5
5
5
5
5
5
5
5
5
5
5
5
</DataArray>
</Cells>
<PointData>
<DataArray type="Float32" Name="V1" format="ascii">
0.000000e+00
0.000000e+00
0.000000e+00
0.000000e+00
0.000000e+00
0.000000e+00
0.000000e+00
0.000000e+00
0.000000e+00
0.000000e+00
0.000000e+00
0.000000e+00
0.000000e+00
0.000000e+00
0.000000e+00
0.000000e+00
0.000000e+00
0.000000e+00
0.000000e+00
0.000000e+00
0.000000e+00
0.000000e+00
0.000000e+00
0.000000e+00
0.000000e+00
0.000000e+00
0.000000e+00
0.000000e+00
0.000000e+00
0.000000e+00
0.000000e+00
0.000000e+00
0.000000e+00
0.000000e+00
0.000000e+00
0.000000e+00
0.000000e+00
0.000000e+00
0.000000e+00
0.000000e+00
0.000000e+00
0.000000e+00
0.000000e+00
0.000000e+00
0.000000e+00
0.000000e+00
0.000000e+00
0.000000e+00
0.000000e+00
0.000000e+00
0.000000e+00
0.000000e+00
0.000000e+00
0.000000e+00
0.000000e+00
0.000000e+00
0.000000e+00
0.000000e+00
0.000000e+00
0.000000e+00
0.000000e+00
0.000000e+00
0.000000e+00
0.000000e+00
0.000000e+00
0.000000e+00
0.000000e+00
0.000000e+00
0.000000e+00
0.000000e+00
0.000000e+00
0.000000e+00
0.000000e+00
0.000000e+00
0.000000e+00
0.000000e+00
0.000000e+00
0.000000e+00
0.000000e+00
0.000000e+00
0.000000e+00
0.000000e+00
0.000000e+00
0.000000e+00
0.000000e+00
0.000000e+00
0.000000e+00
0.000000e+00
0.000000e+00
0.000000e+00
0.000000e+00
0.000000e+00
0.000000e+00
0.000000e+00
0.000000e+00
0.000000e+00
0.000000e+00
0.000000e+00
0.000000e+00
0.000000e+00
0.000000e+00
0.000000e+00
0.000000e+00
0.000000e+00
0.000000e+00
0.000000e+00
0.000000e+00
0.000000e+00
0.000000e+00
0.000000e+00
0.000000e+00
0.000000e+00
0.000000e+00
0.000000e+00
0.000000e+00
0.000000e+00
0.000000e+00
0.000000e+00
0.000000e+00
0.000000e+00
0.000000e+00
0.000000e+00
0.000000e+00
0.000000e+00
0.000000e+00
0.000000e+00
0.000000e+00
0.000000e+00
0.000000e+00
0.000000e+00
0.000000e+00
0.000000e+00
0.000000e+00
0.000000e+00
0.000000e+00
0.000000e+00
0.000000e+00
0.000000e+00
0.000000e+00
0.000000e+00
0.000000e+00
0.000000e+00
0.000000e+00
0.000000e+00
0.000000e+00
0.000000e+00
0.000000e+00
0.000000e+00
0.000000e+00
0.000000e+00
0.000000e+00
0.000000e+00
0.000000e+00
0.000000e+00
0.000000e+00
0.000000e+00
0.000000e+00
0.000000e+00
0.000000e+00
0.000000e+00
0.000000e+00
0.000000e+00
0.000000e+00
0.000000e+00
0.000000e+00
0.000000e+00
0.000000e+00
0.000000e+00
0.000000e+00
0.000000e+00
0.000000e+00
0.000000e+00
0.000000e+00
0.000000e+00
0.000000e+00
0.000000e+00
0.000000e+00
0.000000e+00
0.000000e+00
0.000000e+00
0.000000e+00
0.000000e+00
0.000000e+00
0.000000e+00
0.000000e+00
0.000000e+00
0.000000e+00
0.000000e+00
0.000000e+00
0.000000e+00
0.000000e+00
0.000000e+00
0.000000e+00
0.000000e+00
0.000000e+00
0.000000e+00
0.000000e+00
0.000000e+00
0.000000e+00
0.000000e+00
0.000000e+00
0.000000e+00
0.000000e+00
0.000000e+00
0.000000e+00
0.000000e+00
0.000000e+00
0.000000e+00
0.000000e+00
0.000000e+00
0.000000e+00
0.000000e+00
0.000000e+00
0.000000e+00
0.000000e+00
0.000000e+00
0.000000e+00
0.000000e+00
0.000000e+00
0.000000e+00
0.000000e+00
0.000000e+00
0.000000e+00
0.000000e+00
0.000000e+00
0.000000e+00
0.000000e+00
0.000000e+00
0.000000e+00
0.000000e+00
0.000000e+00
0.000000e+00
0.000000e+00
0.000000e+00
0.000000e+00
0.000000e+00
0.000000e+00
0.000000e+00
0.000000e+00
0.000000e+00
0.000000e+00
0.000000e+00
0.000000e+00
0.000000e+00
0.000000e+00
0.000000e+00
0.000000e+00
0.000000e+00
0.000000e+00
0.000000e+00
0.000000e+00
0.000000e+00
0.000000e+00
0.000000e+00
0.000000e+00
0.000000e+00
0.000000e+00
0.000000e+00
0.000000e+00
0.000000e+00
0.000000e+00
0.000000e+00
0.000000e+00
0.000000e+00
0.000000e+00
0.000000e+00
0.000000e+00
0.000000e+00
0.000000e+00
0.000000e+00
0.000000e+00
0.000000e+00
0.000000e+00
0.000000e+00
0.000000e+00
0.000000e+00
0.000000e+00
0.000000e+00
0.000000e+00
0.000000e+00
0.000000e+00
0.000000e+00
0.000000e+00
0.000000e+00
0.000000e+00
0.000000e+00
0.000000e+00
0.000000e+00
0.000000e+00
0.000000e+00
0.000000e+00
0.000000e+00
0.000000e+00
0.000000e+00
0.000000e+00
0.000000e+00
0.000000e+00
0.000000e+00
0.000000e+00
0.000000e+00
0.000000e+00
0.000000e+00
0.000000e+00
0.000000e+00
0.000000e+00
0.000000e+00
0.000000e+00
0.000000e+00
0.000000e+00
0.000000e+00
0.000000e+00
0.000000e+00
0.000000e+00
0.000000e+00
0.000000e+00
0.000000e+00
0.000000e+00
0.000000e+00
0.000000e+00
0.000000e+00
0.000000e+00
0.000000e+00
0.000000e+00
0.000000e+00
0.000000e+00
0.000000e+00
0.000000e+00
0.000000e+00
0.000000e+00
0.000000e+00
0.000000e+00
0.000000e+00
0.000000e+00
0.000000e+00
0.000000e+00
0.000000e+00
0.000000e+00
0.000000e+00
0.000000e+00
0.000000e+00
0.000000e+00
0.000000e+00
0.000000e+00
0.000000e+00
0.000000e+00
0.000000e+00
0.000000e+00
0.000000e+00
0.000000e+00
0.000000e+00
0.000000e+00
0.000000e+00
0.000000e+00
0.000000e+00
0.000000e+00
0.000000e+00
0.000000e+00
0.000000e+00
0.000000e+00
0.000000e+00
0.000000e+00
0.000000e+00
0.000000e+00
0.000000e+00
0.000000e+00
0.000000e+00
0.000000e+00
0.000000e+00
0.000000e+00
0.000000e+00
0.000000e+00
0.000000e+00
0.000000e+00
0.000000e+00
0.000000e+00
0.000000e+00
0.000000e+00
0.000000e+00
0.000000e+00
0.000000e+00
0.000000e+00
0.000000e+00
0.000000e+00
0.000000e+00
0.000000e+00
0.000000e+00
0.000000e+00
0.000000e+00
0.000000e+00
0.000000e+00
0.000000e+00
0.000000e+00
0.000000e+00
0.000000e+00
0.000000e+00
0.000000e+00
0.000000e+00
0.000000e+00
0.000000e+00
0.000000e+00
0.000000e+00
0.000000e+00
0.000000e+00
0.000000e+00
0.000000e+00
0.000000e+00
0.000000e+00
0.000000e+00
0.000000e+00
0.000000e+00
0.000000e+00
0.000000e+00
0.000000e+00
0.000000e+00
0.000000e+00
0.000000e+00
0.000000e+00
0.000000e+00
0.000000e+00
0.000000e+00
0.000000e+00
0.000000e+00
0.000000e+00
0.000000e+00
0.000000e+00
0.000000e+00
0.000000e+00
0.000000e+00
0.000000e+00
0.000000e+00
0.000000e+00
0.000000e+00
0.000000e+00
0.000000e+00
0.000000e+00
0.000000e+00
0.000000e+00
0.000000e+00
0.000000e+00
0.000000e+00
0.000000e+00
0.000000e+00
0.000000e+00
0.000000e+00
0.000000e+00
0.000000e+00
0.000000e+00
0.000000e+00
0.000000e+00
0.000000e+00
0.000000e+00
0.000000e+00
0.000000e+00
0.000000e+00
0.000000e+00
0.000000e+00
0.000000e+00
0.000000e+00
0.000000e+00
0.000000e+00
0.000000e+00
0.000000e+00
0.000000e+00
0.000000e+00
0.000000e+00
0.000000e+00
0.000000e+00
0.000000e+00
0.000000e+00
0.000000e+00
0.000000e+00
0.000000e+00
0.000000e+00
0.000000e+00
0.000000e+00
0.000000e+00
0.000000e+00
0.000000e+00
0.000000e+00
0.000000e+00
0.000000e+00
0.000000e+00
0.000000e+00
0.000000e+00
0.000000e+00
0.000000e+00
0.000000e+00
0.000000e+00
0.000000e+00
0.000000e+00
0.000000e+00
0.000000e+00
0.000000e+00
0.000000e+00
0.000000e+00
0.000000e+00
0.000000e+00
0.000000e+00
0.000000e+00
0.000000e+00
0.000000e+00
0.000000e+00
0.000000e+00
0.000000e+00
0.000000e+00
0.000000e+00
0.000000e+00
0.000000e+00
0.000000e+00
0.000000e+00
0.000000e+00
0.000000e+00
0.000000e+00
0.000000e+00
0.000000e+00
0.000000e+00
0.000000e+00
0.000000e+00
0.000000e+00
0.000000e+00
0.000000e+00
0.000000e+00
0.000000e+00
0.000000e+00
0.000000e+00
0.000000e+00
0.000000e+00
0.000000e+00
0.000000e+00
0.000000e+00
0.000000e+00
0.000000e+00
0.000000e+00
0.000000e+00
0.000000e+00
0.000000e+00
0.000000e+00
0.000000e+00
0.000000e+00
0.000000e+00
0.000000e+00
0.000000e+00
0.000000e+00
0.000000e+00
0.000000e+00
0.000000e+00
0.000000e+00
0.000000e+00
0.000000e+00
0.000000e+00
0.000000e+00
0.000000e+00
0.000000e+00
0.000000e+00
0.000000e+00
0.000000e+00
0.000000e+00
0.000000e+00
0.000000e+00
0.000000e+00
0.000000e+00
0.000000e+00
0.000000e+00
0.000000e+00
0.000000e+00
0.000000e+00
0.000000e+00
0.000000e+00
0.000000e+00
0.000000e+00
0.000000e+00
0.000000e+00
0.000000e+00
0.000000e+00
0.000000e+00
0.000000e+00
0.000000e+00
0.000000e+00
0.000000e+00
0.000000e+00
0.000000e+00
0.000000e+00
0.000000e+00
0.000000e+00
0.000000e+00
0.000000e+00
0.000000e+00
0.000000e+00
0.000000e+00
0.000000e+00
0.000000e+00
0.000000e+00
0.000000e+00
0.000000e+00
0.000000e+00
0.000000e+00
0.000000e+00
0.000000e+00
0.000000e+00
0.000000e+00
0.000000e+00
0.000000e+00
0.000000e+00
0.000000e+00
0.000000e+00
0.000000e+00
0.000000e+00
0.000000e+00
0.000000e+00
0.000000e+00
0.000000e+00
0.000000e+00
0.000000e+00
0.000000e+00
0.000000e+00
0.000000e+00
0.000000e+00
0.000000e+00
0.000000e+00
0.000000e+00
0.000000e+00
0.000000e+00
0.000000e+00
0.000000e+00
0.000000e+00
0.000000e+00
0.000000e+00
0.000000e+00
0.000000e+00
0.000000e+00
</DataArray>
<DataArray type="Float32" Name="V2" format="ascii">
0.000000e+00
0.000000e+00
0.000000e+00
0.000000e+00
0.000000e+00
0.000000e+00
0.000000e+00
0.000000e+00
0.000000e+00
0.000000e+00
0.000000e+00
0.000000e+00
0.000000e+00
0.000000e+00
0.000000e+00
0.000000e+00
0.000000e+00
0.000000e+00
0.000000e+00
0.000000e+00
0.000000e+00
0.000000e+00
0.000000e+00
0.000000e+00
0.000000e+00
0.000000e+00
0.000000e+00
0.000000e+00
0.000000e+00
0.000000e+00
0.000000e+00
0.000000e+00
0.000000e+00
0.000000e+00
0.000000e+00
0.000000e+00
0.000000e+00
0.000000e+00
0.000000e+00
0.000000e+00
0.000000e+00
0.000000e+00
0.000000e+00
0.000000e+00
0.000000e+00
0.000000e+00
0.000000e+00
0.000000e+00
0.000000e+00
0.000000e+00
0.000000e+00
0.000000e+00
0.000000e+00
0.000000e+00
0.000000e+00
0.000000e+00
0.000000e+00
0.000000e+00
0.000000e+00
0.000000e+00
0.000000e+00
0.000000e+00
0.000000e+00
0.000000e+00
0.000000e+00
0.000000e+00
0.000000e+00
0.000000e+00
0.000000e+00
0.000000e+00
0.000000e+00
0.000000e+00
0.000000e+00
0.000000e+00
0.000000e+00
0.000000e+00
0.000000e+00
0.000000e+00
0.000000e+00
0.000000e+00
0.000000e+00
0.000000e+00
0.000000e+00
0.000000e+00
0.000000e+00
0.000000e+00
0.000000e+00
0.000000e+00
0.000000e+00
0.000000e+00
0.000000e+00
0.000000e+00
0.000000e+00
0.000000e+00
0.000000e+00
0.000000e+00
0.000000e+00
0.000000e+00
0.000000e+00
0.000000e+00
0.000000e+00
0.000000e+00
0.000000e+00
0.000000e+00
0.000000e+00
0.000000e+00
0.000000e+00
0.000000e+00
0.000000e+00
0.000000e+00
0.000000e+00
0.000000e+00
0.000000e+00
0.000000e+00
0.000000e+00
0.000000e+00
0.000000e+00
0.000000e+00
0.000000e+00
0.000000e+00
0.000000e+00
0.000000e+00
0.000000e+00
0.000000e+00
0.000000e+00
0.000000e+00
0.000000e+00
0.000000e+00
0.000000e+00
0.000000e+00
0.000000e+00
0.000000e+00
0.000000e+00
0.000000e+00
0.000000e+00
0.000000e+00
0.000000e+00
0.000000e+00
0.000000e+00
0.000000e+00
0.000000e+00
0.000000e+00
0.000000e+00
0.000000e+00
0.000000e+00
0.000000e+00
0.000000e+00
0.000000e+00
0.000000e+00
0.000000e+00
0.000000e+00
0.000000e+00
0.000000e+00
0.000000e+00
0.000000e+00
0.000000e+00
0.000000e+00
0.000000e+00
0.000000e+00
0.000000e+00
0.000000e+00
0.000000e+00
0.000000e+00
0.000000e+00
0.000000e+00
0.000000e+00
0.000000e+00
0.000000e+00
0.000000e+00
0.000000e+00
0.000000e+00
0.000000e+00
0.000000e+00
0.000000e+00
0.000000e+00
0.000000e+00
0.000000e+00
0.000000e+00
0.000000e+00
0.000000e+00
0.000000e+00
0.000000e+00
0.000000e+00
0.000000e+00
0.000000e+00
0.000000e+00
0.000000e+00
0.000000e+00
0.000000e+00
0.000000e+00
0.000000e+00
0.000000e+00
0.000000e+00
0.000000e+00
0.000000e+00
0.000000e+00
0.000000e+00
0.000000e+00
0.000000e+00
0.000000e+00
0.000000e+00
0.000000e+00
0.000000e+00
0.000000e+00
0.000000e+00
0.000000e+00
0.000000e+00
0.000000e+00
0.000000e+00
0.000000e+00
0.000000e+00
0.000000e+00
0.000000e+00
0.000000e+00
0.000000e+00
0.000000e+00
0.000000e+00
0.000000e+00
0.000000e+00
0.000000e+00
0.000000e+00
0.000000e+00
0.000000e+00
0.000000e+00
0.000000e+00
0.000000e+00
0.000000e+00
0.000000e+00
0.000000e+00
0.000000e+00
0.000000e+00
0.000000e+00
0.000000e+00
0.000000e+00
0.000000e+00
0.000000e+00
0.000000e+00
0.000000e+00
0.000000e+00
0.000000e+00
0.000000e+00
0.000000e+00
0.000000e+00
0.000000e+00
0.000000e+00
0.000000e+00
0.000000e+00
0.000000e+00
0.000000e+00
0.000000e+00
0.000000e+00
0.000000e+00
0.000000e+00
0.000000e+00
0.000000e+00
0.000000e+00
0.000000e+00
0.000000e+00
0.000000e+00
0.000000e+00
0.000000e+00
0.000000e+00
0.000000e+00
0.000000e+00
0.000000e+00
0.000000e+00
0.000000e+00
0.000000e+00
0.000000e+00
0.000000e+00
0.000000e+00
0.000000e+00
0.000000e+00
0.000000e+00
0.000000e+00
0.000000e+00
0.000000e+00
0.000000e+00
0.000000e+00
0.000000e+00
0.000000e+00
0.000000e+00
0.000000e+00
0.000000e+00
0.000000e+00
0.000000e+00
0.000000e+00
0.000000e+00
0.000000e+00
0.000000e+00
0.000000e+00
0.000000e+00
0.000000e+00
0.000000e+00
0.000000e+00
0.000000e+00
0.000000e+00
0.000000e+00
0.000000e+00
0.000000e+00
0.000000e+00
0.000000e+00
0.000000e+00
0.000000e+00
0.000000e+00
0.000000e+00
0.000000e+00
0.000000e+00
0.000000e+00
0.000000e+00
0.000000e+00
0.000000e+00
0.000000e+00
0.000000e+00
0.000000e+00
0.000000e+00
0.000000e+00
0.000000e+00
0.000000e+00
0.000000e+00
0.000000e+00
0.000000e+00
0.000000e+00
0.000000e+00
0.000000e+00
0.000000e+00
0.000000e+00
0.000000e+00
0.000000e+00
0.000000e+00
0.000000e+00
0.000000e+00
0.000000e+00
0.000000e+00
0.000000e+00
0.000000e+00
0.000000e+00
0.000000e+00
0.000000e+00
0.000000e+00
0.000000e+00
0.000000e+00
0.000000e+00
0.000000e+00
0.000000e+00
0.000000e+00
0.000000e+00
0.000000e+00
0.000000e+00
0.000000e+00
0.000000e+00
0.000000e+00
0.000000e+00
0.000000e+00
0.000000e+00
0.000000e+00
0.000000e+00
0.000000e+00
0.000000e+00
0.000000e+00
0.000000e+00
0.000000e+00
0.000000e+00
0.000000e+00
0.000000e+00
0.000000e+00
0.000000e+00
0.000000e+00
0.000000e+00
0.000000e+00
0.000000e+00
0.000000e+00
0.000000e+00
0.000000e+00
0.000000e+00
0.000000e+00
0.000000e+00
0.000000e+00
0.000000e+00
0.000000e+00
0.000000e+00
0.000000e+00
0.000000e+00
0.000000e+00
0.000000e+00
0.000000e+00
0.000000e+00
0.000000e+00
0.000000e+00
0.000000e+00
0.000000e+00
0.000000e+00
0.000000e+00
0.000000e+00
0.000000e+00
0.000000e+00
0.000000e+00
0.000000e+00
0.000000e+00
0.000000e+00
0.000000e+00
0.000000e+00
0.000000e+00
0.000000e+00
0.000000e+00
0.000000e+00
0.000000e+00
0.000000e+00
0.000000e+00
0.000000e+00
0.000000e+00
0.000000e+00
0.000000e+00
0.000000e+00
0.000000e+00
0.000000e+00
0.000000e+00
0.000000e+00
0.000000e+00
0.000000e+00
0.000000e+00
0.000000e+00
0.000000e+00
0.000000e+00
0.000000e+00
0.000000e+00
0.000000e+00
0.000000e+00
0.000000e+00
0.000000e+00
0.000000e+00
0.000000e+00
0.000000e+00
0.000000e+00
0.000000e+00
0.000000e+00
0.000000e+00
0.000000e+00
0.000000e+00
0.000000e+00
0.000000e+00
0.000000e+00
0.000000e+00
0.000000e+00
0.000000e+00
0.000000e+00
0.000000e+00
0.000000e+00
0.000000e+00
0.000000e+00
0.000000e+00
0.000000e+00
0.000000e+00
0.000000e+00
0.000000e+00
0.000000e+00
0.000000e+00
0.000000e+00
0.000000e+00
0.000000e+00
0.000000e+00
0.000000e+00
0.000000e+00
0.000000e+00
0.000000e+00
0.000000e+00
0.000000e+00
0.000000e+00
0.000000e+00
0.000000e+00
0.000000e+00
0.000000e+00
0.000000e+00
0.000000e+00
0.000000e+00
0.000000e+00
0.000000e+00
0.000000e+00
0.000000e+00
0.000000e+00
0.000000e+00
0.000000e+00
0.000000e+00
0.000000e+00
0.000000e+00
0.000000e+00
0.000000e+00
0.000000e+00
0.000000e+00
0.000000e+00
0.000000e+00
0.000000e+00
0.000000e+00
0.000000e+00
0.000000e+00
0.000000e+00
0.000000e+00
0.000000e+00
0.000000e+00
0.000000e+00
0.000000e+00
0.000000e+00
0.000000e+00
0.000000e+00
0.000000e+00
0.000000e+00
0.000000e+00
0.000000e+00
0.000000e+00
0.000000e+00
0.000000e+00
0.000000e+00
0.000000e+00
0.000000e+00
0.000000e+00
0.000000e+00
0.000000e+00
0.000000e+00
0.000000e+00
0.000000e+00
0.000000e+00
0.000000e+00
0.000000e+00
0.000000e+00
0.000000e+00
0.000000e+00
0.000000e+00
0.000000e+00
0.000000e+00
0.000000e+00
0.000000e+00
0.000000e+00
0.000000e+00
0.000000e+00
0.000000e+00
0.000000e+00
0.000000e+00
0.000000e+00
0.000000e+00
0.000000e+00
0.000000e+00
0.000000e+00
0.000000e+00
0.000000e+00
0.000000e+00
0.000000e+00
0.000000e+00
0.000000e+00
0.000000e+00
0.000000e+00
0.000000e+00
0.000000e+00
0.000000e+00
0.000000e+00
0.000000e+00
0.000000e+00
0.000000e+00
0.000000e+00
0.000000e+00
0.000000e+00
0.000000e+00
0.000000e+00
0.000000e+00
0.000000e+00
0.000000e+00
0.000000e+00
0.000000e+00
0.000000e+00
0.000000e+00
0.000000e+00
0.000000e+00
0.000000e+00
0.000000e+00
0.000000e+00
0.000000e+00
0.000000e+00
0.000000e+00
0.000000e+00
0.000000e+00
0.000000e+00
0.000000e+00
0.000000e+00
0.000000e+00
0.000000e+00
0.000000e+00
0.000000e+00
0.000000e+00
0.000000e+00
0.000000e+00
0.000000e+00
0.000000e+00
0.000000e+00
0.000000e+00
0.000000e+00
0.000000e+00
0.000000e+00
0.000000e+00
0.000000e+00
0.000000e+00
0.000000e+00
0.000000e+00
0.000000e+00
0.000000e+00
0.000000e+00
0.000000e+00
0.000000e+00
0.000000e+00
0.000000e+00
0.000000e+00
0.000000e+00
0.000000e+00
0.000000e+00
0.000000e+00
0.000000e+00
0.000000e+00
0.000000e+00
0.000000e+00
0.000000e+00
0.000000e+00
0.000000e+00
0.000000e+00
0.000000e+00
0.000000e+00
0.000000e+00
0.000000e+00
0.000000e+00
0.000000e+00
0.000000e+00
0.000000e+00
0.000000e+00
</DataArray>
<DataArray type="Float32" Name="V3" format="ascii">
0.000000e+00
0.000000e+00
0.000000e+00
0.000000e+00
0.000000e+00
0.000000e+00
0.000000e+00
0.000000e+00
0.000000e+00
0.000000e+00
0.000000e+00
0.000000e+00
0.000000e+00
0.000000e+00
0.000000e+00
0.000000e+00
0.000000e+00
0.000000e+00
0.000000e+00
0.000000e+00
0.000000e+00
0.000000e+00
0.000000e+00
0.000000e+00
0.000000e+00
0.000000e+00
0.000000e+00
0.000000e+00
0.000000e+00
0.000000e+00
0.000000e+00
0.000000e+00
0.000000e+00
0.000000e+00
0.000000e+00
0.000000e+00
0.000000e+00
0.000000e+00
0.000000e+00
0.000000e+00
0.000000e+00
0.000000e+00
0.000000e+00
0.000000e+00
0.000000e+00
0.000000e+00
0.000000e+00
0.000000e+00
0.000000e+00
0.000000e+00
0.000000e+00
0.000000e+00
0.000000e+00
0.000000e+00
0.000000e+00
0.000000e+00
0.000000e+00
0.000000e+00
0.000000e+00
0.000000e+00
0.000000e+00
0.000000e+00
0.000000e+00
0.000000e+00
0.000000e+00
0.000000e+00
0.000000e+00
0.000000e+00
0.000000e+00
0.000000e+00
0.000000e+00
0.000000e+00
0.000000e+00
0.000000e+00
0.000000e+00
0.000000e+00
0.000000e+00
0.000000e+00
0.000000e+00
0.000000e+00
0.000000e+00
0.000000e+00
0.000000e+00
0.000000e+00
0.000000e+00
0.000000e+00
0.000000e+00
0.000000e+00
0.000000e+00
0.000000e+00
0.000000e+00
0.000000e+00
0.000000e+00
0.000000e+00
0.000000e+00
0.000000e+00
0.000000e+00
0.000000e+00
0.000000e+00
0.000000e+00
0.000000e+00
0.000000e+00
0.000000e+00
0.000000e+00
0.000000e+00
0.000000e+00
0.000000e+00
0.000000e+00
0.000000e+00
0.000000e+00
0.000000e+00
0.000000e+00
0.000000e+00
0.000000e+00
0.000000e+00
0.000000e+00
0.000000e+00
0.000000e+00
0.000000e+00
0.000000e+00
0.000000e+00
0.000000e+00
0.000000e+00
0.000000e+00
0.000000e+00
0.000000e+00
0.000000e+00
0.000000e+00
0.000000e+00
0.000000e+00
0.000000e+00
0.000000e+00
0.000000e+00
0.000000e+00
0.000000e+00
0.000000e+00
0.000000e+00
0.000000e+00
0.000000e+00
0.000000e+00
0.000000e+00
0.000000e+00
0.000000e+00
0.000000e+00
0.000000e+00
0.000000e+00
0.000000e+00
0.000000e+00
0.000000e+00
0.000000e+00
0.000000e+00
0.000000e+00
0.000000e+00
0.000000e+00
0.000000e+00
0.000000e+00
0.000000e+00
0.000000e+00
0.000000e+00
0.000000e+00
0.000000e+00
0.000000e+00
0.000000e+00
0.000000e+00
0.000000e+00
0.000000e+00
0.000000e+00
0.000000e+00
0.000000e+00
0.000000e+00
0.000000e+00
0.000000e+00
0.000000e+00
0.000000e+00
0.000000e+00
0.000000e+00
0.000000e+00
0.000000e+00
0.000000e+00
0.000000e+00
0.000000e+00
0.000000e+00
0.000000e+00
0.000000e+00
0.000000e+00
0.000000e+00
0.000000e+00
0.000000e+00
0.000000e+00
0.000000e+00
0.000000e+00
0.000000e+00
0.000000e+00
0.000000e+00
0.000000e+00
0.000000e+00
0.000000e+00
0.000000e+00
0.000000e+00
0.000000e+00
0.000000e+00
0.000000e+00
0.000000e+00
0.000000e+00
0.000000e+00
0.000000e+00
0.000000e+00
0.000000e+00
0.000000e+00
0.000000e+00
0.000000e+00
0.000000e+00
0.000000e+00
0.000000e+00
0.000000e+00
0.000000e+00
0.000000e+00
0.000000e+00
0.000000e+00
0.000000e+00
0.000000e+00
0.000000e+00
0.000000e+00
0.000000e+00
0.000000e+00
0.000000e+00
0.000000e+00
0.000000e+00
0.000000e+00
0.000000e+00
0.000000e+00
0.000000e+00
0.000000e+00
0.000000e+00
0.000000e+00
0.000000e+00
0.000000e+00
0.000000e+00
0.000000e+00
0.000000e+00
0.000000e+00
0.000000e+00
0.000000e+00
0.000000e+00
0.000000e+00
0.000000e+00
0.000000e+00
0.000000e+00
0.000000e+00
0.000000e+00
0.000000e+00
0.000000e+00
0.000000e+00
0.000000e+00
0.000000e+00
0.000000e+00
0.000000e+00
0.000000e+00
0.000000e+00
0.000000e+00
0.000000e+00
0.000000e+00
0.000000e+00
0.000000e+00
0.000000e+00
0.000000e+00
0.000000e+00
0.000000e+00
0.000000e+00
0.000000e+00
0.000000e+00
0.000000e+00
0.000000e+00
0.000000e+00
0.000000e+00
0.000000e+00
0.000000e+00
0.000000e+00
0.000000e+00
0.000000e+00
0.000000e+00
0.000000e+00
0.000000e+00
0.000000e+00
0.000000e+00
0.000000e+00
0.000000e+00
0.000000e+00
0.000000e+00
0.000000e+00
0.000000e+00
0.000000e+00
0.000000e+00
0.000000e+00
0.000000e+00
0.000000e+00
0.000000e+00
0.000000e+00
0.000000e+00
0.000000e+00
0.000000e+00
0.000000e+00
0.000000e+00
0.000000e+00
0.000000e+00
0.000000e+00
0.000000e+00
0.000000e+00
0.000000e+00
0.000000e+00
0.000000e+00
0.000000e+00
0.000000e+00
0.000000e+00
0.000000e+00
0.000000e+00
0.000000e+00
0.000000e+00
0.000000e+00
0.000000e+00
0.000000e+00
0.000000e+00
0.000000e+00
0.000000e+00
0.000000e+00
0.000000e+00
0.000000e+00
0.000000e+00
0.000000e+00
0.000000e+00
0.000000e+00
0.000000e+00
0.000000e+00
0.000000e+00
0.000000e+00
0.000000e+00
0.000000e+00
0.000000e+00
0.000000e+00
0.000000e+00
0.000000e+00
0.000000e+00
0.000000e+00
0.000000e+00
0.000000e+00
0.000000e+00
0.000000e+00
0.000000e+00
0.000000e+00
0.000000e+00
0.000000e+00
0.000000e+00
0.000000e+00
0.000000e+00
0.000000e+00
0.000000e+00
0.000000e+00
0.000000e+00
0.000000e+00
0.000000e+00
0.000000e+00
0.000000e+00
0.000000e+00
0.000000e+00
0.000000e+00
0.000000e+00
0.000000e+00
0.000000e+00
0.000000e+00
0.000000e+00
0.000000e+00
0.000000e+00
0.000000e+00
0.000000e+00
0.000000e+00
0.000000e+00
0.000000e+00
0.000000e+00
0.000000e+00
0.000000e+00
0.000000e+00
0.000000e+00
0.000000e+00
0.000000e+00
0.000000e+00
0.000000e+00
0.000000e+00
0.000000e+00
0.000000e+00
0.000000e+00
0.000000e+00
0.000000e+00
0.000000e+00
0.000000e+00
0.000000e+00
0.000000e+00
0.000000e+00
0.000000e+00
0.000000e+00
0.000000e+00
0.000000e+00
0.000000e+00
0.000000e+00
0.000000e+00
0.000000e+00
0.000000e+00
0.000000e+00
0.000000e+00
0.000000e+00
0.000000e+00
0.000000e+00
0.000000e+00
0.000000e+00
0.000000e+00
0.000000e+00
0.000000e+00
0.000000e+00
0.000000e+00
0.000000e+00
0.000000e+00
0.000000e+00
0.000000e+00
0.000000e+00
0.000000e+00
0.000000e+00
0.000000e+00
0.000000e+00
0.000000e+00
0.000000e+00
0.000000e+00
0.000000e+00
0.000000e+00
0.000000e+00
0.000000e+00
0.000000e+00
0.000000e+00
0.000000e+00
0.000000e+00
0.000000e+00
0.000000e+00
0.000000e+00
0.000000e+00
0.000000e+00
0.000000e+00
0.000000e+00
0.000000e+00
0.000000e+00
0.000000e+00
0.000000e+00
0.000000e+00
0.000000e+00
0.000000e+00
0.000000e+00
0.000000e+00
0.000000e+00
0.000000e+00
0.000000e+00
0.000000e+00
0.000000e+00
0.000000e+00
0.000000e+00
0.000000e+00
0.000000e+00
0.000000e+00
0.000000e+00
0.000000e+00
0.000000e+00
0.000000e+00
0.000000e+00
0.000000e+00
0.000000e+00
0.000000e+00
0.000000e+00
0.000000e+00
0.000000e+00
0.000000e+00
0.000000e+00
0.000000e+00
0.000000e+00
0.000000e+00
0.000000e+00
0.000000e+00
0.000000e+00
0.000000e+00
0.000000e+00
0.000000e+00
0.000000e+00
0.000000e+00
0.000000e+00
0.000000e+00
0.000000e+00
0.000000e+00
0.000000e+00
0.000000e+00
0.000000e+00
0.000000e+00
0.000000e+00
0.000000e+00
0.000000e+00
0.000000e+00
0.000000e+00
0.000000e+00
0.000000e+00
0.000000e+00
0.000000e+00
0.000000e+00
0.000000e+00
0.000000e+00
0.000000e+00
0.000000e+00
0.000000e+00
0.000000e+00
0.000000e+00
0.000000e+00
0.000000e+00
0.000000e+00
0.000000e+00
0.000000e+00
0.000000e+00
0.000000e+00
0.000000e+00
0.000000e+00
0.000000e+00
0.000000e+00
0.000000e+00
0.000000e+00
0.000000e+00
0.000000e+00
0.000000e+00
0.000000e+00
0.000000e+00
0.000000e+00
0.000000e+00
0.000000e+00
0.000000e+00
0.000000e+00
0.000000e+00
0.000000e+00
0.000000e+00
0.000000e+00
0.000000e+00
0.000000e+00
0.000000e+00
0.000000e+00
0.000000e+00
0.000000e+00
0.000000e+00
0.000000e+00
0.000000e+00
0.000000e+00
0.000000e+00
0.000000e+00
0.000000e+00
0.000000e+00
0.000000e+00
0.000000e+00
0.000000e+00
0.000000e+00
0.000000e+00
0.000000e+00
0.000000e+00
0.000000e+00
0.000000e+00
0.000000e+00
0.000000e+00
0.000000e+00
0.000000e+00
0.000000e+00
0.000000e+00
0.000000e+00
0.000000e+00
0.000000e+00
0.000000e+00
0.000000e+00
0.000000e+00
0.000000e+00
0.000000e+00
0.000000e+00
0.000000e+00
0.000000e+00
0.000000e+00
0.000000e+00
0.000000e+00
0.000000e+00
0.000000e+00
0.000000e+00
0.000000e+00
0.000000e+00
0.000000e+00
0.000000e+00
0.000000e+00
0.000000e+00
0.000000e+00
0.000000e+00
0.000000e+00
0.000000e+00
0.000000e+00
0.000000e+00
0.000000e+00
0.000000e+00
0.000000e+00
0.000000e+00
0.000000e+00
0.000000e+00
0.000000e+00
0.000000e+00
0.000000e+00
0.000000e+00
0.000000e+00
0.000000e+00
0.000000e+00
0.000000e+00
0.000000e+00
0.000000e+00
0.000000e+00
0.000000e+00
0.000000e+00
0.000000e+00
0.000000e+00
0.000000e+00
0.000000e+00
0.000000e+00
0.000000e+00
0.000000e+00
0.000000e+00
0.000000e+00
0.000000e+00
0.000000e+00
0.000000e+00
0.000000e+00
</DataArray>
</PointData>
</Piece></UnstructuredGrid>
</VTKFile>
