<?xml version="1.0"?>
<VTKFile type="PolyData" version="0.1" byte_order="LittleEndian" compressor="vtkZLibDataCompressor">
<PolyData>
<Piece NumberOfPoints="128" NumberOfVerts="0" NumberOfLines="1" NumberOfStrips="0" NumberOfPolys="0">
<Points>
<DataArray type="Float32" NumberOfComponents="3" format="ascii">
9.801710e-02 9.951850e-01 0.000000e+00
1.467300e-01 9.891770e-01 0.000000e+00
1.305260e-01 9.914450e-01 0.000000e+00
1.142870e-01 9.934480e-01 0.000000e+00
3.826830e-01 9.238800e-01 0.000000e+00
3.368900e-01 9.415440e-01 0.000000e+00
3.675160e-01 9.300170e-01 0.000000e+00
3.522500e-01 9.359060e-01 0.000000e+00
1.950900e-01 9.807850e-01 0.000000e+00
1.467300e-01 9.891770e-01 0.000000e+00
1.790170e-01 9.838460e-01 0.000000e+00
1.628950e-01 9.866430e-01 0.000000e+00
9.801710e-02 9.951850e-01 0.000000e+00
4.906770e-02 9.987950e-01 0.000000e+00
8.172110e-02 9.966550e-01 0.000000e+00
6.540310e-02 9.978590e-01 0.000000e+00
4.906770e-02 9.987950e-01 0.000000e+00
6.123230e-17 1.000000e+00 0.000000e+00
3.271910e-02 9.994650e-01 0.000000e+00
1.636170e-02 9.998660e-01 0.000000e+00
2.902850e-01 9.569400e-01 0.000000e+00
2.429800e-01 9.700310e-01 0.000000e+00
2.745890e-01 9.615620e-01 0.000000e+00
2.588190e-01 9.659260e-01 0.000000e+00
2.429800e-01 9.700310e-01 0.000000e+00
1.950900e-01 9.807850e-01 0.000000e+00
2.270760e-01 9.738770e-01 0.000000e+00
2.111120e-01 9.774620e-01 0.000000e+00
4.713970e-01 8.819210e-01 0.000000e+00
4.275550e-01 9.039890e-01 0.000000e+00
4.569040e-01 8.895160e-01 0.000000e+00
4.422890e-01 8.968730e-01 0.000000e+00
4.275550e-01 9.039890e-01 0.000000e+00
3.826830e-01 9.238800e-01 0.000000e+00
4.127070e-01 9.108640e-01 0.000000e+00
3.977480e-01 9.174940e-01 0.000000e+00
5.141030e-01 8.577290e-01 0.000000e+00
4.713970e-01 8.819210e-01 0.000000e+00
5.000000e-01 8.660250e-01 0.000000e+00
4.857630e-01 8.740900e-01 0.000000e+00
3.368900e-01 9.415440e-01 0.000000e+00
2.902850e-01 9.569400e-01 0.000000e+00
3.214390e-01 9.469300e-01 0.000000e+00
3.059030e-01 9.520630e-01 0.000000e+00
5.555700e-01 8.314700e-01 0.000000e+00
5.141030e-01 8.577290e-01 0.000000e+00
5.418920e-01 8.404480e-01 0.000000e+00
5.280680e-01 8.492020e-01 0.000000e+00
6.343930e-01 7.730100e-01 0.000000e+00
5.956990e-01 8.032080e-01 0.000000e+00
6.216610e-01 7.832870e-01 0.000000e+00
6.087610e-01 7.933530e-01 0.000000e+00
5.555700e-01 8.314700e-01 0.000000e+00
5.956990e-01 8.032080e-01 0.000000e+00
5.824780e-01 8.128470e-01 0.000000e+00
5.691000e-01 8.222680e-01 0.000000e+00
8.032080e-01 5.956990e-01 0.000000e+00
7.730100e-01 6.343930e-01 0.000000e+00
7.933530e-01 6.087610e-01 0.000000e+00
7.832870e-01 6.216610e-01 0.000000e+00
7.409510e-01 6.715590e-01 0.000000e+00
7.730100e-01 6.343930e-01 0.000000e+00
7.625270e-01 6.469560e-01 0.000000e+00
7.518400e-01 6.593460e-01 0.000000e+00
7.071070e-01 7.071070e-01 0.000000e+00
7.409510e-01 6.715590e-01 0.000000e+00
7.298640e-01 6.835920e-01 0.000000e+00
7.185820e-01 6.954430e-01 0.000000e+00
8.314700e-01 5.555700e-01 0.000000e+00
8.032080e-01 5.956990e-01 0.000000e+00
8.222680e-01 5.691000e-01 0.000000e+00
8.128470e-01 5.824780e-01 0.000000e+00
8.577290e-01 5.141030e-01 0.000000e+00
8.314700e-01 5.555700e-01 0.000000e+00
8.492020e-01 5.280680e-01 0.000000e+00
8.404480e-01 5.418920e-01 0.000000e+00
6.343930e-01 7.730100e-01 0.000000e+00
6.715590e-01 7.409510e-01 0.000000e+00
6.593460e-01 7.518400e-01 0.000000e+00
6.469560e-01 7.625270e-01 0.000000e+00
8.577290e-01 5.141030e-01 0.000000e+00
8.819210e-01 4.713970e-01 0.000000e+00
8.740900e-01 4.857630e-01 0.000000e+00
8.660250e-01 5.000000e-01 0.000000e+00
6.715590e-01 7.409510e-01 0.000000e+00
7.071070e-01 7.071070e-01 0.000000e+00
6.954430e-01 7.185820e-01 0.000000e+00
6.835920e-01 7.298640e-01 0.000000e+00
8.819210e-01 4.713970e-01 0.000000e+00
9.039890e-01 4.275550e-01 0.000000e+00
8.968730e-01 4.422890e-01 0.000000e+00
8.895160e-01 4.569040e-01 0.000000e+00
9.987950e-01 4.906770e-02 0.000000e+00
9.951850e-01 9.801710e-02 0.000000e+00
9.978590e-01 6.540310e-02 0.000000e+00
9.966550e-01 8.172110e-02 0.000000e+00
1.000000e+00 -2.449290e-16 0.000000e+00
9.987950e-01 4.906770e-02 0.000000e+00
9.998660e-01 1.636170e-02 0.000000e+00
9.994650e-01 3.271910e-02 0.000000e+00
9.700310e-01 2.429800e-01 0.000000e+00
9.569400e-01 2.902850e-01 0.000000e+00
9.659260e-01 2.588190e-01 0.000000e+00
9.615620e-01 2.745890e-01 0.000000e+00
9.569400e-01 2.902850e-01 0.000000e+00
9.415440e-01 3.368900e-01 0.000000e+00
9.520630e-01 3.059030e-01 0.000000e+00
9.469300e-01 3.214390e-01 0.000000e+00
9.238800e-01 3.826830e-01 0.000000e+00
9.415440e-01 3.368900e-01 0.000000e+00
9.359060e-01 3.522500e-01 0.000000e+00
9.300170e-01 3.675160e-01 0.000000e+00
9.039890e-01 4.275550e-01 0.000000e+00
9.238800e-01 3.826830e-01 0.000000e+00
9.174940e-01 3.977480e-01 0.000000e+00
9.108640e-01 4.127070e-01 0.000000e+00
9.891770e-01 1.467300e-01 0.000000e+00
9.807850e-01 1.950900e-01 0.000000e+00
9.866430e-01 1.628950e-01 0.000000e+00
9.838460e-01 1.790170e-01 0.000000e+00
9.951850e-01 9.801710e-02 0.000000e+00
9.891770e-01 1.467300e-01 0.000000e+00
9.934480e-01 1.142870e-01 0.000000e+00
9.914450e-01 1.305260e-01 0.000000e+00
9.700310e-01 2.429800e-01 0.000000e+00
9.807850e-01 1.950900e-01 0.000000e+00
9.774620e-01 2.111120e-01 0.000000e+00
9.738770e-01 2.270760e-01 0.000000e+00
</DataArray>
</Points>
<PointData>
<DataArray type="Float32" Name="V1" format="ascii">
1.472620e+00
1.423530e+00
1.439900e+00
1.456260e+00
1.178100e+00
1.227180e+00
1.194460e+00
1.210820e+00
1.374450e+00
1.423530e+00
1.390810e+00
1.407170e+00
1.472620e+00
1.521710e+00
1.488980e+00
1.505350e+00
1.521710e+00
1.570800e+00
1.538070e+00
1.554430e+00
1.276270e+00
1.325360e+00
1.292630e+00
1.309000e+00
1.325360e+00
1.374450e+00
1.341720e+00
1.358080e+00
1.079920e+00
1.129010e+00
1.096280e+00
1.112650e+00
1.129010e+00
1.178100e+00
1.145370e+00
1.161730e+00
1.030840e+00
1.079920e+00
1.047200e+00
1.063560e+00
1.227180e+00
1.276270e+00
1.243550e+00
1.259910e+00
9.817480e-01
1.030840e+00
9.981100e-01
1.014470e+00
8.835730e-01
9.326600e-01
8.999350e-01
9.162980e-01
9.817480e-01
9.326600e-01
9.490230e-01
9.653850e-01
6.381360e-01
6.872230e-01
6.544980e-01
6.708610e-01
7.363110e-01
6.872230e-01
7.035860e-01
7.199480e-01
7.853980e-01
7.363110e-01
7.526730e-01
7.690360e-01
5.890490e-01
6.381360e-01
6.054110e-01
6.217740e-01
5.399610e-01
5.890490e-01
5.563240e-01
5.726860e-01
8.835730e-01
8.344860e-01
8.508480e-01
8.672100e-01
5.399610e-01
4.908740e-01
5.072360e-01
5.235990e-01
8.344860e-01
7.853980e-01
8.017610e-01
8.181230e-01
4.908740e-01
4.417860e-01
4.581490e-01
4.745110e-01
4.908740e-02
9.817480e-02
6.544980e-02
8.181230e-02
0.000000e+00
4.908740e-02
1.636250e-02
3.272490e-02
2.454370e-01
2.945240e-01
2.617990e-01
2.781620e-01
2.945240e-01
3.436120e-01
3.108870e-01
3.272490e-01
3.926990e-01
3.436120e-01
3.599740e-01
3.763370e-01
4.417860e-01
3.926990e-01
4.090620e-01
4.254240e-01
1.472620e-01
1.963500e-01
1.636250e-01
1.799870e-01
9.817480e-02
1.472620e-01
1.145370e-01
1.309000e-01
2.454370e-01
1.963500e-01
2.127120e-01
2.290740e-01
</DataArray>
</PointData>
<Verts>
</Verts>
<Lines>
<DataArray type="Int32" Name="connectivity" format="ascii">
0 1 2 3 4 5 6 7 8 9 10 11 12 13 14 15 16 17 18 19 20 21 22 23 24 25 26 27 28 29 30 31 32 33 34 35 36 37 38 39 40 41 42 43 44 45 46 47 48 49 50 51 52 53 54 55 56 57 58 59 60 61 62 63 64 65 66 67 68 69 70 71 72 73 74 75 76 77 78 79 80 81 82 83 84 85 86 87 88 89 90 91 92 93 94 95 96 97 98 99 100 101 102 103 104 105 106 107 108 109 110 111 112 113 114 115 116 117 118 119 120 121 122 123 124 125 126 127 </DataArray>
<DataArray type="Int32" Name="offsets" format="ascii">
128 </DataArray>
</Lines>
<Strips>
</Strips>
<Polys>
</Polys>
</Piece></PolyData>
</VTKFile>
