<?xml version="1.0"?>
<VTKFile type="PolyData" version="0.1" byte_order="LittleEndian" compressor="vtkZLibDataCompressor">
<PolyData>
<Piece NumberOfPoints="64" NumberOfVerts="0" NumberOfLines="1" NumberOfStrips="0" NumberOfPolys="0">
<Points>
<DataArray type="Float32" NumberOfComponents="3" format="ascii">
3.750000e-01 0.000000e+00 0.000000e+00
5.000000e-01 0.000000e+00 0.000000e+00
4.583330e-01 0.000000e+00 0.000000e+00
4.166670e-01 0.000000e+00 0.000000e+00
2.500000e-01 0.000000e+00 0.000000e+00
1.250000e-01 0.000000e+00 0.000000e+00
1.666670e-01 0.000000e+00 0.000000e+00
2.083330e-01 0.000000e+00 0.000000e+00
-5.000000e-01 0.000000e+00 0.000000e+00
-3.750000e-01 0.000000e+00 0.000000e+00
-4.583330e-01 0.000000e+00 0.000000e+00
-4.166670e-01 0.000000e+00 0.000000e+00
-2.500000e-01 0.000000e+00 0.000000e+00
-3.750000e-01 0.000000e+00 0.000000e+00
-2.916670e-01 0.000000e+00 0.000000e+00
-3.333330e-01 0.000000e+00 0.000000e+00
-3.750000e-01 0.000000e+00 0.000000e+00
-2.500000e-01 0.000000e+00 0.000000e+00
-3.333330e-01 0.000000e+00 0.000000e+00
-2.916670e-01 0.000000e+00 0.000000e+00
-5.000000e-01 0.000000e+00 0.000000e+00
-3.750000e-01 0.000000e+00 0.000000e+00
-4.166670e-01 0.000000e+00 0.000000e+00
-4.583330e-01 0.000000e+00 0.000000e+00
-2.500000e-01 0.000000e+00 0.000000e+00
-1.250000e-01 0.000000e+00 0.000000e+00
-2.083330e-01 0.000000e+00 0.000000e+00
-1.666670e-01 0.000000e+00 0.000000e+00
9.992010e-16 0.000000e+00 0.000000e+00
-1.250000e-01 0.000000e+00 0.000000e+00
-4.166670e-02 0.000000e+00 0.000000e+00
-8.333330e-02 0.000000e+00 0.000000e+00
9.992010e-16 0.000000e+00 0.000000e+00
1.250000e-01 0.000000e+00 0.000000e+00
8.333330e-02 0.000000e+00 0.000000e+00
4.166670e-02 0.000000e+00 0.000000e+00
2.500000e-01 0.000000e+00 0.000000e+00
1.250000e-01 0.000000e+00 0.000000e+00
2.083330e-01 0.000000e+00 0.000000e+00
1.666670e-01 0.000000e+00 0.000000e+00
9.992010e-16 0.000000e+00 0.000000e+00
1.250000e-01 0.000000e+00 0.000000e+00
4.166670e-02 0.000000e+00 0.000000e+00
8.333330e-02 0.000000e+00 0.000000e+00
2.500000e-01 0.000000e+00 0.000000e+00
3.750000e-01 0.000000e+00 0.000000e+00
2.916670e-01 0.000000e+00 0.000000e+00
3.333330e-01 0.000000e+00 0.000000e+00
-1.250000e-01 0.000000e+00 0.000000e+00
9.992010e-16 0.000000e+00 0.000000e+00
-8.333330e-02 0.000000e+00 0.000000e+00
-4.166670e-02 0.000000e+00 0.000000e+00
3.750000e-01 0.000000e+00 0.000000e+00
5.000000e-01 0.000000e+00 0.000000e+00
4.166670e-01 0.000000e+00 0.000000e+00
4.583330e-01 0.000000e+00 0.000000e+00
-2.500000e-01 0.000000e+00 0.000000e+00
-1.250000e-01 0.000000e+00 0.000000e+00
-1.666670e-01 0.000000e+00 0.000000e+00
-2.083330e-01 0.000000e+00 0.000000e+00
2.500000e-01 0.000000e+00 0.000000e+00
3.750000e-01 0.000000e+00 0.000000e+00
3.333330e-01 0.000000e+00 0.000000e+00
2.916670e-01 0.000000e+00 0.000000e+00
</DataArray>
</Points>
<PointData>
<DataArray type="Float32" Name="V1" format="ascii">
8.750000e-01
1.000000e+00
9.583330e-01
9.166670e-01
7.500000e-01
6.250000e-01
6.666670e-01
7.083330e-01
0.000000e+00
1.250000e-01
4.166670e-02
8.333330e-02
2.500000e-01
1.250000e-01
2.083330e-01
1.666670e-01
1.250000e-01
2.500000e-01
1.666670e-01
2.083330e-01
0.000000e+00
1.250000e-01
8.333330e-02
4.166670e-02
2.500000e-01
3.750000e-01
2.916670e-01
3.333330e-01
5.000000e-01
3.750000e-01
4.583330e-01
4.166670e-01
5.000000e-01
6.250000e-01
5.833330e-01
5.416670e-01
7.500000e-01
6.250000e-01
7.083330e-01
6.666670e-01
5.000000e-01
6.250000e-01
5.416670e-01
5.833330e-01
7.500000e-01
8.750000e-01
7.916670e-01
8.333330e-01
3.750000e-01
5.000000e-01
4.166670e-01
4.583330e-01
8.750000e-01
1.000000e+00
9.166670e-01
9.583330e-01
2.500000e-01
3.750000e-01
3.333330e-01
2.916670e-01
7.500000e-01
8.750000e-01
8.333330e-01
7.916670e-01
</DataArray>
</PointData>
<Verts>
</Verts>
<Lines>
<DataArray type="Int32" Name="connectivity" format="ascii">
0 1 2 3 4 5 6 7 8 9 10 11 12 13 14 15 16 17 18 19 20 21 22 23 24 25 26 27 28 29 30 31 32 33 34 35 36 37 38 39 40 41 42 43 44 45 46 47 48 49 50 51 52 53 54 55 56 57 58 59 60 61 62 63 </DataArray>
<DataArray type="Int32" Name="offsets" format="ascii">
64 </DataArray>
</Lines>
<Strips>
</Strips>
<Polys>
</Polys>
</Piece></PolyData>
</VTKFile>
