<?xml version="1.0"?>
<VTKFile type="PolyData" version="0.1" byte_order="LittleEndian" compressor="vtkZLibDataCompressor">
<PolyData>
<Piece NumberOfPoints="195" NumberOfVerts="0" NumberOfLines="1" NumberOfStrips="0" NumberOfPolys="0">
<Points>
<DataArray type="Float32" NumberOfComponents="3" format="ascii">
-8.526400e-01 -5.224990e-01 0.000000e+00
-8.090170e-01 -5.877850e-01 0.000000e+00
-8.910070e-01 4.539900e-01 0.000000e+00
-8.910070e-01 -4.539900e-01 0.000000e+00
-9.510570e-01 -3.090170e-01 0.000000e+00
-8.910070e-01 -4.539900e-01 0.000000e+00
-8.526400e-01 -5.224990e-01 0.000000e+00
-9.876880e-01 -1.564340e-01 0.000000e+00
-9.510570e-01 -3.090170e-01 0.000000e+00
-9.876880e-01 -1.564340e-01 0.000000e+00
-1.564340e-01 -9.876880e-01 0.000000e+00
-3.090170e-01 -9.510570e-01 0.000000e+00
-3.090170e-01 -9.510570e-01 0.000000e+00
-7.071070e-01 7.071070e-01 0.000000e+00
-8.090170e-01 5.877850e-01 0.000000e+00
-5.877850e-01 -8.090170e-01 0.000000e+00
-7.071070e-01 -7.071070e-01 0.000000e+00
-9.876880e-01 1.564340e-01 0.000000e+00
-9.876880e-01 1.564340e-01 0.000000e+00
-9.510570e-01 3.090170e-01 0.000000e+00
-9.510570e-01 3.090170e-01 0.000000e+00
-8.910070e-01 4.539900e-01 0.000000e+00
-1.564340e-01 -9.876880e-01 0.000000e+00
-1.836970e-16 -1.000000e+00 0.000000e+00
-3.090170e-01 -9.510570e-01 0.000000e+00
-1.000000e+00 -7.657140e-16 0.000000e+00
-7.071070e-01 -7.071070e-01 0.000000e+00
-7.071070e-01 7.071070e-01 0.000000e+00
-5.877850e-01 8.090170e-01 0.000000e+00
-9.510570e-01 3.090170e-01 0.000000e+00
2.500000e-01 0.000000e+00 0.000000e+00
-5.000000e-01 0.000000e+00 0.000000e+00
-9.510570e-01 -3.090170e-01 0.000000e+00
4.539900e-01 -8.910070e-01 0.000000e+00
-1.000000e+00 -7.657140e-16 0.000000e+00
-9.876880e-01 -1.564340e-01 0.000000e+00
5.224990e-01 -8.526400e-01 0.000000e+00
5.877850e-01 -8.090170e-01 0.000000e+00
-9.876880e-01 1.564340e-01 0.000000e+00
-1.000000e+00 -7.657140e-16 0.000000e+00
7.071070e-01 -7.071070e-01 0.000000e+00
8.090170e-01 -5.877850e-01 0.000000e+00
9.510570e-01 -3.090170e-01 0.000000e+00
8.910070e-01 -4.539900e-01 0.000000e+00
1.564340e-01 -9.876880e-01 0.000000e+00
-1.836970e-16 -1.000000e+00 0.000000e+00
-5.877850e-01 -8.090170e-01 0.000000e+00
9.876880e-01 -1.564340e-01 0.000000e+00
-4.539900e-01 -8.910070e-01 0.000000e+00
9.876880e-01 -1.564340e-01 0.000000e+00
9.510570e-01 -3.090170e-01 0.000000e+00
7.071070e-01 -7.071070e-01 0.000000e+00
5.224990e-01 8.526400e-01 0.000000e+00
4.539900e-01 8.910070e-01 0.000000e+00
1.564340e-01 9.876880e-01 0.000000e+00
-3.090170e-01 9.510570e-01 0.000000e+00
9.510570e-01 -3.090170e-01 0.000000e+00
3.750000e-01 0.000000e+00 0.000000e+00
5.000000e-01 0.000000e+00 0.000000e+00
3.090170e-01 9.510570e-01 0.000000e+00
9.510570e-01 3.090170e-01 0.000000e+00
-8.090170e-01 -5.877850e-01 0.000000e+00
-7.071070e-01 -7.071070e-01 0.000000e+00
8.090170e-01 5.877850e-01 0.000000e+00
8.910070e-01 4.539900e-01 0.000000e+00
2.500000e-01 0.000000e+00 0.000000e+00
1.250000e-01 0.000000e+00 0.000000e+00
-5.000000e-01 0.000000e+00 0.000000e+00
-9.510570e-01 -3.090170e-01 0.000000e+00
-5.000000e-01 0.000000e+00 0.000000e+00
-5.000000e-01 0.000000e+00 0.000000e+00
-3.750000e-01 0.000000e+00 0.000000e+00
-8.090170e-01 -5.877850e-01 0.000000e+00
-2.500000e-01 0.000000e+00 0.000000e+00
-3.750000e-01 0.000000e+00 0.000000e+00
-3.090170e-01 -9.510570e-01 0.000000e+00
-4.539900e-01 -8.910070e-01 0.000000e+00
-3.750000e-01 0.000000e+00 0.000000e+00
-5.877850e-01 -8.090170e-01 0.000000e+00
-4.539900e-01 -8.910070e-01 0.000000e+00
-8.090170e-01 -5.877850e-01 0.000000e+00
-3.750000e-01 0.000000e+00 0.000000e+00
-2.500000e-01 0.000000e+00 0.000000e+00
-5.000000e-01 0.000000e+00 0.000000e+00
-3.750000e-01 0.000000e+00 0.000000e+00
2.500000e-01 0.000000e+00 0.000000e+00
-5.000000e-01 0.000000e+00 0.000000e+00
-2.500000e-01 0.000000e+00 0.000000e+00
-3.750000e-01 0.000000e+00 0.000000e+00
-1.250000e-01 0.000000e+00 0.000000e+00
-2.500000e-01 0.000000e+00 0.000000e+00
-3.750000e-01 0.000000e+00 0.000000e+00
-2.500000e-01 0.000000e+00 0.000000e+00
-1.250000e-01 0.000000e+00 0.000000e+00
9.992010e-16 0.000000e+00 0.000000e+00
9.992010e-16 0.000000e+00 0.000000e+00
-1.250000e-01 0.000000e+00 0.000000e+00
9.992010e-16 0.000000e+00 0.000000e+00
1.250000e-01 0.000000e+00 0.000000e+00
9.992010e-16 0.000000e+00 0.000000e+00
2.500000e-01 0.000000e+00 0.000000e+00
1.250000e-01 0.000000e+00 0.000000e+00
2.500000e-01 0.000000e+00 0.000000e+00
1.250000e-01 0.000000e+00 0.000000e+00
9.992010e-16 0.000000e+00 0.000000e+00
1.250000e-01 0.000000e+00 0.000000e+00
2.500000e-01 0.000000e+00 0.000000e+00
3.750000e-01 0.000000e+00 0.000000e+00
-1.250000e-01 0.000000e+00 0.000000e+00
2.500000e-01 0.000000e+00 0.000000e+00
1.250000e-01 0.000000e+00 0.000000e+00
-1.250000e-01 0.000000e+00 0.000000e+00
9.992010e-16 0.000000e+00 0.000000e+00
1.564340e-01 -9.876880e-01 0.000000e+00
3.090170e-01 -9.510570e-01 0.000000e+00
-8.090170e-01 5.877850e-01 0.000000e+00
5.000000e-01 0.000000e+00 0.000000e+00
-8.090170e-01 5.877850e-01 0.000000e+00
-8.090170e-01 5.877850e-01 0.000000e+00
-8.910070e-01 4.539900e-01 0.000000e+00
-8.910070e-01 4.539900e-01 0.000000e+00
3.750000e-01 0.000000e+00 0.000000e+00
5.000000e-01 0.000000e+00 0.000000e+00
-1.564340e-01 9.876880e-01 0.000000e+00
-3.090170e-01 9.510570e-01 0.000000e+00
-4.539900e-01 8.910070e-01 0.000000e+00
6.123230e-17 1.000000e+00 0.000000e+00
-4.539900e-01 8.910070e-01 0.000000e+00
-5.877850e-01 8.090170e-01 0.000000e+00
-1.564340e-01 9.876880e-01 0.000000e+00
-4.539900e-01 8.910070e-01 0.000000e+00
-3.090170e-01 9.510570e-01 0.000000e+00
-4.539900e-01 8.910070e-01 0.000000e+00
-5.877850e-01 8.090170e-01 0.000000e+00
5.877850e-01 -8.090170e-01 0.000000e+00
7.071070e-01 -7.071070e-01 0.000000e+00
8.910070e-01 -4.539900e-01 0.000000e+00
9.876880e-01 -1.564340e-01 0.000000e+00
1.000000e+00 -2.449290e-16 0.000000e+00
9.876880e-01 1.564340e-01 0.000000e+00
1.000000e+00 -2.449290e-16 0.000000e+00
1.000000e+00 -2.449290e-16 0.000000e+00
8.910070e-01 -4.539900e-01 0.000000e+00
9.876880e-01 1.564340e-01 0.000000e+00
5.000000e-01 0.000000e+00 0.000000e+00
9.876880e-01 1.564340e-01 0.000000e+00
9.510570e-01 3.090170e-01 0.000000e+00
9.510570e-01 3.090170e-01 0.000000e+00
8.910070e-01 4.539900e-01 0.000000e+00
8.910070e-01 4.539900e-01 0.000000e+00
8.090170e-01 5.877850e-01 0.000000e+00
8.090170e-01 5.877850e-01 0.000000e+00
7.071070e-01 7.071070e-01 0.000000e+00
7.071070e-01 7.071070e-01 0.000000e+00
5.877850e-01 8.090170e-01 0.000000e+00
7.071070e-01 7.071070e-01 0.000000e+00
-1.564340e-01 -9.876880e-01 0.000000e+00
-8.526400e-01 -5.224990e-01 0.000000e+00
-1.836970e-16 -1.000000e+00 0.000000e+00
1.564340e-01 -9.876880e-01 0.000000e+00
-2.500000e-01 0.000000e+00 0.000000e+00
-1.250000e-01 0.000000e+00 0.000000e+00
4.539900e-01 -8.910070e-01 0.000000e+00
1.564340e-01 -9.876880e-01 0.000000e+00
4.539900e-01 -8.910070e-01 0.000000e+00
3.090170e-01 -9.510570e-01 0.000000e+00
5.877850e-01 -8.090170e-01 0.000000e+00
8.090170e-01 -5.877850e-01 0.000000e+00
8.910070e-01 -4.539900e-01 0.000000e+00
8.090170e-01 -5.877850e-01 0.000000e+00
5.877850e-01 -8.090170e-01 0.000000e+00
5.000000e-01 0.000000e+00 0.000000e+00
5.000000e-01 0.000000e+00 0.000000e+00
5.000000e-01 0.000000e+00 0.000000e+00
-7.071070e-01 7.071070e-01 0.000000e+00
2.500000e-01 0.000000e+00 0.000000e+00
3.750000e-01 0.000000e+00 0.000000e+00
6.123230e-17 1.000000e+00 0.000000e+00
-1.564340e-01 9.876880e-01 0.000000e+00
1.564340e-01 9.876880e-01 0.000000e+00
6.123230e-17 1.000000e+00 0.000000e+00
1.564340e-01 9.876880e-01 0.000000e+00
3.090170e-01 9.510570e-01 0.000000e+00
5.224990e-01 8.526400e-01 0.000000e+00
3.090170e-01 9.510570e-01 0.000000e+00
4.539900e-01 8.910070e-01 0.000000e+00
4.539900e-01 -8.910070e-01 0.000000e+00
5.224990e-01 -8.526400e-01 0.000000e+00
5.877850e-01 8.090170e-01 0.000000e+00
5.877850e-01 8.090170e-01 0.000000e+00
5.224990e-01 8.526400e-01 0.000000e+00
1.564340e-01 -9.876880e-01 0.000000e+00
1.564340e-01 9.876880e-01 0.000000e+00
3.750000e-01 0.000000e+00 0.000000e+00
5.000000e-01 0.000000e+00 0.000000e+00
</DataArray>
</Points>
<PointData>
<DataArray type="Float32" Name="V1" format="ascii">
0.000000e+00
0.000000e+00
1.000000e+00
4.000000e+00
4.000000e+00
5.000000e+00
5.000000e+00
7.000000e+00
7.000000e+00
1.200000e+01
1.300000e+01
1.300000e+01
1.400000e+01
1.500000e+01
1.500000e+01
1.800000e+01
1.800000e+01
1.900000e+01
2.000000e+01
2.000000e+01
2.100000e+01
2.100000e+01
2.200000e+01
2.200000e+01
2.300000e+01
2.400000e+01
2.500000e+01
2.800000e+01
2.800000e+01
2.900000e+01
3.200000e+01
3.500000e+01
3.900000e+01
4.000000e+01
4.100000e+01
4.100000e+01
4.300000e+01
4.300000e+01
4.400000e+01
4.400000e+01
4.500000e+01
4.500000e+01
4.800000e+01
4.800000e+01
4.900000e+01
4.900000e+01
5.000000e+01
5.200000e+01
5.400000e+01
5.500000e+01
5.500000e+01
5.700000e+01
6.000000e+01
6.000000e+01
6.100000e+01
6.200000e+01
6.400000e+01
6.500000e+01
6.500000e+01
6.600000e+01
6.800000e+01
7.000000e+01
7.000000e+01
7.300000e+01
7.500000e+01
7.900000e+01
7.900000e+01
8.800000e+01
9.100000e+01
1.000000e+02
1.040000e+02
1.040000e+02
1.130000e+02
1.250000e+02
1.250000e+02
1.260000e+02
1.260000e+02
1.270000e+02
1.280000e+02
1.280000e+02
1.330000e+02
1.380000e+02
1.380000e+02
1.390000e+02
1.390000e+02
1.630000e+02
1.640000e+02
1.660000e+02
1.680000e+02
1.700000e+02
1.730000e+02
1.760000e+02
1.780000e+02
1.780000e+02
1.800000e+02
1.870000e+02
1.870000e+02
1.880000e+02
1.880000e+02
1.890000e+02
1.900000e+02
1.910000e+02
1.960000e+02
1.960000e+02
1.990000e+02
1.990000e+02
2.020000e+02
2.020000e+02
2.070000e+02
2.080000e+02
2.120000e+02
2.150000e+02
2.150000e+02
2.210000e+02
2.210000e+02
2.370000e+02
2.410000e+02
2.620000e+02
2.640000e+02
2.640000e+02
2.650000e+02
2.690000e+02
2.690000e+02
2.830000e+02
2.830000e+02
3.010000e+02
3.030000e+02
3.070000e+02
3.070000e+02
3.130000e+02
3.170000e+02
3.170000e+02
3.200000e+02
3.210000e+02
3.220000e+02
3.220000e+02
3.240000e+02
3.260000e+02
3.260000e+02
3.280000e+02
3.280000e+02
3.290000e+02
3.350000e+02
3.400000e+02
3.410000e+02
3.440000e+02
3.440000e+02
3.450000e+02
3.450000e+02
3.480000e+02
3.480000e+02
3.520000e+02
3.520000e+02
3.540000e+02
3.540000e+02
3.600000e+02
3.640000e+02
3.650000e+02
3.710000e+02
3.730000e+02
3.800000e+02
3.800000e+02
3.810000e+02
3.890000e+02
3.900000e+02
3.900000e+02
4.000000e+02
4.050000e+02
4.070000e+02
4.070000e+02
4.100000e+02
4.240000e+02
4.260000e+02
4.270000e+02
4.290000e+02
4.310000e+02
4.310000e+02
4.420000e+02
4.420000e+02
4.440000e+02
4.440000e+02
4.480000e+02
4.480000e+02
4.530000e+02
4.540000e+02
4.540000e+02
4.560000e+02
4.560000e+02
4.580000e+02
4.630000e+02
4.630000e+02
4.660000e+02
4.670000e+02
4.690000e+02
4.700000e+02
</DataArray>
<DataArray type="Float32" Name="V2" format="ascii">
2.000000e+00
2.000000e+00
1.000000e+00
2.000000e+00
2.000000e+00
2.000000e+00
2.000000e+00
2.000000e+00
2.000000e+00
2.000000e+00
2.000000e+00
2.000000e+00
2.000000e+00
1.000000e+00
1.000000e+00
2.000000e+00
2.000000e+00
1.000000e+00
1.000000e+00
1.000000e+00
1.000000e+00
1.000000e+00
2.000000e+00
2.000000e+00
2.000000e+00
2.000000e+00
2.000000e+00
1.000000e+00
1.000000e+00
1.000000e+00
4.000000e+00
4.000000e+00
2.000000e+00
3.000000e+00
2.000000e+00
2.000000e+00
3.000000e+00
3.000000e+00
1.000000e+00
1.000000e+00
3.000000e+00
3.000000e+00
3.000000e+00
3.000000e+00
3.000000e+00
3.000000e+00
2.000000e+00
3.000000e+00
2.000000e+00
3.000000e+00
3.000000e+00
3.000000e+00
0.000000e+00
0.000000e+00
0.000000e+00
1.000000e+00
3.000000e+00
4.000000e+00
4.000000e+00
0.000000e+00
0.000000e+00
2.000000e+00
2.000000e+00
0.000000e+00
0.000000e+00
4.000000e+00
4.000000e+00
4.000000e+00
2.000000e+00
4.000000e+00
4.000000e+00
4.000000e+00
2.000000e+00
4.000000e+00
4.000000e+00
2.000000e+00
2.000000e+00
4.000000e+00
2.000000e+00
2.000000e+00
2.000000e+00
4.000000e+00
4.000000e+00
4.000000e+00
4.000000e+00
4.000000e+00
4.000000e+00
4.000000e+00
4.000000e+00
4.000000e+00
4.000000e+00
4.000000e+00
4.000000e+00
4.000000e+00
4.000000e+00
4.000000e+00
4.000000e+00
4.000000e+00
4.000000e+00
4.000000e+00
4.000000e+00
4.000000e+00
4.000000e+00
4.000000e+00
4.000000e+00
4.000000e+00
4.000000e+00
4.000000e+00
4.000000e+00
4.000000e+00
4.000000e+00
4.000000e+00
4.000000e+00
3.000000e+00
3.000000e+00
1.000000e+00
4.000000e+00
1.000000e+00
1.000000e+00
1.000000e+00
1.000000e+00
4.000000e+00
4.000000e+00
1.000000e+00
1.000000e+00
1.000000e+00
1.000000e+00
1.000000e+00
1.000000e+00
1.000000e+00
1.000000e+00
1.000000e+00
1.000000e+00
1.000000e+00
3.000000e+00
3.000000e+00
3.000000e+00
3.000000e+00
3.000000e+00
0.000000e+00
0.000000e+00
3.000000e+00
3.000000e+00
0.000000e+00
4.000000e+00
0.000000e+00
0.000000e+00
0.000000e+00
0.000000e+00
0.000000e+00
0.000000e+00
0.000000e+00
0.000000e+00
0.000000e+00
0.000000e+00
0.000000e+00
2.000000e+00
2.000000e+00
3.000000e+00
3.000000e+00
4.000000e+00
4.000000e+00
3.000000e+00
3.000000e+00
3.000000e+00
3.000000e+00
3.000000e+00
3.000000e+00
3.000000e+00
3.000000e+00
3.000000e+00
4.000000e+00
4.000000e+00
4.000000e+00
1.000000e+00
4.000000e+00
4.000000e+00
1.000000e+00
1.000000e+00
0.000000e+00
0.000000e+00
0.000000e+00
0.000000e+00
0.000000e+00
0.000000e+00
0.000000e+00
3.000000e+00
3.000000e+00
0.000000e+00
0.000000e+00
0.000000e+00
3.000000e+00
0.000000e+00
4.000000e+00
4.000000e+00
</DataArray>
</PointData>
<Verts>
</Verts>
<Lines>
<DataArray type="Int32" Name="connectivity" format="ascii">
0 1 2 3 4 5 6 7 8 9 10 11 12 13 14 15 16 17 18 19 20 21 22 23 24 25 26 27 28 29 30 31 32 33 34 35 36 37 38 39 40 41 42 43 44 45 46 47 48 49 50 51 52 53 54 55 56 57 58 59 60 61 62 63 64 65 66 67 68 69 70 71 72 73 74 75 76 77 78 79 80 81 82 83 84 85 86 87 88 89 90 91 92 93 94 95 96 97 98 99 100 101 102 103 104 105 106 107 108 109 110 111 112 113 114 115 116 117 118 119 120 121 122 123 124 125 126 127 128 129 130 131 132 133 134 135 136 137 138 139 140 141 142 143 144 145 146 147 148 149 150 151 152 153 154 155 156 157 158 159 160 161 162 163 164 165 166 167 168 169 170 171 172 173 174 175 176 177 178 179 180 181 182 183 184 185 186 187 188 189 190 191 192 193 194 </DataArray>
<DataArray type="Int32" Name="offsets" format="ascii">
195 </DataArray>
</Lines>
<Strips>
</Strips>
<Polys>
</Polys>
</Piece></PolyData>
</VTKFile>
