<?xml version="1.0"?>
<VTKFile type="PolyData" version="0.1" byte_order="LittleEndian" compressor="vtkZLibDataCompressor">
<PolyData>
<Piece NumberOfPoints="56" NumberOfVerts="0" NumberOfLines="1" NumberOfStrips="0" NumberOfPolys="0">
<Points>
<DataArray type="Float32" NumberOfComponents="3" format="ascii">
1.000000e+00 -1.133110e-15 0.000000e+00
9.937120e-01 1.119640e-01 0.000000e+00
9.993010e-01 3.739120e-02 0.000000e+00
9.972040e-01 7.473010e-02 0.000000e+00
9.937120e-01 1.119640e-01 0.000000e+00
9.749280e-01 2.225210e-01 0.000000e+00
9.888310e-01 1.490420e-01 0.000000e+00
9.825660e-01 1.859120e-01 0.000000e+00
5.320320e-01 8.467240e-01 0.000000e+00
4.338840e-01 9.009690e-01 0.000000e+00
5.000000e-01 8.660250e-01 0.000000e+00
4.672690e-01 8.841150e-01 0.000000e+00
8.467240e-01 5.320320e-01 0.000000e+00
9.009690e-01 4.338840e-01 0.000000e+00
8.841150e-01 4.672690e-01 0.000000e+00
8.660250e-01 5.000000e-01 0.000000e+00
6.123230e-17 1.000000e+00 0.000000e+00
1.119640e-01 9.937120e-01 0.000000e+00
7.473010e-02 9.972040e-01 0.000000e+00
3.739120e-02 9.993010e-01 0.000000e+00
4.338840e-01 9.009690e-01 0.000000e+00
3.302790e-01 9.438830e-01 0.000000e+00
3.998920e-01 9.165620e-01 0.000000e+00
3.653410e-01 9.308740e-01 0.000000e+00
5.320320e-01 8.467240e-01 0.000000e+00
6.234900e-01 7.818310e-01 0.000000e+00
5.938200e-01 8.045980e-01 0.000000e+00
5.633200e-01 8.262390e-01 0.000000e+00
7.071070e-01 7.071070e-01 0.000000e+00
6.234900e-01 7.818310e-01 0.000000e+00
6.801730e-01 7.330520e-01 0.000000e+00
6.522870e-01 7.579720e-01 0.000000e+00
7.818310e-01 6.234900e-01 0.000000e+00
7.071070e-01 7.071070e-01 0.000000e+00
7.579720e-01 6.522870e-01 0.000000e+00
7.330520e-01 6.801730e-01 0.000000e+00
9.438830e-01 3.302790e-01 0.000000e+00
9.749280e-01 2.225210e-01 0.000000e+00
9.659260e-01 2.588190e-01 0.000000e+00
9.555730e-01 2.947550e-01 0.000000e+00
2.225210e-01 9.749280e-01 0.000000e+00
3.302790e-01 9.438830e-01 0.000000e+00
2.947550e-01 9.555730e-01 0.000000e+00
2.588190e-01 9.659260e-01 0.000000e+00
7.818310e-01 6.234900e-01 0.000000e+00
8.467240e-01 5.320320e-01 0.000000e+00
8.262390e-01 5.633200e-01 0.000000e+00
8.045980e-01 5.938200e-01 0.000000e+00
1.119640e-01 9.937120e-01 0.000000e+00
2.225210e-01 9.749280e-01 0.000000e+00
1.859120e-01 9.825660e-01 0.000000e+00
1.490420e-01 9.888310e-01 0.000000e+00
9.438830e-01 3.302790e-01 0.000000e+00
9.009690e-01 4.338840e-01 0.000000e+00
9.308740e-01 3.653410e-01 0.000000e+00
9.165620e-01 3.998920e-01 0.000000e+00
</DataArray>
</Points>
<PointData>
<DataArray type="Float32" Name="V1" format="ascii">
0.000000e+00
1.122000e-01
3.739990e-02
7.479980e-02
1.122000e-01
2.243990e-01
1.496000e-01
1.870000e-01
1.009800e+00
1.122000e+00
1.047200e+00
1.084600e+00
5.609990e-01
4.487990e-01
4.861990e-01
5.235990e-01
1.570800e+00
1.458600e+00
1.496000e+00
1.533400e+00
1.122000e+00
1.234200e+00
1.159400e+00
1.196800e+00
1.009800e+00
8.975980e-01
9.349980e-01
9.723980e-01
7.853980e-01
8.975980e-01
8.227980e-01
8.601980e-01
6.731980e-01
7.853980e-01
7.105980e-01
7.479980e-01
3.365990e-01
2.243990e-01
2.617990e-01
2.991990e-01
1.346400e+00
1.234200e+00
1.271600e+00
1.309000e+00
6.731980e-01
5.609990e-01
5.983990e-01
6.357990e-01
1.458600e+00
1.346400e+00
1.383800e+00
1.421200e+00
3.365990e-01
4.487990e-01
3.739990e-01
4.113990e-01
</DataArray>
</PointData>
<Verts>
</Verts>
<Lines>
<DataArray type="Int32" Name="connectivity" format="ascii">
0 1 2 3 4 5 6 7 8 9 10 11 12 13 14 15 16 17 18 19 20 21 22 23 24 25 26 27 28 29 30 31 32 33 34 35 36 37 38 39 40 41 42 43 44 45 46 47 48 49 50 51 52 53 54 55 </DataArray>
<DataArray type="Int32" Name="offsets" format="ascii">
56 </DataArray>
</Lines>
<Strips>
</Strips>
<Polys>
</Polys>
</Piece></PolyData>
</VTKFile>
