<?xml version="1.0"?>
<VTKFile type="PolyData" version="0.1" byte_order="LittleEndian" compressor="vtkZLibDataCompressor">
<PolyData>
<Piece NumberOfPoints="64" NumberOfVerts="0" NumberOfLines="1" NumberOfStrips="0" NumberOfPolys="0">
<Points>
<DataArray type="Float32" NumberOfComponents="3" format="ascii">
-9.951850e-01 9.801710e-02 0.000000e+00
-1.000000e+00 1.224650e-16 0.000000e+00
-9.978590e-01 6.540310e-02 0.000000e+00
-9.994650e-01 3.271910e-02 0.000000e+00
-9.807850e-01 1.950900e-01 0.000000e+00
-9.951850e-01 9.801710e-02 0.000000e+00
-9.866430e-01 1.628950e-01 0.000000e+00
-9.914450e-01 1.305260e-01 0.000000e+00
-9.569400e-01 2.902850e-01 0.000000e+00
-9.807850e-01 1.950900e-01 0.000000e+00
-9.659260e-01 2.588190e-01 0.000000e+00
-9.738770e-01 2.270760e-01 0.000000e+00
-9.238800e-01 3.826830e-01 0.000000e+00
-9.569400e-01 2.902850e-01 0.000000e+00
-9.359060e-01 3.522500e-01 0.000000e+00
-9.469300e-01 3.214390e-01 0.000000e+00
-8.819210e-01 4.713970e-01 0.000000e+00
-9.238800e-01 3.826830e-01 0.000000e+00
-8.968730e-01 4.422890e-01 0.000000e+00
-9.108640e-01 4.127070e-01 0.000000e+00
-8.314700e-01 5.555700e-01 0.000000e+00
-8.819210e-01 4.713970e-01 0.000000e+00
-8.492020e-01 5.280680e-01 0.000000e+00
-8.660250e-01 5.000000e-01 0.000000e+00
-7.730100e-01 6.343930e-01 0.000000e+00
-8.314700e-01 5.555700e-01 0.000000e+00
-7.933530e-01 6.087610e-01 0.000000e+00
-8.128470e-01 5.824780e-01 0.000000e+00
-7.071070e-01 7.071070e-01 0.000000e+00
-7.730100e-01 6.343930e-01 0.000000e+00
-7.298640e-01 6.835920e-01 0.000000e+00
-7.518400e-01 6.593460e-01 0.000000e+00
-5.555700e-01 8.314700e-01 0.000000e+00
-6.343930e-01 7.730100e-01 0.000000e+00
-5.824780e-01 8.128470e-01 0.000000e+00
-6.087610e-01 7.933530e-01 0.000000e+00
-9.801710e-02 9.951850e-01 0.000000e+00
-1.950900e-01 9.807850e-01 0.000000e+00
-1.305260e-01 9.914450e-01 0.000000e+00
-1.628950e-01 9.866430e-01 0.000000e+00
-4.713970e-01 8.819210e-01 0.000000e+00
-5.555700e-01 8.314700e-01 0.000000e+00
-5.000000e-01 8.660250e-01 0.000000e+00
-5.280680e-01 8.492020e-01 0.000000e+00
-3.826830e-01 9.238800e-01 0.000000e+00
-4.713970e-01 8.819210e-01 0.000000e+00
-4.127070e-01 9.108640e-01 0.000000e+00
-4.422890e-01 8.968730e-01 0.000000e+00
-2.902850e-01 9.569400e-01 0.000000e+00
-1.950900e-01 9.807850e-01 0.000000e+00
-2.270760e-01 9.738770e-01 0.000000e+00
-2.588190e-01 9.659260e-01 0.000000e+00
-3.826830e-01 9.238800e-01 0.000000e+00
-2.902850e-01 9.569400e-01 0.000000e+00
-3.214390e-01 9.469300e-01 0.000000e+00
-3.522500e-01 9.359060e-01 0.000000e+00
6.123230e-17 1.000000e+00 0.000000e+00
-9.801710e-02 9.951850e-01 0.000000e+00
-3.271910e-02 9.994650e-01 0.000000e+00
-6.540310e-02 9.978590e-01 0.000000e+00
-6.343930e-01 7.730100e-01 0.000000e+00
-7.071070e-01 7.071070e-01 0.000000e+00
-6.593460e-01 7.518400e-01 0.000000e+00
-6.835920e-01 7.298640e-01 0.000000e+00
</DataArray>
</Points>
<PointData>
<DataArray type="Float32" Name="V1" format="ascii">
3.043420e+00
3.141590e+00
3.076140e+00
3.108870e+00
2.945240e+00
3.043420e+00
2.977970e+00
3.010690e+00
2.847070e+00
2.945240e+00
2.879790e+00
2.912520e+00
2.748890e+00
2.847070e+00
2.781620e+00
2.814340e+00
2.650720e+00
2.748890e+00
2.683440e+00
2.716170e+00
2.552540e+00
2.650720e+00
2.585270e+00
2.617990e+00
2.454370e+00
2.552540e+00
2.487090e+00
2.519820e+00
2.356190e+00
2.454370e+00
2.388920e+00
2.421640e+00
2.159840e+00
2.258020e+00
2.192570e+00
2.225290e+00
1.668970e+00
1.767150e+00
1.701700e+00
1.734420e+00
2.061670e+00
2.159840e+00
2.094400e+00
2.127120e+00
1.963500e+00
2.061670e+00
1.996220e+00
2.028950e+00
1.865320e+00
1.767150e+00
1.799870e+00
1.832600e+00
1.963500e+00
1.865320e+00
1.898050e+00
1.930770e+00
1.570800e+00
1.668970e+00
1.603520e+00
1.636250e+00
2.258020e+00
2.356190e+00
2.290740e+00
2.323470e+00
</DataArray>
</PointData>
<Verts>
</Verts>
<Lines>
<DataArray type="Int32" Name="connectivity" format="ascii">
0 1 2 3 4 5 6 7 8 9 10 11 12 13 14 15 16 17 18 19 20 21 22 23 24 25 26 27 28 29 30 31 32 33 34 35 36 37 38 39 40 41 42 43 44 45 46 47 48 49 50 51 52 53 54 55 56 57 58 59 60 61 62 63 </DataArray>
<DataArray type="Int32" Name="offsets" format="ascii">
64 </DataArray>
</Lines>
<Strips>
</Strips>
<Polys>
</Polys>
</Piece></PolyData>
</VTKFile>
