<?xml version="1.0"?>
<VTKFile type="PolyData" version="0.1" byte_order="LittleEndian" compressor="vtkZLibDataCompressor">
<PolyData>
<Piece NumberOfPoints="56" NumberOfVerts="0" NumberOfLines="1" NumberOfStrips="0" NumberOfPolys="0">
<Points>
<DataArray type="Float32" NumberOfComponents="3" format="ascii">
-9.937120e-01 1.119640e-01 0.000000e+00
-1.000000e+00 1.224650e-16 0.000000e+00
-9.972040e-01 7.473010e-02 0.000000e+00
-9.993010e-01 3.739120e-02 0.000000e+00
-9.438830e-01 3.302790e-01 0.000000e+00
-9.749280e-01 2.225210e-01 0.000000e+00
-9.555730e-01 2.947550e-01 0.000000e+00
-9.659260e-01 2.588190e-01 0.000000e+00
-9.009690e-01 4.338840e-01 0.000000e+00
-9.438830e-01 3.302790e-01 0.000000e+00
-9.165620e-01 3.998920e-01 0.000000e+00
-9.308740e-01 3.653410e-01 0.000000e+00
-7.071070e-01 7.071070e-01 0.000000e+00
-7.818310e-01 6.234900e-01 0.000000e+00
-7.330520e-01 6.801730e-01 0.000000e+00
-7.579720e-01 6.522870e-01 0.000000e+00
-5.320320e-01 8.467240e-01 0.000000e+00
-6.234900e-01 7.818310e-01 0.000000e+00
-5.633200e-01 8.262390e-01 0.000000e+00
-5.938200e-01 8.045980e-01 0.000000e+00
-4.338840e-01 9.009690e-01 0.000000e+00
-5.320320e-01 8.467240e-01 0.000000e+00
-4.672690e-01 8.841150e-01 0.000000e+00
-5.000000e-01 8.660250e-01 0.000000e+00
-3.302790e-01 9.438830e-01 0.000000e+00
-2.225210e-01 9.749280e-01 0.000000e+00
-2.588190e-01 9.659260e-01 0.000000e+00
-2.947550e-01 9.555730e-01 0.000000e+00
-8.467240e-01 5.320320e-01 0.000000e+00
-7.818310e-01 6.234900e-01 0.000000e+00
-8.045980e-01 5.938200e-01 0.000000e+00
-8.262390e-01 5.633200e-01 0.000000e+00
-8.467240e-01 5.320320e-01 0.000000e+00
-9.009690e-01 4.338840e-01 0.000000e+00
-8.660250e-01 5.000000e-01 0.000000e+00
-8.841150e-01 4.672690e-01 0.000000e+00
6.123230e-17 1.000000e+00 0.000000e+00
-1.119640e-01 9.937120e-01 0.000000e+00
-3.739120e-02 9.993010e-01 0.000000e+00
-7.473010e-02 9.972040e-01 0.000000e+00
-9.937120e-01 1.119640e-01 0.000000e+00
-9.749280e-01 2.225210e-01 0.000000e+00
-9.825660e-01 1.859120e-01 0.000000e+00
-9.888310e-01 1.490420e-01 0.000000e+00
-4.338840e-01 9.009690e-01 0.000000e+00
-3.302790e-01 9.438830e-01 0.000000e+00
-3.653410e-01 9.308740e-01 0.000000e+00
-3.998920e-01 9.165620e-01 0.000000e+00
-6.234900e-01 7.818310e-01 0.000000e+00
-7.071070e-01 7.071070e-01 0.000000e+00
-6.522870e-01 7.579720e-01 0.000000e+00
-6.801730e-01 7.330520e-01 0.000000e+00
-1.119640e-01 9.937120e-01 0.000000e+00
-2.225210e-01 9.749280e-01 0.000000e+00
-1.490420e-01 9.888310e-01 0.000000e+00
-1.859120e-01 9.825660e-01 0.000000e+00
</DataArray>
</Points>
<PointData>
<DataArray type="Float32" Name="V1" format="ascii">
3.029390e+00
3.141590e+00
3.066790e+00
3.104190e+00
2.804990e+00
2.917190e+00
2.842390e+00
2.879790e+00
2.692790e+00
2.804990e+00
2.730190e+00
2.767590e+00
2.356190e+00
2.468390e+00
2.393590e+00
2.430990e+00
2.131800e+00
2.243990e+00
2.169190e+00
2.206590e+00
2.019600e+00
2.131800e+00
2.057000e+00
2.094400e+00
1.907400e+00
1.795200e+00
1.832600e+00
1.870000e+00
2.580590e+00
2.468390e+00
2.505790e+00
2.543190e+00
2.580590e+00
2.692790e+00
2.617990e+00
2.655390e+00
1.570800e+00
1.683000e+00
1.608200e+00
1.645600e+00
3.029390e+00
2.917190e+00
2.954590e+00
2.991990e+00
2.019600e+00
1.907400e+00
1.944800e+00
1.982200e+00
2.243990e+00
2.356190e+00
2.281390e+00
2.318790e+00
1.683000e+00
1.795200e+00
1.720400e+00
1.757800e+00
</DataArray>
</PointData>
<Verts>
</Verts>
<Lines>
<DataArray type="Int32" Name="connectivity" format="ascii">
0 1 2 3 4 5 6 7 8 9 10 11 12 13 14 15 16 17 18 19 20 21 22 23 24 25 26 27 28 29 30 31 32 33 34 35 36 37 38 39 40 41 42 43 44 45 46 47 48 49 50 51 52 53 54 55 </DataArray>
<DataArray type="Int32" Name="offsets" format="ascii">
56 </DataArray>
</Lines>
<Strips>
</Strips>
<Polys>
</Polys>
</Piece></PolyData>
</VTKFile>
