<?xml version="1.0"?>
<VTKFile type="PolyData" version="0.1" byte_order="LittleEndian" compressor="vtkZLibDataCompressor">
<PolyData>
<Piece NumberOfPoints="128" NumberOfVerts="0" NumberOfLines="1" NumberOfStrips="0" NumberOfPolys="0">
<Points>
<DataArray type="Float32" NumberOfComponents="3" format="ascii">
-1.836970e-16 -1.000000e+00 0.000000e+00
4.906770e-02 -9.987950e-01 0.000000e+00
1.636170e-02 -9.998660e-01 0.000000e+00
3.271910e-02 -9.994650e-01 0.000000e+00
4.906770e-02 -9.987950e-01 0.000000e+00
9.801710e-02 -9.951850e-01 0.000000e+00
6.540310e-02 -9.978590e-01 0.000000e+00
8.172110e-02 -9.966550e-01 0.000000e+00
1.467300e-01 -9.891770e-01 0.000000e+00
1.950900e-01 -9.807850e-01 0.000000e+00
1.628950e-01 -9.866430e-01 0.000000e+00
1.790170e-01 -9.838460e-01 0.000000e+00
9.801710e-02 -9.951850e-01 0.000000e+00
1.467300e-01 -9.891770e-01 0.000000e+00
1.142870e-01 -9.934480e-01 0.000000e+00
1.305260e-01 -9.914450e-01 0.000000e+00
2.429800e-01 -9.700310e-01 0.000000e+00
2.902850e-01 -9.569400e-01 0.000000e+00
2.588190e-01 -9.659260e-01 0.000000e+00
2.745890e-01 -9.615620e-01 0.000000e+00
2.429800e-01 -9.700310e-01 0.000000e+00
1.950900e-01 -9.807850e-01 0.000000e+00
2.111120e-01 -9.774620e-01 0.000000e+00
2.270760e-01 -9.738770e-01 0.000000e+00
4.275550e-01 -9.039890e-01 0.000000e+00
4.713970e-01 -8.819210e-01 0.000000e+00
4.422890e-01 -8.968730e-01 0.000000e+00
4.569040e-01 -8.895160e-01 0.000000e+00
5.141030e-01 -8.577290e-01 0.000000e+00
5.555700e-01 -8.314700e-01 0.000000e+00
5.280680e-01 -8.492020e-01 0.000000e+00
5.418920e-01 -8.404480e-01 0.000000e+00
5.555700e-01 -8.314700e-01 0.000000e+00
5.956990e-01 -8.032080e-01 0.000000e+00
5.691000e-01 -8.222680e-01 0.000000e+00
5.824780e-01 -8.128470e-01 0.000000e+00
5.956990e-01 -8.032080e-01 0.000000e+00
6.343930e-01 -7.730100e-01 0.000000e+00
6.087610e-01 -7.933530e-01 0.000000e+00
6.216610e-01 -7.832870e-01 0.000000e+00
6.343930e-01 -7.730100e-01 0.000000e+00
6.715590e-01 -7.409510e-01 0.000000e+00
6.469560e-01 -7.625270e-01 0.000000e+00
6.593460e-01 -7.518400e-01 0.000000e+00
6.715590e-01 -7.409510e-01 0.000000e+00
7.071070e-01 -7.071070e-01 0.000000e+00
6.835920e-01 -7.298640e-01 0.000000e+00
6.954430e-01 -7.185820e-01 0.000000e+00
8.577290e-01 -5.141030e-01 0.000000e+00
8.314700e-01 -5.555700e-01 0.000000e+00
8.404480e-01 -5.418920e-01 0.000000e+00
8.492020e-01 -5.280680e-01 0.000000e+00
8.032080e-01 -5.956990e-01 0.000000e+00
8.314700e-01 -5.555700e-01 0.000000e+00
8.128470e-01 -5.824780e-01 0.000000e+00
8.222680e-01 -5.691000e-01 0.000000e+00
8.032080e-01 -5.956990e-01 0.000000e+00
7.730100e-01 -6.343930e-01 0.000000e+00
7.832870e-01 -6.216610e-01 0.000000e+00
7.933530e-01 -6.087610e-01 0.000000e+00
3.826830e-01 -9.238800e-01 0.000000e+00
4.275550e-01 -9.039890e-01 0.000000e+00
3.977480e-01 -9.174940e-01 0.000000e+00
4.127070e-01 -9.108640e-01 0.000000e+00
5.141030e-01 -8.577290e-01 0.000000e+00
4.713970e-01 -8.819210e-01 0.000000e+00
4.857630e-01 -8.740900e-01 0.000000e+00
5.000000e-01 -8.660250e-01 0.000000e+00
8.819210e-01 -4.713970e-01 0.000000e+00
9.039890e-01 -4.275550e-01 0.000000e+00
8.895160e-01 -4.569040e-01 0.000000e+00
8.968730e-01 -4.422890e-01 0.000000e+00
9.569400e-01 -2.902850e-01 0.000000e+00
9.700310e-01 -2.429800e-01 0.000000e+00
9.615620e-01 -2.745890e-01 0.000000e+00
9.659260e-01 -2.588190e-01 0.000000e+00
9.807850e-01 -1.950900e-01 0.000000e+00
9.891770e-01 -1.467300e-01 0.000000e+00
9.838460e-01 -1.790170e-01 0.000000e+00
9.866430e-01 -1.628950e-01 0.000000e+00
9.891770e-01 -1.467300e-01 0.000000e+00
9.951850e-01 -9.801710e-02 0.000000e+00
9.914450e-01 -1.305260e-01 0.000000e+00
9.934480e-01 -1.142870e-01 0.000000e+00
3.368900e-01 -9.415440e-01 0.000000e+00
3.826830e-01 -9.238800e-01 0.000000e+00
3.522500e-01 -9.359060e-01 0.000000e+00
3.675160e-01 -9.300170e-01 0.000000e+00
8.577290e-01 -5.141030e-01 0.000000e+00
8.819210e-01 -4.713970e-01 0.000000e+00
8.660250e-01 -5.000000e-01 0.000000e+00
8.740900e-01 -4.857630e-01 0.000000e+00
9.039890e-01 -4.275550e-01 0.000000e+00
9.238800e-01 -3.826830e-01 0.000000e+00
9.108640e-01 -4.127070e-01 0.000000e+00
9.174940e-01 -3.977480e-01 0.000000e+00
9.569400e-01 -2.902850e-01 0.000000e+00
9.415440e-01 -3.368900e-01 0.000000e+00
9.469300e-01 -3.214390e-01 0.000000e+00
9.520630e-01 -3.059030e-01 0.000000e+00
9.238800e-01 -3.826830e-01 0.000000e+00
9.415440e-01 -3.368900e-01 0.000000e+00
9.300170e-01 -3.675160e-01 0.000000e+00
9.359060e-01 -3.522500e-01 0.000000e+00
9.951850e-01 -9.801710e-02 0.000000e+00
9.987950e-01 -4.906770e-02 0.000000e+00
9.966550e-01 -8.172110e-02 0.000000e+00
9.978590e-01 -6.540310e-02 0.000000e+00
9.987950e-01 -4.906770e-02 0.000000e+00
1.000000e+00 -2.449290e-16 0.000000e+00
9.994650e-01 -3.271910e-02 0.000000e+00
9.998660e-01 -1.636170e-02 0.000000e+00
2.902850e-01 -9.569400e-01 0.000000e+00
3.368900e-01 -9.415440e-01 0.000000e+00
3.059030e-01 -9.520630e-01 0.000000e+00
3.214390e-01 -9.469300e-01 0.000000e+00
7.730100e-01 -6.343930e-01 0.000000e+00
7.409510e-01 -6.715590e-01 0.000000e+00
7.518400e-01 -6.593460e-01 0.000000e+00
7.625270e-01 -6.469560e-01 0.000000e+00
7.071070e-01 -7.071070e-01 0.000000e+00
7.409510e-01 -6.715590e-01 0.000000e+00
7.185820e-01 -6.954430e-01 0.000000e+00
7.298640e-01 -6.835920e-01 0.000000e+00
9.700310e-01 -2.429800e-01 0.000000e+00
9.807850e-01 -1.950900e-01 0.000000e+00
9.738770e-01 -2.270760e-01 0.000000e+00
9.774620e-01 -2.111120e-01 0.000000e+00
</DataArray>
</Points>
<PointData>
<DataArray type="Float32" Name="V1" format="ascii">
4.712390e+00
4.761480e+00
4.728750e+00
4.745110e+00
4.761480e+00
4.810560e+00
4.777840e+00
4.794200e+00
4.859650e+00
4.908740e+00
4.876010e+00
4.892380e+00
4.810560e+00
4.859650e+00
4.826930e+00
4.843290e+00
4.957830e+00
5.006910e+00
4.974190e+00
4.990550e+00
4.957830e+00
4.908740e+00
4.925100e+00
4.941460e+00
5.154180e+00
5.203260e+00
5.170540e+00
5.186900e+00
5.252350e+00
5.301440e+00
5.268710e+00
5.285080e+00
5.301440e+00
5.350520e+00
5.317800e+00
5.334160e+00
5.350520e+00
5.399610e+00
5.366890e+00
5.383250e+00
5.399610e+00
5.448700e+00
5.415970e+00
5.432340e+00
5.448700e+00
5.497790e+00
5.465060e+00
5.481420e+00
5.743220e+00
5.694140e+00
5.710500e+00
5.726860e+00
5.645050e+00
5.694140e+00
5.661410e+00
5.677770e+00
5.645050e+00
5.595960e+00
5.612320e+00
5.628690e+00
5.105090e+00
5.154180e+00
5.121450e+00
5.137810e+00
5.252350e+00
5.203260e+00
5.219630e+00
5.235990e+00
5.792310e+00
5.841400e+00
5.808670e+00
5.825040e+00
5.988660e+00
6.037750e+00
6.005020e+00
6.021390e+00
6.086840e+00
6.135920e+00
6.103200e+00
6.119560e+00
6.135920e+00
6.185010e+00
6.152290e+00
6.168650e+00
5.056000e+00
5.105090e+00
5.072360e+00
5.088730e+00
5.743220e+00
5.792310e+00
5.759590e+00
5.775950e+00
5.841400e+00
5.890490e+00
5.857760e+00
5.874120e+00
5.988660e+00
5.939570e+00
5.955940e+00
5.972300e+00
5.890490e+00
5.939570e+00
5.906850e+00
5.923210e+00
6.185010e+00
6.234100e+00
6.201370e+00
6.217740e+00
6.234100e+00
6.283190e+00
6.250460e+00
6.266820e+00
5.006910e+00
5.056000e+00
5.023280e+00
5.039640e+00
5.595960e+00
5.546870e+00
5.563240e+00
5.579600e+00
5.497790e+00
5.546870e+00
5.514150e+00
5.530510e+00
6.037750e+00
6.086840e+00
6.054110e+00
6.070470e+00
</DataArray>
</PointData>
<Verts>
</Verts>
<Lines>
<DataArray type="Int32" Name="connectivity" format="ascii">
0 1 2 3 4 5 6 7 8 9 10 11 12 13 14 15 16 17 18 19 20 21 22 23 24 25 26 27 28 29 30 31 32 33 34 35 36 37 38 39 40 41 42 43 44 45 46 47 48 49 50 51 52 53 54 55 56 57 58 59 60 61 62 63 64 65 66 67 68 69 70 71 72 73 74 75 76 77 78 79 80 81 82 83 84 85 86 87 88 89 90 91 92 93 94 95 96 97 98 99 100 101 102 103 104 105 106 107 108 109 110 111 112 113 114 115 116 117 118 119 120 121 122 123 124 125 126 127 </DataArray>
<DataArray type="Int32" Name="offsets" format="ascii">
128 </DataArray>
</Lines>
<Strips>
</Strips>
<Polys>
</Polys>
</Piece></PolyData>
</VTKFile>
