<?xml version="1.0"?>
<VTKFile type="PolyData" version="0.1" byte_order="LittleEndian" compressor="vtkZLibDataCompressor">
<PolyData>
<Piece NumberOfPoints="619" NumberOfVerts="0" NumberOfLines="1" NumberOfStrips="0" NumberOfPolys="0">
<Points>
<DataArray type="Float32" NumberOfComponents="3" format="ascii">
-1.000000e+00 1.224650e-16 0.000000e+00
-9.987950e-01 4.906770e-02 0.000000e+00
3.750000e-01 0.000000e+00 0.000000e+00
3.437500e-01 0.000000e+00 0.000000e+00
-9.951850e-01 9.801710e-02 0.000000e+00
5.000000e-01 0.000000e+00 0.000000e+00
4.687500e-01 0.000000e+00 0.000000e+00
-9.891770e-01 1.467300e-01 0.000000e+00
-9.951850e-01 9.801710e-02 0.000000e+00
-9.987950e-01 4.906770e-02 0.000000e+00
-1.000000e+00 1.224650e-16 0.000000e+00
-9.987950e-01 -4.906770e-02 0.000000e+00
-1.000000e+00 1.224650e-16 0.000000e+00
-9.987950e-01 -4.906770e-02 0.000000e+00
-9.951850e-01 -9.801710e-02 0.000000e+00
-9.951850e-01 -9.801710e-02 0.000000e+00
-9.891770e-01 -1.467300e-01 0.000000e+00
-9.807850e-01 -1.950900e-01 0.000000e+00
-9.987950e-01 -4.906770e-02 0.000000e+00
-9.987950e-01 4.906770e-02 0.000000e+00
-9.891770e-01 1.467300e-01 0.000000e+00
-9.951850e-01 9.801710e-02 0.000000e+00
-9.891770e-01 1.467300e-01 0.000000e+00
-9.807850e-01 -1.950900e-01 0.000000e+00
-4.375000e-01 0.000000e+00 0.000000e+00
-4.062500e-01 0.000000e+00 0.000000e+00
-9.891770e-01 1.467300e-01 0.000000e+00
-9.807850e-01 1.950900e-01 0.000000e+00
-9.891770e-01 -1.467300e-01 0.000000e+00
-5.000000e-01 0.000000e+00 0.000000e+00
-4.687500e-01 0.000000e+00 0.000000e+00
-4.062500e-01 0.000000e+00 0.000000e+00
-3.750000e-01 0.000000e+00 0.000000e+00
-3.125000e-01 0.000000e+00 0.000000e+00
-9.951850e-01 -9.801710e-02 0.000000e+00
-9.891770e-01 -1.467300e-01 0.000000e+00
-5.000000e-01 0.000000e+00 0.000000e+00
-3.750000e-01 0.000000e+00 0.000000e+00
-3.437500e-01 0.000000e+00 0.000000e+00
-5.000000e-01 0.000000e+00 0.000000e+00
-4.687500e-01 0.000000e+00 0.000000e+00
-4.375000e-01 0.000000e+00 0.000000e+00
-3.437500e-01 0.000000e+00 0.000000e+00
-4.062500e-01 0.000000e+00 0.000000e+00
-3.750000e-01 0.000000e+00 0.000000e+00
-5.000000e-01 0.000000e+00 0.000000e+00
-4.687500e-01 0.000000e+00 0.000000e+00
-4.375000e-01 0.000000e+00 0.000000e+00
-4.062500e-01 0.000000e+00 0.000000e+00
-4.062500e-01 0.000000e+00 0.000000e+00
-4.375000e-01 0.000000e+00 0.000000e+00
-4.062500e-01 0.000000e+00 0.000000e+00
-3.437500e-01 0.000000e+00 0.000000e+00
-3.750000e-01 0.000000e+00 0.000000e+00
-2.812500e-01 0.000000e+00 0.000000e+00
-3.125000e-01 0.000000e+00 0.000000e+00
-3.125000e-01 0.000000e+00 0.000000e+00
-3.437500e-01 0.000000e+00 0.000000e+00
-3.437500e-01 0.000000e+00 0.000000e+00
-3.437500e-01 0.000000e+00 0.000000e+00
-3.125000e-01 0.000000e+00 0.000000e+00
-3.125000e-01 0.000000e+00 0.000000e+00
-2.812500e-01 0.000000e+00 0.000000e+00
-3.750000e-01 0.000000e+00 0.000000e+00
-3.125000e-01 0.000000e+00 0.000000e+00
-9.415440e-01 3.368900e-01 0.000000e+00
-9.569400e-01 2.902850e-01 0.000000e+00
-9.807850e-01 -1.950900e-01 0.000000e+00
-9.238800e-01 -3.826830e-01 0.000000e+00
-9.415440e-01 -3.368900e-01 0.000000e+00
-9.238800e-01 -3.826830e-01 0.000000e+00
-9.039890e-01 -4.275550e-01 0.000000e+00
-9.569400e-01 -2.902850e-01 0.000000e+00
-9.415440e-01 -3.368900e-01 0.000000e+00
-9.415440e-01 -3.368900e-01 0.000000e+00
-9.238800e-01 -3.826830e-01 0.000000e+00
-9.415440e-01 -3.368900e-01 0.000000e+00
-2.812500e-01 0.000000e+00 0.000000e+00
-2.812500e-01 0.000000e+00 0.000000e+00
-2.500000e-01 0.000000e+00 0.000000e+00
-1.875000e-01 0.000000e+00 0.000000e+00
-2.812500e-01 0.000000e+00 0.000000e+00
-3.750000e-01 0.000000e+00 0.000000e+00
-5.000000e-01 0.000000e+00 0.000000e+00
-4.375000e-01 0.000000e+00 0.000000e+00
-4.687500e-01 0.000000e+00 0.000000e+00
-5.000000e-01 0.000000e+00 0.000000e+00
-4.375000e-01 0.000000e+00 0.000000e+00
-1.562500e-01 0.000000e+00 0.000000e+00
-9.700310e-01 2.429800e-01 0.000000e+00
-9.569400e-01 2.902850e-01 0.000000e+00
-9.700310e-01 2.429800e-01 0.000000e+00
-9.569400e-01 2.902850e-01 0.000000e+00
-9.415440e-01 3.368900e-01 0.000000e+00
-9.238800e-01 3.826830e-01 0.000000e+00
-9.039890e-01 4.275550e-01 0.000000e+00
-9.238800e-01 3.826830e-01 0.000000e+00
-9.415440e-01 3.368900e-01 0.000000e+00
-9.569400e-01 2.902850e-01 0.000000e+00
-9.700310e-01 2.429800e-01 0.000000e+00
-9.807850e-01 1.950900e-01 0.000000e+00
-9.807850e-01 1.950900e-01 0.000000e+00
-8.819210e-01 4.713970e-01 0.000000e+00
-9.039890e-01 4.275550e-01 0.000000e+00
-9.238800e-01 3.826830e-01 0.000000e+00
-8.819210e-01 4.713970e-01 0.000000e+00
-9.039890e-01 4.275550e-01 0.000000e+00
-8.577290e-01 5.141030e-01 0.000000e+00
-8.819210e-01 4.713970e-01 0.000000e+00
-9.039890e-01 -4.275550e-01 0.000000e+00
-8.819210e-01 -4.713970e-01 0.000000e+00
-9.039890e-01 -4.275550e-01 0.000000e+00
-5.000000e-01 0.000000e+00 0.000000e+00
-1.875000e-01 0.000000e+00 0.000000e+00
6.250000e-02 0.000000e+00 0.000000e+00
3.125000e-02 0.000000e+00 0.000000e+00
-2.812500e-01 0.000000e+00 0.000000e+00
-2.500000e-01 0.000000e+00 0.000000e+00
-1.250000e-01 0.000000e+00 0.000000e+00
1.221250e-15 0.000000e+00 0.000000e+00
-3.125000e-02 0.000000e+00 0.000000e+00
-9.039890e-01 4.275550e-01 0.000000e+00
-8.577290e-01 5.141030e-01 0.000000e+00
-6.715590e-01 7.409510e-01 0.000000e+00
-2.429800e-01 9.700310e-01 0.000000e+00
-2.429800e-01 9.700310e-01 0.000000e+00
-2.902850e-01 9.569400e-01 0.000000e+00
-8.032080e-01 5.956990e-01 0.000000e+00
-8.314700e-01 5.555700e-01 0.000000e+00
-8.577290e-01 5.141030e-01 0.000000e+00
-9.039890e-01 -4.275550e-01 0.000000e+00
-8.819210e-01 -4.713970e-01 0.000000e+00
-8.819210e-01 -4.713970e-01 0.000000e+00
-8.577290e-01 -5.141030e-01 0.000000e+00
-1.875000e-01 0.000000e+00 0.000000e+00
-1.562500e-01 0.000000e+00 0.000000e+00
-1.875000e-01 0.000000e+00 0.000000e+00
-3.125000e-02 0.000000e+00 0.000000e+00
-2.187500e-01 0.000000e+00 0.000000e+00
-6.250000e-02 0.000000e+00 0.000000e+00
-9.375000e-02 0.000000e+00 0.000000e+00
-1.250000e-01 0.000000e+00 0.000000e+00
-1.562500e-01 0.000000e+00 0.000000e+00
-1.562500e-01 0.000000e+00 0.000000e+00
-1.250000e-01 0.000000e+00 0.000000e+00
-6.250000e-02 0.000000e+00 0.000000e+00
-1.875000e-01 0.000000e+00 0.000000e+00
-2.187500e-01 0.000000e+00 0.000000e+00
-2.500000e-01 0.000000e+00 0.000000e+00
-2.187500e-01 0.000000e+00 0.000000e+00
-2.187500e-01 0.000000e+00 0.000000e+00
-1.875000e-01 0.000000e+00 0.000000e+00
-1.875000e-01 0.000000e+00 0.000000e+00
-1.562500e-01 0.000000e+00 0.000000e+00
-1.562500e-01 0.000000e+00 0.000000e+00
-1.250000e-01 0.000000e+00 0.000000e+00
-9.375000e-02 0.000000e+00 0.000000e+00
-6.250000e-02 0.000000e+00 0.000000e+00
-3.125000e-02 0.000000e+00 0.000000e+00
-6.250000e-02 0.000000e+00 0.000000e+00
3.125000e-02 0.000000e+00 0.000000e+00
1.221250e-15 0.000000e+00 0.000000e+00
-3.125000e-02 0.000000e+00 0.000000e+00
-3.125000e-02 0.000000e+00 0.000000e+00
-6.250000e-02 0.000000e+00 0.000000e+00
-3.125000e-02 0.000000e+00 0.000000e+00
1.221250e-15 0.000000e+00 0.000000e+00
1.221250e-15 0.000000e+00 0.000000e+00
3.125000e-02 0.000000e+00 0.000000e+00
-9.375000e-02 0.000000e+00 0.000000e+00
3.125000e-02 0.000000e+00 0.000000e+00
3.125000e-02 0.000000e+00 0.000000e+00
6.250000e-02 0.000000e+00 0.000000e+00
6.250000e-02 0.000000e+00 0.000000e+00
-2.902850e-01 9.569400e-01 0.000000e+00
-3.368900e-01 9.415440e-01 0.000000e+00
-2.902850e-01 9.569400e-01 0.000000e+00
-3.368900e-01 9.415440e-01 0.000000e+00
-3.826830e-01 9.238800e-01 0.000000e+00
-3.368900e-01 9.415440e-01 0.000000e+00
-3.826830e-01 9.238800e-01 0.000000e+00
-4.275550e-01 9.039890e-01 0.000000e+00
-3.368900e-01 9.415440e-01 0.000000e+00
-7.071070e-01 7.071070e-01 0.000000e+00
-6.715590e-01 7.409510e-01 0.000000e+00
-7.071070e-01 7.071070e-01 0.000000e+00
-7.730100e-01 6.343930e-01 0.000000e+00
-8.032080e-01 5.956990e-01 0.000000e+00
-8.577290e-01 5.141030e-01 0.000000e+00
-8.314700e-01 5.555700e-01 0.000000e+00
-7.730100e-01 6.343930e-01 0.000000e+00
-8.032080e-01 5.956990e-01 0.000000e+00
-8.314700e-01 -5.555700e-01 0.000000e+00
-2.187500e-01 0.000000e+00 0.000000e+00
-2.187500e-01 0.000000e+00 0.000000e+00
-2.500000e-01 0.000000e+00 0.000000e+00
-9.375000e-02 0.000000e+00 0.000000e+00
-6.250000e-02 0.000000e+00 0.000000e+00
-9.375000e-02 0.000000e+00 0.000000e+00
1.875000e-01 0.000000e+00 0.000000e+00
2.187500e-01 0.000000e+00 0.000000e+00
6.250000e-02 0.000000e+00 0.000000e+00
3.125000e-02 0.000000e+00 0.000000e+00
9.375000e-02 0.000000e+00 0.000000e+00
1.250000e-01 0.000000e+00 0.000000e+00
1.221250e-15 0.000000e+00 0.000000e+00
1.562500e-01 0.000000e+00 0.000000e+00
1.875000e-01 0.000000e+00 0.000000e+00
2.500000e-01 0.000000e+00 0.000000e+00
2.187500e-01 0.000000e+00 0.000000e+00
1.250000e-01 0.000000e+00 0.000000e+00
9.375000e-02 0.000000e+00 0.000000e+00
1.875000e-01 0.000000e+00 0.000000e+00
1.562500e-01 0.000000e+00 0.000000e+00
1.250000e-01 0.000000e+00 0.000000e+00
1.250000e-01 0.000000e+00 0.000000e+00
1.562500e-01 0.000000e+00 0.000000e+00
1.875000e-01 0.000000e+00 0.000000e+00
1.250000e-01 0.000000e+00 0.000000e+00
1.562500e-01 0.000000e+00 0.000000e+00
1.562500e-01 0.000000e+00 0.000000e+00
1.250000e-01 0.000000e+00 0.000000e+00
1.562500e-01 0.000000e+00 0.000000e+00
3.125000e-01 0.000000e+00 0.000000e+00
1.875000e-01 0.000000e+00 0.000000e+00
2.187500e-01 0.000000e+00 0.000000e+00
1.875000e-01 0.000000e+00 0.000000e+00
3.125000e-01 0.000000e+00 0.000000e+00
3.437500e-01 0.000000e+00 0.000000e+00
2.500000e-01 0.000000e+00 0.000000e+00
3.125000e-01 0.000000e+00 0.000000e+00
2.812500e-01 0.000000e+00 0.000000e+00
2.500000e-01 0.000000e+00 0.000000e+00
2.187500e-01 0.000000e+00 0.000000e+00
2.812500e-01 0.000000e+00 0.000000e+00
2.500000e-01 0.000000e+00 0.000000e+00
2.812500e-01 0.000000e+00 0.000000e+00
2.500000e-01 0.000000e+00 0.000000e+00
2.812500e-01 0.000000e+00 0.000000e+00
2.500000e-01 0.000000e+00 0.000000e+00
3.125000e-01 0.000000e+00 0.000000e+00
2.812500e-01 0.000000e+00 0.000000e+00
2.812500e-01 0.000000e+00 0.000000e+00
3.125000e-01 0.000000e+00 0.000000e+00
3.125000e-01 0.000000e+00 0.000000e+00
3.437500e-01 0.000000e+00 0.000000e+00
4.062500e-01 0.000000e+00 0.000000e+00
4.687500e-01 0.000000e+00 0.000000e+00
4.375000e-01 0.000000e+00 0.000000e+00
4.375000e-01 0.000000e+00 0.000000e+00
3.750000e-01 0.000000e+00 0.000000e+00
4.062500e-01 0.000000e+00 0.000000e+00
3.125000e-01 0.000000e+00 0.000000e+00
4.062500e-01 0.000000e+00 0.000000e+00
3.750000e-01 0.000000e+00 0.000000e+00
-9.801710e-02 9.951850e-01 0.000000e+00
-9.375000e-02 0.000000e+00 0.000000e+00
-1.250000e-01 0.000000e+00 0.000000e+00
-3.826830e-01 9.238800e-01 0.000000e+00
-4.275550e-01 9.039890e-01 0.000000e+00
-4.275550e-01 9.039890e-01 0.000000e+00
-4.713970e-01 8.819210e-01 0.000000e+00
-4.713970e-01 8.819210e-01 0.000000e+00
-2.429800e-01 9.700310e-01 0.000000e+00
-1.950900e-01 9.807850e-01 0.000000e+00
-7.071070e-01 7.071070e-01 0.000000e+00
-7.409510e-01 6.715590e-01 0.000000e+00
-7.730100e-01 6.343930e-01 0.000000e+00
-7.071070e-01 7.071070e-01 0.000000e+00
-6.343930e-01 7.730100e-01 0.000000e+00
-7.409510e-01 6.715590e-01 0.000000e+00
-7.730100e-01 6.343930e-01 0.000000e+00
-7.409510e-01 6.715590e-01 0.000000e+00
-6.715590e-01 7.409510e-01 0.000000e+00
-5.141030e-01 8.577290e-01 0.000000e+00
-6.715590e-01 7.409510e-01 0.000000e+00
-6.343930e-01 7.730100e-01 0.000000e+00
-6.343930e-01 7.730100e-01 0.000000e+00
-5.956990e-01 8.032080e-01 0.000000e+00
-8.314700e-01 5.555700e-01 0.000000e+00
-8.577290e-01 -5.141030e-01 0.000000e+00
-8.032080e-01 -5.956990e-01 0.000000e+00
-8.314700e-01 -5.555700e-01 0.000000e+00
-7.730100e-01 -6.343930e-01 0.000000e+00
-7.409510e-01 -6.715590e-01 0.000000e+00
-8.032080e-01 -5.956990e-01 0.000000e+00
-7.730100e-01 -6.343930e-01 0.000000e+00
-8.032080e-01 -5.956990e-01 0.000000e+00
-7.730100e-01 -6.343930e-01 0.000000e+00
-8.314700e-01 -5.555700e-01 0.000000e+00
-8.577290e-01 -5.141030e-01 0.000000e+00
6.250000e-02 0.000000e+00 0.000000e+00
9.375000e-02 0.000000e+00 0.000000e+00
6.250000e-02 0.000000e+00 0.000000e+00
9.375000e-02 0.000000e+00 0.000000e+00
3.437500e-01 0.000000e+00 0.000000e+00
3.750000e-01 0.000000e+00 0.000000e+00
3.437500e-01 0.000000e+00 0.000000e+00
4.062500e-01 0.000000e+00 0.000000e+00
4.375000e-01 0.000000e+00 0.000000e+00
4.062500e-01 0.000000e+00 0.000000e+00
4.687500e-01 0.000000e+00 0.000000e+00
4.375000e-01 0.000000e+00 0.000000e+00
4.062500e-01 0.000000e+00 0.000000e+00
4.062500e-01 0.000000e+00 0.000000e+00
4.375000e-01 0.000000e+00 0.000000e+00
4.375000e-01 0.000000e+00 0.000000e+00
3.750000e-01 0.000000e+00 0.000000e+00
-1.467300e-01 9.891770e-01 0.000000e+00
-2.429800e-01 9.700310e-01 0.000000e+00
-5.555700e-01 8.314700e-01 0.000000e+00
-5.956990e-01 8.032080e-01 0.000000e+00
-5.956990e-01 8.032080e-01 0.000000e+00
-8.032080e-01 -5.956990e-01 0.000000e+00
-8.314700e-01 -5.555700e-01 0.000000e+00
4.687500e-01 0.000000e+00 0.000000e+00
4.687500e-01 0.000000e+00 0.000000e+00
5.000000e-01 0.000000e+00 0.000000e+00
4.687500e-01 0.000000e+00 0.000000e+00
5.000000e-01 0.000000e+00 0.000000e+00
-9.801710e-02 9.951850e-01 0.000000e+00
-4.906770e-02 9.987950e-01 0.000000e+00
-6.715590e-01 -7.409510e-01 0.000000e+00
-6.343930e-01 -7.730100e-01 0.000000e+00
-7.409510e-01 -6.715590e-01 0.000000e+00
-6.715590e-01 -7.409510e-01 0.000000e+00
-9.801710e-02 9.951850e-01 0.000000e+00
-1.467300e-01 9.891770e-01 0.000000e+00
-1.950900e-01 9.807850e-01 0.000000e+00
-1.467300e-01 9.891770e-01 0.000000e+00
-1.950900e-01 9.807850e-01 0.000000e+00
4.906770e-02 9.987950e-01 0.000000e+00
-9.801710e-02 9.951850e-01 0.000000e+00
-1.467300e-01 9.891770e-01 0.000000e+00
-9.801710e-02 9.951850e-01 0.000000e+00
-4.906770e-02 9.987950e-01 0.000000e+00
6.123230e-17 1.000000e+00 0.000000e+00
9.801710e-02 9.951850e-01 0.000000e+00
-4.906770e-02 9.987950e-01 0.000000e+00
9.801710e-02 9.951850e-01 0.000000e+00
4.906770e-02 9.987950e-01 0.000000e+00
6.123230e-17 1.000000e+00 0.000000e+00
6.123230e-17 1.000000e+00 0.000000e+00
4.906770e-02 9.987950e-01 0.000000e+00
1.467300e-01 9.891770e-01 0.000000e+00
9.801710e-02 9.951850e-01 0.000000e+00
1.950900e-01 9.807850e-01 0.000000e+00
2.429800e-01 9.700310e-01 0.000000e+00
1.950900e-01 9.807850e-01 0.000000e+00
2.429800e-01 9.700310e-01 0.000000e+00
1.950900e-01 9.807850e-01 0.000000e+00
1.467300e-01 9.891770e-01 0.000000e+00
1.467300e-01 9.891770e-01 0.000000e+00
2.429800e-01 9.700310e-01 0.000000e+00
3.826830e-01 9.238800e-01 0.000000e+00
3.368900e-01 9.415440e-01 0.000000e+00
2.902850e-01 9.569400e-01 0.000000e+00
-5.555700e-01 8.314700e-01 0.000000e+00
-5.141030e-01 8.577290e-01 0.000000e+00
-5.141030e-01 8.577290e-01 0.000000e+00
-5.555700e-01 8.314700e-01 0.000000e+00
-5.141030e-01 -8.577290e-01 0.000000e+00
-3.826830e-01 -9.238800e-01 0.000000e+00
-4.275550e-01 -9.039890e-01 0.000000e+00
-7.409510e-01 -6.715590e-01 0.000000e+00
-7.071070e-01 -7.071070e-01 0.000000e+00
-5.555700e-01 -8.314700e-01 0.000000e+00
-6.343930e-01 -7.730100e-01 0.000000e+00
-5.956990e-01 -8.032080e-01 0.000000e+00
-7.071070e-01 -7.071070e-01 0.000000e+00
-6.715590e-01 -7.409510e-01 0.000000e+00
-7.071070e-01 -7.071070e-01 0.000000e+00
-5.555700e-01 -8.314700e-01 0.000000e+00
-5.956990e-01 -8.032080e-01 0.000000e+00
-6.343930e-01 -7.730100e-01 0.000000e+00
-5.956990e-01 -8.032080e-01 0.000000e+00
-1.950900e-01 9.807850e-01 0.000000e+00
2.902850e-01 9.569400e-01 0.000000e+00
2.429800e-01 9.700310e-01 0.000000e+00
2.902850e-01 9.569400e-01 0.000000e+00
-5.141030e-01 8.577290e-01 0.000000e+00
-4.713970e-01 8.819210e-01 0.000000e+00
-4.275550e-01 -9.039890e-01 0.000000e+00
-4.713970e-01 -8.819210e-01 0.000000e+00
-6.343930e-01 -7.730100e-01 0.000000e+00
-6.715590e-01 -7.409510e-01 0.000000e+00
-1.467300e-01 -9.891770e-01 0.000000e+00
3.368900e-01 9.415440e-01 0.000000e+00
-4.713970e-01 -8.819210e-01 0.000000e+00
-4.275550e-01 -9.039890e-01 0.000000e+00
-1.467300e-01 -9.891770e-01 0.000000e+00
-9.801710e-02 -9.951850e-01 0.000000e+00
-9.801710e-02 -9.951850e-01 0.000000e+00
-4.906770e-02 -9.987950e-01 0.000000e+00
-4.906770e-02 -9.987950e-01 0.000000e+00
9.801710e-02 -9.951850e-01 0.000000e+00
-4.906770e-02 -9.987950e-01 0.000000e+00
-1.836970e-16 -1.000000e+00 0.000000e+00
-1.836970e-16 -1.000000e+00 0.000000e+00
4.906770e-02 -9.987950e-01 0.000000e+00
4.906770e-02 -9.987950e-01 0.000000e+00
9.801710e-02 -9.951850e-01 0.000000e+00
-1.836970e-16 -1.000000e+00 0.000000e+00
3.368900e-01 9.415440e-01 0.000000e+00
2.902850e-01 9.569400e-01 0.000000e+00
5.956990e-01 8.032080e-01 0.000000e+00
6.343930e-01 7.730100e-01 0.000000e+00
6.715590e-01 7.409510e-01 0.000000e+00
5.555700e-01 8.314700e-01 0.000000e+00
5.956990e-01 8.032080e-01 0.000000e+00
6.343930e-01 7.730100e-01 0.000000e+00
5.956990e-01 8.032080e-01 0.000000e+00
5.956990e-01 8.032080e-01 0.000000e+00
5.555700e-01 8.314700e-01 0.000000e+00
5.141030e-01 8.577290e-01 0.000000e+00
4.713970e-01 8.819210e-01 0.000000e+00
5.555700e-01 8.314700e-01 0.000000e+00
5.141030e-01 8.577290e-01 0.000000e+00
-3.826830e-01 -9.238800e-01 0.000000e+00
-3.368900e-01 -9.415440e-01 0.000000e+00
-2.902850e-01 -9.569400e-01 0.000000e+00
-1.467300e-01 -9.891770e-01 0.000000e+00
-3.826830e-01 -9.238800e-01 0.000000e+00
-3.368900e-01 -9.415440e-01 0.000000e+00
-2.429800e-01 -9.700310e-01 0.000000e+00
-3.368900e-01 -9.415440e-01 0.000000e+00
-1.467300e-01 -9.891770e-01 0.000000e+00
-2.902850e-01 -9.569400e-01 0.000000e+00
-2.429800e-01 -9.700310e-01 0.000000e+00
-2.429800e-01 -9.700310e-01 0.000000e+00
-1.950900e-01 -9.807850e-01 0.000000e+00
-9.801710e-02 -9.951850e-01 0.000000e+00
-1.950900e-01 -9.807850e-01 0.000000e+00
4.906770e-02 -9.987950e-01 0.000000e+00
4.906770e-02 -9.987950e-01 0.000000e+00
1.467300e-01 -9.891770e-01 0.000000e+00
1.467300e-01 -9.891770e-01 0.000000e+00
1.950900e-01 -9.807850e-01 0.000000e+00
9.801710e-02 -9.951850e-01 0.000000e+00
1.467300e-01 -9.891770e-01 0.000000e+00
1.467300e-01 -9.891770e-01 0.000000e+00
3.826830e-01 9.238800e-01 0.000000e+00
6.343930e-01 7.730100e-01 0.000000e+00
6.715590e-01 7.409510e-01 0.000000e+00
7.071070e-01 7.071070e-01 0.000000e+00
6.715590e-01 7.409510e-01 0.000000e+00
5.555700e-01 8.314700e-01 0.000000e+00
-2.902850e-01 -9.569400e-01 0.000000e+00
-2.429800e-01 -9.700310e-01 0.000000e+00
-1.467300e-01 -9.891770e-01 0.000000e+00
-1.950900e-01 -9.807850e-01 0.000000e+00
2.429800e-01 -9.700310e-01 0.000000e+00
2.902850e-01 -9.569400e-01 0.000000e+00
2.429800e-01 -9.700310e-01 0.000000e+00
1.950900e-01 -9.807850e-01 0.000000e+00
2.429800e-01 -9.700310e-01 0.000000e+00
1.950900e-01 -9.807850e-01 0.000000e+00
4.713970e-01 8.819210e-01 0.000000e+00
4.275550e-01 9.039890e-01 0.000000e+00
4.713970e-01 8.819210e-01 0.000000e+00
4.275550e-01 9.039890e-01 0.000000e+00
4.275550e-01 9.039890e-01 0.000000e+00
3.826830e-01 9.238800e-01 0.000000e+00
4.275550e-01 9.039890e-01 0.000000e+00
8.314700e-01 5.555700e-01 0.000000e+00
7.730100e-01 6.343930e-01 0.000000e+00
6.715590e-01 7.409510e-01 0.000000e+00
7.071070e-01 7.071070e-01 0.000000e+00
7.071070e-01 -7.071070e-01 0.000000e+00
9.415440e-01 -3.368900e-01 0.000000e+00
5.956990e-01 -8.032080e-01 0.000000e+00
4.275550e-01 -9.039890e-01 0.000000e+00
4.713970e-01 -8.819210e-01 0.000000e+00
5.141030e-01 -8.577290e-01 0.000000e+00
4.713970e-01 -8.819210e-01 0.000000e+00
5.141030e-01 -8.577290e-01 0.000000e+00
5.555700e-01 -8.314700e-01 0.000000e+00
5.555700e-01 -8.314700e-01 0.000000e+00
5.956990e-01 -8.032080e-01 0.000000e+00
5.555700e-01 -8.314700e-01 0.000000e+00
5.141030e-01 -8.577290e-01 0.000000e+00
5.956990e-01 -8.032080e-01 0.000000e+00
6.343930e-01 -7.730100e-01 0.000000e+00
6.343930e-01 -7.730100e-01 0.000000e+00
6.715590e-01 -7.409510e-01 0.000000e+00
6.343930e-01 -7.730100e-01 0.000000e+00
6.715590e-01 -7.409510e-01 0.000000e+00
6.715590e-01 -7.409510e-01 0.000000e+00
7.071070e-01 -7.071070e-01 0.000000e+00
5.141030e-01 8.577290e-01 0.000000e+00
7.730100e-01 -6.343930e-01 0.000000e+00
6.715590e-01 -7.409510e-01 0.000000e+00
8.577290e-01 -5.141030e-01 0.000000e+00
8.314700e-01 -5.555700e-01 0.000000e+00
8.314700e-01 -5.555700e-01 0.000000e+00
8.032080e-01 -5.956990e-01 0.000000e+00
8.032080e-01 -5.956990e-01 0.000000e+00
8.314700e-01 -5.555700e-01 0.000000e+00
8.032080e-01 -5.956990e-01 0.000000e+00
8.032080e-01 -5.956990e-01 0.000000e+00
7.730100e-01 -6.343930e-01 0.000000e+00
9.039890e-01 4.275550e-01 0.000000e+00
8.819210e-01 4.713970e-01 0.000000e+00
8.577290e-01 5.141030e-01 0.000000e+00
8.314700e-01 5.555700e-01 0.000000e+00
9.039890e-01 4.275550e-01 0.000000e+00
8.577290e-01 5.141030e-01 0.000000e+00
8.819210e-01 4.713970e-01 0.000000e+00
8.819210e-01 4.713970e-01 0.000000e+00
8.577290e-01 5.141030e-01 0.000000e+00
7.730100e-01 6.343930e-01 0.000000e+00
7.409510e-01 6.715590e-01 0.000000e+00
7.409510e-01 6.715590e-01 0.000000e+00
7.071070e-01 7.071070e-01 0.000000e+00
7.409510e-01 6.715590e-01 0.000000e+00
7.409510e-01 6.715590e-01 0.000000e+00
3.826830e-01 -9.238800e-01 0.000000e+00
4.275550e-01 -9.039890e-01 0.000000e+00
5.141030e-01 -8.577290e-01 0.000000e+00
4.713970e-01 -8.819210e-01 0.000000e+00
2.429800e-01 -9.700310e-01 0.000000e+00
9.039890e-01 -4.275550e-01 0.000000e+00
8.577290e-01 -5.141030e-01 0.000000e+00
8.819210e-01 -4.713970e-01 0.000000e+00
9.039890e-01 -4.275550e-01 0.000000e+00
9.569400e-01 -2.902850e-01 0.000000e+00
9.700310e-01 -2.429800e-01 0.000000e+00
9.951850e-01 -9.801710e-02 0.000000e+00
9.987950e-01 -4.906770e-02 0.000000e+00
9.807850e-01 -1.950900e-01 0.000000e+00
9.807850e-01 -1.950900e-01 0.000000e+00
9.891770e-01 -1.467300e-01 0.000000e+00
9.807850e-01 -1.950900e-01 0.000000e+00
9.891770e-01 -1.467300e-01 0.000000e+00
9.951850e-01 -9.801710e-02 0.000000e+00
9.238800e-01 -3.826830e-01 0.000000e+00
9.891770e-01 -1.467300e-01 0.000000e+00
9.238800e-01 3.826830e-01 0.000000e+00
9.415440e-01 3.368900e-01 0.000000e+00
8.032080e-01 5.956990e-01 0.000000e+00
8.032080e-01 5.956990e-01 0.000000e+00
7.730100e-01 6.343930e-01 0.000000e+00
8.032080e-01 5.956990e-01 0.000000e+00
8.314700e-01 5.555700e-01 0.000000e+00
4.275550e-01 -9.039890e-01 0.000000e+00
3.826830e-01 -9.238800e-01 0.000000e+00
3.368900e-01 -9.415440e-01 0.000000e+00
3.826830e-01 -9.238800e-01 0.000000e+00
8.577290e-01 -5.141030e-01 0.000000e+00
8.577290e-01 -5.141030e-01 0.000000e+00
8.819210e-01 -4.713970e-01 0.000000e+00
8.819210e-01 -4.713970e-01 0.000000e+00
8.819210e-01 -4.713970e-01 0.000000e+00
9.039890e-01 -4.275550e-01 0.000000e+00
9.238800e-01 -3.826830e-01 0.000000e+00
9.569400e-01 -2.902850e-01 0.000000e+00
9.415440e-01 -3.368900e-01 0.000000e+00
9.569400e-01 -2.902850e-01 0.000000e+00
9.238800e-01 -3.826830e-01 0.000000e+00
9.415440e-01 -3.368900e-01 0.000000e+00
9.891770e-01 -1.467300e-01 0.000000e+00
9.951850e-01 -9.801710e-02 0.000000e+00
9.987950e-01 -4.906770e-02 0.000000e+00
9.987950e-01 -4.906770e-02 0.000000e+00
9.987950e-01 -4.906770e-02 0.000000e+00
1.000000e+00 -2.449290e-16 0.000000e+00
9.807850e-01 1.950900e-01 0.000000e+00
9.891770e-01 1.467300e-01 0.000000e+00
9.807850e-01 1.950900e-01 0.000000e+00
8.819210e-01 4.713970e-01 0.000000e+00
9.238800e-01 3.826830e-01 0.000000e+00
9.238800e-01 3.826830e-01 0.000000e+00
9.039890e-01 4.275550e-01 0.000000e+00
9.700310e-01 2.429800e-01 0.000000e+00
9.569400e-01 2.902850e-01 0.000000e+00
9.700310e-01 2.429800e-01 0.000000e+00
9.569400e-01 2.902850e-01 0.000000e+00
2.902850e-01 -9.569400e-01 0.000000e+00
2.902850e-01 -9.569400e-01 0.000000e+00
3.368900e-01 -9.415440e-01 0.000000e+00
3.368900e-01 -9.415440e-01 0.000000e+00
1.000000e+00 -2.449290e-16 0.000000e+00
1.000000e+00 -2.449290e-16 0.000000e+00
9.987950e-01 4.906770e-02 0.000000e+00
9.569400e-01 2.902850e-01 0.000000e+00
9.415440e-01 3.368900e-01 0.000000e+00
9.415440e-01 3.368900e-01 0.000000e+00
9.807850e-01 1.950900e-01 0.000000e+00
9.700310e-01 2.429800e-01 0.000000e+00
9.951850e-01 9.801710e-02 0.000000e+00
9.951850e-01 9.801710e-02 0.000000e+00
9.987950e-01 4.906770e-02 0.000000e+00
9.987950e-01 4.906770e-02 0.000000e+00
3.368900e-01 -9.415440e-01 0.000000e+00
9.891770e-01 1.467300e-01 0.000000e+00
9.951850e-01 9.801710e-02 0.000000e+00
9.891770e-01 1.467300e-01 0.000000e+00
9.891770e-01 1.467300e-01 0.000000e+00
5.000000e-01 0.000000e+00 0.000000e+00
-9.700310e-01 -2.429800e-01 0.000000e+00
-9.569400e-01 -2.902850e-01 0.000000e+00
-9.700310e-01 -2.429800e-01 0.000000e+00
-9.569400e-01 -2.902850e-01 0.000000e+00
-9.807850e-01 -1.950900e-01 0.000000e+00
-9.700310e-01 -2.429800e-01 0.000000e+00
-4.713970e-01 -8.819210e-01 0.000000e+00
-5.555700e-01 -8.314700e-01 0.000000e+00
-5.141030e-01 -8.577290e-01 0.000000e+00
-4.713970e-01 -8.819210e-01 0.000000e+00
-5.141030e-01 -8.577290e-01 0.000000e+00
7.409510e-01 -6.715590e-01 0.000000e+00
7.730100e-01 -6.343930e-01 0.000000e+00
7.409510e-01 -6.715590e-01 0.000000e+00
7.071070e-01 -7.071070e-01 0.000000e+00
7.409510e-01 -6.715590e-01 0.000000e+00
9.700310e-01 -2.429800e-01 0.000000e+00
9.700310e-01 -2.429800e-01 0.000000e+00
9.807850e-01 -1.950900e-01 0.000000e+00
9.569400e-01 -2.902850e-01 0.000000e+00
</DataArray>
</Points>
<PointData>
<DataArray type="Float32" Name="V1" format="ascii">
7.000000e+00
7.000000e+00
1.800000e+01
1.800000e+01
2.000000e+01
2.300000e+01
2.300000e+01
2.800000e+01
3.400000e+01
3.400000e+01
3.600000e+01
3.600000e+01
3.700000e+01
3.800000e+01
3.800000e+01
4.100000e+01
4.200000e+01
4.200000e+01
4.400000e+01
5.300000e+01
5.700000e+01
5.700000e+01
7.000000e+01
1.990000e+02
2.400000e+02
2.400000e+02
2.760000e+02
2.760000e+02
2.780000e+02
2.940000e+02
2.940000e+02
2.950000e+02
2.950000e+02
2.990000e+02
3.090000e+02
3.090000e+02
3.190000e+02
3.240000e+02
3.240000e+02
3.250000e+02
3.260000e+02
3.260000e+02
3.290000e+02
3.330000e+02
3.330000e+02
3.360000e+02
3.370000e+02
3.370000e+02
3.430000e+02
3.450000e+02
3.500000e+02
3.500000e+02
3.530000e+02
3.530000e+02
3.570000e+02
3.570000e+02
3.590000e+02
3.590000e+02
3.600000e+02
3.610000e+02
3.610000e+02
3.630000e+02
3.630000e+02
3.670000e+02
3.720000e+02
4.490000e+02
4.560000e+02
4.620000e+02
4.760000e+02
4.760000e+02
4.800000e+02
4.800000e+02
4.810000e+02
4.810000e+02
4.820000e+02
4.840000e+02
4.870000e+02
5.120000e+02
5.130000e+02
5.130000e+02
5.140000e+02
5.160000e+02
5.190000e+02
5.240000e+02
5.250000e+02
5.280000e+02
5.280000e+02
5.290000e+02
5.370000e+02
5.470000e+02
5.500000e+02
5.500000e+02
5.510000e+02
5.510000e+02
5.540000e+02
5.540000e+02
5.550000e+02
5.550000e+02
5.560000e+02
5.570000e+02
5.570000e+02
5.580000e+02
5.690000e+02
5.690000e+02
5.720000e+02
5.740000e+02
5.920000e+02
5.960000e+02
5.960000e+02
7.010000e+02
7.030000e+02
7.030000e+02
7.860000e+02
8.070000e+02
8.120000e+02
8.120000e+02
8.460000e+02
8.460000e+02
8.720000e+02
8.800000e+02
8.800000e+02
8.930000e+02
8.960000e+02
1.000000e+03
1.015000e+03
1.016000e+03
1.016000e+03
1.023000e+03
1.023000e+03
1.034000e+03
1.081000e+03
1.082000e+03
1.084000e+03
1.084000e+03
1.122000e+03
1.122000e+03
1.128000e+03
1.129000e+03
1.130000e+03
1.132000e+03
1.132000e+03
1.134000e+03
1.134000e+03
1.135000e+03
1.135000e+03
1.136000e+03
1.139000e+03
1.139000e+03
1.141000e+03
1.141000e+03
1.143000e+03
1.143000e+03
1.144000e+03
1.144000e+03
1.145000e+03
1.151000e+03
1.151000e+03
1.154000e+03
1.154000e+03
1.169000e+03
1.170000e+03
1.170000e+03
1.171000e+03
1.172000e+03
1.172000e+03
1.173000e+03
1.173000e+03
1.174000e+03
1.174000e+03
1.177000e+03
1.186000e+03
1.212000e+03
1.216000e+03
1.230000e+03
1.278000e+03
1.278000e+03
1.279000e+03
1.281000e+03
1.283000e+03
1.283000e+03
1.284000e+03
1.284000e+03
1.287000e+03
1.301000e+03
1.301000e+03
1.321000e+03
1.322000e+03
1.322000e+03
1.323000e+03
1.323000e+03
1.326000e+03
1.327000e+03
1.333000e+03
1.351000e+03
1.353000e+03
1.353000e+03
1.354000e+03
1.355000e+03
1.355000e+03
1.364000e+03
1.364000e+03
1.370000e+03
1.370000e+03
1.373000e+03
1.373000e+03
1.375000e+03
1.381000e+03
1.381000e+03
1.382000e+03
1.382000e+03
1.387000e+03
1.387000e+03
1.401000e+03
1.409000e+03
1.409000e+03
1.416000e+03
1.417000e+03
1.417000e+03
1.419000e+03
1.419000e+03
1.436000e+03
1.437000e+03
1.439000e+03
1.440000e+03
1.441000e+03
1.441000e+03
1.443000e+03
1.477000e+03
1.477000e+03
1.502000e+03
1.534000e+03
1.534000e+03
1.535000e+03
1.535000e+03
1.538000e+03
1.539000e+03
1.539000e+03
1.540000e+03
1.540000e+03
1.541000e+03
1.542000e+03
1.543000e+03
1.544000e+03
1.544000e+03
1.545000e+03
1.545000e+03
1.554000e+03
1.563000e+03
1.563000e+03
1.564000e+03
1.565000e+03
1.565000e+03
1.586000e+03
1.588000e+03
1.588000e+03
1.635000e+03
1.637000e+03
1.637000e+03
1.946000e+03
1.947000e+03
1.948000e+03
1.948000e+03
1.949000e+03
1.959000e+03
1.959000e+03
1.965000e+03
1.965000e+03
1.966000e+03
1.969000e+03
1.973000e+03
1.975000e+03
1.975000e+03
1.976000e+03
1.978000e+03
1.982000e+03
1.983000e+03
1.983000e+03
1.987000e+03
1.987000e+03
1.988000e+03
2.058000e+03
2.062000e+03
2.066000e+03
2.068000e+03
2.068000e+03
2.070000e+03
2.070000e+03
2.083000e+03
2.085000e+03
2.086000e+03
2.086000e+03
2.106000e+03
2.106000e+03
2.107000e+03
2.107000e+03
2.134000e+03
2.135000e+03
2.135000e+03
2.137000e+03
2.138000e+03
2.138000e+03
2.139000e+03
2.139000e+03
2.140000e+03
2.141000e+03
2.141000e+03
2.144000e+03
2.151000e+03
2.373000e+03
2.376000e+03
2.380000e+03
2.380000e+03
2.382000e+03
2.407000e+03
2.407000e+03
2.418000e+03
2.419000e+03
2.419000e+03
2.420000e+03
2.422000e+03
2.543000e+03
2.543000e+03
2.611000e+03
2.611000e+03
2.620000e+03
2.628000e+03
2.656000e+03
2.656000e+03
2.658000e+03
2.658000e+03
2.659000e+03
2.672000e+03
2.675000e+03
2.677000e+03
2.680000e+03
2.687000e+03
2.687000e+03
2.689000e+03
2.690000e+03
2.693000e+03
2.693000e+03
2.695000e+03
2.696000e+03
2.696000e+03
2.706000e+03
2.706000e+03
2.714000e+03
2.718000e+03
2.718000e+03
2.720000e+03
2.721000e+03
2.721000e+03
2.728000e+03
2.730000e+03
2.749000e+03
2.749000e+03
2.753000e+03
2.757000e+03
2.759000e+03
2.761000e+03
2.761000e+03
2.847000e+03
2.876000e+03
2.876000e+03
2.877000e+03
2.877000e+03
2.881000e+03
2.888000e+03
2.888000e+03
2.889000e+03
2.890000e+03
2.890000e+03
2.893000e+03
2.893000e+03
2.894000e+03
2.895000e+03
2.974000e+03
2.977000e+03
2.977000e+03
2.979000e+03
2.985000e+03
2.985000e+03
3.064000e+03
3.064000e+03
3.069000e+03
3.070000e+03
3.127000e+03
3.212000e+03
3.407000e+03
3.408000e+03
3.437000e+03
3.437000e+03
3.438000e+03
3.438000e+03
3.444000e+03
3.446000e+03
3.452000e+03
3.452000e+03
3.456000e+03
3.456000e+03
3.457000e+03
3.457000e+03
3.458000e+03
3.499000e+03
3.499000e+03
3.530000e+03
3.547000e+03
3.551000e+03
3.558000e+03
3.560000e+03
3.561000e+03
3.561000e+03
3.570000e+03
3.570000e+03
3.572000e+03
3.572000e+03
3.577000e+03
3.577000e+03
3.644000e+03
3.645000e+03
3.645000e+03
3.650000e+03
3.651000e+03
3.651000e+03
3.652000e+03
3.655000e+03
3.663000e+03
3.667000e+03
3.667000e+03
3.669000e+03
3.669000e+03
3.675000e+03
3.678000e+03
3.683000e+03
3.684000e+03
3.686000e+03
3.690000e+03
3.690000e+03
3.693000e+03
3.693000e+03
3.701000e+03
3.716000e+03
3.763000e+03
3.763000e+03
3.769000e+03
3.769000e+03
3.771000e+03
3.781000e+03
3.784000e+03
3.795000e+03
3.795000e+03
3.804000e+03
3.804000e+03
3.805000e+03
3.805000e+03
3.827000e+03
3.828000e+03
3.833000e+03
3.835000e+03
3.835000e+03
3.839000e+03
3.840000e+03
3.841000e+03
3.841000e+03
3.873000e+03
3.887000e+03
3.891000e+03
3.892000e+03
3.920000e+03
3.928000e+03
4.010000e+03
4.016000e+03
4.016000e+03
4.021000e+03
4.023000e+03
4.026000e+03
4.026000e+03
4.027000e+03
4.027000e+03
4.032000e+03
4.034000e+03
4.035000e+03
4.035000e+03
4.036000e+03
4.040000e+03
4.041000e+03
4.041000e+03
4.042000e+03
4.042000e+03
4.103000e+03
4.110000e+03
4.144000e+03
4.147000e+03
4.147000e+03
4.153000e+03
4.162000e+03
4.163000e+03
4.163000e+03
4.164000e+03
4.171000e+03
4.171000e+03
4.219000e+03
4.219000e+03
4.221000e+03
4.221000e+03
4.225000e+03
4.233000e+03
4.233000e+03
4.236000e+03
4.238000e+03
4.259000e+03
4.259000e+03
4.260000e+03
4.262000e+03
4.262000e+03
4.265000e+03
4.293000e+03
4.293000e+03
4.297000e+03
4.297000e+03
4.339000e+03
4.356000e+03
4.357000e+03
4.360000e+03
4.360000e+03
4.365000e+03
4.365000e+03
4.383000e+03
4.384000e+03
4.390000e+03
4.391000e+03
4.391000e+03
4.397000e+03
4.398000e+03
4.398000e+03
4.399000e+03
4.401000e+03
4.404000e+03
4.404000e+03
4.426000e+03
4.427000e+03
4.427000e+03
4.429000e+03
4.429000e+03
4.452000e+03
4.455000e+03
4.458000e+03
4.458000e+03
4.473000e+03
4.475000e+03
4.475000e+03
4.476000e+03
4.477000e+03
4.478000e+03
4.478000e+03
4.479000e+03
4.479000e+03
4.483000e+03
4.484000e+03
4.484000e+03
4.504000e+03
4.505000e+03
4.505000e+03
4.507000e+03
4.508000e+03
4.508000e+03
4.509000e+03
4.509000e+03
4.510000e+03
4.511000e+03
4.515000e+03
4.516000e+03
4.516000e+03
4.519000e+03
4.528000e+03
4.534000e+03
4.534000e+03
4.552000e+03
4.553000e+03
4.553000e+03
4.554000e+03
4.567000e+03
4.568000e+03
4.568000e+03
4.571000e+03
4.571000e+03
4.572000e+03
4.578000e+03
4.578000e+03
4.586000e+03
4.587000e+03
4.587000e+03
4.590000e+03
4.604000e+03
4.614000e+03
4.614000e+03
4.616000e+03
4.640000e+03
4.710000e+03
4.728000e+03
4.728000e+03
4.729000e+03
4.730000e+03
4.732000e+03
4.732000e+03
4.798000e+03
4.800000e+03
4.800000e+03
4.801000e+03
4.801000e+03
4.857000e+03
4.858000e+03
4.858000e+03
4.860000e+03
4.860000e+03
4.870000e+03
4.871000e+03
4.871000e+03
4.873000e+03
</DataArray>
<DataArray type="Float32" Name="V2" format="ascii">
1.000000e+00
1.000000e+00
4.000000e+00
4.000000e+00
1.000000e+00
4.000000e+00
4.000000e+00
1.000000e+00
1.000000e+00
1.000000e+00
2.000000e+00
2.000000e+00
2.000000e+00
2.000000e+00
2.000000e+00
2.000000e+00
2.000000e+00
2.000000e+00
2.000000e+00
1.000000e+00
1.000000e+00
1.000000e+00
1.000000e+00
2.000000e+00
4.000000e+00
4.000000e+00
1.000000e+00
1.000000e+00
2.000000e+00
4.000000e+00
4.000000e+00
4.000000e+00
4.000000e+00
4.000000e+00
2.000000e+00
2.000000e+00
4.000000e+00
4.000000e+00
4.000000e+00
4.000000e+00
4.000000e+00
4.000000e+00
4.000000e+00
4.000000e+00
4.000000e+00
4.000000e+00
4.000000e+00
4.000000e+00
4.000000e+00
4.000000e+00
4.000000e+00
4.000000e+00
4.000000e+00
4.000000e+00
4.000000e+00
4.000000e+00
4.000000e+00
4.000000e+00
4.000000e+00
4.000000e+00
4.000000e+00
4.000000e+00
4.000000e+00
4.000000e+00
4.000000e+00
1.000000e+00
1.000000e+00
2.000000e+00
2.000000e+00
2.000000e+00
2.000000e+00
2.000000e+00
2.000000e+00
2.000000e+00
2.000000e+00
2.000000e+00
2.000000e+00
4.000000e+00
4.000000e+00
4.000000e+00
4.000000e+00
4.000000e+00
4.000000e+00
4.000000e+00
4.000000e+00
4.000000e+00
4.000000e+00
4.000000e+00
4.000000e+00
1.000000e+00
1.000000e+00
1.000000e+00
1.000000e+00
1.000000e+00
1.000000e+00
1.000000e+00
1.000000e+00
1.000000e+00
1.000000e+00
1.000000e+00
1.000000e+00
1.000000e+00
1.000000e+00
1.000000e+00
1.000000e+00
1.000000e+00
1.000000e+00
1.000000e+00
1.000000e+00
2.000000e+00
2.000000e+00
2.000000e+00
4.000000e+00
4.000000e+00
4.000000e+00
4.000000e+00
4.000000e+00
4.000000e+00
4.000000e+00
4.000000e+00
4.000000e+00
1.000000e+00
1.000000e+00
1.000000e+00
1.000000e+00
1.000000e+00
1.000000e+00
1.000000e+00
1.000000e+00
1.000000e+00
2.000000e+00
2.000000e+00
2.000000e+00
2.000000e+00
4.000000e+00
4.000000e+00
4.000000e+00
4.000000e+00
4.000000e+00
4.000000e+00
4.000000e+00
4.000000e+00
4.000000e+00
4.000000e+00
4.000000e+00
4.000000e+00
4.000000e+00
4.000000e+00
4.000000e+00
4.000000e+00
4.000000e+00
4.000000e+00
4.000000e+00
4.000000e+00
4.000000e+00
4.000000e+00
4.000000e+00
4.000000e+00
4.000000e+00
4.000000e+00
4.000000e+00
4.000000e+00
4.000000e+00
4.000000e+00
4.000000e+00
4.000000e+00
4.000000e+00
4.000000e+00
4.000000e+00
4.000000e+00
4.000000e+00
4.000000e+00
4.000000e+00
4.000000e+00
1.000000e+00
1.000000e+00
1.000000e+00
1.000000e+00
1.000000e+00
1.000000e+00
1.000000e+00
1.000000e+00
1.000000e+00
1.000000e+00
1.000000e+00
1.000000e+00
1.000000e+00
1.000000e+00
1.000000e+00
1.000000e+00
1.000000e+00
1.000000e+00
2.000000e+00
4.000000e+00
4.000000e+00
4.000000e+00
4.000000e+00
4.000000e+00
4.000000e+00
4.000000e+00
4.000000e+00
4.000000e+00
4.000000e+00
4.000000e+00
4.000000e+00
4.000000e+00
4.000000e+00
4.000000e+00
4.000000e+00
4.000000e+00
4.000000e+00
4.000000e+00
4.000000e+00
4.000000e+00
4.000000e+00
4.000000e+00
4.000000e+00
4.000000e+00
4.000000e+00
4.000000e+00
4.000000e+00
4.000000e+00
4.000000e+00
4.000000e+00
4.000000e+00
4.000000e+00
4.000000e+00
4.000000e+00
4.000000e+00
4.000000e+00
4.000000e+00
4.000000e+00
4.000000e+00
4.000000e+00
4.000000e+00
4.000000e+00
4.000000e+00
4.000000e+00
4.000000e+00
4.000000e+00
4.000000e+00
4.000000e+00
4.000000e+00
4.000000e+00
4.000000e+00
4.000000e+00
4.000000e+00
4.000000e+00
4.000000e+00
4.000000e+00
4.000000e+00
4.000000e+00
4.000000e+00
4.000000e+00
4.000000e+00
1.000000e+00
4.000000e+00
4.000000e+00
1.000000e+00
1.000000e+00
1.000000e+00
1.000000e+00
1.000000e+00
1.000000e+00
1.000000e+00
1.000000e+00
1.000000e+00
1.000000e+00
1.000000e+00
1.000000e+00
1.000000e+00
1.000000e+00
1.000000e+00
1.000000e+00
1.000000e+00
1.000000e+00
1.000000e+00
1.000000e+00
1.000000e+00
1.000000e+00
2.000000e+00
2.000000e+00
2.000000e+00
2.000000e+00
2.000000e+00
2.000000e+00
2.000000e+00
2.000000e+00
2.000000e+00
2.000000e+00
2.000000e+00
4.000000e+00
4.000000e+00
4.000000e+00
4.000000e+00
4.000000e+00
4.000000e+00
4.000000e+00
4.000000e+00
4.000000e+00
4.000000e+00
4.000000e+00
4.000000e+00
4.000000e+00
4.000000e+00
4.000000e+00
4.000000e+00
4.000000e+00
1.000000e+00
1.000000e+00
1.000000e+00
1.000000e+00
1.000000e+00
2.000000e+00
2.000000e+00
4.000000e+00
4.000000e+00
4.000000e+00
4.000000e+00
4.000000e+00
1.000000e+00
1.000000e+00
2.000000e+00
2.000000e+00
2.000000e+00
2.000000e+00
1.000000e+00
1.000000e+00
1.000000e+00
1.000000e+00
1.000000e+00
0.000000e+00
1.000000e+00
1.000000e+00
1.000000e+00
1.000000e+00
1.000000e+00
0.000000e+00
1.000000e+00
0.000000e+00
0.000000e+00
1.000000e+00
0.000000e+00
0.000000e+00
0.000000e+00
0.000000e+00
0.000000e+00
0.000000e+00
0.000000e+00
0.000000e+00
0.000000e+00
0.000000e+00
0.000000e+00
0.000000e+00
0.000000e+00
0.000000e+00
0.000000e+00
1.000000e+00
1.000000e+00
1.000000e+00
1.000000e+00
2.000000e+00
2.000000e+00
2.000000e+00
2.000000e+00
2.000000e+00
2.000000e+00
2.000000e+00
2.000000e+00
2.000000e+00
2.000000e+00
2.000000e+00
2.000000e+00
2.000000e+00
2.000000e+00
2.000000e+00
1.000000e+00
0.000000e+00
0.000000e+00
0.000000e+00
1.000000e+00
1.000000e+00
2.000000e+00
2.000000e+00
2.000000e+00
2.000000e+00
2.000000e+00
0.000000e+00
2.000000e+00
2.000000e+00
2.000000e+00
2.000000e+00
2.000000e+00
2.000000e+00
2.000000e+00
3.000000e+00
2.000000e+00
2.000000e+00
3.000000e+00
3.000000e+00
3.000000e+00
3.000000e+00
3.000000e+00
0.000000e+00
0.000000e+00
0.000000e+00
0.000000e+00
0.000000e+00
0.000000e+00
0.000000e+00
0.000000e+00
0.000000e+00
0.000000e+00
0.000000e+00
0.000000e+00
0.000000e+00
0.000000e+00
0.000000e+00
2.000000e+00
2.000000e+00
2.000000e+00
2.000000e+00
2.000000e+00
2.000000e+00
2.000000e+00
2.000000e+00
2.000000e+00
2.000000e+00
2.000000e+00
2.000000e+00
2.000000e+00
2.000000e+00
2.000000e+00
3.000000e+00
3.000000e+00
3.000000e+00
3.000000e+00
3.000000e+00
3.000000e+00
3.000000e+00
3.000000e+00
0.000000e+00
0.000000e+00
0.000000e+00
0.000000e+00
0.000000e+00
0.000000e+00
2.000000e+00
2.000000e+00
2.000000e+00
2.000000e+00
3.000000e+00
3.000000e+00
3.000000e+00
3.000000e+00
3.000000e+00
3.000000e+00
0.000000e+00
0.000000e+00
0.000000e+00
0.000000e+00
0.000000e+00
0.000000e+00
0.000000e+00
0.000000e+00
0.000000e+00
0.000000e+00
0.000000e+00
3.000000e+00
3.000000e+00
3.000000e+00
3.000000e+00
3.000000e+00
3.000000e+00
3.000000e+00
3.000000e+00
3.000000e+00
3.000000e+00
3.000000e+00
3.000000e+00
3.000000e+00
3.000000e+00
3.000000e+00
3.000000e+00
3.000000e+00
3.000000e+00
3.000000e+00
3.000000e+00
3.000000e+00
0.000000e+00
3.000000e+00
3.000000e+00
3.000000e+00
3.000000e+00
3.000000e+00
3.000000e+00
3.000000e+00
3.000000e+00
3.000000e+00
3.000000e+00
3.000000e+00
0.000000e+00
0.000000e+00
0.000000e+00
0.000000e+00
0.000000e+00
0.000000e+00
0.000000e+00
0.000000e+00
0.000000e+00
0.000000e+00
0.000000e+00
0.000000e+00
0.000000e+00
0.000000e+00
0.000000e+00
3.000000e+00
3.000000e+00
3.000000e+00
3.000000e+00
3.000000e+00
3.000000e+00
3.000000e+00
3.000000e+00
3.000000e+00
3.000000e+00
3.000000e+00
3.000000e+00
3.000000e+00
3.000000e+00
3.000000e+00
3.000000e+00
3.000000e+00
3.000000e+00
3.000000e+00
3.000000e+00
3.000000e+00
0.000000e+00
0.000000e+00
0.000000e+00
0.000000e+00
0.000000e+00
0.000000e+00
0.000000e+00
3.000000e+00
3.000000e+00
3.000000e+00
3.000000e+00
3.000000e+00
3.000000e+00
3.000000e+00
3.000000e+00
3.000000e+00
3.000000e+00
3.000000e+00
3.000000e+00
3.000000e+00
3.000000e+00
3.000000e+00
3.000000e+00
3.000000e+00
3.000000e+00
3.000000e+00
3.000000e+00
3.000000e+00
3.000000e+00
0.000000e+00
0.000000e+00
0.000000e+00
0.000000e+00
0.000000e+00
0.000000e+00
0.000000e+00
0.000000e+00
0.000000e+00
0.000000e+00
0.000000e+00
3.000000e+00
3.000000e+00
3.000000e+00
3.000000e+00
3.000000e+00
0.000000e+00
0.000000e+00
0.000000e+00
0.000000e+00
0.000000e+00
0.000000e+00
0.000000e+00
0.000000e+00
0.000000e+00
0.000000e+00
0.000000e+00
3.000000e+00
0.000000e+00
0.000000e+00
0.000000e+00
0.000000e+00
4.000000e+00
2.000000e+00
2.000000e+00
2.000000e+00
2.000000e+00
2.000000e+00
2.000000e+00
2.000000e+00
2.000000e+00
2.000000e+00
2.000000e+00
2.000000e+00
3.000000e+00
3.000000e+00
3.000000e+00
3.000000e+00
3.000000e+00
3.000000e+00
3.000000e+00
3.000000e+00
3.000000e+00
</DataArray>
</PointData>
<Verts>
</Verts>
<Lines>
<DataArray type="Int32" Name="connectivity" format="ascii">
0 1 2 3 4 5 6 7 8 9 10 11 12 13 14 15 16 17 18 19 20 21 22 23 24 25 26 27 28 29 30 31 32 33 34 35 36 37 38 39 40 41 42 43 44 45 46 47 48 49 50 51 52 53 54 55 56 57 58 59 60 61 62 63 64 65 66 67 68 69 70 71 72 73 74 75 76 77 78 79 80 81 82 83 84 85 86 87 88 89 90 91 92 93 94 95 96 97 98 99 100 101 102 103 104 105 106 107 108 109 110 111 112 113 114 115 116 117 118 119 120 121 122 123 124 125 126 127 128 129 130 131 132 133 134 135 136 137 138 139 140 141 142 143 144 145 146 147 148 149 150 151 152 153 154 155 156 157 158 159 160 161 162 163 164 165 166 167 168 169 170 171 172 173 174 175 176 177 178 179 180 181 182 183 184 185 186 187 188 189 190 191 192 193 194 195 196 197 198 199 200 201 202 203 204 205 206 207 208 209 210 211 212 213 214 215 216 217 218 219 220 221 222 223 224 225 226 227 228 229 230 231 232 233 234 235 236 237 238 239 240 241 242 243 244 245 246 247 248 249 250 251 252 253 254 255 256 257 258 259 260 261 262 263 264 265 266 267 268 269 270 271 272 273 274 275 276 277 278 279 280 281 282 283 284 285 286 287 288 289 290 291 292 293 294 295 296 297 298 299 300 301 302 303 304 305 306 307 308 309 310 311 312 313 314 315 316 317 318 319 320 321 322 323 324 325 326 327 328 329 330 331 332 333 334 335 336 337 338 339 340 341 342 343 344 345 346 347 348 349 350 351 352 353 354 355 356 357 358 359 360 361 362 363 364 365 366 367 368 369 370 371 372 373 374 375 376 377 378 379 380 381 382 383 384 385 386 387 388 389 390 391 392 393 394 395 396 397 398 399 400 401 402 403 404 405 406 407 408 409 410 411 412 413 414 415 416 417 418 419 420 421 422 423 424 425 426 427 428 429 430 431 432 433 434 435 436 437 438 439 440 441 442 443 444 445 446 447 448 449 450 451 452 453 454 455 456 457 458 459 460 461 462 463 464 465 466 467 468 469 470 471 472 473 474 475 476 477 478 479 480 481 482 483 484 485 486 487 488 489 490 491 492 493 494 495 496 497 498 499 500 501 502 503 504 505 506 507 508 509 510 511 512 513 514 515 516 517 518 519 520 521 522 523 524 525 526 527 528 529 530 531 532 533 534 535 536 537 538 539 540 541 542 543 544 545 546 547 548 549 550 551 552 553 554 555 556 557 558 559 560 561 562 563 564 565 566 567 568 569 570 571 572 573 574 575 576 577 578 579 580 581 582 583 584 585 586 587 588 589 590 591 592 593 594 595 596 597 598 599 600 601 602 603 604 605 606 607 608 609 610 611 612 613 614 615 616 617 618 </DataArray>
<DataArray type="Int32" Name="offsets" format="ascii">
619 </DataArray>
</Lines>
<Strips>
</Strips>
<Polys>
</Polys>
</Piece></PolyData>
</VTKFile>
